<svg width="14" height="18" viewBox="0 0 14 18" fill="none" xmlns="http://www.w3.org/2000/svg">
<path fill-rule="evenodd" clip-rule="evenodd" d="M13.5836 0.316406C13.3727 0.105469 13.1031 0 12.775 0H1.52502C1.1969 0 0.927368 0.105469 0.716431 0.316406C0.505493 0.527344 0.400024 0.796875 0.400024 1.125V16.875C0.400024 17.1797 0.505493 17.4375 0.716431 17.6484C0.927368 17.8828 1.1969 18 1.52502 18H12.775C13.1031 18 13.3727 17.8828 13.5836 17.6484C13.7946 17.4375 13.9 17.1797 13.9 16.875V1.125C13.9 0.796875 13.7946 0.527344 13.5836 0.316406ZM1.52502 1.125H12.775V16.875H1.52502V1.125ZM9.76041 10.8969L9.7599 10.8969C9.54507 10.8978 9.32995 10.8987 9.11483 10.8987C8.46984 10.8987 7.8328 10.8987 7.17985 10.8908C6.92504 10.8908 6.74189 11.017 6.67022 11.2221C6.54282 11.5772 6.78967 11.9007 7.20374 11.9007C7.69183 11.9059 8.17639 11.9042 8.66213 11.9024C8.90543 11.9016 9.14904 11.9007 9.39353 11.9007H10.9861C11.2011 11.9086 11.3763 11.8376 11.4878 11.6482C11.6868 11.3089 11.4559 10.9065 11.0418 10.8987C10.6175 10.8934 10.1897 10.8951 9.76064 10.8969H9.76063H9.76062H9.76061H9.7606H9.76059H9.76041ZM9.12265 12.7917H11.0497C11.3045 12.7917 11.4797 12.9416 11.5434 13.1704C11.5991 13.3756 11.5115 13.6123 11.3204 13.7148C11.2328 13.7622 11.1213 13.7937 11.0178 13.7937C9.73579 13.8016 8.46173 13.8016 7.1797 13.7937C6.85323 13.7937 6.63027 13.5728 6.63823 13.2888C6.63823 13.0047 6.86915 12.7917 7.18767 12.7917C7.62297 12.7864 8.0512 12.7882 8.47942 12.7899C8.69354 12.7908 8.90765 12.7917 9.12265 12.7917ZM11.0574 9.00531H9.14628C8.53314 9.00531 7.91203 9.00531 7.29889 8.99742C6.94853 8.99742 6.72557 9.19467 6.7176 9.4866C6.70964 9.77853 6.94057 9.99945 7.29093 9.99945C8.11376 10.0047 8.93659 10.003 9.75942 10.0012C10.1708 10.0003 10.5823 9.99945 10.9937 9.99945C11.0892 9.99945 11.1927 9.98367 11.2803 9.94422C11.4874 9.85743 11.5988 9.62073 11.5511 9.4077C11.4953 9.171 11.3122 9.00531 11.0574 9.00531ZM7.74497 6.1646C7.74497 6.21612 7.74591 6.26578 7.74682 6.3139V6.31391V6.31392V6.31393C7.74856 6.4058 7.7502 6.49204 7.74497 6.57488C7.72904 6.89048 7.50608 7.1114 7.21942 7.1114C6.94072 7.10351 6.72572 6.88259 6.71776 6.57488C6.71253 6.49203 6.71417 6.40578 6.71591 6.3139L6.71591 6.31385C6.71682 6.26575 6.71776 6.21611 6.71776 6.1646H6.30369C5.98517 6.15671 5.76221 5.93579 5.76221 5.65175C5.76221 5.3756 5.98517 5.16258 6.29573 5.1468C6.37887 5.14165 6.4654 5.14322 6.55976 5.14493C6.60998 5.14584 6.66243 5.1468 6.71776 5.1468V4.74441C6.72572 4.42881 6.94072 4.2 7.22738 4.2C7.51405 4.2 7.72904 4.42881 7.73701 4.74441V5.1468H8.09534C8.4457 5.1468 8.68459 5.35193 8.69255 5.65175C8.70051 5.95946 8.45366 6.1646 8.08737 6.1646H7.74497ZM4.64026 10.8969C4.53144 10.8978 4.42231 10.8987 4.31319 10.8987C4.15003 10.8987 3.98886 10.8967 3.82769 10.8947L3.82746 10.8947C3.66621 10.8927 3.50496 10.8908 3.34172 10.8908C3.02321 10.8987 2.80821 11.0959 2.80025 11.3799C2.79228 11.6798 2.99932 11.8928 3.3258 11.9007C3.97875 11.9086 4.63967 11.9086 5.29263 11.9007C5.60318 11.8928 5.81817 11.6798 5.82614 11.4036C5.8341 11.1196 5.60318 10.9065 5.28466 10.8987C5.07261 10.8934 4.85703 10.8951 4.64026 10.8969ZM4.30522 12.7917H5.27669C5.59521 12.7917 5.82613 13.0047 5.82613 13.2888C5.82613 13.5728 5.60317 13.7937 5.28465 13.7937C4.6317 13.8016 3.98671 13.8016 3.33375 13.7937C3.00727 13.7937 2.79228 13.5807 2.80024 13.2888C2.80024 12.9968 3.0232 12.7917 3.34968 12.7917C3.56202 12.7864 3.77436 12.7882 3.98671 12.7899C4.09288 12.7908 4.19905 12.7917 4.30522 12.7917ZM3.46063 10.0068H4.35247C4.50376 10.0068 4.65307 10.0088 4.80237 10.0107C4.95167 10.0127 5.10098 10.0147 5.25227 10.0147C5.60264 10.0068 5.84152 9.80165 5.83356 9.50183C5.8256 9.20201 5.60264 9.00476 5.26024 9.00476H3.46859C3.12619 9.00476 2.89526 9.2099 2.89526 9.50183C2.89526 9.79376 3.12619 9.9989 3.46063 10.0068Z" fill="#0A6ED1"/>
</svg>
