<svg width="15" height="16" viewBox="0 0 15 16" fill="none" xmlns="http://www.w3.org/2000/svg">
<path d="M2.65734 15.9998C1.21807 15.9998 0.0666504 15.1123 0.0666504 13.9848V7.60409C0.0666504 6.47666 1.21807 5.58911 2.65734 5.58911H4.96018V6.7885H2.65734C1.91372 6.7885 1.26604 7.17231 1.26604 7.60409V13.9848C1.26604 14.4166 1.93771 14.8004 2.65734 14.8004H11.8207C12.5643 14.8004 13.212 14.4166 13.212 13.9848V7.60409C13.212 7.17231 12.5404 6.7885 11.8207 6.7885H9.51788V5.58911H11.8207C13.284 5.58911 14.4114 6.47666 14.4114 7.60409V13.9848C14.4114 15.1123 13.26 15.9998 11.8207 15.9998H2.65734Z" fill="white"/>
<path d="M7.26276 10.2668C6.92693 10.2668 6.66306 10.0029 6.66306 9.66708V2.3508C6.66306 2.30283 6.63907 2.25485 6.5911 2.23086C6.56711 2.23086 6.56711 2.23086 6.54312 2.23086C6.51913 2.23086 6.47116 2.25485 6.44717 2.25485L5.53563 3.16639C5.41569 3.28633 5.27176 3.3343 5.10385 3.3343C4.93593 3.3343 4.79201 3.26234 4.67207 3.16639C4.55213 3.04645 4.50415 2.90252 4.50415 2.73461C4.50415 2.56669 4.57611 2.42277 4.67207 2.30283L6.83098 0.143927C6.95091 0.0719634 7.11883 0 7.26276 0C7.43067 0 7.5746 0.0719634 7.69454 0.167915L9.85345 2.32682C9.97339 2.44675 10.0214 2.59068 10.0214 2.7586C10.0214 2.92651 9.9494 3.07044 9.85345 3.19038C9.7575 3.31031 9.58958 3.35829 9.42167 3.35829C9.25375 3.35829 9.10982 3.28633 8.98989 3.19038L8.03037 2.23086C8.00638 2.20688 7.98239 2.20688 7.93442 2.20688C7.91043 2.20688 7.91043 2.20688 7.88644 2.20688C7.83847 2.23086 7.81448 2.27884 7.81448 2.32682V9.69107C7.86245 10.0029 7.5746 10.2668 7.26276 10.2668Z" fill="white"/>
</svg>
