<?xml version="1.0"?>
<svg xmlns="http://www.w3.org/2000/svg" id="blackboard" enable-background="new 0 0 300 300" height="512px" viewBox="0 0 300 300" width="512px" class=""><g><g><circle cx="118" cy="142" fill="#e5efef" r="86" data-original="#E5EFEF" class=""/><g><path d="m60 44h184v136h-184z" fill="#bf7e68" data-original="#BF7E68" class="" data-old_color="#bf7e68" style="fill:#FFFFFF"/><path d="m244 184h-184c-2.209 0-4-1.791-4-4v-136c0-2.209 1.791-4 4-4h184c2.209 0 4 1.791 4 4v136c0 2.209-1.791 4-4 4zm-180-8h176v-128h-176z" fill="#4c241d" data-original="#4C241D" class="active-path" data-old_color="#4c241d" style="fill:#6B4F5B"/></g><g><path d="m60 56h184v108h-184z" fill="#6b4f5b" data-original="#6B4F5B" class="" data-old_color="#6b4f5b" style="fill:#F3CEED"/><path d="m244 168h-184c-2.209 0-4-1.791-4-4v-108c0-2.209 1.791-4 4-4h184c2.209 0 4 1.791 4 4v108c0 2.209-1.791 4-4 4zm-180-8h176v-100h-176z" fill="#4c241d" data-original="#4C241D" class="active-path" data-old_color="#4c241d" style="fill:#6B4F5B"/></g><g><path d="m140 180h28v60h-28z" fill="#bf7e68" data-original="#BF7E68" class="" data-old_color="#bf7e68" style="fill:#FFFFFF"/><path d="m168 244h-28c-2.209 0-4-1.791-4-4v-60c0-2.209 1.791-4 4-4h28c2.209 0 4 1.791 4 4v60c0 2.209-1.791 4-4 4zm-24-8h20v-52h-20z" fill="#4c241d" data-original="#4C241D" class="active-path" data-old_color="#4c241d" style="fill:#6B4F5B"/></g><g><path d="m162.866 153.148c2.295-2.295 6.017-2.295 8.312 0l14.316 14.316c2.295 2.295 2.295 6.017 0 8.312-2.295 2.295-6.017 2.295-8.312 0l-14.316-14.316c-2.295-2.296-2.295-6.017 0-8.312z" fill="#fff" data-original="#FFF" class=""/><path d="m181.338 181.497c-2.639 0-5.119-1.028-6.984-2.894l-14.316-14.315c-3.851-3.852-3.85-10.118 0-13.969 3.852-3.851 10.117-3.851 13.969 0l14.315 14.316c1.865 1.865 2.893 4.346 2.893 6.984s-1.028 5.119-2.894 6.984c-1.864 1.866-4.344 2.894-6.983 2.894zm-14.316-26.07c-.481 0-.961.183-1.327.549-.732.732-.732 1.923 0 2.655l14.316 14.315c.479.479 1.037.55 1.327.55s.849-.071 1.327-.55c.479-.479.55-1.037.55-1.328s-.071-.849-.55-1.327l-14.316-14.316c-.365-.365-.846-.548-1.327-.548z" fill="#4c241d" data-original="#4C241D" class="active-path" data-old_color="#4c241d" style="fill:#6B4F5B"/></g><g><path d="m228 180h-44v-10.886c0-5.033 4.08-9.114 9.114-9.114h25.773c5.033 0 9.114 4.08 9.114 9.114v10.886z" fill="#ffce56" data-original="#FFCE56" class=""/><path d="m228 184h-44c-2.209 0-4-1.791-4-4v-10.886c0-7.231 5.883-13.114 13.113-13.114h25.773c7.23 0 13.113 5.883 13.113 13.114v10.886c.001 2.209-1.79 4-3.999 4zm-40-8h36v-6.886c0-2.82-2.294-5.114-5.113-5.114h-25.773c-2.819 0-5.113 2.294-5.113 5.114v6.886z" fill="#4c241d" data-original="#4C241D" class="active-path" data-old_color="#4c241d" style="fill:#6B4F5B"/></g><g fill="#fff"><path d="m118.012 122.492c-2.535 0-5.075-.64-7.375-1.927-4.885-2.734-7.746-7.698-7.654-13.276.182-11.024-.605-19.501-2.276-24.515-.528-1.584-1.867-1.927-2.418-2-.552-.074-1.933-.096-2.859 1.293l-16.102 24.153c-1.226 1.837-3.709 2.334-5.547 1.109-1.838-1.226-2.335-3.709-1.109-5.547l16.102-24.153c2.341-3.512 6.398-5.348 10.577-4.785 4.184.56 7.611 3.396 8.946 7.399 1.982 5.946 2.885 15.09 2.686 27.178-.043 2.587 1.289 4.891 3.562 6.163 2.313 1.295 5.026 1.222 7.254-.197l2.846-1.811c1.714-1.091 3.584-2.827 5.56-5.161 13.789-16.289 34.217-24.797 54.643-22.75l3.55.355c2.198.22 3.802 2.18 3.582 4.378s-2.187 3.803-4.378 3.582l-3.55-.355c-17.802-1.776-35.654 5.681-47.741 19.959-2.497 2.949-4.977 5.217-7.371 6.741l-2.846 1.811c-2.463 1.567-5.269 2.356-8.082 2.356z" data-original="#000000" class=""/><path d="m168 136c-2.209 0-4-1.791-4-4v-10.343l-1.171 1.172c-1.562 1.562-4.095 1.562-5.657 0s-1.562-4.095 0-5.657l8-8c1.145-1.144 2.864-1.486 4.359-.867s2.469 2.078 2.469 3.695v20c0 2.209-1.791 4-4 4z" data-original="#000000" class=""/><path d="m220 136c-2.209 0-4-1.791-4-4v-10.343l-1.171 1.172c-1.562 1.562-4.095 1.562-5.657 0s-1.562-4.095 0-5.657l8-8c1.145-1.144 2.863-1.486 4.359-.867 1.495.619 2.469 2.078 2.469 3.695v20c0 2.209-1.791 4-4 4z" data-original="#000000" class=""/><path d="m200 128h-16c-2.209 0-4-1.791-4-4s1.791-4 4-4h16c2.209 0 4 1.791 4 4s-1.791 4-4 4z" data-original="#000000" class=""/><path d="m192 136c-2.209 0-4-1.791-4-4v-16c0-2.209 1.791-4 4-4s4 1.791 4 4v16c0 2.209-1.791 4-4 4z" data-original="#000000" class=""/></g><g><path d="m264 256h-220c0-11.046 8.954-20 20-20h180c11.046 0 20 8.954 20 20z" fill="#e7d1c4" data-original="#E7D1C4" class="" style="fill:#E7D1C4" data-old_color="#e7d1c4"/><path d="m264 260h-220c-2.209 0-4-1.791-4-4 0-13.234 10.766-24 24-24h180c13.234 0 24 10.766 24 24 0 2.209-1.791 4-4 4zm-215.494-8h210.987c-1.78-6.893-8.052-12-15.494-12h-179.999c-7.442 0-13.713 5.107-15.494 12z" fill="#4c241d" data-original="#4C241D" class="active-path" data-old_color="#4c241d" style="fill:#6B4F5B"/></g></g></g> </svg>
