<svg width="15" height="16" viewBox="0 0 15 16" fill="none" xmlns="http://www.w3.org/2000/svg">
<path d="M14.5317 7.09409C14.4247 7.09409 14.322 7.1327 14.2463 7.20142C14.1706 7.27015 14.1281 7.36337 14.1281 7.46056V13.4854C14.1113 13.9619 13.8916 14.4138 13.5151 14.746C13.1386 15.0783 12.6348 15.2649 12.1098 15.2665H2.8902C2.35407 15.2803 1.83378 15.1006 1.44335 14.7668C1.05291 14.4329 0.824196 13.9721 0.807318 13.4854V7.29198C0.807318 7.19479 0.76479 7.10157 0.689089 7.03284C0.613388 6.96412 0.510716 6.92551 0.403659 6.92551C0.296602 6.92551 0.19393 6.96412 0.118229 7.03284C0.0425282 7.10157 0 7.19479 0 7.29198L0 13.4854C0.0169493 14.1665 0.33075 14.8137 0.872569 15.285C1.41439 15.7563 2.13998 16.0132 2.8902 15.9995H12.1098C12.86 16.0132 13.5856 15.7563 14.1274 15.285C14.6692 14.8137 14.983 14.1665 15 13.4854V7.46056C15.0007 7.40708 14.9886 7.35409 14.9644 7.30532C14.9402 7.25656 14.9045 7.21319 14.8599 7.17826C14.8153 7.14334 14.7628 7.11771 14.7061 7.10316C14.6494 7.08862 14.5899 7.08552 14.5317 7.09409Z" fill="#5E5E5E"/>
<path d="M10.9957 6.77249L7.91981 9.64567L7.91981 0.366471C7.91981 0.269275 7.87728 0.17606 7.80158 0.107333C7.72588 0.0386053 7.62321 -6.08503e-06 7.51615 -6.09451e-06C7.40909 -6.10399e-06 7.30642 0.0386053 7.23072 0.107333C7.15502 0.17606 7.11249 0.269275 7.11249 0.366471L7.11249 9.64567L4.00432 6.77249C3.92731 6.70233 3.82278 6.66279 3.71368 6.66255C3.66133 6.66102 3.6092 6.66935 3.56057 6.68701C3.51195 6.70467 3.46787 6.73128 3.43112 6.76516C3.39329 6.79923 3.36326 6.83976 3.34277 6.88442C3.32227 6.92908 3.31172 6.97698 3.31172 7.02536C3.31172 7.07374 3.32227 7.12164 3.34277 7.1663C3.36326 7.21096 3.39329 7.25149 3.43112 7.28556L7.22552 10.8037C7.26415 10.8451 7.31063 10.8799 7.36276 10.9064C7.43127 10.9247 7.50415 10.9247 7.57266 10.9064L7.61303 10.9064C7.67294 10.8845 7.72573 10.8492 7.76642 10.8037L11.6012 7.28556C11.639 7.25149 11.669 7.21096 11.6895 7.1663C11.71 7.12164 11.7206 7.07374 11.7206 7.02536C11.7206 6.97698 11.71 6.92908 11.6895 6.88442C11.669 6.83976 11.639 6.79923 11.6012 6.76516C11.5635 6.72552 11.5167 6.69386 11.464 6.67238C11.4114 6.6509 11.3542 6.64013 11.2966 6.64083C11.2389 6.64153 11.182 6.65368 11.1301 6.67642C11.0781 6.69916 11.0322 6.73195 10.9957 6.77249Z" fill="#5E5E5E"/>
</svg>
