<?xml version="1.0" encoding="iso-8859-1"?>
<!-- Generator: Adobe Illustrator 19.1.0, SVG Export Plug-In . SVG Version: 6.00 Build 0)  -->
<svg version="1.1" id="Layer_1" xmlns="http://www.w3.org/2000/svg" xmlns:xlink="http://www.w3.org/1999/xlink" x="0px" y="0px"
	 viewBox="0 0 220 200" enable-background="new 0 0 220 200" xml:space="preserve">
<g>
	<defs>
		<path id="SVGID_1_" d="M458.107,100.72c0,55.625-45.093,100.72-100.72,100.72c-55.625,0-100.72-45.095-100.72-100.72
			S301.762,0,357.387,0C413.014,0,458.107,45.095,458.107,100.72"/>
	</defs>
	<clipPath id="SVGID_2_">
		<use xlink:href="#SVGID_1_"  overflow="visible"/>
	</clipPath>
	<g clip-path="url(#SVGID_2_)">
		<defs>
			<rect id="SVGID_3_" x="-1261.365" y="-3468" width="9924" height="9254"/>
		</defs>
		<clipPath id="SVGID_4_">
			<use xlink:href="#SVGID_3_"  overflow="visible"/>
		</clipPath>
		<rect x="251.667" y="-5" clip-path="url(#SVGID_4_)" fill="#35475C" width="211.44" height="211.44"/>
	</g>
</g>
<g>
	<defs>
		<path id="SVGID_5_" d="M355.791,141.257c-8.258,0-16.376-2.146-23.532-6.215l-24.166,6.215l7.263-22.411
			c-4.754-7.58-7.263-16.31-7.263-25.29c0-26.299,21.397-47.695,47.698-47.695c26.302,0,47.698,21.396,47.698,47.695
			C403.489,119.859,382.093,141.257,355.791,141.257"/>
	</defs>
	<clipPath id="SVGID_6_">
		<use xlink:href="#SVGID_5_"  overflow="visible"/>
	</clipPath>
	<g clip-path="url(#SVGID_6_)">
		<defs>
			<rect id="SVGID_7_" x="-1261.365" y="-3468" width="9924" height="9254"/>
		</defs>
		<clipPath id="SVGID_8_">
			<use xlink:href="#SVGID_7_"  overflow="visible"/>
		</clipPath>
		<rect x="303.093" y="40.861" clip-path="url(#SVGID_8_)" fill="#28C5CA" width="105.396" height="105.396"/>
	</g>
</g>
<g>
	<defs>
		<path id="SVGID_9_" d="M355.791,45.861c-14.049,0-26.658,6.142-35.395,15.836c8.458-7.618,19.609-12.303,31.862-12.303
			c26.3,0,47.698,21.396,47.698,47.695c0,12.254-4.685,23.407-12.305,31.864c9.697-8.736,15.838-21.347,15.838-35.397
			C403.489,67.257,382.093,45.861,355.791,45.861"/>
	</defs>
	<clipPath id="SVGID_10_">
		<use xlink:href="#SVGID_9_"  overflow="visible"/>
	</clipPath>
	<g clip-path="url(#SVGID_10_)">
		<defs>
			<rect id="SVGID_11_" x="-1261.365" y="-3468" width="9924" height="9254"/>
		</defs>
		<clipPath id="SVGID_12_">
			<use xlink:href="#SVGID_11_"  overflow="visible"/>
		</clipPath>
		<rect x="315.396" y="40.861" clip-path="url(#SVGID_12_)" fill="#2EE1E2" width="93.093" height="93.092"/>
	</g>
</g>
<g>
	<defs>
		<path id="SVGID_13_" d="M369.809,81.193c-20.394,0-36.984,16.641-36.984,37.096c0,7.247,1.964,13.923,5.338,19.578
			c5.316,2.116,10.991,3.275,16.753,3.382c0.014,0,0.027,0.001,0.04,0.001c0.036,0.001,0.07,0.001,0.105,0.002
			c0.025,0,0.05,0,0.075,0.001c0.042,0,0.084,0.001,0.125,0.001c0.041,0.001,0.082,0.001,0.123,0.002h0.058
			c0.04,0,0.08,0,0.12,0.001h0.056h0.172c0.086,0,0.175,0,0.261-0.001h0.029c0.083,0,0.166-0.001,0.25-0.002h0.035
			c0.084-0.001,0.165-0.002,0.25-0.004h0.029c0.085-0.002,0.172-0.004,0.257-0.005c0.006,0,0.012-0.001,0.018-0.001
			c0.274-0.006,0.549-0.015,0.822-0.026c15.219-0.616,28.6-8.406,36.885-20.07c-2.037,2.849-4.379,5.466-6.976,7.806
			c7.621-8.457,12.305-19.611,12.305-31.865c0-0.392-0.004-0.78-0.014-1.169C393.238,86.939,382.348,81.193,369.809,81.193"/>
	</defs>
	<clipPath id="SVGID_14_">
		<use xlink:href="#SVGID_13_"  overflow="visible"/>
	</clipPath>
	<g clip-path="url(#SVGID_14_)">
		<defs>
			<rect id="SVGID_15_" x="-1261.365" y="-3468" width="9924" height="9254"/>
		</defs>
		<clipPath id="SVGID_16_">
			<use xlink:href="#SVGID_15_"  overflow="visible"/>
		</clipPath>
		<rect x="327.825" y="76.193" clip-path="url(#SVGID_16_)" fill="#2AA7AB" width="77.13" height="70.064"/>
	</g>
</g>
<g>
	<defs>
		<path id="SVGID_17_" d="M399.942,95.919c0.009,0.389,0.014,0.778,0.014,1.169c0,12.255-4.684,23.408-12.305,31.865
			c2.597-2.34,4.938-4.957,6.976-7.805c4.243-5.975,7.15-12.967,8.28-20.53C402.041,98.971,401.048,97.401,399.942,95.919"/>
	</defs>
	<clipPath id="SVGID_18_">
		<use xlink:href="#SVGID_17_"  overflow="visible"/>
	</clipPath>
	<g clip-path="url(#SVGID_18_)">
		<defs>
			<rect id="SVGID_19_" x="-1261.365" y="-3468" width="9924" height="9254"/>
		</defs>
		<clipPath id="SVGID_20_">
			<use xlink:href="#SVGID_19_"  overflow="visible"/>
		</clipPath>
		<rect x="382.651" y="90.919" clip-path="url(#SVGID_20_)" fill="#2EBEBE" width="25.256" height="43.034"/>
	</g>
</g>
<g>
	<defs>
		<path id="SVGID_21_" d="M413.915,150.765l-4.706-14.482c3.073-5.604,4.88-12.556,4.88-18.932
			c0-20.276-16.346-36.158-37.214-36.158c-20.393,0-36.983,16.641-36.983,37.096c0,20.804,15.904,37.101,36.207,37.101
			c6.005,0,12.448-1.497,17.54-4.041l16.076,3.939l6.162,1.51L413.915,150.765z M362.857,123.591c-2.927,0-5.299-2.373-5.299-5.3
			c0-2.927,2.372-5.3,5.299-5.3s5.3,2.373,5.3,5.3C368.157,121.218,365.784,123.591,362.857,123.591z M376.99,123.591
			c-2.927,0-5.3-2.373-5.3-5.3c0-2.927,2.373-5.3,5.3-5.3s5.3,2.373,5.3,5.3C382.29,121.218,379.917,123.591,376.99,123.591z
			 M391.123,123.591c-2.927,0-5.3-2.373-5.3-5.3c0-2.927,2.373-5.3,5.3-5.3s5.3,2.373,5.3,5.3
			C396.423,121.218,394.05,123.591,391.123,123.591z"/>
	</defs>
	<clipPath id="SVGID_22_">
		<use xlink:href="#SVGID_21_"  overflow="visible"/>
	</clipPath>
	<g clip-path="url(#SVGID_22_)">
		<defs>
			<rect id="SVGID_23_" x="-1261.365" y="-3468" width="9924" height="9254"/>
		</defs>
		<clipPath id="SVGID_24_">
			<use xlink:href="#SVGID_23_"  overflow="visible"/>
		</clipPath>
		<rect x="334.892" y="76.193" clip-path="url(#SVGID_24_)" fill="#3FEDD5" width="85.985" height="85.605"/>
	</g>
</g>
<g>
	<defs>
		<path id="SVGID_25_" d="M373.342,84.726c20.867,0,37.213,15.882,37.213,36.157c0,6.377-1.806,13.329-4.88,18.934l4.707,14.481
			l0.408,1.254l5.087,1.246l-1.962-6.033l-4.706-14.482c3.073-5.604,4.88-12.556,4.88-18.932c0-20.276-16.347-36.158-37.214-36.158
			c-11.064,0-20.983,4.923-27.766,12.672C355.607,88.191,364.07,84.726,373.342,84.726"/>
	</defs>
	<clipPath id="SVGID_26_">
		<use xlink:href="#SVGID_25_"  overflow="visible"/>
	</clipPath>
	<g clip-path="url(#SVGID_26_)">
		<defs>
			<rect id="SVGID_27_" x="-1261.365" y="-3468" width="9924" height="9254"/>
		</defs>
		<clipPath id="SVGID_28_">
			<use xlink:href="#SVGID_27_"  overflow="visible"/>
		</clipPath>
		<rect x="344.109" y="76.193" clip-path="url(#SVGID_28_)" fill="#3DFAE5" width="76.768" height="85.605"/>
	</g>
</g>
<g>
	<defs>
		<path id="SVGID_29_" d="M382.29,118.291c0,2.927-2.373,5.3-5.3,5.3s-5.3-2.373-5.3-5.3c0-2.927,2.373-5.3,5.3-5.3
			S382.29,115.364,382.29,118.291"/>
	</defs>
	<clipPath id="SVGID_30_">
		<use xlink:href="#SVGID_29_"  overflow="visible"/>
	</clipPath>
	<g clip-path="url(#SVGID_30_)">
		<defs>
			<rect id="SVGID_31_" x="-1261.365" y="-3468" width="9924" height="9254"/>
		</defs>
		<clipPath id="SVGID_32_">
			<use xlink:href="#SVGID_31_"  overflow="visible"/>
		</clipPath>
		<rect x="366.69" y="107.991" clip-path="url(#SVGID_32_)" fill="#3FEDD5" width="20.6" height="20.6"/>
	</g>
</g>
<g>
	<defs>
		<path id="SVGID_33_" d="M368.157,118.291c0,2.927-2.373,5.3-5.3,5.3s-5.3-2.373-5.3-5.3c0-2.927,2.373-5.3,5.3-5.3
			S368.157,115.364,368.157,118.291"/>
	</defs>
	<clipPath id="SVGID_34_">
		<use xlink:href="#SVGID_33_"  overflow="visible"/>
	</clipPath>
	<g clip-path="url(#SVGID_34_)">
		<defs>
			<rect id="SVGID_35_" x="-1261.365" y="-3468" width="9924" height="9254"/>
		</defs>
		<clipPath id="SVGID_36_">
			<use xlink:href="#SVGID_35_"  overflow="visible"/>
		</clipPath>
		<rect x="352.557" y="107.991" clip-path="url(#SVGID_36_)" fill="#3FEDD5" width="20.6" height="20.6"/>
	</g>
</g>
<g>
	<defs>
		<path id="SVGID_37_" d="M396.423,118.291c0,2.927-2.373,5.3-5.3,5.3s-5.3-2.373-5.3-5.3c0-2.927,2.373-5.3,5.3-5.3
			S396.423,115.364,396.423,118.291"/>
	</defs>
	<clipPath id="SVGID_38_">
		<use xlink:href="#SVGID_37_"  overflow="visible"/>
	</clipPath>
	<g clip-path="url(#SVGID_38_)">
		<defs>
			<rect id="SVGID_39_" x="-1261.365" y="-3468" width="9924" height="9254"/>
		</defs>
		<clipPath id="SVGID_40_">
			<use xlink:href="#SVGID_39_"  overflow="visible"/>
		</clipPath>
		<rect x="380.823" y="107.991" clip-path="url(#SVGID_40_)" fill="#3FEDD5" width="20.6" height="20.6"/>
	</g>
</g>
<g>
	<defs>
		<path id="SVGID_41_" d="M258.402,82.004c-1.14,6.065-1.736,12.321-1.736,18.717c0,10.923,1.739,21.44,4.955,31.289h41.818V82.004
			H258.402z"/>
	</defs>
	<clipPath id="SVGID_42_">
		<use xlink:href="#SVGID_41_"  overflow="visible"/>
	</clipPath>
	<g clip-path="url(#SVGID_42_)">
		<defs>
			<rect id="SVGID_43_" x="-1261.365" y="-3468" width="9924" height="9254"/>
		</defs>
		<clipPath id="SVGID_44_">
			<use xlink:href="#SVGID_43_"  overflow="visible"/>
		</clipPath>
		<g clip-path="url(#SVGID_44_)" enable-background="new    ">
			<g>
				<defs>
					<rect id="SVGID_45_" x="201.635" y="82" width="102" height="51"/>
				</defs>
				<clipPath id="SVGID_46_">
					<use xlink:href="#SVGID_45_"  overflow="visible"/>
				</clipPath>
				<g clip-path="url(#SVGID_46_)">
					<defs>
						<path id="SVGID_47_" d="M303.44,120.923c0-6.124-4.964-11.087-11.087-11.087c-1.241,0-2.43,0.212-3.544,0.588
							c-0.393-8.175-7.146-14.683-15.419-14.683c-1.359,0-2.676,0.177-3.931,0.507c-2.12-8.193-9.561-14.244-18.417-14.244
							c-8.813,0-16.224,5.994-18.384,14.128c-0.108-0.002-0.216-0.008-0.325-0.008c-6.904,0-12.704,4.726-14.342,11.12
							c-1.17-0.357-2.411-0.55-3.697-0.55c-6.992,0-12.659,5.667-12.659,12.658c0,6.991,5.667,12.658,12.659,12.658h78.204v-0.007
							C298.554,131.924,303.44,126.997,303.44,120.923"/>
					</defs>
					<clipPath id="SVGID_48_">
						<use xlink:href="#SVGID_47_"  overflow="visible"/>
					</clipPath>
					<g clip-path="url(#SVGID_48_)">
						<defs>
							<rect id="SVGID_49_" x="256.635" y="82" width="47" height="51"/>
						</defs>
						<clipPath id="SVGID_50_">
							<use xlink:href="#SVGID_49_"  overflow="visible"/>
						</clipPath>
						<rect x="196.635" y="77.004" clip-path="url(#SVGID_50_)" fill="#415A6B" width="111.805" height="60.006"/>
					</g>
				</g>
			</g>
		</g>
	</g>
</g>
<g>
	<defs>
		<path id="SVGID_51_" d="M455.444,77.616c-4.564-19.445-14.763-36.72-28.779-50.006h-39.596v50.006H455.444z"/>
	</defs>
	<clipPath id="SVGID_52_">
		<use xlink:href="#SVGID_51_"  overflow="visible"/>
	</clipPath>
	<g clip-path="url(#SVGID_52_)">
		<defs>
			<rect id="SVGID_53_" x="-1261.365" y="-3468" width="9924" height="9254"/>
		</defs>
		<clipPath id="SVGID_54_">
			<use xlink:href="#SVGID_53_"  overflow="visible"/>
		</clipPath>
		<g clip-path="url(#SVGID_54_)" enable-background="new    ">
			<g>
				<defs>
					<rect id="SVGID_55_" x="386.635" y="27" width="103" height="51"/>
				</defs>
				<clipPath id="SVGID_56_">
					<use xlink:href="#SVGID_55_"  overflow="visible"/>
				</clipPath>
				<g clip-path="url(#SVGID_56_)">
					<defs>
						<path id="SVGID_57_" d="M488.874,66.529c0-6.123-4.964-11.087-11.087-11.087c-1.241,0-2.43,0.212-3.544,0.588
							c-0.394-8.175-7.146-14.683-15.419-14.683c-1.359,0-2.676,0.177-3.932,0.507c-2.12-8.193-9.561-14.244-18.416-14.244
							c-8.813,0-16.224,5.995-18.384,14.128c-0.109-0.002-0.216-0.008-0.325-0.008c-6.904,0-12.705,4.726-14.342,11.12
							c-1.17-0.357-2.411-0.55-3.698-0.55c-6.991,0-12.658,5.667-12.658,12.658s5.667,12.658,12.658,12.658h78.205v-0.007
							C483.987,77.53,488.874,72.603,488.874,66.529"/>
					</defs>
					<clipPath id="SVGID_58_">
						<use xlink:href="#SVGID_57_"  overflow="visible"/>
					</clipPath>
					<g clip-path="url(#SVGID_58_)">
						<defs>
							<rect id="SVGID_59_" x="386.635" y="27" width="69" height="51"/>
						</defs>
						<clipPath id="SVGID_60_">
							<use xlink:href="#SVGID_59_"  overflow="visible"/>
						</clipPath>
						<rect x="382.069" y="22.61" clip-path="url(#SVGID_60_)" fill="#415A6B" width="111.805" height="60.006"/>
					</g>
				</g>
			</g>
		</g>
	</g>
</g>
<g>
	<defs>
		<path id="SVGID_61_" d="M300.314,17.72c-10.747,7.404-19.984,16.84-27.158,27.755h35.228V17.72H300.314z"/>
	</defs>
	<clipPath id="SVGID_62_">
		<use xlink:href="#SVGID_61_"  overflow="visible"/>
	</clipPath>
	<g clip-path="url(#SVGID_62_)">
		<defs>
			<rect id="SVGID_63_" x="-1261.365" y="-3468" width="9924" height="9254"/>
		</defs>
		<clipPath id="SVGID_64_">
			<use xlink:href="#SVGID_63_"  overflow="visible"/>
		</clipPath>
		<g clip-path="url(#SVGID_64_)" enable-background="new    ">
			<g>
				<defs>
					<rect id="SVGID_65_" x="251.635" y="17" width="57" height="29"/>
				</defs>
				<clipPath id="SVGID_66_">
					<use xlink:href="#SVGID_65_"  overflow="visible"/>
				</clipPath>
				<g clip-path="url(#SVGID_66_)">
					<defs>
						<path id="SVGID_67_" d="M308.385,39.321c0-3.399-2.755-6.154-6.153-6.154c-0.689,0-1.349,0.118-1.967,0.327
							c-0.219-4.538-3.966-8.15-8.558-8.15c-0.754,0-1.486,0.099-2.182,0.282c-1.177-4.547-5.307-7.906-10.222-7.906
							c-4.891,0-9.004,3.327-10.203,7.841l-0.18-0.004c-3.832,0-7.052,2.623-7.96,6.172c-0.65-0.198-1.339-0.306-2.053-0.306
							c-3.88,0-7.025,3.146-7.025,7.026c0,3.88,3.145,7.026,7.025,7.026h43.405v-0.004
							C305.673,45.427,308.385,42.692,308.385,39.321"/>
					</defs>
					<clipPath id="SVGID_68_">
						<use xlink:href="#SVGID_67_"  overflow="visible"/>
					</clipPath>
					<g clip-path="url(#SVGID_68_)">
						<defs>
							<rect id="SVGID_69_" x="272.635" y="17" width="36" height="29"/>
						</defs>
						<clipPath id="SVGID_70_">
							<use xlink:href="#SVGID_69_"  overflow="visible"/>
						</clipPath>
						<rect x="246.882" y="12.72" clip-path="url(#SVGID_70_)" fill="#415A6B" width="66.503" height="37.755"/>
					</g>
				</g>
			</g>
		</g>
	</g>
</g>
<g>
	<defs>
		
			<rect id="SVGID_71_" x="285.889" y="62.926" transform="matrix(0.7071 -0.7071 0.7071 0.7071 38.5921 222.1466)" width="3.124" height="3.124"/>
	</defs>
	<clipPath id="SVGID_72_">
		<use xlink:href="#SVGID_71_"  overflow="visible"/>
	</clipPath>
	<g clip-path="url(#SVGID_72_)">
		<defs>
			<rect id="SVGID_73_" x="-1261.365" y="-3468" width="9924" height="9254"/>
		</defs>
		<clipPath id="SVGID_74_">
			<use xlink:href="#SVGID_73_"  overflow="visible"/>
		</clipPath>
		<rect x="280.242" y="57.279" clip-path="url(#SVGID_74_)" fill="#F5B457" width="14.418" height="14.418"/>
	</g>
</g>
<g>
	<defs>
		
			<rect id="SVGID_75_" x="384.791" y="21.717" transform="matrix(0.7071 -0.7071 0.7071 0.7071 96.6995 280.0114)" width="3.124" height="3.124"/>
	</defs>
	<clipPath id="SVGID_76_">
		<use xlink:href="#SVGID_75_"  overflow="visible"/>
	</clipPath>
	<g clip-path="url(#SVGID_76_)">
		<defs>
			<rect id="SVGID_77_" x="-1261.365" y="-3468" width="9924" height="9254"/>
		</defs>
		<clipPath id="SVGID_78_">
			<use xlink:href="#SVGID_77_"  overflow="visible"/>
		</clipPath>
		<rect x="379.144" y="16.07" clip-path="url(#SVGID_78_)" fill="#F5B457" width="14.418" height="14.418"/>
	</g>
</g>
<g>
	<defs>
		
			<rect id="SVGID_79_" x="369.19" y="15.604" transform="matrix(0.7067 -0.7075 0.7075 0.7067 96.9482 266.4499)" width="1.36" height="1.36"/>
	</defs>
	<clipPath id="SVGID_80_">
		<use xlink:href="#SVGID_79_"  overflow="visible"/>
	</clipPath>
	<g clip-path="url(#SVGID_80_)">
		<defs>
			<rect id="SVGID_81_" x="-1261.365" y="-3468" width="9924" height="9254"/>
		</defs>
		<clipPath id="SVGID_82_">
			<use xlink:href="#SVGID_81_"  overflow="visible"/>
		</clipPath>
		<rect x="363.908" y="10.324" clip-path="url(#SVGID_82_)" fill="#FFFFFF" width="11.923" height="11.923"/>
	</g>
</g>
<g>
	<defs>
		
			<rect id="SVGID_83_" x="393.915" y="40.33" transform="matrix(0.7067 -0.7075 0.7075 0.7067 86.7064 291.1938)" width="1.36" height="1.36"/>
	</defs>
	<clipPath id="SVGID_84_">
		<use xlink:href="#SVGID_83_"  overflow="visible"/>
	</clipPath>
	<g clip-path="url(#SVGID_84_)">
		<defs>
			<rect id="SVGID_85_" x="-1261.365" y="-3468" width="9924" height="9254"/>
		</defs>
		<clipPath id="SVGID_86_">
			<use xlink:href="#SVGID_85_"  overflow="visible"/>
		</clipPath>
		<rect x="388.634" y="35.049" clip-path="url(#SVGID_86_)" fill="#FFFFFF" width="11.923" height="11.923"/>
	</g>
</g>
<g>
	<defs>
		
			<rect id="SVGID_87_" x="336.222" y="40.33" transform="matrix(0.7067 -0.7075 0.7075 0.7067 69.787 250.3771)" width="1.36" height="1.36"/>
	</defs>
	<clipPath id="SVGID_88_">
		<use xlink:href="#SVGID_87_"  overflow="visible"/>
	</clipPath>
	<g clip-path="url(#SVGID_88_)">
		<defs>
			<rect id="SVGID_89_" x="-1261.365" y="-3468" width="9924" height="9254"/>
		</defs>
		<clipPath id="SVGID_90_">
			<use xlink:href="#SVGID_89_"  overflow="visible"/>
		</clipPath>
		<rect x="330.94" y="35.049" clip-path="url(#SVGID_90_)" fill="#FFFFFF" width="11.923" height="11.923"/>
	</g>
</g>
<g>
	<defs>
		
			<rect id="SVGID_91_" x="295.012" y="82.364" transform="matrix(0.7067 -0.7075 0.7075 0.7067 27.963 233.5477)" width="1.36" height="1.36"/>
	</defs>
	<clipPath id="SVGID_92_">
		<use xlink:href="#SVGID_91_"  overflow="visible"/>
	</clipPath>
	<g clip-path="url(#SVGID_92_)">
		<defs>
			<rect id="SVGID_93_" x="-1261.365" y="-3468" width="9924" height="9254"/>
		</defs>
		<clipPath id="SVGID_94_">
			<use xlink:href="#SVGID_93_"  overflow="visible"/>
		</clipPath>
		<rect x="289.731" y="77.083" clip-path="url(#SVGID_94_)" fill="#FFFFFF" width="11.923" height="11.923"/>
	</g>
</g>
<g>
	<defs>
		
			<rect id="SVGID_95_" x="270.286" y="82.364" transform="matrix(0.7071 -0.7071 0.7071 0.7071 20.6431 215.9252)" width="1.36" height="1.36"/>
	</defs>
	<clipPath id="SVGID_96_">
		<use xlink:href="#SVGID_95_"  overflow="visible"/>
	</clipPath>
	<g clip-path="url(#SVGID_96_)">
		<defs>
			<rect id="SVGID_97_" x="-1261.365" y="-3468" width="9924" height="9254"/>
		</defs>
		<clipPath id="SVGID_98_">
			<use xlink:href="#SVGID_97_"  overflow="visible"/>
		</clipPath>
		<rect x="265.005" y="77.083" clip-path="url(#SVGID_98_)" fill="#FFFFFF" width="11.923" height="11.923"/>
	</g>
</g>
<g>
	<defs>
		
			<rect id="SVGID_99_" x="418.641" y="90.606" transform="matrix(0.7071 -0.7071 0.7071 0.7071 58.2663 323.2404)" width="1.36" height="1.36"/>
	</defs>
	<clipPath id="SVGID_100_">
		<use xlink:href="#SVGID_99_"  overflow="visible"/>
	</clipPath>
	<g clip-path="url(#SVGID_100_)">
		<defs>
			<rect id="SVGID_101_" x="-1261.365" y="-3468" width="9924" height="9254"/>
		</defs>
		<clipPath id="SVGID_102_">
			<use xlink:href="#SVGID_101_"  overflow="visible"/>
		</clipPath>
		<rect x="413.36" y="85.325" clip-path="url(#SVGID_102_)" fill="#FFFFFF" width="11.923" height="11.923"/>
	</g>
</g>
<g>
	<defs>
		
			<rect id="SVGID_103_" x="319.738" y="17.253" transform="matrix(0.7067 -0.7075 0.7075 0.7067 81.2779 231.9454)" width="1.36" height="1.36"/>
	</defs>
	<clipPath id="SVGID_104_">
		<use xlink:href="#SVGID_103_"  overflow="visible"/>
	</clipPath>
	<g clip-path="url(#SVGID_104_)">
		<defs>
			<rect id="SVGID_105_" x="-1261.365" y="-3468" width="9924" height="9254"/>
		</defs>
		<clipPath id="SVGID_106_">
			<use xlink:href="#SVGID_105_"  overflow="visible"/>
		</clipPath>
		<rect x="314.456" y="11.972" clip-path="url(#SVGID_106_)" fill="#FFFFFF" width="11.923" height="11.923"/>
	</g>
</g>
<g>
	<defs>
		
			<rect id="SVGID_107_" x="434.243" y="95.894" transform="matrix(0.7071 -0.7071 0.7071 0.7071 58.7323 336.705)" width="3.124" height="3.124"/>
	</defs>
	<clipPath id="SVGID_108_">
		<use xlink:href="#SVGID_107_"  overflow="visible"/>
	</clipPath>
	<g clip-path="url(#SVGID_108_)">
		<defs>
			<rect id="SVGID_109_" x="-1261.365" y="-3468" width="9924" height="9254"/>
		</defs>
		<clipPath id="SVGID_110_">
			<use xlink:href="#SVGID_109_"  overflow="visible"/>
		</clipPath>
		<rect x="428.596" y="90.247" clip-path="url(#SVGID_110_)" fill="#F5B457" width="14.418" height="14.418"/>
	</g>
</g>
<g>
	<defs>
		<polygon id="SVGID_111_" points="329.407,38.106 323.65,38.106 331.203,28.409 331.599,26.458 322.559,26.458 322.047,28.93 
			327.292,28.93 319.787,38.637 319.42,40.579 328.895,40.579 		"/>
	</defs>
	<clipPath id="SVGID_112_">
		<use xlink:href="#SVGID_111_"  overflow="visible"/>
	</clipPath>
	<g clip-path="url(#SVGID_112_)">
		<defs>
			<rect id="SVGID_113_" x="-1261.365" y="-3468" width="9924" height="9254"/>
		</defs>
		<clipPath id="SVGID_114_">
			<use xlink:href="#SVGID_113_"  overflow="visible"/>
		</clipPath>
		<rect x="314.42" y="21.458" clip-path="url(#SVGID_114_)" fill="#FFFFFF" width="22.179" height="24.121"/>
	</g>
</g>
<g>
	<defs>
		<polygon id="SVGID_115_" points="311.061,63.952 301.634,63.952 314.002,48.072 314.651,44.877 299.847,44.877 299.009,48.926 
			307.597,48.926 295.308,64.822 294.707,68.001 310.223,68.001 		"/>
	</defs>
	<clipPath id="SVGID_116_">
		<use xlink:href="#SVGID_115_"  overflow="visible"/>
	</clipPath>
	<g clip-path="url(#SVGID_116_)">
		<defs>
			<rect id="SVGID_117_" x="-1261.365" y="-3468" width="9924" height="9254"/>
		</defs>
		<clipPath id="SVGID_118_">
			<use xlink:href="#SVGID_117_"  overflow="visible"/>
		</clipPath>
		<rect x="289.707" y="39.877" clip-path="url(#SVGID_118_)" fill="#FFFFFF" width="29.944" height="33.124"/>
	</g>
</g>
<g>
	<defs>
		<polygon id="SVGID_119_" points="325.637,83.596 319.881,83.596 327.434,73.899 327.83,71.948 318.789,71.948 318.278,74.42 
			323.522,74.42 316.017,84.127 315.651,86.069 325.125,86.069 		"/>
	</defs>
	<clipPath id="SVGID_120_">
		<use xlink:href="#SVGID_119_"  overflow="visible"/>
	</clipPath>
	<g clip-path="url(#SVGID_120_)">
		<defs>
			<rect id="SVGID_121_" x="-1261.365" y="-3468" width="9924" height="9254"/>
		</defs>
		<clipPath id="SVGID_122_">
			<use xlink:href="#SVGID_121_"  overflow="visible"/>
		</clipPath>
		<rect x="310.651" y="66.948" clip-path="url(#SVGID_122_)" fill="#FFFFFF" width="22.179" height="24.121"/>
	</g>
</g>
<g>
	<defs>
		<polygon id="SVGID_123_" points="380.484,117.895 375.447,117.895 382.056,109.41 382.402,107.703 374.492,107.703 
			374.044,109.866 378.633,109.866 372.067,118.36 371.745,120.059 380.036,120.059 		"/>
	</defs>
	<clipPath id="SVGID_124_">
		<use xlink:href="#SVGID_123_"  overflow="visible"/>
	</clipPath>
	<g clip-path="url(#SVGID_124_)">
		<defs>
			<rect id="SVGID_125_" x="-1261.365" y="-3468" width="9924" height="9254"/>
		</defs>
		<clipPath id="SVGID_126_">
			<use xlink:href="#SVGID_125_"  overflow="visible"/>
		</clipPath>
		<rect x="366.745" y="102.703" clip-path="url(#SVGID_126_)" fill="#2CA7AB" width="20.657" height="22.356"/>
	</g>
</g>
<g>
	<defs>
		<polygon id="SVGID_127_" points="365.652,126.137 360.615,126.137 367.224,117.652 367.571,115.945 359.66,115.945 
			359.213,118.108 363.801,118.108 357.235,126.603 356.914,128.301 365.205,128.301 		"/>
	</defs>
	<clipPath id="SVGID_128_">
		<use xlink:href="#SVGID_127_"  overflow="visible"/>
	</clipPath>
	<g clip-path="url(#SVGID_128_)">
		<defs>
			<rect id="SVGID_129_" x="-1261.365" y="-3468" width="9924" height="9254"/>
		</defs>
		<clipPath id="SVGID_130_">
			<use xlink:href="#SVGID_129_"  overflow="visible"/>
		</clipPath>
		<rect x="351.914" y="110.945" clip-path="url(#SVGID_130_)" fill="#2CA7AB" width="20.657" height="22.356"/>
	</g>
</g>
<g>
	<defs>
		<polygon id="SVGID_131_" points="395.316,126.137 390.279,126.137 396.888,117.652 397.234,115.945 389.324,115.945 
			388.876,118.108 393.465,118.108 386.899,126.603 386.577,128.301 394.868,128.301 		"/>
	</defs>
	<clipPath id="SVGID_132_">
		<use xlink:href="#SVGID_131_"  overflow="visible"/>
	</clipPath>
	<g clip-path="url(#SVGID_132_)">
		<defs>
			<rect id="SVGID_133_" x="-1261.365" y="-3468" width="9924" height="9254"/>
		</defs>
		<clipPath id="SVGID_134_">
			<use xlink:href="#SVGID_133_"  overflow="visible"/>
		</clipPath>
		<rect x="381.577" y="110.945" clip-path="url(#SVGID_134_)" fill="#2CA7AB" width="20.657" height="22.356"/>
	</g>
</g>
<g>
	<defs>
		<path id="SVGID_135_" d="M284.005,169.71c18.371,19.533,44.452,31.73,73.381,31.73c28.931,0,55.012-12.197,73.382-31.73H284.005z"
			/>
	</defs>
	<clipPath id="SVGID_136_">
		<use xlink:href="#SVGID_135_"  overflow="visible"/>
	</clipPath>
	<g clip-path="url(#SVGID_136_)">
		<defs>
			<rect id="SVGID_137_" x="-1261.365" y="-3468" width="9924" height="9254"/>
		</defs>
		<clipPath id="SVGID_138_">
			<use xlink:href="#SVGID_137_"  overflow="visible"/>
		</clipPath>
		<g clip-path="url(#SVGID_138_)" enable-background="new    ">
			<g>
				<defs>
					<rect id="SVGID_139_" x="231.635" y="169" width="251" height="132"/>
				</defs>
				<clipPath id="SVGID_140_">
					<use xlink:href="#SVGID_139_"  overflow="visible"/>
				</clipPath>
				<g clip-path="url(#SVGID_140_)">
					<defs>
						<path id="SVGID_141_" d="M482.52,235.096c0,36.112-56.088,65.386-125.277,65.386s-125.277-29.274-125.277-65.386
							s56.088-65.386,125.277-65.386S482.52,198.984,482.52,235.096"/>
					</defs>
					<clipPath id="SVGID_142_">
						<use xlink:href="#SVGID_141_"  overflow="visible"/>
					</clipPath>
					<g clip-path="url(#SVGID_142_)">
						<defs>
							<rect id="SVGID_143_" x="283.635" y="169" width="148" height="33"/>
						</defs>
						<clipPath id="SVGID_144_">
							<use xlink:href="#SVGID_143_"  overflow="visible"/>
						</clipPath>
						<rect x="226.966" y="164.71" clip-path="url(#SVGID_144_)" fill="#182131" width="260.554" height="140.772"/>
					</g>
				</g>
			</g>
		</g>
	</g>
</g>
<circle fill="#35475C" cx="110" cy="100" r="100"/>
<circle fill="#3FEDD5" cx="130.322" cy="118.291" r="5.3"/>
<circle fill="#3FEDD5" cx="116.19" cy="118.291" r="5.3"/>
<circle fill="#3FEDD5" cx="144.455" cy="118.291" r="5.3"/>
<g opacity="0.8">
	<g>
		<path fill="#415A6B" d="M220,55.777c0-6.123-4.964-11.087-11.087-11.087c-1.241,0-2.43,0.213-3.544,0.589
			c-0.394-8.176-7.146-14.683-15.419-14.683c-1.359,0-2.676,0.177-3.932,0.507c-2.12-8.193-9.561-14.244-18.417-14.244
			c-8.813,0-16.224,5.995-18.384,14.128c-0.108-0.002-0.216-0.008-0.325-0.008c-6.904,0-12.704,4.726-14.342,11.12
			c-1.17-0.357-2.411-0.55-3.698-0.55c-6.991,0-12.658,5.667-12.658,12.658c0,6.991,5.667,12.658,12.658,12.658h78.205v-0.007
			C215.114,66.778,220,61.851,220,55.777z"/>
	</g>
</g>
<rect x="39.22" y="62.926" transform="matrix(0.7071 -0.7071 0.7071 0.7071 -33.6553 47.7259)" fill="#F5B457" width="3.124" height="3.124"/>
<rect x="138.123" y="21.717" transform="matrix(0.7071 -0.7071 0.7071 0.7071 24.4523 105.5908)" fill="#F5B457" width="3.124" height="3.124"/>
<rect x="122.522" y="15.605" transform="matrix(0.7071 -0.7071 0.7071 0.7071 24.5699 91.8865)" fill="#FFFFFF" width="1.36" height="1.36"/>
<rect x="147.248" y="40.331" transform="matrix(0.7071 -0.7071 0.7071 0.7071 14.3282 116.6122)" fill="#FFFFFF" width="1.36" height="1.36"/>
<rect x="89.554" y="40.331" transform="matrix(0.7071 -0.7071 0.7071 0.7071 -2.5698 75.8168)" fill="#FFFFFF" width="1.36" height="1.36"/>
<rect x="48.345" y="82.364" transform="matrix(0.7071 -0.7071 0.7071 0.7071 -44.3622 58.9886)" fill="#FFFFFF" width="1.36" height="1.36"/>
<rect x="23.619" y="82.364" transform="matrix(0.7071 -0.7071 0.7071 0.7071 -51.6042 41.5049)" fill="#FFFFFF" width="1.36" height="1.36"/>
<rect x="171.973" y="90.606" transform="matrix(0.7071 -0.7071 0.7071 0.7071 -13.9801 148.8214)" fill="#FFFFFF" width="1.36" height="1.36"/>
<rect x="73.07" y="17.253" transform="matrix(0.7071 -0.7071 0.7071 0.7071 8.9204 57.4018)" fill="#FFFFFF" width="1.36" height="1.36"/>
<rect x="187.575" y="95.894" transform="matrix(0.7071 -0.7071 0.7071 0.7071 -13.5149 162.2843)" fill="#F5B457" width="3.124" height="3.124"/>
<path fill="#182131" d="M47.825,178.32C64.895,191.889,86.499,200,110,200s45.105-8.111,62.175-21.68
	c-18.322-5.477-39.547-8.61-62.175-8.61S66.147,172.842,47.825,178.32z"/>
<g opacity="0.7">
	<path fill="#415A6B" d="M65,49.464c0-3.91-3.169-7.079-7.079-7.079c-0.792,0-1.551,0.136-2.263,0.376
		c-0.251-5.22-4.562-9.375-9.845-9.375c-0.868,0-1.709,0.113-2.51,0.324c-1.353-5.231-6.105-9.094-11.759-9.094
		c-5.627,0-10.358,3.827-11.737,9.02c-0.069-0.001-0.138-0.005-0.208-0.005c-4.408,0-8.111,3.018-9.157,7.1
		c-0.747-0.228-1.54-0.351-2.361-0.351C3.618,40.378,0,43.997,0,48.461c0,4.464,3.618,8.082,8.082,8.082h49.932v-0.005
		C61.88,56.488,65,53.342,65,49.464z"/>
</g>
<path fill="#415A6B" d="M45.685,109.835c-1.241,0-2.43,0.213-3.544,0.589c-0.394-8.176-7.146-14.683-15.419-14.683
	c-1.359,0-2.676,0.177-3.932,0.507c-1.526-5.899-5.819-10.673-11.404-12.892C10.48,88.769,10,94.328,10,100
	c0,11.195,1.84,21.96,5.234,32.01H45.83v-0.007c6.056-0.079,10.942-5.006,10.942-11.08
	C56.772,114.799,51.808,109.835,45.685,109.835z"/>
<g>
	<g>
		<g>
			<path fill="#28C5CA" d="M109.123,141.257c-8.259,0-16.376-2.146-23.531-6.214l-24.167,6.214l7.263-22.411
				c-4.754-7.58-7.263-16.309-7.263-25.29c0-26.298,21.397-47.695,47.698-47.695c26.301,0,47.698,21.397,47.698,47.695
				C156.821,119.858,135.424,141.257,109.123,141.257z"/>
		</g>
	</g>
	<g>
		<path fill="#2EE1E2" d="M109.123,45.861c-14.048,0-26.658,6.141-35.395,15.837c8.457-7.62,19.609-12.304,31.862-12.304
			c26.301,0,47.698,21.397,47.698,47.695c0,12.254-4.684,23.408-12.306,31.865c9.697-8.737,15.839-21.348,15.839-35.398
			C156.821,67.257,135.424,45.861,109.123,45.861z"/>
	</g>
	<path fill="#2AA8AC" d="M156.239,100.619c-6.119-11.627-18.488-19.426-33.098-19.426c-20.393,0-36.984,16.641-36.984,37.096
		c0,7.248,1.964,13.923,5.338,19.579c5.585,2.223,11.566,3.39,17.628,3.39C133.018,141.257,152.808,123.575,156.239,100.619z"/>
	<path fill="#3FEDD5" d="M167.248,150.764l-4.707-14.481c3.073-5.604,4.879-12.556,4.879-18.933
		c0-20.275-16.346-36.158-37.213-36.158c-20.393,0-36.984,16.641-36.984,37.096c0,20.805,15.904,37.101,36.208,37.101
		c6.005,0,12.448-1.496,17.539-4.041l16.076,3.939l6.162,1.51L167.248,150.764z"/>
	<path fill="#3DFAE5" d="M126.675,84.726c20.867,0,37.213,15.882,37.213,36.158c0,6.377-1.806,13.329-4.879,18.933l4.707,14.481
		l0.408,1.254l5.087,1.246l-1.961-6.034l-4.707-14.481c3.073-5.604,4.879-12.556,4.879-18.933c0-20.275-16.346-36.158-37.213-36.158
		c-11.065,0-20.983,4.923-27.766,12.672C108.94,88.191,117.403,84.726,126.675,84.726z"/>
</g>
<g>
	<path fill="#FFFFFF" d="M82.228,43.579h-9.475l0.367-1.941l7.504-9.707H75.38l0.512-2.473h9.041l-0.396,1.951l-7.553,9.697h5.756
		L82.228,43.579z"/>
</g>
<g>
	<path fill="#FFFFFF" d="M63.556,71.001H48.04l0.601-3.179l12.29-15.896h-8.588l0.838-4.049h14.805l-0.648,3.195l-12.369,15.88
		h9.426L63.556,71.001z"/>
</g>
<g>
	<path fill="#FFFFFF" d="M78.458,89.068h-9.475l0.367-1.941l7.505-9.707H71.61l0.512-2.472h9.041l-0.396,1.951l-7.553,9.697h5.757
		L78.458,89.068z"/>
</g>
<g>
	<path fill="#2CA7AB" d="M134.003,120.499h-10.065l0.39-2.063l7.971-10.31h-5.571l0.544-2.626h9.602l-0.421,2.072l-8.023,10.299
		h6.115L134.003,120.499z"/>
</g>
<g>
	<path fill="#2CA7AB" d="M115.998,130.504h-10.064l0.39-2.063l7.972-10.31h-5.572l0.544-2.626h9.602l-0.421,2.072l-8.022,10.299
		h6.115L115.998,130.504z"/>
</g>
<g>
	<path fill="#2CA7AB" d="M152.008,130.504h-10.065l0.39-2.063l7.971-10.31h-5.571l0.544-2.626h9.602l-0.421,2.072l-8.023,10.299
		h6.115L152.008,130.504z"/>
</g>
</svg>
