<svg width="512" height="512" viewBox="0 0 512 512" fill="none" xmlns="http://www.w3.org/2000/svg">
<path d="M256 0C114.846 0 0 114.836 0 256C0 397.164 114.846 512 256 512C397.154 512 512 397.164 512 256C512 114.836 397.154 0 256 0ZM256 492.308C125.706 492.308 19.6923 386.294 19.6923 256C19.6923 125.706 125.706 19.6923 256 19.6923C386.294 19.6923 492.308 125.706 492.308 256C492.308 386.294 386.294 492.308 256 492.308Z" fill="#333333"/>
<mask id="path-2-inside-1" fill="white">
<rect x="140" y="151" width="233" height="211" rx="10"/>
</mask>
<rect x="140" y="151" width="233" height="211" rx="10" stroke="#333333" stroke-width="44" mask="url(#path-2-inside-1)"/>
</svg>
