<svg width="539" height="395" viewBox="0 0 539 395" fill="none" xmlns="http://www.w3.org/2000/svg">
<g clip-path="url(#clip0)">
<path d="M539 228.551C539 288.711 487.276 341.408 409.765 370.667C368.923 386.043 320.926 395 269.5 395C182.598 395 105.385 369.622 56.0465 330.212C21.0174 302.147 0 266.916 0 228.551C0 136.593 120.738 62.1013 269.5 62.1013C418.262 62.1013 539 136.593 539 228.551Z" fill="#A6C8A6" fill-opacity="0.5"/>
<path d="M472.668 62.1013H393.369C389.791 62.1013 386.959 64.9376 386.959 68.5204C386.959 72.1032 389.791 74.9395 393.369 74.9395H410.51C414.088 74.9395 416.92 77.7759 416.92 81.3587C416.92 83.15 416.175 84.7921 414.982 85.8371C413.79 87.0314 412.299 87.7778 410.51 87.7778H380.997C377.419 87.7778 374.587 90.6141 374.587 94.1969C374.587 97.7797 377.419 100.616 380.997 100.616H448.67C452.247 100.616 455.079 97.7797 455.079 94.1969C455.079 90.6141 452.247 87.7778 448.67 87.7778H437.341C433.764 87.7778 430.932 84.9414 430.932 81.3587C430.932 79.5673 431.677 77.9252 432.869 76.8802C434.062 75.6859 435.553 74.9395 437.341 74.9395H472.668C476.246 74.9395 479.078 72.1032 479.078 68.5204C479.078 64.9376 476.097 62.1013 472.668 62.1013Z" fill="#A6C8A6"/>
<path opacity="0.71" d="M409.765 370.667C368.923 386.043 320.926 395 269.5 395C182.598 395 105.385 369.622 56.0464 330.212L217.925 150.028L374.289 185.707L409.765 370.667Z" fill="#A6C8A6" fill-opacity="0.5"/>
<path d="M310.492 111.215C278.146 103.005 246.843 98.6753 220.012 97.9289C221.205 95.6897 222.546 93.5998 224.037 91.5098C241.179 66.1319 269.947 49.5616 302.442 49.5616C351.334 49.5616 391.58 87.1806 396.946 135.548C397.244 137.937 397.393 140.474 397.542 142.863C372.649 130.323 342.688 119.276 310.492 111.215Z" fill="#FFFFFC"/>
<path d="M451.353 201.232C444.049 212.577 425.268 219.743 397.393 221.982C391.58 222.43 385.469 222.579 379.208 222.579C350.887 222.579 317.646 218.101 283.81 209.741C242.371 199.441 204.659 184.363 177.679 167.345C160.686 156.597 149.06 145.699 143.396 135.548C142.352 131.965 142.203 128.382 142.948 125.098C143.396 123.008 144.439 120.918 145.631 119.127C161.134 96.2869 230.894 92.8534 309.746 112.26C378.91 129.427 433.615 158.985 448.074 184.512C451.353 190.484 452.545 196.007 451.353 201.232Z" fill="#FFFFFC"/>
<path d="M451.353 207.203C450.459 208.696 449.415 210.04 448.074 211.234C444.943 214.518 440.621 217.205 435.404 219.594C432.72 220.788 429.888 221.833 426.758 222.878C424.82 223.475 422.883 224.072 420.796 224.52C418.709 224.968 416.622 225.416 414.386 225.864C412.15 226.311 409.765 226.61 407.38 226.909C404.101 227.356 400.822 227.655 397.393 227.953C392.623 228.401 387.704 228.551 382.487 228.551C381.295 228.551 380.251 228.551 379.059 228.551C378.016 228.551 376.972 228.551 375.929 228.551C373.842 228.551 371.755 228.551 369.668 228.401C362.811 228.252 355.806 227.655 348.502 227.058C346.862 226.909 345.222 226.759 343.583 226.61C343.434 226.61 343.285 226.61 342.987 226.61C342.539 226.61 342.092 226.461 341.645 226.461C339.409 226.162 337.322 226.013 335.086 225.714C334.043 225.565 333.149 225.416 332.105 225.266C329.869 224.968 327.633 224.669 325.547 224.371C324.503 224.221 323.46 224.072 322.565 223.923C320.329 223.624 318.094 223.176 316.007 222.878C312.876 222.281 309.597 221.684 306.467 221.087C304.231 220.639 301.846 220.191 299.61 219.743C295.138 218.847 290.667 217.802 286.344 216.757C285.449 216.608 284.555 216.31 283.661 216.16C282.319 215.862 281.127 215.563 279.934 215.115C279.934 215.115 279.934 215.115 279.785 215.115C277.4 214.518 275.015 213.921 272.63 213.175C271.14 212.727 269.649 212.279 268.159 211.98C267.264 211.682 266.37 211.532 265.475 211.234C263.836 210.786 262.345 210.338 260.706 209.89C259.96 209.592 259.215 209.443 258.47 209.144C256.83 208.696 255.19 208.099 253.7 207.651C252.954 207.353 252.209 207.203 251.613 206.905C249.973 206.308 248.334 205.86 246.843 205.263C246.247 205.113 245.501 204.815 244.905 204.516C243.266 203.919 241.626 203.471 240.135 202.874C239.539 202.725 238.943 202.426 238.347 202.277C236.707 201.68 235.067 201.083 233.428 200.486C232.98 200.336 232.533 200.187 232.086 199.888C230.297 199.291 228.658 198.545 226.869 197.948C226.869 197.948 226.869 197.948 226.72 197.948C224.931 197.201 223.142 196.455 221.354 195.709C218.82 194.664 216.286 193.619 213.901 192.574C210.323 191.081 206.895 189.439 203.467 187.797C203.318 187.647 203.168 187.647 203.019 187.498C201.529 186.752 200.038 186.005 198.548 185.259C197.653 184.811 196.908 184.363 196.014 184.065C195.268 183.617 194.374 183.169 193.629 182.721C192.585 182.124 191.542 181.676 190.647 181.079C187.666 179.437 184.983 177.944 182.151 176.302C180.66 175.406 179.319 174.511 177.828 173.615C168.288 167.494 160.388 161.523 154.277 155.552C149.656 150.924 145.93 146.296 143.545 141.818C142.65 138.683 142.352 135.697 142.799 132.861C142.799 132.562 142.948 132.413 142.948 132.115C142.948 131.816 142.948 131.667 143.097 131.517C143.694 129.427 144.588 127.337 145.78 125.546C161.432 102.706 231.192 99.2725 309.895 118.828C379.059 135.996 433.764 165.554 448.223 191.081C449.862 194.066 451.055 196.903 451.651 199.739C451.651 200.038 451.8 200.336 451.8 200.486C451.949 202.576 451.8 204.964 451.353 207.203Z" fill="#355A2F"/>
<path d="M345.073 196.156C329.273 196.156 309.746 193.469 289.921 188.543C252.656 179.288 222.546 164.509 215.242 151.67C213.454 148.685 213.006 145.699 213.603 143.012C216.137 132.861 233.279 130.771 247.141 130.771C262.941 130.771 282.468 133.458 302.293 138.384C323.758 143.758 343.434 151.073 357.743 159.135C373.246 167.942 380.55 176.451 378.612 184.065C378.314 185.408 377.717 186.602 376.823 187.797C371.457 194.664 356.551 196.156 345.073 196.156Z" fill="#5B5A57"/>
<path d="M334.341 0C327.931 0 322.714 5.22487 322.714 11.644C322.714 16.7196 325.845 20.8995 330.316 22.5416L320.18 48.0688L319.733 49.263L331.062 52.8458L331.211 50.7559L333.298 23.1387C333.596 23.1387 334.043 23.1387 334.341 23.1387C340.751 23.1387 345.968 17.9138 345.968 11.4947C345.968 5.22487 340.751 0 334.341 0ZM334.341 17.3167C331.211 17.3167 328.677 14.7789 328.677 11.644C328.677 8.50907 331.211 5.97128 334.341 5.97128C337.471 5.97128 340.005 8.50907 340.005 11.644C340.005 14.7789 337.471 17.3167 334.341 17.3167Z" fill="#5D9C5A"/>
<path d="M375.631 183.169C375.333 184.065 375.034 184.96 374.438 185.707C366.985 195.41 331.36 195.559 290.816 185.408C253.998 176.302 224.782 161.672 218.074 150.028C216.733 147.789 216.286 145.699 216.882 143.758C219.863 131.667 257.873 130.622 301.846 141.519C345.521 152.268 378.612 170.928 375.631 183.169Z" fill="#FFFFFC"/>
<path d="M374.289 185.707C366.836 195.41 331.211 195.559 290.667 185.408C253.849 176.302 224.633 161.672 217.925 150.028C225.378 140.325 261.004 140.176 301.548 150.327C338.366 159.433 367.581 174.063 374.289 185.707Z" fill="#E7F6FD"/>
<path d="M399.331 143.759C399.331 142.564 399.331 141.519 399.331 140.325C397.542 98.3768 369.519 63.1463 331.211 50.9051C327.633 49.7109 324.056 48.8152 320.329 48.0688C314.218 46.8745 307.808 46.2774 301.399 46.2774C265.326 46.2774 233.726 65.8333 216.733 95.0926C216.137 96.1376 215.54 97.0333 215.093 98.0782C214.795 98.6754 214.497 99.1232 214.348 99.7203C214.05 100.168 213.901 100.765 213.603 101.213C214.05 101.213 214.497 101.213 214.795 101.213C216.584 101.213 218.373 101.213 220.31 101.213C220.608 100.765 220.757 100.168 221.056 99.7203C221.354 99.1232 221.652 98.6754 221.95 98.0782C221.95 98.0782 221.95 97.929 222.099 97.929C222.695 97.0333 223.292 95.9883 223.739 95.0926C240.135 69.2668 268.904 52.0994 301.548 52.0994C349.992 52.0994 389.642 89.5692 393.369 137.19C393.518 138.384 393.518 139.429 393.518 140.624C393.518 141.071 393.518 141.669 393.518 142.116C393.518 142.714 393.518 143.311 393.518 143.908C395.605 144.953 397.542 145.998 399.48 147.043C399.48 146.446 399.48 145.848 399.48 145.251C399.48 144.953 399.48 144.654 399.48 144.356C399.331 144.206 399.331 143.908 399.331 143.759ZM222.993 192.872C222.248 191.678 221.652 190.484 220.907 189.29C220.757 189.14 220.608 188.842 220.459 188.543C217.478 187.349 214.646 186.005 211.963 184.811C212.112 185.11 212.261 185.259 212.261 185.557C212.708 186.752 213.304 187.797 213.901 188.991C214.646 190.484 215.391 191.827 216.286 193.32C217.776 194.067 219.416 194.664 221.056 195.261C222.695 195.858 224.335 196.604 225.975 197.201C224.931 195.858 223.888 194.365 222.993 192.872ZM352.377 221.385C352.228 221.385 352.228 221.385 352.079 221.385C350.738 222.281 349.396 223.177 348.055 223.923C346.564 224.819 345.073 225.714 343.434 226.461C343.583 226.461 343.732 226.461 344.03 226.461C345.67 226.61 347.309 226.759 348.949 226.909C350.589 227.058 352.228 227.207 353.868 227.356C355.209 226.461 356.551 225.565 357.893 224.669C359.085 223.774 360.427 222.878 361.619 221.982C358.34 221.833 355.359 221.684 352.377 221.385Z" fill="#5B5A57"/>
<path d="M309.001 113.604C278.295 105.99 248.632 101.96 223.142 101.213C224.335 99.1232 225.527 97.1825 226.869 95.2419C243.116 71.6553 270.394 56.13 301.25 56.13C347.607 56.13 385.916 91.2113 391.133 136.294C391.431 138.534 391.58 140.922 391.729 143.161C368.178 131.517 339.558 121.217 309.001 113.604Z" fill="#A6C8A6" fill-opacity="0.5"/>
<path d="M298.567 73.596C295.735 73.596 293.499 71.3568 293.35 68.5204C293.201 65.6841 295.436 63.1463 298.418 63.1463L310.939 62.6984C313.92 62.5491 316.305 64.7884 316.305 67.774C316.454 70.6104 314.218 73.1482 311.237 73.1482L298.716 73.596C298.716 73.596 298.716 73.596 298.567 73.596Z" fill="white"/>
<path d="M257.575 82.105C262.345 78.9701 274.866 72.7003 281.425 70.9089L257.575 82.105Z" fill="white"/>
<path d="M257.575 87.3299C255.936 87.3299 254.147 86.4342 253.252 84.9414C251.762 82.5529 252.358 79.2687 254.743 77.7759C259.364 74.7902 272.481 67.9233 280.083 65.9826C282.915 65.2362 285.747 66.8783 286.493 69.7147C287.238 72.551 285.598 75.3874 282.766 76.1338C277.102 77.6266 265.177 83.4486 260.407 86.5835C259.513 87.0314 258.619 87.3299 257.575 87.3299Z" fill="white"/>
<path d="M451.2 200.003C458.166 171.832 394.822 131.883 309.716 110.775C224.611 89.6666 149.972 95.3918 143.005 123.562C136.039 151.733 199.384 191.682 284.489 212.79C369.595 233.898 444.234 228.173 451.2 200.003Z" stroke="white" stroke-width="0.81569" stroke-miterlimit="10"/>
<path d="M393.369 142.266C392.773 141.967 392.176 141.669 391.58 141.37C368.774 130.174 340.602 120.023 309.746 112.409C278.891 104.796 249.377 100.616 224.037 99.8696C222.993 99.8696 221.95 99.8696 220.907 99.7203C220.608 100.168 220.31 100.616 220.161 101.213C221.205 101.213 222.248 101.213 223.292 101.213C232.831 101.512 242.967 102.258 253.551 103.452C257.128 103.9 260.706 104.348 264.283 104.796C278.742 106.886 293.797 109.722 309.15 113.604C339.707 121.217 368.327 131.368 391.878 143.012C392.474 143.311 393.071 143.609 393.667 143.908C393.369 143.46 393.369 142.863 393.369 142.266ZM416.622 150.178C411.256 146.744 405.443 143.46 399.331 140.325C398.586 140.026 397.99 139.579 397.244 139.28C395.903 138.534 394.561 137.937 393.071 137.19C392.474 136.892 391.729 136.593 391.133 136.294C367.88 125.098 340.154 115.246 310.492 107.931C280.381 100.467 251.762 96.2869 227.018 95.2419C225.826 95.2419 224.782 95.0926 223.59 95.0926C222.993 95.0926 222.397 95.0926 221.652 95.0926C220.012 95.0926 218.224 95.0926 216.584 95.0926C174.251 94.794 144.588 104.497 139.967 122.859C138.477 128.681 139.669 134.951 143.246 141.519C145.78 145.998 149.358 150.625 153.979 155.253C160.09 161.224 167.841 167.345 177.53 173.316C178.872 174.212 180.362 175.108 181.853 176.003C184.536 177.646 187.368 179.288 190.349 180.78C191.393 181.378 192.287 181.825 193.331 182.423C194.076 182.87 194.97 183.318 195.716 183.766C196.461 184.214 197.355 184.662 198.25 184.96C199.74 185.707 201.231 186.453 202.721 187.2C202.87 187.2 203.019 187.349 203.169 187.498C206.597 189.14 210.025 190.782 213.603 192.275C214.497 192.723 215.391 193.022 216.286 193.469C217.776 194.216 219.416 194.813 221.056 195.41C222.695 196.007 224.335 196.754 225.975 197.351C226.273 197.5 226.422 197.5 226.72 197.649C243.117 204.218 261.153 209.89 279.934 214.817C279.934 214.817 279.934 214.817 280.083 214.817C281.425 215.115 282.617 215.414 283.81 215.712C284.704 215.862 285.599 216.16 286.493 216.31C290.965 217.354 295.437 218.399 299.759 219.295C301.995 219.743 304.38 220.191 306.616 220.639C319.137 223.176 331.509 224.968 343.285 226.311C343.434 226.311 343.583 226.311 343.881 226.311C345.521 226.461 347.16 226.61 348.8 226.759C350.44 226.909 352.079 227.058 353.719 227.207C359.234 227.655 364.749 227.954 369.966 228.103C372.053 228.103 374.14 228.252 376.227 228.252C377.27 228.252 378.314 228.252 379.357 228.252C380.55 228.252 381.593 228.252 382.785 228.252C387.854 228.252 392.922 227.953 397.691 227.655C401.12 227.356 404.548 227.058 407.678 226.61C410.063 226.311 412.448 225.864 414.684 225.565C416.92 225.117 419.007 224.669 421.094 224.221C423.181 223.774 425.118 223.176 427.056 222.579C430.187 221.534 433.019 220.489 435.702 219.295C440.919 216.907 445.242 214.07 448.372 210.935C449.564 209.592 450.757 208.248 451.651 206.905C452.993 204.964 453.887 202.725 454.483 200.486C457.912 185.856 444.496 167.793 416.622 150.178ZM448.819 195.709C448.819 196.903 448.67 198.097 448.372 199.291C445.391 211.383 426.609 219.594 396.946 221.833C392.027 222.281 386.81 222.43 381.444 222.43C375.034 222.43 368.327 222.281 361.321 221.833C358.34 221.684 355.359 221.385 352.377 221.236C352.228 221.236 352.228 221.236 352.079 221.236C331.062 219.444 308.256 215.563 285.3 209.741C262.494 204.068 240.881 197.052 221.503 188.842C221.205 188.692 220.907 188.543 220.608 188.394C217.627 187.2 214.795 185.856 212.112 184.662C205.852 181.825 200.038 178.989 194.523 176.003C189.753 173.466 185.132 170.779 180.81 168.091C156.215 152.566 143.545 136.892 145.78 124.949C145.78 124.65 145.93 124.352 145.93 124.053C149.656 108.976 176.04 101.064 213.454 100.915C213.901 100.915 214.348 100.915 214.646 100.915C216.435 100.915 218.224 100.915 220.161 100.915C221.205 100.915 222.248 100.915 223.292 100.915C232.831 101.213 242.967 101.96 253.551 103.154C257.128 103.602 260.706 104.05 264.283 104.497C278.742 106.587 293.797 109.424 309.15 113.305C339.707 120.918 368.327 131.07 391.878 142.714C392.474 143.012 393.071 143.311 393.667 143.609C395.754 144.654 397.691 145.699 399.629 146.744C404.548 149.431 409.318 152.118 413.79 154.955C433.317 167.345 445.391 179.735 448.372 190.334C448.521 192.424 448.819 194.067 448.819 195.709ZM393.369 142.266C393.369 141.818 393.369 141.221 393.369 140.773C393.369 139.579 393.22 138.534 393.22 137.339C392.623 137.041 391.878 136.742 391.282 136.444C368.029 125.248 340.303 115.395 310.641 108.08C280.531 100.616 251.911 96.4361 227.167 95.3912C225.975 95.3912 224.931 95.2419 223.739 95.2419C223.143 96.1376 222.546 97.0333 222.099 98.0782L221.95 98.2275C221.652 98.8247 221.354 99.2725 221.056 99.8696C220.758 100.317 220.459 100.765 220.31 101.362C221.354 101.362 222.397 101.362 223.441 101.362C232.98 101.661 243.117 102.407 253.7 103.602C257.277 104.05 260.855 104.497 264.432 104.945C278.891 107.035 293.946 109.872 309.299 113.753C339.856 121.366 368.476 131.517 392.027 143.161C392.623 143.46 393.22 143.759 393.816 144.057C393.369 143.46 393.369 142.863 393.369 142.266Z" fill="#5B5A57"/>
<path opacity="0.71" d="M382.636 228.551C381.444 228.551 380.4 228.551 379.208 228.551C378.165 228.551 377.121 228.551 376.078 228.551C373.991 228.551 371.904 228.551 369.817 228.401C362.961 228.252 355.955 227.655 348.651 227.058C347.011 226.909 345.371 226.759 343.732 226.61C343.583 226.61 343.434 226.61 343.136 226.61C342.688 226.61 342.241 226.461 341.794 226.461C339.558 226.162 337.471 226.013 335.235 225.714C334.192 225.565 333.298 225.416 332.254 225.266C330.018 224.968 327.782 224.669 325.696 224.371C324.652 224.221 323.609 224.072 322.714 223.923C320.478 223.624 318.243 223.176 316.156 222.878C313.026 222.281 309.746 221.684 306.616 221.087C304.38 220.639 301.995 220.191 299.759 219.743C295.287 218.847 290.816 217.802 286.493 216.757C285.599 216.608 284.704 216.31 283.81 216.16C282.468 215.862 281.276 215.563 280.083 215.115C280.083 215.115 280.083 215.115 279.934 215.115C277.549 214.518 275.164 213.921 272.779 213.175C271.289 212.727 269.798 212.279 268.308 211.98C267.413 211.682 266.519 211.532 265.624 211.234C263.985 210.786 262.494 210.338 260.855 209.89C260.109 209.592 259.364 209.443 258.619 209.144C256.979 208.696 255.339 208.099 253.849 207.651C253.103 207.353 252.358 207.203 251.762 206.905C250.122 206.308 248.483 205.86 246.992 205.263C246.396 205.113 245.65 204.815 245.054 204.516C243.415 203.919 241.775 203.471 240.284 202.874C239.688 202.725 239.092 202.426 238.496 202.277C236.856 201.68 235.216 201.083 233.577 200.486C233.129 200.336 232.682 200.187 232.235 199.888C230.446 199.291 228.807 198.545 227.018 197.948C227.018 197.948 227.018 197.948 226.869 197.948C225.08 197.201 223.292 196.455 221.503 195.709C218.969 194.664 216.435 193.619 214.05 192.574C210.472 191.081 207.044 189.439 203.616 187.797C203.467 187.647 203.318 187.647 203.168 187.498C201.678 186.752 200.187 186.005 198.697 185.259C197.802 184.811 197.057 184.363 196.163 184.065C195.417 183.617 194.523 183.169 193.778 182.721C192.734 182.124 191.691 181.676 190.797 181.079L192.883 178.84L194.374 177.198L194.821 176.601L216.137 152.865L218.373 150.476L374.736 186.155L375.482 189.887L381.891 223.027L382.487 226.013L382.636 228.551Z" fill="url(#paint0_linear)"/>
<path d="M128.937 209.443H49.1897C45.6123 209.443 42.7802 212.279 42.7802 215.862C42.7802 219.444 45.6123 222.281 49.1897 222.281H81.9829C85.5603 222.281 88.3924 225.117 88.3924 228.7C88.3924 230.491 87.6471 232.133 86.4547 233.178C85.2622 234.373 83.7716 235.119 81.9829 235.119H74.3808C70.8034 235.119 67.9712 237.955 67.9712 241.538C67.9712 245.121 70.8034 247.957 74.3808 247.957H157.109C160.686 247.957 163.519 245.121 163.519 241.538C163.519 237.955 160.686 235.119 157.109 235.119H112.54C108.963 235.119 106.131 232.283 106.131 228.7C106.131 226.909 106.876 225.266 108.068 224.221C109.261 223.027 110.751 222.281 112.54 222.281H128.937C132.514 222.281 135.346 219.444 135.346 215.862C135.346 212.279 132.365 209.443 128.937 209.443Z" fill="#A6C8A6"/>
<path d="M493.686 74.7902C497.226 74.7902 500.095 71.9163 500.095 68.3711C500.095 64.8259 497.226 61.952 493.686 61.952C490.146 61.952 487.276 64.8259 487.276 68.3711C487.276 71.9163 490.146 74.7902 493.686 74.7902Z" fill="#A6C8A6"/>
<path d="M348.8 333.944C348.353 333.944 348.054 333.944 347.607 333.944H347.16C346.564 333.944 345.968 333.944 345.371 333.794V332.152L345.222 333.794C344.626 333.794 344.179 333.645 343.583 333.645H343.135C342.539 333.496 342.092 333.496 341.496 333.347H341.347C340.9 333.197 340.303 333.048 339.856 332.899L339.558 332.749C339.111 332.6 338.515 332.451 338.067 332.302C337.471 332.152 337.024 332.003 336.577 331.704L336.279 331.555C335.832 331.406 335.384 331.107 334.788 330.958C334.341 330.809 333.894 330.51 333.447 330.361H333.298C332.85 330.212 332.403 329.913 331.956 329.764C329.571 328.57 327.782 327.375 326.888 326.778C325.546 325.882 324.205 324.688 323.012 323.494L321.075 323.345C321.075 323.345 317.199 318.418 315.858 316.776C314.665 315.283 314.218 313.641 314.516 312.149C314.367 311.85 314.069 311.551 313.92 311.253C312.429 308.864 311.833 306.177 311.982 304.535C311.982 304.237 311.982 303.639 312.28 301.848C312.131 301.699 311.982 301.4 311.833 301.102C311.684 300.803 311.386 300.505 311.237 300.206C309.15 296.474 306.765 288.861 306.318 285.726C305.721 281.994 305.572 278.859 308.852 276.172C309.448 275.724 310.044 275.276 310.79 274.828L310.939 274.38L311.088 274.231C311.535 273.634 312.578 272.589 313.622 271.992C314.665 271.395 315.559 270.947 316.007 270.797C317.497 269.006 319.882 267.065 322.714 267.065C323.609 267.065 324.652 267.215 325.546 267.663C325.695 267.663 325.695 267.812 325.845 267.812C325.994 267.961 326.143 267.961 326.441 268.11L326.59 268.26C326.739 268.409 327.037 268.558 327.186 268.707C327.484 269.006 327.782 269.155 327.931 269.305C328.229 269.603 328.379 269.752 328.677 270.051L328.826 270.2C328.975 270.499 329.124 270.648 329.273 270.947L329.422 271.096C329.571 271.245 329.72 271.544 329.869 271.842L330.018 271.992C330.167 272.29 330.316 272.44 330.465 272.738C330.614 273.186 330.764 273.484 330.913 273.783C331.062 274.231 331.211 274.529 331.36 274.977C331.807 276.321 332.254 277.963 332.701 279.904C332.999 280.949 333.298 281.994 333.596 283.337V283.486C333.745 284.084 333.894 284.531 334.043 284.979L334.192 285.576C334.341 286.323 334.639 286.92 334.788 287.666C334.937 288.413 335.235 289.01 335.384 289.607L335.533 290.055C335.682 290.652 335.832 291.249 335.981 291.697V291.995C336.13 292.443 336.279 292.891 336.279 293.339V293.488C336.428 294.085 336.577 294.533 336.577 294.981V295.28C336.577 295.728 336.726 296.026 336.726 296.474C336.726 296.922 336.875 297.37 336.875 297.668V297.817C336.875 298.116 336.875 298.564 336.875 298.862V299.012C336.875 299.31 336.875 299.46 336.875 299.758V299.907C336.875 300.206 336.875 300.505 336.726 300.654V300.952V301.251C336.726 301.4 336.577 301.549 336.577 301.549L335.832 301.251L334.937 301.102L336.577 301.699C335.832 303.341 334.639 304.237 333.298 304.834C332.85 304.983 332.403 305.132 331.956 305.282L331.658 305.431C331.211 305.58 330.913 305.58 330.465 305.58C330.167 305.58 329.869 305.58 329.571 305.58C329.422 305.58 329.273 305.58 329.124 305.58C327.931 305.58 326.888 305.431 326.143 305.282C325.546 305.431 324.801 305.58 323.758 305.58C323.46 305.58 323.161 305.58 322.714 305.58C321.224 305.58 319.733 304.983 319.584 304.983L318.839 304.386C318.69 304.386 318.392 304.386 318.242 304.386C318.242 304.834 318.242 305.282 318.242 305.58C318.392 307.073 318.988 308.416 319.584 309.312C319.733 309.312 319.733 309.312 319.882 309.312C322.714 310.208 327.186 315.582 328.528 317.224L328.379 318.568C331.956 321.553 339.707 326.629 349.098 326.629H349.545C362.96 326.33 367.283 318.269 369.221 314.388C370.115 312.746 370.712 311.104 371.457 309.312L370.861 308.267C371.308 306.177 372.947 299.31 375.034 297.37L375.183 297.22C375.332 296.175 375.183 294.683 374.736 293.339C374.587 293.04 374.438 292.593 374.289 292.145C374.14 292.294 373.991 292.294 373.693 292.443L373.246 293.339C373.096 293.488 372.053 294.533 370.712 295.28C370.413 295.429 370.115 295.578 369.817 295.728C369.072 296.026 368.476 296.325 367.879 296.474C367.73 296.474 367.581 296.623 367.432 296.623C365.942 297.668 363.408 299.31 360.725 299.31C359.234 299.31 357.743 299.161 356.551 297.967L356.402 297.817C356.253 297.668 356.104 297.519 355.955 297.37L355.806 297.22C355.656 297.071 355.507 296.772 355.358 296.623L355.209 296.474C355.06 296.325 354.911 296.026 354.911 295.877L354.762 295.728C354.613 295.429 354.464 295.13 354.315 294.832L354.166 294.533C354.017 294.235 353.868 293.936 353.868 293.488C353.719 293.04 353.57 292.742 353.57 292.294V291.995C353.421 291.548 353.272 291.1 353.272 290.652V290.503C353.122 289.906 352.973 289.458 352.973 289.01V288.711C352.824 288.114 352.824 287.666 352.675 286.92L352.526 286.472C352.377 285.875 352.228 285.128 352.228 284.531C352.079 283.785 351.93 283.039 351.781 282.292L351.334 280.053C351.036 278.709 350.887 277.664 350.588 276.619C350.141 274.679 349.843 273.037 349.694 271.693C349.694 271.395 349.545 270.947 349.545 270.648C349.545 270.2 349.545 269.902 349.396 269.603C349.396 269.155 349.396 268.857 349.396 268.558V268.409C349.396 268.11 349.396 267.812 349.396 267.513V267.364C349.396 267.065 349.545 266.767 349.545 266.468V266.319C349.694 266.02 349.694 265.722 349.843 265.423V265.274C349.992 264.975 349.992 264.677 350.141 264.528C350.29 264.229 350.439 263.93 350.738 263.632C350.887 263.333 351.036 263.184 351.334 262.885C352.526 261.243 354.464 260.348 356.551 260.348C358.041 260.348 359.532 260.646 361.172 261.393C361.321 261.393 361.619 261.393 361.917 261.393C362.364 261.393 363.109 261.393 363.855 261.542C364.898 261.691 366.091 261.99 366.836 262.288L367.283 262.438L367.581 262.736C368.327 262.885 369.072 262.885 369.817 263.184C370.712 263.333 371.606 263.632 372.351 264.08C372.5 264.08 372.5 264.229 372.649 264.229C372.947 264.378 373.096 264.528 373.395 264.677C373.544 264.826 373.544 264.826 373.693 264.975C373.842 265.125 373.991 265.274 374.14 265.573C374.289 265.722 374.289 265.722 374.438 265.871C374.587 266.17 374.885 266.468 375.034 266.767L375.183 266.916C375.332 267.215 375.481 267.513 375.63 267.812L375.78 268.26C375.929 268.558 375.929 268.707 376.078 269.006L376.227 269.305C376.376 269.603 376.525 270.051 376.525 270.499C377.568 273.783 379.208 283.934 378.165 287.517C379.059 288.711 379.357 289.458 379.655 289.756C380.4 291.249 381.146 293.936 380.848 296.623C380.848 297.071 380.699 297.37 380.699 297.668C381.593 298.862 381.891 300.505 381.444 302.445C380.997 304.386 379.655 310.506 379.655 310.506L378.463 311.253C376.674 316.328 372.5 324.837 362.662 330.212C362.066 330.51 361.321 330.809 360.725 331.107L360.277 331.257C359.681 331.555 358.936 331.854 358.34 332.003C357.594 332.302 356.998 332.451 356.402 332.6L355.955 332.749C355.358 332.899 354.613 333.048 354.017 333.197C353.272 333.347 352.675 333.347 352.079 333.496H351.632C351.036 333.496 350.439 333.645 349.843 333.645L348.8 333.944Z" fill="#5B5A57"/>
<path d="M324.205 317.672C324.205 317.672 334.639 328.868 349.098 328.57C363.557 328.271 368.327 319.165 370.264 315.283C372.947 310.357 373.991 305.282 373.991 305.282L377.568 306.327C377.568 306.327 375.78 320.956 361.321 328.868C346.862 336.78 331.956 328.122 327.931 325.136C323.907 322.3 321.224 318.866 321.224 318.866L324.205 317.672Z" fill="#5D9C5A"/>
<path opacity="0.4" d="M360.575 327.226C351.93 331.854 341.943 330.809 332.85 328.122C339.409 331.406 350.588 334.989 361.47 329.017C375.929 321.105 377.717 306.476 377.717 306.476L376.227 306.028C374.885 314.686 368.625 322.897 360.575 327.226Z" fill="#A6C8A6"/>
<path d="M361.47 328.271C347.011 336.183 332.105 327.525 328.08 324.539C324.95 322.3 322.714 319.762 321.82 318.717L321.522 318.866C321.522 318.866 324.056 322.3 328.229 325.136C332.254 327.972 347.309 336.631 361.619 328.868C376.078 320.956 377.866 306.327 377.866 306.327L377.419 306.177C376.525 309.76 373.693 321.703 361.47 328.271Z" fill="#355A2F"/>
<path d="M320.031 302.744C320.031 302.744 315.709 303.042 313.622 300.803C311.535 298.564 308.554 289.159 307.957 285.576C307.361 281.844 307.361 279.754 309.895 277.664C312.429 275.574 313.92 275.276 313.92 275.276C313.92 275.276 319.584 291.995 320.329 296.175C321.075 300.505 320.031 302.744 320.031 302.744Z" fill="#8FCB80"/>
<path d="M320.031 302.744C320.031 302.744 315.709 303.042 313.622 300.803C311.535 298.564 308.554 289.159 307.957 285.576C307.361 281.844 307.361 279.754 309.895 277.664C312.429 275.574 313.92 275.276 313.92 275.276C313.92 275.276 319.584 291.995 320.329 296.175C321.075 300.505 320.031 302.744 320.031 302.744Z" fill="url(#paint1_linear)"/>
<path opacity="0.4" d="M312.727 299.46C313.025 300.057 313.324 300.505 313.622 300.803C315.708 303.042 320.031 302.744 320.031 302.744C320.031 302.744 320.628 301.4 320.628 299.012C318.093 300.206 315.41 300.206 312.727 299.46Z" fill="#A6C8A6"/>
<path d="M324.801 303.639C324.801 303.639 329.124 304.834 332.105 303.49C335.086 301.997 336.13 300.505 332.701 288.413C329.124 276.321 329.571 271.992 324.652 269.603C319.882 267.215 315.709 274.231 315.709 274.231C315.709 274.231 316.156 288.562 318.392 293.936C320.628 299.31 324.801 303.639 324.801 303.639Z" fill="#5D9C5A"/>
<path opacity="0.4" d="M328.23 283.785C327.037 279.008 326.143 275.127 325.994 270.2C325.696 269.902 325.099 269.603 324.95 269.603C324.652 278.56 325.994 288.861 330.614 296.474C331.509 297.817 332.552 298.862 331.062 300.206C329.124 301.848 325.845 301.699 323.012 301.4C324.056 302.744 324.95 303.49 324.95 303.49C324.95 303.49 329.273 304.684 332.254 303.341C333.298 302.893 334.192 302.147 334.937 300.654C333.745 299.161 332.999 297.817 332.254 296.026C330.018 292.294 329.273 287.816 328.23 283.785Z" fill="#BBDB96"/>
<path d="M319.882 303.49C319.882 303.49 316.007 295.728 314.069 287.816C311.982 278.859 312.28 275.724 312.28 275.724C312.28 275.724 313.473 274.38 314.516 273.634C316.007 272.738 317.05 272.29 317.05 272.29C317.05 272.29 319.286 285.576 321.671 293.04C324.056 300.505 325.845 303.639 325.845 303.639C325.845 303.639 325.099 304.087 322.565 303.938C321.075 303.938 319.882 303.49 319.882 303.49Z" fill="#355A2F"/>
<path d="M314.963 289.607C313.622 285.129 312.876 279.904 312.727 275.127C312.429 275.425 312.28 275.574 312.28 275.574C312.28 275.574 311.982 278.709 314.069 287.666C315.858 295.728 319.882 303.341 319.882 303.341C319.882 303.341 320.18 303.49 320.777 303.639C317.944 299.758 316.305 294.235 314.963 289.607Z" fill="#355A2F"/>
<path d="M334.639 301.251C335.384 299.31 335.086 295.877 332.701 288.263C329.273 276.769 329.422 272.29 325.397 269.753C326.441 280.799 328.379 291.846 334.639 301.251Z" fill="#5D9C5A"/>
<path d="M319.137 311.999C319.137 311.999 316.603 309.611 316.156 305.729C315.708 301.848 316.901 297.22 317.497 292.891C317.944 288.711 318.839 286.024 317.944 285.427C316.454 284.531 316.007 286.173 315.559 290.055C315.112 294.085 313.622 303.192 313.622 304.535C313.622 305.879 313.92 308.267 315.261 310.208C316.603 312.148 317.944 313.492 317.944 313.492L319.137 311.999Z" fill="#5D9C5A"/>
<path d="M322.416 322.3L326.739 318.418C326.739 318.418 321.522 311.85 318.988 311.104C316.454 310.357 315.112 313.044 317.348 315.881C318.541 317.373 322.416 322.3 322.416 322.3Z" fill="#5D9C5A"/>
<path d="M371.457 291.846C371.457 291.846 375.481 290.204 376.376 287.368C377.27 284.531 375.929 274.679 374.736 271.096C373.693 267.513 372.798 265.573 369.519 264.826C366.389 264.08 364.898 264.528 364.898 264.528C364.898 264.528 367.134 281.994 368.327 286.173C369.519 290.353 371.457 291.846 371.457 291.846Z" fill="#8FCB80"/>
<path d="M371.457 291.846C371.457 291.846 375.481 290.204 376.376 287.368C377.27 284.531 375.929 274.679 374.736 271.096C373.693 267.513 372.798 265.573 369.519 264.826C366.389 264.08 364.898 264.528 364.898 264.528C364.898 264.528 367.134 281.994 368.327 286.173C369.519 290.353 371.457 291.846 371.457 291.846Z" fill="url(#paint2_linear)"/>
<path opacity="0.4" d="M374.438 277.366C375.183 282.74 374.587 287.069 369.221 288.861C370.264 291.1 371.308 291.846 371.308 291.846C371.308 291.846 375.332 290.204 376.227 287.368C377.121 284.531 375.78 274.679 374.587 271.096C373.693 268.409 373.097 266.618 371.308 265.573C373.246 269.305 373.991 273.634 374.438 277.366Z" fill="#355A2F"/>
<path d="M367.432 294.683C367.432 294.683 364.004 297.668 360.725 297.817C357.445 297.817 355.656 296.922 353.57 284.382C351.483 271.992 349.247 268.11 352.526 263.93C355.806 259.751 362.662 264.229 362.662 264.229C362.662 264.229 368.476 277.366 368.774 283.188C369.37 289.159 367.432 294.683 367.432 294.683Z" fill="#5D9C5A"/>
<path opacity="0.4" d="M361.023 292.891C360.874 292.891 360.575 293.04 360.426 293.04C359.979 293.19 359.532 293.19 359.085 293.19C359.085 294.384 359.085 296.175 358.638 297.37C359.234 297.668 359.979 297.668 360.725 297.668C364.004 297.668 367.432 294.533 367.432 294.533C367.432 294.533 368.476 291.697 368.774 287.816C368.625 288.114 368.327 288.263 368.028 288.562C366.687 290.95 363.706 292.443 361.023 292.891Z" fill="#355A2F"/>
<path d="M371.904 292.443C371.904 292.443 372.053 283.785 370.264 275.873C368.177 266.916 366.538 264.229 366.538 264.229C366.538 264.229 364.898 263.483 363.706 263.333C361.917 263.184 360.874 263.333 360.874 263.333C360.874 263.333 364.6 276.321 365.792 283.934C366.985 291.697 366.687 295.28 366.687 295.28C366.687 295.28 367.581 295.28 369.817 294.085C370.861 293.488 371.904 292.443 371.904 292.443Z" fill="#355A2F"/>
<path opacity="0.4" d="M366.687 291.995C366.836 294.235 366.687 295.28 366.687 295.28C366.687 295.28 367.581 295.28 369.817 294.085C370.861 293.488 371.904 292.443 371.904 292.443C371.904 292.443 371.904 290.055 371.755 286.771C370.712 289.159 369.072 291.1 366.687 291.995Z" fill="#A6C8A6"/>
<path d="M370.264 277.814C369.519 273.186 368.028 268.26 365.942 263.781C366.389 263.93 366.538 264.08 366.538 264.08C366.538 264.08 368.177 266.767 370.264 275.724C372.053 283.785 371.904 292.294 371.904 292.294C371.904 292.294 371.606 292.593 371.308 292.891C371.904 288.263 371.01 282.441 370.264 277.814Z" fill="#355A2F"/>
<path d="M357.594 296.922C356.104 295.578 354.911 292.294 353.57 284.531C351.632 272.738 349.545 268.707 352.079 264.677C355.955 274.977 359.085 285.726 357.594 296.922Z" fill="#5D9C5A"/>
<path d="M376.227 299.907C376.227 299.907 377.419 296.623 376.078 293.04C374.736 289.458 371.606 285.726 369.37 282.143C367.134 278.56 365.047 276.47 365.644 275.574C366.538 274.082 367.581 275.425 369.817 278.709C372.053 282.143 377.27 289.756 377.866 290.95C378.463 292.145 379.208 294.533 378.91 296.772C378.612 299.161 377.866 300.952 377.866 300.952L376.227 299.907Z" fill="#5D9C5A"/>
<path d="M377.717 310.506L372.202 308.864C372.202 308.864 373.991 300.654 375.929 298.862C377.866 297.071 380.251 298.862 379.506 302.445C379.059 304.386 377.717 310.506 377.717 310.506Z" fill="#5D9C5A"/>
<path opacity="0.4" d="M322.118 300.654C321.224 301.55 319.882 301.4 318.69 301.251C319.286 302.744 319.733 303.49 319.733 303.49C319.733 303.49 321.075 303.938 322.267 304.087C324.801 304.237 325.546 303.789 325.546 303.789C325.546 303.789 324.354 301.848 322.714 297.22C323.012 298.415 323.012 299.758 322.118 300.654Z" fill="#A6C8A6"/>
<path opacity="0.4" d="M318.988 311.104C318.392 310.954 317.944 310.954 317.497 311.104C319.435 312.298 321.075 314.238 321.969 316.328C323.012 318.568 322.863 319.762 321.522 321.404C321.969 322.001 322.416 322.449 322.416 322.449L326.739 318.568C326.739 318.418 321.522 311.85 318.988 311.104Z" fill="#BBDB96"/>
<path opacity="0.4" d="M375.034 309.76L377.717 310.506C377.717 310.506 379.059 304.386 379.506 302.445C379.953 300.206 379.208 298.564 378.015 298.265C378.612 301.848 376.525 306.774 375.034 309.76Z" fill="#BBDB96"/>
<path d="M155.022 374.399C152.786 374.399 150.699 373.205 149.656 371.115L127.297 328.122C126.403 326.48 126.403 324.688 127.148 323.046C126.999 322.449 127.148 321.703 127.297 321.105L141.011 270.648C141.607 268.26 143.545 266.319 145.78 265.722L222.397 243.031C222.844 242.882 223.441 242.882 223.888 242.882C225.527 242.882 227.018 243.628 228.061 244.972C229.105 246.315 229.403 247.957 228.956 249.599L215.391 299.161L237.303 341.259C237.452 341.557 237.601 341.706 237.601 342.005V342.154C238.496 343.796 238.496 345.588 237.75 347.23C237.005 348.872 235.663 350.066 234.024 350.663L156.662 374.25C156.215 374.25 155.618 374.399 155.022 374.399Z" fill="#5B5A57"/>
<path d="M209.28 299.907L131.769 323.195C130.427 323.643 129.831 325.136 130.427 326.33L152.786 369.324C153.234 370.219 154.277 370.667 155.32 370.369L232.682 346.782C234.024 346.334 234.62 344.841 234.024 343.647L211.814 300.952C211.367 300.057 210.323 299.609 209.28 299.907Z" fill="#407DA0"/>
<path d="M211.069 299.46L233.726 342.901C234.322 343.946 233.726 345.289 232.682 345.588L156.364 369.174C155.469 369.473 154.575 369.025 154.128 368.279L131.471 326.032C131.024 325.136 131.471 324.091 132.365 323.793L211.069 299.46Z" fill="#A5CCD6"/>
<path d="M211.069 299.46L224.931 248.405C225.229 247.36 224.186 246.315 223.143 246.614L146.526 269.305C145.482 269.603 144.588 270.499 144.29 271.544L130.576 322.001C130.427 322.748 131.024 323.793 131.769 323.643L211.069 299.46Z" fill="#407DA0"/>
<path d="M209.28 298.713L133.707 321.105L146.824 273.335C147.122 272.29 147.867 271.544 148.911 271.245L222.993 248.853L209.28 298.713Z" fill="#EDF7F9"/>
<path d="M139.52 324.688L206.15 303.938C207.491 303.49 208.833 304.087 209.429 305.282L217.18 320.508C217.926 322.15 217.18 323.942 215.541 324.539L148.613 344.543C147.271 344.991 145.93 344.393 145.333 343.199L137.88 328.57C136.986 327.077 137.88 325.285 139.52 324.688Z" fill="#8E8E8E"/>
<path d="M192.436 333.496L173.357 339.467C171.568 340.064 170.823 342.005 171.568 343.647L178.723 357.232C179.319 358.426 180.81 359.023 182.151 358.724L201.38 352.753C203.169 352.156 203.914 350.215 203.019 348.573L195.716 335.138C195.119 333.794 193.778 333.197 192.436 333.496Z" fill="#8E8E8E"/>
<path d="M30.2591 223.475C33.799 223.475 36.6687 220.601 36.6687 217.056C36.6687 213.511 33.799 210.637 30.2591 210.637C26.7192 210.637 23.8495 213.511 23.8495 217.056C23.8495 220.601 26.7192 223.475 30.2591 223.475Z" fill="#A6C8A6"/>
<path d="M267.264 290.503C265.326 290.503 263.09 289.756 260.556 288.413C259.811 287.965 258.917 287.517 257.873 286.92C252.805 284.084 245.054 279.904 242.073 277.814C240.881 277.067 240.284 275.724 239.986 274.38C239.688 272.738 240.284 271.096 241.328 269.752C248.483 260.497 268.755 235.716 275.015 228.7C276.059 227.506 277.251 226.909 278.742 226.909C279.785 226.909 280.829 227.207 281.574 227.506C282.021 227.655 284.555 228.401 287.238 229.148C294.691 231.238 300.952 233.178 302.442 233.626C304.678 234.522 305.572 236.015 306.02 237.209C306.616 239.15 306.169 241.538 304.678 243.628C304.38 244.076 274.866 286.472 271.885 289.01C270.543 289.906 269.053 290.503 267.264 290.503Z" fill="#5B5A58"/>
<path d="M301.697 235.567C299.312 234.671 282.17 229.745 280.978 229.446C279.338 228.849 277.847 228.551 276.655 230.043C270.394 237.209 250.122 262.139 243.116 271.096C241.924 272.589 241.924 274.977 243.414 276.172C246.843 278.709 257.277 284.233 261.6 286.621C265.923 289.01 268.606 288.86 270.543 287.368C273.226 285.278 301.846 244.076 302.889 242.583C304.38 239.896 304.976 236.761 301.697 235.567Z" fill="#5B5A58"/>
<path d="M299.461 236.91C302.442 238.105 301.995 241.09 300.653 243.18C299.61 244.673 272.63 283.486 270.096 285.576C268.307 287.069 265.773 287.218 261.749 284.979C257.724 282.74 247.886 277.515 244.607 275.127C243.116 274.082 243.116 271.842 244.309 270.35C250.867 261.99 270.096 238.403 275.91 231.686C277.102 230.342 278.444 230.641 279.934 231.238C281.127 231.387 297.374 236.015 299.461 236.91Z" fill="#F1E58A"/>
<path d="M296.927 237.209C298.716 237.955 299.461 239.597 298.119 241.687C297.225 243.18 271.885 278.56 269.947 280.949C267.86 283.636 265.475 283.337 261.153 280.949C257.277 278.859 248.184 273.634 247.141 272.738C245.799 271.693 245.65 270.051 246.694 268.707C253.551 260.198 270.096 239.747 276.208 232.88C277.251 231.686 278.593 231.984 280.083 232.432C280.978 232.731 294.84 236.313 296.927 237.209Z" fill="#FAD778"/>
<path d="M293.2 235.567C293.2 235.567 291.71 237.508 290.219 236.91C288.729 236.313 284.704 235.418 283.064 234.82C281.574 234.373 281.574 232.133 281.574 232.133L293.2 235.567Z" fill="#F1E58A"/>
<path d="M289.027 234.97C288.878 235.268 289.027 235.716 289.325 235.716C289.623 235.865 289.921 235.716 290.07 235.418C290.219 235.119 290.07 234.671 289.772 234.671C289.474 234.522 289.176 234.671 289.027 234.97Z" fill="#AFBDDC"/>
<path d="M289.176 235.119C289.027 235.268 289.176 235.567 289.325 235.567C289.474 235.716 289.772 235.567 289.772 235.418C289.921 235.268 289.772 234.97 289.623 234.97C289.474 234.82 289.325 234.82 289.176 235.119Z" fill="url(#paint3_linear)"/>
<path d="M283.661 233.776L287.536 234.97C287.685 234.97 287.834 234.97 287.834 234.821C287.834 234.671 287.834 234.522 287.685 234.522L283.81 233.328C283.661 233.328 283.512 233.328 283.512 233.477C283.512 233.626 283.512 233.776 283.661 233.776Z" fill="#AFBDDC"/>
<path d="M299.014 244.225C298.716 244.225 296.629 247.509 296.48 247.659C296.182 248.107 297.076 248.704 297.523 248.107C297.821 247.808 299.759 245.121 299.759 244.822C299.908 244.375 299.312 244.076 299.014 244.225Z" fill="#F1E58A"/>
<path d="M300.206 244.673L300.057 245.419L297.374 248.704C297.374 248.704 296.629 248.405 297.225 247.659C297.672 246.912 299.163 244.524 299.61 244.375C299.908 244.375 300.206 244.673 300.206 244.673Z" fill="#AFBDDC"/>
<path d="M295.884 248.554C295.585 248.554 293.499 251.839 293.35 251.988C293.051 252.436 293.946 253.033 294.393 252.436C294.691 252.137 296.629 249.45 296.629 249.152C296.778 248.704 296.182 248.554 295.884 248.554Z" fill="#F1E58A"/>
<path d="M297.076 249.002L296.927 249.749L294.244 253.033C294.244 253.033 293.499 252.734 294.095 251.988C294.542 251.242 296.033 248.853 296.48 248.704C296.927 248.554 297.076 249.002 297.076 249.002Z" fill="#AFBDDC"/>
</g>
<defs>
<linearGradient id="paint0_linear" x1="282.915" y1="238.37" x2="294.77" y2="125.213" gradientUnits="userSpaceOnUse">
<stop stop-color="white"/>
<stop offset="1" stop-color="#F4F6F3" stop-opacity="0.39"/>
</linearGradient>
<linearGradient id="paint1_linear" x1="319.115" y1="288.24" x2="309.85" y2="291.684" gradientUnits="userSpaceOnUse">
<stop stop-color="#355A2F"/>
<stop offset="0.2447" stop-color="#5D9C5A"/>
<stop offset="0.7717" stop-color="#70C1F1"/>
<stop offset="1" stop-color="white"/>
</linearGradient>
<linearGradient id="paint2_linear" x1="365.902" y1="278.45" x2="375.738" y2="277.495" gradientUnits="userSpaceOnUse">
<stop stop-color="#355A2F"/>
<stop offset="0.2447" stop-color="#5D9C5A"/>
<stop offset="0.7717" stop-color="#A9D8F7"/>
<stop offset="1" stop-color="white"/>
</linearGradient>
<linearGradient id="paint3_linear" x1="289.85" y1="234.62" x2="289.253" y2="235.706" gradientUnits="userSpaceOnUse">
<stop stop-color="#75C698"/>
<stop offset="1" stop-color="white"/>
</linearGradient>
<clipPath id="clip0">
<rect width="539" height="395" fill="white"/>
</clipPath>
</defs>
</svg>
