<svg width="17" height="17" viewBox="0 0 17 17" fill="none" xmlns="http://www.w3.org/2000/svg">
<path d="M16.9998 2.125C16.9998 0.953206 16.0242 0 14.8249 0H6.34309C5.14382 0 4.16826 0.953206 4.16826 2.125V2.86877H5.61814V2.125C5.61814 1.73445 5.94338 1.41667 6.34309 1.41667H14.8249C15.2246 1.41667 15.5499 1.73445 15.5499 2.125V10.4125C15.5499 10.803 15.2246 11.1208 14.8249 11.1208H14.0634V12.5375H14.8342C16.0225 12.5326 16.9888 11.592 16.9997 10.4323L16.9998 2.125Z" fill="black"/>
<path fill-rule="evenodd" clip-rule="evenodd" d="M10.6567 4.46248C11.8559 4.46248 12.8315 5.41568 12.8315 6.58748V14.875C12.8315 16.0437 11.861 16.995 10.666 17H2.16554C0.970524 16.995 0 16.0437 0 14.875V6.58748C0 5.41568 0.975558 4.46248 2.17483 4.46248H10.6567ZM10.6567 15.5833C11.0564 15.5833 11.3816 15.2655 11.3816 14.875V6.58748C11.3816 6.19693 11.0564 5.87914 10.6567 5.87914H2.17483C1.77512 5.87914 1.44989 6.19693 1.44989 6.58748V14.875C1.44989 15.2655 1.77512 15.5833 2.17483 15.5833H10.6567Z" fill="black"/>
</svg>
