<?xml version="1.0"?>
<svg xmlns="http://www.w3.org/2000/svg" xmlns:xlink="http://www.w3.org/1999/xlink" version="1.1" id="Layer_1" x="0px" y="0px" viewBox="0 0 496 496" style="enable-background:new 0 0 496 496;" xml:space="preserve" width="512px" height="512px" class="hovered-paths"><g><path style="fill:#CEE2FC" d="M272,152c0-26.512,21.488-48,48-48V32H64v144h214.472C274.384,168.936,272,160.752,272,152z" data-original="#FFA64D" class="" data-old_color="#FFA64D"/><g>
	<rect x="64" y="192" style="fill:#666666" width="168" height="16" data-original="#333333" class="hovered-path active-path" data-old_color="#333333"/>
	<path style="fill:#666666" d="M456,96H352V0H32v96.808C13.768,100.528,0,116.688,0,136v272c0,22.056,17.944,40,40,40h72v32H80v16   h336v-16h-32v-32h72c22.056,0,40-17.944,40-40V136C496,113.944,478.056,96,456,96z M232,256c22.056,0,40,17.944,40,40   s-17.944,40-40,40s-40-17.944-40-40S209.944,256,232,256z M271.112,256c-2.944-2.88-6.224-5.408-9.744-7.592l27.664-49.792   c8.88,5.92,19.52,9.384,30.968,9.384c5.56,0,10.928-0.84,16-2.36V256H271.112z M320,192c-22.056,0-40-17.944-40-40s17.944-40,40-40   s40,17.944,40,40S342.056,192,320,192z M48,16h288v82.36c-5.072-1.52-10.44-2.36-16-2.36c-30.872,0-56,25.12-56,56   c0,13.52,4.824,25.944,12.832,35.632l-30.208,54.376C241.952,240.736,237.064,240,232,240c-15.216,0-29.016,6.12-39.112,16H48V16z    M32,113.472V272h149.48c-3.472,7.288-5.48,15.4-5.48,24c0,30.88,25.128,56,56,56s56-25.12,56-56c0-8.6-2.008-16.712-5.48-24H352   v-52.112l20.52,32.832C360,262.992,352,278.576,352,296c0,30.88,25.128,56,56,56s56-25.12,56-56s-25.128-56-56-56   c-7.728,0-15.104,1.576-21.808,4.424l-30.712-49.136C368,185.008,376,169.424,376,152c0-15.664-6.48-29.824-16.888-40H456   c13.232,0,24,10.768,24,24v248H16V136C16,125.584,22.712,116.784,32,113.472z M408,256c22.056,0,40,17.944,40,40s-17.944,40-40,40   s-40-17.944-40-40S385.944,256,408,256z M368,480H128v-32h240V480z M456,432H40c-13.232,0-24-10.768-24-24v-8h464v8   C480,421.232,469.232,432,456,432z" data-original="#333333" class="hovered-path active-path" data-old_color="#333333"/>
	<rect x="215.992" y="224" style="fill:#666666" width="16" height="16" data-original="#333333" class="hovered-path active-path" data-old_color="#333333"/>
	<rect x="64" y="224" style="fill:#666666" width="136" height="16" data-original="#333333" class="hovered-path active-path" data-old_color="#333333"/>
</g></g> </svg>
