<svg width="288" height="277" viewBox="0 0 288 277" fill="none" xmlns="http://www.w3.org/2000/svg">
<path d="M144.415 151.13C179.966 151.13 208.789 117.396 208.789 75.7836C208.789 18.0782 179.967 0.4375 144.415 0.4375C108.861 0.4375 80.0414 18.0782 80.0414 75.7836C80.0421 117.396 108.862 151.13 144.415 151.13Z" fill="#8D8D8D"/>
<path d="M286.565 262.031L254.088 188.87C252.603 185.522 249.993 182.745 246.745 181.054L196.342 154.816C195.23 154.239 193.885 154.351 192.885 155.108C178.63 165.89 161.868 171.589 144.415 171.589C126.959 171.589 110.199 165.89 95.9432 155.108C94.9412 154.351 93.5953 154.239 92.4838 154.816L42.0845 181.054C38.8349 182.745 36.2281 185.521 34.7412 188.87L2.26389 262.031C0.0247723 267.075 0.483682 272.845 3.49185 277.472C6.49862 282.097 11.5873 284.858 17.1048 284.858H271.723C277.24 284.858 282.331 282.096 285.337 277.471C288.344 272.845 288.804 267.072 286.565 262.031Z" fill="#8D8D8D"/>
</svg>
