<svg width="20" height="20" viewBox="0 0 20 20" fill="none" xmlns="http://www.w3.org/2000/svg">
<path d="M10.0001 14.1373C9.18178 14.1373 8.38187 13.8946 7.70149 13.44C7.02111 12.9854 6.49082 12.3392 6.17767 11.5832C5.86452 10.8272 5.78259 9.99536 5.94223 9.1928C6.10187 8.39023 6.49591 7.65303 7.07453 7.07441C7.65315 6.49579 8.39035 6.10175 9.19292 5.94211C9.99548 5.78247 10.8274 5.8644 11.5834 6.17755C12.3394 6.49069 12.9855 7.02099 13.4401 7.70137C13.8948 8.38175 14.1374 9.18166 14.1374 9.99995C14.1374 11.0972 13.7015 12.1496 12.9256 12.9255C12.1497 13.7014 11.0974 14.1373 10.0001 14.1373ZM10.0001 6.72098C9.35155 6.72098 8.7176 6.91329 8.17837 7.27359C7.63915 7.63388 7.21888 8.14599 6.9707 8.74514C6.72252 9.3443 6.65759 10.0036 6.78411 10.6396C6.91063 11.2757 7.22292 11.86 7.68149 12.3185C8.14006 12.7771 8.72432 13.0894 9.36038 13.2159C9.99644 13.3424 10.6557 13.2775 11.2549 13.0293C11.854 12.7811 12.3661 12.3609 12.7264 11.8216C13.0867 11.2824 13.279 10.6485 13.279 9.99995C13.2768 9.13101 12.9306 8.29831 12.3162 7.68387C11.7017 7.06944 10.869 6.72325 10.0001 6.72098Z" fill="#5D9C5A"/>
<path d="M17.8884 7.79402H17.6137C17.3675 7.73458 17.1546 7.58034 17.0215 7.36483C16.9202 7.19209 16.8612 6.99785 16.8492 6.79796C16.8373 6.59807 16.8728 6.39818 16.9528 6.21462L17.073 6.07728C17.1815 5.97522 17.2767 5.85985 17.3562 5.73393C17.3797 5.69567 17.3998 5.65547 17.4163 5.61376C17.47 5.52794 17.5188 5.43909 17.5622 5.34766C17.5622 5.29616 17.5622 5.24466 17.6052 5.20174C17.6481 5.15882 17.6652 5.03007 17.6824 4.94423C17.6996 4.85839 17.6824 4.83264 17.6824 4.77256C17.6824 4.71247 17.6824 4.60088 17.6824 4.51505C17.6824 4.46354 17.6824 4.40346 17.6824 4.35196C17.6866 4.26903 17.6866 4.18595 17.6824 4.10303C17.6692 4.04469 17.652 3.98733 17.6309 3.93136C17.616 3.85196 17.593 3.77431 17.5622 3.6996C17.5424 3.6384 17.5134 3.58054 17.4764 3.52792C17.4443 3.45386 17.407 3.38215 17.3648 3.31333C17.3276 3.25695 17.2875 3.20252 17.2446 3.15024L17.1073 2.97857C16.6822 2.5784 16.1203 2.35558 15.5365 2.35558C14.9526 2.35558 14.3908 2.5784 13.9657 2.97857L13.6395 3.21033C13.4247 3.32105 13.1749 3.34264 12.9442 3.27041H12.7125C12.4893 3.21891 12.4635 3.17599 12.3348 2.81548C12.3348 2.75539 12.2919 2.68672 12.2661 2.61805V2.2232C12.2662 1.9276 12.2073 1.63496 12.0929 1.3624C11.9785 1.08983 11.8109 0.842819 11.5999 0.635807C11.3888 0.428795 11.1387 0.265942 10.864 0.156775C10.5893 0.0476074 10.2956 -0.00568176 10 2.47782e-05C9.71605 -0.0079637 9.43334 0.040505 9.16826 0.14262C8.90318 0.244734 8.66101 0.398463 8.4558 0.594889C8.2506 0.791316 8.08643 1.02653 7.97282 1.28689C7.85922 1.54725 7.79843 1.82758 7.794 2.11161V2.38629C7.73456 2.63255 7.58033 2.8454 7.36482 2.97857C7.19207 3.07985 6.99783 3.13887 6.79794 3.15081C6.59805 3.16274 6.39817 3.12725 6.2146 3.04724L6.07726 2.92706C5.65212 2.5269 5.09029 2.30408 4.50645 2.30408C3.9226 2.30408 3.36077 2.5269 2.93563 2.92706C2.52359 3.34608 2.29269 3.91021 2.29269 4.49788C2.29269 5.08554 2.52359 5.64968 2.93563 6.06869L3.01289 6.14595L3.15881 6.40346C3.21715 6.50694 3.25337 6.6214 3.26519 6.7396C3.27701 6.8578 3.26417 6.97717 3.22748 7.09015V7.32191C3.22748 7.55367 3.14164 7.57084 2.78113 7.6996L2.57512 7.76827H2.22319C1.63277 7.77054 1.06732 8.00667 0.650639 8.42496C0.233958 8.84325 5.15248e-06 9.40961 9.51946e-06 10C-0.00797896 10.284 0.0404897 10.5667 0.142604 10.8318C0.244719 11.0969 0.398448 11.339 0.594874 11.5442C0.7913 11.7494 1.02652 11.9136 1.28688 12.0272C1.54724 12.1408 1.82756 12.2016 2.1116 12.206H2.36052C2.60525 12.2688 2.81697 12.4222 2.9528 12.6352C3.05344 12.8082 3.11208 13.0024 3.124 13.2022C3.13593 13.4019 3.10081 13.6017 3.02147 13.7854L2.9013 13.9228C2.69518 14.1288 2.53212 14.3738 2.42159 14.6435C2.31107 14.9132 2.2553 15.2021 2.25752 15.4936V15.5794C2.2534 15.648 2.2534 15.7168 2.25752 15.7854C2.25274 15.8426 2.25274 15.9 2.25752 15.9571C2.27529 16.0414 2.29822 16.1245 2.32619 16.206L2.37769 16.3605C2.41495 16.4479 2.46097 16.5313 2.51503 16.6095C2.53111 16.6557 2.55428 16.6991 2.5837 16.7382C2.6624 16.8547 2.75146 16.9639 2.84979 17.0644C3.05562 17.2715 3.30036 17.4359 3.56994 17.548C3.83953 17.6602 4.12863 17.7179 4.42061 17.7179C4.71259 17.7179 5.0017 17.6602 5.27128 17.548C5.54086 17.4359 5.78561 17.2715 5.99143 17.0644L6.32619 16.8412C6.43028 16.7843 6.54505 16.7496 6.66324 16.7392C6.78143 16.7289 6.90049 16.7432 7.01289 16.7811H7.24464C7.4764 16.8241 7.49357 16.867 7.62233 17.2361C7.62233 17.2962 7.62233 17.3648 7.691 17.4249V17.7511C7.69326 18.3377 7.92731 18.8997 8.34213 19.3146C8.75696 19.7294 9.31894 19.9634 9.90559 19.9657C10.1895 19.9737 10.4723 19.9252 10.7373 19.8231C11.0024 19.721 11.2446 19.5673 11.4498 19.3708C11.655 19.1744 11.8192 18.9392 11.9328 18.6788C12.0464 18.4185 12.1072 18.1381 12.1116 17.8541V17.5451C12.1776 17.3133 12.3276 17.1144 12.5322 16.9872C12.7052 16.8865 12.8994 16.8279 13.0991 16.8159C13.2989 16.804 13.4987 16.8391 13.6824 16.9185L13.8198 17.0387C14.0254 17.2459 14.2701 17.4103 14.5398 17.5223C14.8094 17.6343 15.0986 17.6916 15.3906 17.691H15.485C16.0413 17.6654 16.5679 17.4327 16.9614 17.0387C17.1685 16.8328 17.3328 16.5881 17.445 16.3185C17.5572 16.0489 17.6149 15.7598 17.6149 15.4678C17.6149 15.1759 17.5572 14.8868 17.445 14.6172C17.3328 14.3476 17.1685 14.1028 16.9614 13.897L16.7382 13.5708C16.6813 13.4667 16.6465 13.352 16.6362 13.2338C16.6259 13.1156 16.6401 12.9965 16.6781 12.8841V12.6438C16.721 12.4206 16.764 12.3949 17.1331 12.2661L17.3305 12.1974H17.6481C18.2362 12.1952 18.7995 11.96 19.2146 11.5433C19.6296 11.1266 19.8627 10.5624 19.8627 9.97427C19.8732 9.42778 19.6747 8.89788 19.3078 8.49271C18.9409 8.08754 18.4333 7.83764 17.8884 7.79402ZM17.7854 11.3648H17.3391H17.2103L16.9871 11.4507C16.7302 11.4998 16.4945 11.6266 16.3119 11.8138C16.1293 12.0011 16.0084 12.2398 15.9657 12.4979V12.7382C15.8567 13.152 15.9121 13.5918 16.1202 13.9657L16.2919 14.2747L16.3348 14.3176L16.4979 14.4893C16.6399 14.6326 16.7483 14.8055 16.8155 14.9957C16.9032 15.2375 16.9199 15.4993 16.8636 15.7503C16.8074 16.0013 16.6804 16.2309 16.4979 16.412C16.2391 16.6597 15.8947 16.7979 15.5365 16.7979C15.1783 16.7979 14.8339 16.6597 14.5751 16.412L14.2318 16.0687L14.1717 16.1288C13.8582 15.9889 13.5154 15.9275 13.1729 15.9499C12.8304 15.9723 12.4985 16.0779 12.206 16.2575C11.8265 16.4976 11.5509 16.8713 11.4335 17.3047L11.382 17.8198C11.3811 17.9929 11.345 18.1641 11.276 18.3229C11.2069 18.4818 11.1063 18.6249 10.9803 18.7437C10.8543 18.8625 10.7055 18.9544 10.5429 19.014C10.3803 19.0735 10.2073 19.0995 10.0343 19.0902C9.67465 19.0902 9.32969 18.9473 9.07535 18.6929C8.82101 18.4386 8.67812 18.0936 8.67812 17.7339V17.2876V17.1588C8.64605 17.0868 8.6202 17.0121 8.60087 16.9356C8.53554 16.6751 8.39035 16.4415 8.18564 16.2675C7.98092 16.0936 7.72693 15.9881 7.45924 15.9657H7.22748C6.81918 15.8572 6.3852 15.903 6.00859 16.0944L5.69958 16.2661V16.309L5.52791 16.4721C5.26911 16.7198 4.92473 16.858 4.56653 16.858C4.20834 16.858 3.86396 16.7198 3.60516 16.4721C3.4786 16.3463 3.37847 16.1964 3.31066 16.0313C3.24285 15.8662 3.20873 15.6892 3.21031 15.5108V15.4507C3.21704 15.2941 3.25193 15.14 3.31331 14.9957C3.38053 14.8462 3.4735 14.7096 3.58799 14.5923L3.93134 14.249L3.87984 14.1889C4.0176 13.8749 4.07783 13.5324 4.05542 13.1903C4.03301 12.8482 3.92863 12.5165 3.75108 12.2232C3.62029 12.0123 3.44904 11.8294 3.24721 11.685C3.04538 11.5406 2.81695 11.4377 2.57512 11.382H2.14593C1.96822 11.3838 1.7921 11.3485 1.62879 11.2784C1.46548 11.2083 1.31856 11.105 1.19742 10.9749C1.07627 10.8449 0.983559 10.6911 0.925184 10.5232C0.866809 10.3553 0.844057 10.1772 0.858379 10C0.858379 9.63806 1.00217 9.29091 1.25812 9.03496C1.51407 8.77901 1.86122 8.63522 2.22319 8.63522H2.66954H2.78971L3.01289 8.54938C3.27703 8.50011 3.51856 8.36781 3.70228 8.17173C3.88601 7.97565 4.00234 7.72604 4.03434 7.45925V7.22749C4.15062 6.81983 4.10448 6.38298 3.90559 6.00861L3.69958 5.65668L3.52791 5.485C3.40134 5.35916 3.30121 5.20928 3.23341 5.04419C3.1656 4.87909 3.13148 4.7021 3.13306 4.52363C3.13936 4.17759 3.28113 3.84783 3.52791 3.60518C3.78671 3.35753 4.13109 3.21931 4.48928 3.21931C4.84747 3.21931 5.19185 3.35753 5.45065 3.60518L5.69958 3.81977L5.80259 3.87985C6.12345 4.02903 6.47611 4.09689 6.82942 4.07743C7.18273 4.05797 7.5258 3.95178 7.82834 3.76827C8.23658 3.48664 8.52207 3.05994 8.62662 2.57513V2.14595C8.62623 1.96939 8.66215 1.79464 8.73216 1.63256C8.80216 1.47047 8.90475 1.32452 9.03356 1.20376C9.16236 1.08301 9.31463 0.990037 9.48089 0.930623C9.64714 0.871209 9.82385 0.846623 10 0.858394C10.362 0.858394 10.7091 1.00219 10.9651 1.25814C11.221 1.51409 11.3648 1.86123 11.3648 2.2232V2.66955V2.78972C11.3648 2.86698 11.4249 2.94423 11.4507 3.0129C11.5016 3.27774 11.6356 3.51949 11.8331 3.70313C12.0307 3.88677 12.2815 4.00278 12.5494 4.03436H12.7811C13.1946 4.14701 13.6359 4.09147 14.0086 3.87985L14.3176 3.70818H14.3605L14.5322 3.53651C14.791 3.28886 15.1354 3.15064 15.4936 3.15064C15.8518 3.15064 16.1961 3.28886 16.4549 3.53651C16.6782 3.75806 16.8181 4.04994 16.851 4.36276C16.8838 4.67558 16.8076 4.99014 16.6352 5.25324C16.5823 5.32785 16.5219 5.39688 16.4549 5.45925L16.1116 5.81118L16.1717 5.86269C16.0308 6.17628 15.9696 6.51982 15.9936 6.86276C16.0176 7.2057 16.1259 7.5374 16.309 7.82835C16.5706 8.22967 16.9761 8.51538 17.4421 8.62663H17.8713C18.0441 8.62875 18.2147 8.66563 18.3729 8.73509C18.5312 8.80454 18.6738 8.90515 18.7924 9.0309C18.9109 9.15666 19.003 9.305 19.063 9.46707C19.123 9.62914 19.1497 9.80164 19.1416 9.97427C19.1451 10.1549 19.1126 10.3345 19.046 10.5025C18.9795 10.6705 18.8803 10.8236 18.7541 10.953C18.628 11.0823 18.4774 11.1854 18.3111 11.2561C18.1448 11.3268 17.9661 11.3637 17.7854 11.3648Z" fill="#5D9C5A"/>
</svg>
