<svg width="15" height="16" viewBox="0 0 15 16" fill="none" xmlns="http://www.w3.org/2000/svg">
<path d="M14.5317 7.09409C14.4247 7.09409 14.322 7.1327 14.2463 7.20142C14.1706 7.27015 14.1281 7.36337 14.1281 7.46056V13.4854C14.1113 13.9619 13.8916 14.4138 13.5151 14.746C13.1386 15.0783 12.6348 15.2649 12.1098 15.2665H2.8902C2.35407 15.2803 1.83378 15.1006 1.44335 14.7668C1.05291 14.4329 0.824196 13.9721 0.807318 13.4854V7.29198C0.807318 7.19479 0.76479 7.10157 0.689089 7.03284C0.613388 6.96412 0.510716 6.92551 0.403659 6.92551C0.296602 6.92551 0.19393 6.96412 0.118229 7.03284C0.0425282 7.10157 0 7.19479 0 7.29198L0 13.4854C0.0169493 14.1665 0.33075 14.8137 0.872569 15.285C1.41439 15.7563 2.13998 16.0132 2.8902 15.9995H12.1098C12.86 16.0132 13.5856 15.7563 14.1274 15.285C14.6692 14.8137 14.983 14.1665 15 13.4854V7.46056C15.0007 7.40708 14.9886 7.35409 14.9644 7.30532C14.9402 7.25656 14.9045 7.21319 14.8599 7.17826C14.8153 7.14334 14.7628 7.11771 14.7061 7.10316C14.6494 7.08862 14.5899 7.08552 14.5317 7.09409Z" fill="#5E5E5E"/>
<path d="M4.0366 4.14761L7.11248 1.27443V10.5536C7.11248 10.6508 7.15501 10.744 7.23071 10.8128C7.30641 10.8815 7.40908 10.9201 7.51614 10.9201C7.62319 10.9201 7.72587 10.8815 7.80157 10.8128C7.87727 10.744 7.9198 10.6508 7.9198 10.5536V1.27443L11.028 4.14761C11.105 4.21776 11.2095 4.25731 11.3186 4.25755C11.371 4.25908 11.4231 4.25075 11.4717 4.23309C11.5203 4.21543 11.5644 4.18882 11.6012 4.15494C11.639 4.12087 11.669 4.08033 11.6895 4.03568C11.71 3.99102 11.7206 3.94312 11.7206 3.89474C11.7206 3.84636 11.71 3.79846 11.6895 3.7538C11.669 3.70914 11.639 3.66861 11.6012 3.63454L7.80677 0.116358C7.76814 0.0749917 7.72165 0.040239 7.66953 0.0137442C7.60102 -0.0045814 7.52814 -0.0045814 7.45962 0.0137442H7.41926C7.35935 0.0355474 7.30655 0.0708654 7.26587 0.116358L3.43111 3.63454C3.39327 3.66861 3.36324 3.70914 3.34275 3.7538C3.32226 3.79846 3.31171 3.84636 3.31171 3.89474C3.31171 3.94312 3.32226 3.99102 3.34275 4.03568C3.36324 4.08033 3.39327 4.12087 3.43111 4.15494C3.46883 4.19457 3.51564 4.22624 3.56826 4.24772C3.62088 4.2692 3.67804 4.27996 3.73573 4.27926C3.79342 4.27857 3.85025 4.26642 3.90222 4.24368C3.95419 4.22093 4.00006 4.18814 4.0366 4.14761Z" fill="#5E5E5E"/>
</svg>
