<svg width="20" height="19" viewBox="0 0 20 19" fill="none" xmlns="http://www.w3.org/2000/svg">
<g clip-path="url(#clip0)">
<path d="M12.0304 9.4064C12.0304 6.68725 11.6983 5.26065 16.537 5.39469C16.537 5.39469 16.537 6.27555 16.537 6.35214C16.5259 6.57875 16.5856 6.80316 16.7078 6.99363C16.7424 7.03271 16.7848 7.06398 16.8322 7.08543C16.8796 7.10687 16.931 7.11801 16.9829 7.1181C17.1157 7.1181 17.1727 7.0415 17.2581 6.95533L17.5237 6.74469L18.3966 5.86384L19.3453 4.9064L19.8577 4.38937C19.8577 4.38937 20.1898 4.15959 19.8577 3.76703L19.7438 3.64257L19.5731 3.46065L19.3453 3.23086L19.0797 2.91491L18.7951 2.62767L18.5104 2.33086L18.2163 2.04363L17.9507 1.80427L17.704 1.56491L17.5047 1.36384L17.3624 1.22023C17.3036 1.15569 17.2327 1.10361 17.1537 1.06703C17.0609 1.02555 16.961 1.00278 16.8596 1.00001C16.816 0.997318 16.7724 1.00552 16.7327 1.02389C16.6929 1.04226 16.6583 1.07023 16.6319 1.10533C16.5811 1.18842 16.5578 1.28567 16.5655 1.38299V2.79044H14.5446C14.5446 2.79044 10.7495 2.85746 10.5218 5.88299C10.4873 6.71725 10.6163 7.55017 10.9013 8.33406C11.3852 9.31065 12.0493 10.2585 12.0304 9.4064Z" fill="#5E5E5E"/>
<path d="M14.2789 19H3.19734C2.34935 19 1.5361 18.6601 0.93648 18.055C0.336862 17.4498 0 16.6291 0 15.7734L0 4.5617C-1.85759e-06 4.13843 0.0827678 3.71932 0.243566 3.32838C0.404363 2.93745 0.640028 2.58239 0.937053 2.28353C1.23408 1.98468 1.58663 1.74791 1.97449 1.58681C2.36235 1.4257 2.77791 1.34342 3.19734 1.34468H8.34915C8.47496 1.34468 8.59562 1.39512 8.68459 1.48489C8.77355 1.57467 8.82353 1.69644 8.82353 1.8234C8.82353 1.95037 8.77355 2.07213 8.68459 2.16191C8.59562 2.25169 8.47496 2.30213 8.34915 2.30213H3.19734C2.60262 2.30212 2.03212 2.53988 1.6107 2.96336C1.18929 3.38684 0.951276 3.96155 0.948767 4.5617V15.7734C0.951264 16.3744 1.18897 16.9501 1.61012 17.3752C2.03127 17.8002 2.60175 18.04 3.19734 18.0426H14.2789C14.8745 18.04 15.445 17.8002 15.8662 17.3752C16.2873 16.9501 16.525 16.3744 16.5275 15.7734V10.5745C16.5275 10.4475 16.5775 10.3257 16.6665 10.236C16.7554 10.1462 16.8761 10.0957 17.0019 10.0957C17.1277 10.0957 17.2484 10.1462 17.3373 10.236C17.4263 10.3257 17.4763 10.4475 17.4763 10.5745V15.8213C17.4638 16.6687 17.1215 17.4771 16.5232 18.0719C15.9249 18.6667 15.1188 19.0001 14.2789 19Z" fill="#5E5E5E"/>
</g>
<defs>
<clipPath id="clip0">
<rect y="1" width="20" height="18" fill="white"/>
</clipPath>
</defs>
</svg>
