<svg width="13" height="13" viewBox="0 0 13 13" fill="none" xmlns="http://www.w3.org/2000/svg">
<path d="M12.2015 5.66374H7.31712V0.817251C7.31712 0.600503 7.23102 0.392632 7.07776 0.239368C6.9245 0.0861031 6.71663 0 6.49989 0C6.28314 0 6.07527 0.0861031 5.92201 0.239368C5.76875 0.392632 5.68265 0.600503 5.68265 0.817251V5.66374H0.817234C0.600489 5.66374 0.392625 5.74985 0.239363 5.90311C0.0861016 6.05638 0 6.26425 0 6.481C0 6.69774 0.0861016 6.90561 0.239363 7.05888C0.392625 7.21214 0.600489 7.29825 0.817234 7.29825H5.68265V12.1828C5.68265 12.3995 5.76875 12.6074 5.92201 12.7606C6.07527 12.9139 6.28314 13 6.49989 13C6.71663 13 6.9245 12.9139 7.07776 12.7606C7.23102 12.6074 7.31712 12.3995 7.31712 12.1828V7.31725H12.2015C12.308 7.31728 12.4134 7.29602 12.5115 7.25472C12.6096 7.21342 12.6984 7.15292 12.7728 7.07677C12.8472 7.00062 12.9056 6.91037 12.9446 6.81132C12.9835 6.71226 13.0023 6.60642 12.9998 6.5C13.0023 6.39267 12.9837 6.28589 12.9449 6.18577C12.9061 6.08565 12.848 5.99415 12.7739 5.91649C12.6998 5.83883 12.6111 5.77653 12.5129 5.73317C12.4147 5.6898 12.3089 5.66621 12.2015 5.66374V5.66374Z" fill="#535353"/>
</svg>
