<svg width="17" height="16" viewBox="0 0 17 16" fill="none" xmlns="http://www.w3.org/2000/svg">
<path d="M16.0262 15.7097C15.9557 15.7107 15.8856 15.6979 15.8201 15.6721C15.7546 15.6462 15.6949 15.6078 15.6445 15.5591L1.02076 1.1175C0.968603 1.06919 0.92703 1.01084 0.898611 0.946064C0.870192 0.881284 0.85553 0.811443 0.85553 0.740853C0.85553 0.670263 0.870192 0.600422 0.898611 0.535642C0.92703 0.470861 0.968603 0.412517 1.02076 0.364209C1.06972 0.312738 1.12884 0.271713 1.19449 0.243669C1.26013 0.215625 1.33091 0.201157 1.40244 0.201157C1.47398 0.201157 1.54475 0.215625 1.6104 0.243669C1.67604 0.271713 1.73517 0.312738 1.78412 0.364209L16.4188 14.795C16.5194 14.8974 16.5757 15.0344 16.5757 15.1771C16.5757 15.3197 16.5194 15.4567 16.4188 15.5591C16.3668 15.6086 16.3052 15.6475 16.2378 15.6733C16.1704 15.6992 16.0985 15.7116 16.0262 15.7097Z" fill="#323A43"/>
<path d="M1.50058 15.7097C1.39386 15.7082 1.28992 15.6759 1.20166 15.6167C1.1134 15.5575 1.04469 15.474 1.00405 15.3766C0.963414 15.2792 0.952635 15.1722 0.97305 15.0688C0.993466 14.9654 1.04418 14.8702 1.1189 14.795L15.6445 0.364202C15.6952 0.31377 15.7555 0.273741 15.822 0.246424C15.8884 0.219108 15.9597 0.205044 16.0317 0.205044C16.1036 0.205044 16.1749 0.219108 16.2414 0.246424C16.3078 0.273741 16.3681 0.31377 16.4188 0.364202C16.5187 0.464781 16.5747 0.600006 16.5747 0.740845C16.5747 0.881684 16.5187 1.01691 16.4188 1.11749L1.94769 15.5591C1.88938 15.6157 1.81893 15.6586 1.74153 15.6847C1.66413 15.7107 1.58178 15.7193 1.50058 15.7097V15.7097Z" fill="#323A43"/>
</svg>
