<svg width="9" height="8" viewBox="0 0 9 8" fill="none" xmlns="http://www.w3.org/2000/svg">
<path d="M0.46525 3.59999H3.7522V0.399974C3.7522 0.179223 3.9363 0 4.16313 0C4.38988 0 4.57398 0.179223 4.57398 0.399974V3.59999H7.861C8.08775 3.59999 8.27185 3.77921 8.27185 3.99996C8.27185 4.22079 8.08775 4.40001 7.861 4.40001H4.57398V7.59995C4.57398 7.82078 4.38988 8 4.16313 8C3.9363 8 3.7522 7.82078 3.7522 7.59995V4.40001H0.46525C0.238421 4.40001 0.0543251 4.22079 0.0543251 3.99996C0.0543251 3.77921 0.238421 3.59999 0.46525 3.59999Z" fill="white"/>
</svg>
