<svg width="18" height="20" viewBox="0 0 12 14" fill="none" xmlns="http://www.w3.org/2000/svg">
<path d="M9.84509 5.73116V4.04253C9.87429 3.52245 9.79587 3.00196 9.61462 2.51286C9.43338 2.02377 9.15312 1.57635 8.79098 1.19797C8.42885 0.819592 7.99244 0.518198 7.50845 0.312218C7.02445 0.106238 6.50305 0 5.9761 0C5.44916 0 4.92775 0.106238 4.44376 0.312218C3.95976 0.518198 3.52336 0.819592 3.16122 1.19797C2.79908 1.57635 2.51883 2.02377 2.33758 2.51286C2.15634 3.00196 2.07792 3.52245 2.10711 4.04253V5.73116C1.53335 5.79674 1.00327 6.06626 0.615616 6.4895C0.227963 6.91273 0.0091721 7.46083 0 8.0317L0 11.2442C0.00782919 11.8633 0.262127 12.4544 0.70779 12.8894C1.15345 13.3244 1.75458 13.5683 2.38092 13.5683H9.58319C10.2095 13.5683 10.8107 13.3244 11.2563 12.8894C11.702 12.4544 11.9563 11.8633 11.9641 11.2442V8.0317C11.9546 7.45903 11.7341 6.90945 11.344 6.48594C10.9539 6.06244 10.421 5.79408 9.84509 5.73116ZM5.95229 0.800595C6.82109 0.802154 7.65377 1.1444 8.26755 1.75221C8.88133 2.36002 9.22605 3.18373 9.22605 4.04253V5.70762H2.67853V4.04253C2.67853 3.18373 3.02325 2.36002 3.63703 1.75221C4.25081 1.1444 5.08349 0.802154 5.95229 0.800595ZM11.3094 11.2442C11.3015 11.7072 11.11 12.1487 10.7759 12.4734C10.4419 12.798 9.99215 12.98 9.52367 12.9799H2.38092C1.91243 12.98 1.46269 12.798 1.12865 12.4734C0.794613 12.1487 0.603037 11.7072 0.595229 11.2442V8.0317C0.603037 7.56867 0.794613 7.12723 1.12865 6.80254C1.46269 6.47785 1.91243 6.29593 2.38092 6.296H9.58319C10.0517 6.29593 10.5014 6.47785 10.8355 6.80254C11.1695 7.12723 11.3611 7.56867 11.3689 8.0317L11.3094 11.2442Z" fill="#D93838"/>
</svg>
