<svg width="18" height="20" viewBox="0 0 12 14" fill="none" xmlns="http://www.w3.org/2000/svg">
<path d="M9.61194 5.8046H2.70448V4.06859C2.6997 3.25838 2.97884 2.47346 3.49089 1.8573C4.00294 1.24113 4.7137 0.834884 5.49324 0.712802C6.27279 0.59072 7.06906 0.76096 7.73651 1.19241C8.40396 1.62385 8.89801 2.28769 9.12836 3.06257C9.15211 3.14392 9.20634 3.21224 9.27911 3.2525C9.35189 3.29277 9.43725 3.30168 9.51642 3.27727C9.59559 3.25287 9.66208 3.19715 9.70126 3.12237C9.74045 3.0476 9.74912 2.95989 9.72537 2.87854C9.46235 1.94899 8.87966 1.14926 8.0857 0.628108C7.29175 0.106957 6.34058 -0.100127 5.40915 0.0453798C4.47772 0.190886 3.62943 0.679075 3.0221 1.41913C2.41476 2.15919 2.08973 3.10073 2.10746 4.06859V5.82913C1.53306 5.89889 1.00282 6.18048 0.61522 6.62161C0.227623 7.06273 0.00901569 7.63341 0 8.22764L0 11.577C0.00785268 12.2224 0.262914 12.8387 0.709913 13.2922C1.15691 13.7457 1.75985 14.0001 2.38806 14H9.61194C10.2402 14.0001 10.8431 13.7457 11.2901 13.2922C11.7371 12.8387 11.9921 12.2224 12 11.577V8.22764C11.9921 7.5822 11.7371 6.96594 11.2901 6.51239C10.8431 6.05885 10.2402 5.80455 9.61194 5.8046ZM11.403 11.577C11.3952 12.0597 11.203 12.5199 10.868 12.8585C10.5329 13.197 10.0818 13.3866 9.61194 13.3866H2.38806C1.91817 13.3866 1.46708 13.197 1.13204 12.8585C0.796997 12.5199 0.604846 12.0597 0.597015 11.577V8.22764C0.604846 7.7449 0.796997 7.28466 1.13204 6.94614C1.46708 6.60763 1.91817 6.41796 2.38806 6.41803H9.61194C10.0818 6.41796 10.5329 6.60763 10.868 6.94614C11.203 7.28466 11.3952 7.7449 11.403 8.22764V11.577Z" fill="#0277BD"/>
</svg>
