<svg width="10" height="9" viewBox="0 0 10 9" fill="none" xmlns="http://www.w3.org/2000/svg">
<path d="M0.494592 6.99118C0.573174 6.98873 0.651082 7.00711 0.721187 7.04464C0.791291 7.08217 0.851352 7.13765 0.895872 7.206C0.899521 7.21179 0.90198 7.21833 0.903091 7.22519C0.904202 7.23204 0.903939 7.23907 0.902321 7.24582C0.900702 7.25256 0.897763 7.25887 0.893692 7.26435C0.889622 7.26982 0.88451 7.27434 0.878686 7.2776L0.801352 7.3193C0.792336 7.32422 0.781917 7.32546 0.772087 7.32279C0.762258 7.32011 0.753709 7.3137 0.748077 7.30479C0.720891 7.26038 0.68324 7.22416 0.638808 7.19969C0.594375 7.17523 0.544683 7.16334 0.494592 7.16521C0.414363 7.16964 0.338805 7.20638 0.283502 7.26786C0.2282 7.32933 0.197369 7.41085 0.197369 7.49559C0.197369 7.58034 0.2282 7.66186 0.283502 7.72333C0.338805 7.7848 0.414363 7.82155 0.494592 7.82598C0.545397 7.82865 0.595971 7.81715 0.641225 7.79265C0.686478 7.76814 0.724814 7.73149 0.752373 7.68639C0.758005 7.67748 0.766554 7.67108 0.776383 7.6684C0.786213 7.66573 0.796633 7.66697 0.805648 7.67189L0.882983 7.71359C0.888807 7.71685 0.893918 7.72137 0.897989 7.72684C0.902059 7.73232 0.904998 7.73863 0.906617 7.74537C0.908236 7.75212 0.908498 7.75914 0.907387 7.766C0.906277 7.77286 0.903818 7.7794 0.900168 7.78519C0.855649 7.85354 0.795588 7.90902 0.725483 7.94655C0.655379 7.98408 0.57747 8.00246 0.498889 8.00001C0.434387 8.0029 0.369999 7.99199 0.309599 7.96794C0.249199 7.94389 0.194036 7.9072 0.147429 7.86007C0.100821 7.81295 0.0637336 7.75637 0.0383974 7.69373C0.0130611 7.63109 0 7.5637 0 7.49559C0 7.42749 0.0130611 7.3601 0.0383974 7.29746C0.0637336 7.23482 0.100821 7.17824 0.147429 7.13111C0.194036 7.08399 0.249199 7.0473 0.309599 7.02325C0.369999 6.9992 0.434387 6.98829 0.498889 6.99118H0.494592Z" fill="#53914E"/>
<path d="M1.48961 6.99118C1.55411 6.98829 1.6185 6.9992 1.6789 7.02325C1.7393 7.0473 1.79446 7.08399 1.84107 7.13111C1.88768 7.17824 1.92477 7.23482 1.9501 7.29746C1.97544 7.3601 1.9885 7.42749 1.9885 7.49559C1.9885 7.5637 1.97544 7.63109 1.9501 7.69373C1.92477 7.75637 1.88768 7.81295 1.84107 7.86007C1.79446 7.9072 1.7393 7.94389 1.6789 7.96794C1.6185 7.99199 1.55411 8.0029 1.48961 8.00001C1.42511 8.0029 1.36072 7.99199 1.30032 7.96794C1.23992 7.94389 1.18476 7.9072 1.13815 7.86007C1.09154 7.81295 1.05446 7.75637 1.02912 7.69373C1.00378 7.63109 0.990723 7.5637 0.990723 7.49559C0.990723 7.42749 1.00378 7.3601 1.02912 7.29746C1.05446 7.23482 1.09154 7.17824 1.13815 7.13111C1.18476 7.08399 1.23992 7.0473 1.30032 7.02325C1.36072 6.9992 1.42511 6.98829 1.48961 6.99118ZM1.48961 7.16521C1.42731 7.16377 1.36601 7.18194 1.31353 7.2174C1.26106 7.25287 1.21979 7.30402 1.195 7.36433C1.1702 7.42465 1.163 7.49138 1.17432 7.55603C1.18563 7.62068 1.21494 7.6803 1.25852 7.7273C1.3021 7.7743 1.35796 7.80654 1.41898 7.8199C1.48 7.83326 1.54341 7.82715 1.60112 7.80234C1.65883 7.77752 1.70822 7.73514 1.743 7.68058C1.77778 7.62603 1.79636 7.56179 1.79637 7.49605C1.79827 7.45268 1.79169 7.40937 1.77703 7.36881C1.76238 7.32824 1.73997 7.29129 1.71119 7.26026C1.68242 7.22923 1.6479 7.20477 1.60978 7.18842C1.57165 7.17207 1.53075 7.16417 1.48961 7.16521Z" fill="#53914E"/>
<path d="M2.275 7.99995H2.17189C2.16254 7.99995 2.15358 7.99604 2.14698 7.98907C2.14037 7.9821 2.13666 7.97264 2.13666 7.96279V7.01649H2.21399C2.22108 7.01647 2.22809 7.01798 2.2346 7.02095C2.2411 7.02391 2.24696 7.02826 2.2518 7.03371L2.76049 7.64464V7.05275C2.76049 7.04791 2.7614 7.04312 2.76318 7.03866C2.76497 7.0342 2.76757 7.03016 2.77086 7.02678C2.77414 7.0234 2.77803 7.02075 2.7823 7.01899C2.78657 7.01722 2.79113 7.01637 2.79572 7.01649H2.89969C2.90903 7.01649 2.918 7.02041 2.9246 7.02737C2.93121 7.03434 2.93492 7.0438 2.93492 7.05365V7.99995H2.85759C2.85056 7.9999 2.84362 7.99826 2.83724 7.99513C2.83086 7.992 2.8252 7.98746 2.82064 7.98182L2.30508 7.3709V7.96279C2.30517 7.97177 2.30217 7.98048 2.29664 7.98732C2.29111 7.99415 2.28342 7.99864 2.275 7.99995Z" fill="#53914E"/>
<path d="M3.72718 7.20235H3.32676V7.43893H3.6971C3.70622 7.43893 3.71496 7.44275 3.72141 7.44955C3.72785 7.45635 3.73147 7.46557 3.73147 7.47518V7.56583C3.73147 7.57544 3.72785 7.58466 3.72141 7.59146C3.71496 7.59826 3.70622 7.60208 3.6971 7.60208H3.32676V7.96465C3.32653 7.97411 3.32281 7.9831 3.31639 7.9897C3.30997 7.99631 3.30135 8 3.29239 8H3.19013C3.18116 8 3.17255 7.99631 3.16613 7.9897C3.15971 7.9831 3.15599 7.97411 3.15576 7.96465V7.07002C3.15599 7.06056 3.15971 7.05157 3.16613 7.04496C3.17255 7.03836 3.18116 7.03467 3.19013 7.03467H3.72975C3.73872 7.03467 3.74734 7.03836 3.75376 7.04496C3.76018 7.05157 3.7639 7.06056 3.76413 7.07002V7.16882C3.76392 7.17363 3.76278 7.17834 3.76078 7.18267C3.75878 7.187 3.75597 7.19085 3.75251 7.19399C3.74905 7.19713 3.74502 7.19949 3.74066 7.20093C3.7363 7.20237 3.73172 7.20285 3.72718 7.20235Z" fill="#53914E"/>
<path d="M4.49105 7.20232H4.08891V7.43255H4.45324C4.45809 7.43255 4.4629 7.43355 4.46738 7.43551C4.47186 7.43747 4.47594 7.44034 4.47937 7.44396C4.4828 7.44758 4.48552 7.45188 4.48738 7.45661C4.48923 7.46134 4.49019 7.4664 4.49019 7.47152V7.56216C4.48997 7.57234 4.48597 7.58202 4.47907 7.58914C4.47216 7.59625 4.46289 7.60023 4.45324 7.60023H4.08891V7.8359H4.49105C4.49586 7.83578 4.50065 7.83667 4.50512 7.83853C4.5096 7.84039 4.51368 7.84318 4.51713 7.84672C4.52057 7.85027 4.5233 7.85451 4.52517 7.85919C4.52704 7.86387 4.528 7.86889 4.528 7.87397V7.96461C4.528 7.97495 4.52411 7.98486 4.51718 7.99217C4.51025 7.99948 4.50085 8.00358 4.49105 8.00358H3.95315C3.94335 8.00358 3.93395 7.99948 3.92702 7.99217C3.92009 7.98486 3.9162 7.97495 3.9162 7.96461V7.06998C3.9162 7.05964 3.92009 7.04973 3.92702 7.04242C3.93395 7.03511 3.94335 7.03101 3.95315 7.03101H4.49105C4.50085 7.03101 4.51025 7.03511 4.51718 7.04242C4.52411 7.04973 4.528 7.05964 4.528 7.06998V7.16062C4.52849 7.166 4.52789 7.17142 4.52624 7.17653C4.52459 7.18164 4.52193 7.18632 4.51844 7.19026C4.51494 7.1942 4.5107 7.19732 4.50597 7.1994C4.50125 7.20148 4.49616 7.20247 4.49105 7.20232Z" fill="#53914E"/>
<path d="M5.00577 7.59936H4.87516V7.96646C4.87494 7.97592 4.87122 7.98491 4.8648 7.99151C4.85837 7.99812 4.84976 8.00181 4.84079 8.00181H4.73682C4.72793 8.00181 4.71941 7.99809 4.71312 7.99146C4.70684 7.98483 4.70331 7.97583 4.70331 7.96646V7.07002C4.70331 7.06064 4.70684 7.05165 4.71312 7.04502C4.71941 7.03839 4.72793 7.03467 4.73682 7.03467H5.08053C5.2584 7.03467 5.39416 7.13528 5.39416 7.31656C5.3955 7.3798 5.37589 7.44154 5.33872 7.49118C5.30155 7.54081 5.24914 7.57522 5.19051 7.58849L5.40619 7.95105C5.40937 7.95648 5.41113 7.96269 5.4113 7.96906C5.41148 7.97543 5.41005 7.98174 5.40718 7.98735C5.4043 7.99296 5.40007 7.99766 5.39492 8.001C5.38977 8.00433 5.38388 8.00618 5.37784 8.00634H5.2584C5.25252 8.00642 5.24673 8.00488 5.24161 8.00185C5.23648 7.99883 5.23219 7.99444 5.22918 7.98912L5.00577 7.59936ZM5.08482 7.43258C5.17075 7.43258 5.21715 7.38817 5.21715 7.31475C5.21715 7.24133 5.16817 7.19873 5.08482 7.19873H4.87516V7.43258H5.08482Z" fill="#53914E"/>
<path d="M6.16491 7.20234H5.76793V7.43257H6.1271C6.13827 7.43257 6.14898 7.43725 6.15688 7.44557C6.16477 7.4539 6.16921 7.4652 6.16921 7.47698V7.55584C6.16921 7.56163 6.16811 7.56736 6.16599 7.5727C6.16386 7.57804 6.16075 7.58288 6.15683 7.58693C6.1529 7.59098 6.14826 7.59417 6.14315 7.5963C6.13805 7.59843 6.13259 7.59947 6.1271 7.59935H5.76793V7.83501H6.16491C6.1704 7.83489 6.17586 7.83593 6.18096 7.83806C6.18606 7.84019 6.19071 7.84338 6.19463 7.84743C6.19855 7.85148 6.20167 7.85632 6.2038 7.86166C6.20592 7.867 6.20702 7.87273 6.20702 7.87852V7.9601C6.20702 7.97188 6.20258 7.98317 6.19468 7.9915C6.18679 7.99983 6.17608 8.00451 6.16491 8.00451H5.63732C5.62615 8.00451 5.61544 7.99983 5.60755 7.9915C5.59965 7.98317 5.59521 7.97188 5.59521 7.9601V7.07725C5.59521 7.06547 5.59965 7.05418 5.60755 7.04585C5.61544 7.03752 5.62615 7.03284 5.63732 7.03284H6.16491C6.17608 7.03284 6.18679 7.03752 6.19468 7.04585C6.20258 7.05418 6.20702 7.06547 6.20702 7.07725V7.16064C6.20657 7.17202 6.20191 7.18276 6.19404 7.19056C6.18616 7.19836 6.17571 7.20258 6.16491 7.20234Z" fill="#53914E"/>
<path d="M6.51894 7.99998H6.41927C6.41453 7.99998 6.40984 7.99899 6.40546 7.99708C6.40108 7.99517 6.3971 7.99236 6.39375 7.98883C6.3904 7.98529 6.38774 7.9811 6.38593 7.97648C6.38411 7.97186 6.38318 7.96691 6.38318 7.96191V7.01652H6.46395C6.4697 7.01624 6.47542 7.0174 6.48065 7.01993C6.48589 7.02245 6.49047 7.02625 6.49402 7.03102L7.00959 7.64467V7.06275C7.00959 7.05767 7.01055 7.05265 7.01241 7.04797C7.01428 7.04329 7.01702 7.03905 7.02046 7.0355C7.0239 7.03196 7.02798 7.02917 7.03246 7.02731C7.03694 7.02545 7.04172 7.02456 7.04654 7.02468H7.14277C7.14758 7.02456 7.15237 7.02545 7.15685 7.02731C7.16133 7.02917 7.16541 7.03196 7.16885 7.0355C7.17229 7.03905 7.17503 7.04329 7.1769 7.04797C7.17876 7.05265 7.17972 7.05767 7.17972 7.06275V7.99998H7.0938C7.08811 7.99988 7.0825 7.99854 7.07732 7.99605C7.07214 7.99355 7.06751 7.98995 7.06372 7.98548L6.54816 7.37093V7.96191C6.54831 7.97087 6.54547 7.9796 6.54013 7.98656C6.53478 7.99352 6.52728 7.99827 6.51894 7.99998Z" fill="#53914E"/>
<path d="M7.83017 6.99121C7.91171 6.98852 7.9925 7.00835 8.06455 7.04873C8.13659 7.08911 8.19738 7.14865 8.2409 7.22144C8.24327 7.22555 8.2448 7.23013 8.24538 7.2349C8.24597 7.23967 8.24561 7.24451 8.24431 7.24913C8.24302 7.25374 8.24082 7.25801 8.23787 7.26167C8.23491 7.26533 8.23126 7.2683 8.22715 7.27038L8.13091 7.32296C8.12285 7.32669 8.11376 7.32719 8.10538 7.32435C8.09699 7.32151 8.08987 7.31554 8.08537 7.30755C8.05813 7.26194 8.01993 7.22476 7.97465 7.19976C7.92938 7.17477 7.87864 7.16286 7.82759 7.16524C7.74736 7.16967 7.6718 7.20642 7.6165 7.26789C7.5612 7.32936 7.53037 7.41088 7.53037 7.49563C7.53037 7.58037 7.5612 7.66189 7.6165 7.72336C7.6718 7.78484 7.74736 7.82158 7.82759 7.82601C7.87864 7.8284 7.92938 7.81649 7.97465 7.79149C8.01993 7.7665 8.05813 7.72931 8.08537 7.68371C8.08987 7.67572 8.09704 7.66981 8.10547 7.66712C8.1139 7.66444 8.12298 7.66518 8.13091 7.66921L8.22715 7.72087C8.23126 7.72295 8.23491 7.72592 8.23787 7.72958C8.24082 7.73324 8.24302 7.73752 8.24431 7.74213C8.24561 7.74674 8.24597 7.75159 8.24538 7.75635C8.2448 7.76112 8.24327 7.76571 8.2409 7.76982C8.19648 7.84509 8.1342 7.90683 8.06022 7.94893C7.98625 7.99103 7.90313 8.01204 7.8191 8.00986C7.73507 8.00769 7.65303 7.98242 7.5811 7.93655C7.50916 7.89067 7.44983 7.82579 7.40896 7.74831C7.36808 7.67083 7.34709 7.58344 7.34805 7.49477C7.34902 7.40611 7.3719 7.31925 7.41445 7.24278C7.45699 7.16631 7.51772 7.10287 7.59064 7.05875C7.66355 7.01463 7.74611 6.99135 7.83017 6.99121Z" fill="#53914E"/>
<path d="M8.97471 7.20234H8.57171V7.43257H8.9369C8.94633 7.43256 8.95538 7.43645 8.96213 7.44339C8.96887 7.45034 8.97277 7.45979 8.97299 7.46973V7.56037C8.973 7.56533 8.97206 7.57023 8.97023 7.5748C8.96841 7.57937 8.96574 7.58351 8.96237 7.58697C8.95901 7.59044 8.95502 7.59315 8.95065 7.59497C8.94628 7.59678 8.9416 7.59765 8.9369 7.59753H8.57171V7.8332H8.97471C8.97941 7.83308 8.98409 7.83395 8.98846 7.83576C8.99283 7.83758 8.99682 7.8403 9.00018 7.84376C9.00354 7.84722 9.00622 7.85136 9.00804 7.85593C9.00986 7.8605 9.0108 7.86541 9.0108 7.87036V7.961C9.01058 7.97094 9.00668 7.9804 8.99993 7.98734C8.99319 7.99428 8.98414 7.99817 8.97471 7.99817H8.43165C8.42231 7.99817 8.41335 7.99425 8.40674 7.98728C8.40014 7.98031 8.39642 7.97086 8.39642 7.961V7.07C8.39642 7.06014 8.40014 7.05069 8.40674 7.04372C8.41335 7.03675 8.42231 7.03284 8.43165 7.03284H8.97214C8.98156 7.03283 8.99061 7.03672 8.99736 7.04367C9.0041 7.05061 9.008 7.06006 9.00822 7.07V7.16064C9.00882 7.16574 9.00841 7.17091 9.00702 7.17583C9.00563 7.18076 9.00328 7.18532 9.00013 7.18924C8.99698 7.19316 8.9931 7.19634 8.98872 7.1986C8.98435 7.20085 8.97958 7.20212 8.97471 7.20234Z" fill="#53914E"/>
<path d="M1.03592 3.42175V4.84029C1.03609 4.86138 1.03029 4.88204 1.01927 4.89964C1.00825 4.91724 0.992505 4.93097 0.974048 4.93909L0.200705 5.27899C0.180774 5.28802 0.159026 5.29167 0.137424 5.28961C0.115821 5.28755 0.0950448 5.27985 0.0769697 5.26721C0.0569671 5.25513 0.0403254 5.23772 0.0287128 5.21672C0.0171003 5.19572 0.0109249 5.17187 0.0108058 5.14756V2.97217C0.0106625 2.94777 0.0164688 2.92374 0.0276672 2.90239C0.0388656 2.88104 0.0550798 2.86309 0.0747526 2.85025C0.0944254 2.83742 0.116896 2.83014 0.140006 2.82911C0.163116 2.82808 0.186089 2.83333 0.20672 2.84436L0.980063 3.32386C0.992983 3.33059 1.00441 3.34012 1.01359 3.35184C1.02277 3.36356 1.0295 3.37719 1.03334 3.39184C1.03522 3.40168 1.03609 3.41171 1.03592 3.42175Z" fill="#91BC8E"/>
<path d="M4.80467 3.49516V4.88923C4.80469 5.08248 4.7441 5.27031 4.63235 5.42344C4.5206 5.57657 4.36396 5.6864 4.18685 5.73582L4.26848 6.43557C4.26849 6.44902 4.2649 6.46221 4.25813 6.47361C4.25135 6.48501 4.24167 6.49417 4.23019 6.50004C4.21871 6.50591 4.2059 6.50824 4.19322 6.50678C4.18053 6.50531 4.1685 6.50011 4.1585 6.49176L3.20556 5.76663L2.04039 5.83099C1.9312 5.83111 1.82306 5.80853 1.72215 5.76453C1.62124 5.72054 1.52954 5.65599 1.45229 5.57459C1.37504 5.49319 1.31376 5.39652 1.27195 5.29012C1.23014 5.18372 1.20862 5.06967 1.20862 4.95449V3.39908C1.20862 3.2839 1.23014 3.16985 1.27195 3.06345C1.31376 2.95705 1.37504 2.86039 1.45229 2.77898C1.52954 2.69758 1.62124 2.63304 1.72215 2.58904C1.82306 2.54505 1.9312 2.52246 2.04039 2.52258L2.23287 2.53165L2.55853 2.54796L2.69 2.55431L3.39031 2.58875L3.97375 2.61776C4.19413 2.61824 4.40535 2.71086 4.5611 2.87533C4.71685 3.0398 4.80444 3.26269 4.80467 3.49516Z" fill="#91BC8E"/>
<path d="M8.98763 0.514816C8.96506 0.471561 8.92744 0.43925 8.88271 0.424706C8.83798 0.410161 8.78964 0.414521 8.7479 0.436865L7.70904 1.08042C7.68636 1.09236 7.66727 1.11072 7.65391 1.13345C7.64056 1.15618 7.63347 1.18239 7.63342 1.20913V3.1126C7.63439 3.14614 7.64656 3.17824 7.66779 3.20324C7.67251 3.20884 7.67769 3.214 7.68326 3.21865C7.69373 3.22776 7.70528 3.23538 7.71763 3.24131L8.75993 3.69451C8.78742 3.70657 8.81731 3.7113 8.84695 3.70828C8.87658 3.70527 8.90506 3.69459 8.92986 3.67721C8.95466 3.65983 8.97502 3.63628 8.98915 3.60862C9.00327 3.58097 9.01072 3.55008 9.01083 3.51867V0.60727C9.01109 0.574817 9.00307 0.542888 8.98763 0.514816Z" fill="#5DA458"/>
<path d="M6.28352 0L3.68938 0.128711C3.39312 0.128711 3.10899 0.252856 2.89951 0.473837C2.69002 0.694818 2.57233 0.994533 2.57233 1.30705V3.17879C2.57196 3.38855 2.62508 3.59456 2.72614 3.77521C2.87457 4.04326 3.11727 4.2387 3.40153 4.31906L3.29412 5.25719C3.29423 5.27512 3.2991 5.29265 3.30817 5.30781C3.31723 5.32296 3.33014 5.33514 3.34542 5.34297C3.36071 5.35079 3.37777 5.35395 3.39466 5.35209C3.41156 5.35023 3.42763 5.34342 3.44105 5.33243L4.72051 4.3535L6.28352 4.44142C6.57978 4.44142 6.86391 4.31728 7.07339 4.0963C7.28288 3.87531 7.40057 3.5756 7.40057 3.26309V1.17834C7.40057 0.865822 7.28288 0.566108 7.07339 0.345127C6.86391 0.124146 6.57978 0 6.28352 0Z" fill="url(#paint0_radial)"/>
<path d="M3.80881 1.55718L4.34156 2.18532L4.87602 1.48648C4.88633 1.47474 4.89883 1.46538 4.91273 1.45899C4.92663 1.45259 4.94163 1.4493 4.95679 1.44931H5.07194C5.08604 1.44794 5.10025 1.44965 5.1137 1.45432C5.12715 1.459 5.13954 1.46655 5.1501 1.4765C5.16066 1.48645 5.16916 1.49858 5.17508 1.51215C5.181 1.52572 5.18421 1.54043 5.1845 1.55536V3.16696C5.1845 3.24492 5.12349 3.26758 5.04874 3.26758H4.93187C4.85712 3.26758 4.79697 3.24492 4.79697 3.16696V2.20798L4.34156 2.67297L3.88528 2.25965V3.06726C3.88372 3.10493 3.86813 3.14043 3.84191 3.16605C3.81569 3.19167 3.78095 3.20536 3.74522 3.20413H3.6275C3.61037 3.20463 3.59333 3.20143 3.57741 3.19472C3.5615 3.18801 3.54706 3.17793 3.53499 3.16511C3.52291 3.15228 3.51345 3.13698 3.50719 3.12016C3.50094 3.10333 3.49802 3.08532 3.49861 3.06726V1.63785C3.49861 1.60635 3.51047 1.57615 3.53158 1.55388C3.55269 1.53162 3.58132 1.51911 3.61118 1.51911H3.72804C3.74329 1.51904 3.75838 1.5224 3.77231 1.52896C3.78624 1.53553 3.79868 1.54514 3.80881 1.55718Z" fill="white"/>
<path d="M5.97845 1.43751C6.46824 1.43751 6.80507 1.81911 6.80507 2.37293C6.80507 2.92675 6.46738 3.29475 5.97759 3.29475H5.51444C5.48835 3.29479 5.46253 3.28922 5.43854 3.2784C5.41455 3.26758 5.39289 3.25173 5.37489 3.2318C5.35689 3.21188 5.34291 3.18831 5.33381 3.16251C5.32472 3.13671 5.32069 3.10924 5.32197 3.08175V1.65958C5.31903 1.60271 5.33692 1.54681 5.37194 1.50345C5.40697 1.4601 5.45644 1.4326 5.51015 1.42664L5.97845 1.43751ZM6.40809 2.37565C6.40809 2.05206 6.24397 1.85718 5.93205 1.85718H5.71208V2.88959H5.93291C6.24483 2.88959 6.40895 2.69924 6.40895 2.37565H6.40809Z" fill="white"/>
<defs>
<radialGradient id="paint0_radial" cx="0" cy="0" r="1" gradientUnits="userSpaceOnUse" gradientTransform="translate(5.85055 1.00265) rotate(114.367) scale(7.51095 6.21534)">
<stop offset="0.42" stop-color="#5DA458"/>
<stop offset="1" stop-color="#355A2E"/>
</radialGradient>
</defs>
</svg>
