<svg width="5" height="10" viewBox="0 0 5 10" fill="none" xmlns="http://www.w3.org/2000/svg">
<path d="M5.00001 4.99645C4.99844 5.08993 4.9637 5.17926 4.90286 5.24628L0.550525 9.89583C0.521451 9.92902 0.486336 9.95548 0.447348 9.97356C0.40836 9.99165 0.366326 10.001 0.323841 10.001C0.281356 10.001 0.239322 9.99165 0.200334 9.97356C0.161346 9.95548 0.126231 9.92902 0.0971573 9.89583C0.0661788 9.86468 0.0414882 9.82705 0.0246098 9.78528C0.00773142 9.7435 -0.000976559 9.69846 -0.000976558 9.65294C-0.000976558 9.60742 0.00773143 9.56238 0.0246098 9.52061C0.0414882 9.47883 0.0661788 9.44121 0.0971573 9.41005L4.21633 4.99645L0.0971574 0.589791C0.0668049 0.557534 0.0427135 0.519158 0.0262729 0.476875C0.00983223 0.434592 0.00136778 0.38924 0.00136778 0.343434C0.00136778 0.297629 0.00983223 0.252276 0.0262729 0.209993C0.0427135 0.16771 0.0668049 0.129333 0.0971574 0.0970774C0.157691 0.0335016 0.239077 -0.00210952 0.323841 -0.00210952C0.408606 -0.00210952 0.489991 0.0335016 0.550525 0.0970774L4.90286 4.75357C4.96329 4.81805 4.9981 4.90509 5.00001 4.99645Z" fill="#323A43"/>
</svg>
