<svg width="16" height="14" viewBox="0 0 16 14" fill="none" xmlns="http://www.w3.org/2000/svg">
<path d="M14 8H10C9.44772 8 9 8.44772 9 9V12C9 12.5523 9.44772 13 10 13H14C14.5523 13 15 12.5523 15 12V9C15 8.44772 14.5523 8 14 8Z" stroke="#313942"/>
<path d="M6 8H2C1.44772 8 1 8.44772 1 9V12C1 12.5523 1.44772 13 2 13H6C6.55228 13 7 12.5523 7 12V9C7 8.44772 6.55228 8 6 8Z" stroke="#313942"/>
<path d="M14 1H10C9.44772 1 9 1.44772 9 2V5C9 5.55228 9.44772 6 10 6H14C14.5523 6 15 5.55228 15 5V2C15 1.44772 14.5523 1 14 1Z" stroke="#313942"/>
<path d="M6 1H2C1.44772 1 1 1.44772 1 2V5C1 5.55228 1.44772 6 2 6H6C6.55228 6 7 5.55228 7 5V2C7 1.44772 6.55228 1 6 1Z" stroke="#313942"/>
</svg>
