<?xml version="1.0" encoding="iso-8859-1"?>
<!-- Generator: Adobe Illustrator 19.0.0, SVG Export Plug-In . SVG Version: 6.00 Build 0)  -->
<svg version="1.1" id="Capa_1" xmlns="http://www.w3.org/2000/svg" xmlns:xlink="http://www.w3.org/1999/xlink" x="0px" y="0px"
	 viewBox="0 0 480 480" style="enable-background:new 0 0 480 480;" xml:space="preserve">
<g>
	<g>
		<path d="M473.016,22.984c-4.48-4.456-10.537-6.966-16.856-6.984H23.84C10.681,16.018,0.018,26.681,0,39.84v304.32
			c0.018,13.159,10.681,23.822,23.84,23.84H176v48h-8c-4.418,0-8,3.582-8,8v24h-32v16h224v-16h-32v-24c0-4.418-3.582-8-8-8h-8v-48
			h152.16c13.159-0.018,23.822-10.681,23.84-23.84V39.84C479.982,33.521,477.472,27.464,473.016,22.984z M304,448H176v-16h128V448z
			 M192,416v-48h96v48H192z M464,344.16c0,4.33-3.51,7.84-7.84,7.84H23.84c-4.33,0-7.84-3.51-7.84-7.84V39.84
			c0-4.33,3.51-7.84,7.84-7.84h432.32c4.326,0.009,7.831,3.514,7.84,7.84V344.16z"/>
	</g>
</g>
<g>
	<g>
		<rect x="48" y="288" width="384" height="16"/>
	</g>
</g>
<g>
	<g>
		<rect x="224" y="320" width="32" height="16"/>
	</g>
</g>
<g>
	<g>
		<path d="M224,120h-64c-4.418,0-8,3.582-8,8v64c0,4.418,3.582,8,8,8h64c4.418,0,8-3.582,8-8v-64C232,123.582,228.418,120,224,120z
			 M216,184h-48v-48h48V184z"/>
	</g>
</g>
<g>
	<g>
		<rect x="184" y="152" width="16" height="16"/>
	</g>
</g>
<g>
	<g>
		<path d="M320,120h-64c-4.418,0-8,3.582-8,8v64c0,4.418,3.582,8,8,8h64c4.418,0,8-3.582,8-8v-64C328,123.582,324.418,120,320,120z
			 M312,184h-48v-48h48V184z"/>
	</g>
</g>
<g>
	<g>
		<rect x="280" y="152" width="16" height="16"/>
	</g>
</g>
<g>
	<g>
		<path d="M416,120h-64c-4.418,0-8,3.582-8,8v64c0,4.418,3.582,8,8,8h64c4.418,0,8-3.582,8-8v-64C424,123.582,420.418,120,416,120z
			 M408,184h-48v-48h48V184z"/>
	</g>
</g>
<g>
	<g>
		<rect x="376" y="152" width="16" height="16"/>
	</g>
</g>
<g>
	<g>
		<path d="M128,120H64c-4.418,0-8,3.582-8,8v64c0,4.418,3.582,8,8,8h64c4.418,0,8-3.582,8-8v-64C136,123.582,132.418,120,128,120z
			 M120,184H72v-48h48V184z"/>
	</g>
</g>
<g>
	<g>
		<rect x="88" y="152" width="16" height="16"/>
	</g>
</g>
<g>
</g>
<g>
</g>
<g>
</g>
<g>
</g>
<g>
</g>
<g>
</g>
<g>
</g>
<g>
</g>
<g>
</g>
<g>
</g>
<g>
</g>
<g>
</g>
<g>
</g>
<g>
</g>
<g>
</g>
</svg>
