<svg width="20" height="16" viewBox="0 0 20 16" fill="none" xmlns="http://www.w3.org/2000/svg">
<path d="M3.75 4.875V4.25C3.75 3.55964 4.30964 3 5 3H15C15.6904 3 16.25 3.55964 16.25 4.25V11.75C16.25 12.4404 15.6904 13 15 13H14.2763M6.25 2.375V1.75C6.25 1.05964 6.80964 0.5 7.5 0.5H17.5C18.1904 0.5 18.75 1.05964 18.75 1.75V9.25C18.75 9.94036 18.1904 10.5 17.5 10.5H16.7763M1.25 6.75V14.25C1.25 14.9404 1.80964 15.5 2.5 15.5H12.5C13.1904 15.5 13.75 14.9404 13.75 14.25V6.75C13.75 6.05964 13.1904 5.5 12.5 5.5H2.5C1.80964 5.5 1.25 6.05964 1.25 6.75Z" stroke="#313942"/>
</svg>
