<svg width="18" height="22" viewBox="0 0 18 22" fill="none" xmlns="http://www.w3.org/2000/svg">
<path d="M17.3445 17.5077C17.2798 17.4658 16.7931 17.1248 16.3057 16.0933C15.4108 14.1992 15.2229 11.5309 15.2229 9.62607C15.2229 9.61778 15.2227 9.60957 15.2224 9.60132C15.2127 7.08383 13.7052 4.91365 11.548 3.93993V2.45077C11.548 1.0994 10.4504 0 9.10126 0H8.89849C7.54936 0 6.45177 1.0994 6.45177 2.45077V3.93985C4.28734 4.9167 2.77686 7.09796 2.77686 9.62607C2.77686 11.5309 2.58901 14.1992 1.69401 16.0933C1.2067 17.1248 0.719994 17.4657 0.655283 17.5077C0.382775 17.6339 0.248412 17.9252 0.311103 18.2204C0.374396 18.5186 0.653091 18.7241 0.957439 18.7241H5.68172C5.70811 20.5349 7.18597 22 8.9999 22C10.8138 22 12.2917 20.5349 12.3181 18.7241H17.0424C17.3467 18.7241 17.6254 18.5186 17.6887 18.2204C17.7513 17.9252 17.617 17.6338 17.3445 17.5077ZM7.74087 2.45077C7.74087 1.81135 8.26019 1.29117 8.89854 1.29117H9.10131C9.73965 1.29117 10.259 1.81135 10.259 2.45077V3.52142C9.85214 3.43733 9.431 3.39307 8.99973 3.39307C8.56858 3.39307 8.14757 3.43728 7.74091 3.52129V2.45077H7.74087ZM8.9999 20.7088C7.89676 20.7088 6.99695 19.8229 6.97079 18.7242H11.029C11.0028 19.8229 10.103 20.7088 8.9999 20.7088ZM11.5952 17.4329C11.5951 17.4329 2.42633 17.4329 2.42633 17.4329C2.53783 17.2592 2.65131 17.0624 2.7641 16.8401C3.62795 15.1366 4.06597 12.7095 4.06597 9.62607C4.06597 6.90112 6.27925 4.68424 8.99968 4.68424C11.7201 4.68424 13.9334 6.90112 13.9334 9.62822C13.9334 9.63617 13.9335 9.64408 13.9338 9.65198C13.9363 12.723 14.3743 15.1415 15.2357 16.8401C15.3485 17.0625 15.462 17.2592 15.5735 17.4329H11.5952Z" fill="white"/>
</svg>
