<svg width="15" height="15" viewBox="0 0 15 15" fill="none" xmlns="http://www.w3.org/2000/svg">
<path d="M7.50717 10.3453C9.07467 10.3453 10.3454 9.07461 10.3454 7.5071C10.3454 5.9396 9.07467 4.66888 7.50717 4.66888C5.93966 4.66888 4.66895 5.9396 4.66895 7.5071C4.66895 9.07461 5.93966 10.3453 7.50717 10.3453Z" fill="white"/>
<path d="M7.50709 15C6.02313 15.0014 4.5721 14.5625 3.33765 13.739C2.10319 12.9154 1.1408 11.7441 0.572265 10.3734C0.00372815 9.00267 -0.145395 7.49408 0.143768 6.03856C0.432931 4.58305 1.14738 3.24602 2.1967 2.1967C3.24602 1.14738 4.58305 0.432931 6.03856 0.143768C7.49408 -0.145395 9.00267 0.00372815 10.3734 0.572265C11.7441 1.1408 12.9154 2.10319 13.739 3.33765C14.5625 4.5721 15.0014 6.02313 15 7.50709C14.9962 9.49318 14.2056 11.3969 12.8012 12.8012C11.3969 14.2056 9.49318 14.9962 7.50709 15ZM7.50709 0.716651C6.16377 0.715247 4.85021 1.11231 3.73259 1.8576C2.61498 2.60289 1.74353 3.66292 1.22849 4.90358C0.713445 6.14425 0.577959 7.5098 0.839168 8.82749C1.10038 10.1452 1.74654 11.3558 2.69592 12.3061C3.6453 13.2565 4.85523 13.904 6.17264 14.1665C7.49005 14.4291 8.85574 14.2951 10.0969 13.7813C11.3382 13.2676 12.3991 12.3972 13.1456 11.2804C13.892 10.1636 14.2904 8.85042 14.2904 7.50709C14.2886 5.70796 13.5735 3.98295 12.302 2.7101C11.0305 1.43726 9.30622 0.720406 7.50709 0.716651Z" fill="white"/>
</svg>
