<svg width="40" height="40" viewBox="0 0 40 40" fill="none" xmlns="http://www.w3.org/2000/svg">
<path d="M12.4519 15.5877C12.1605 15.4495 11.8124 15.5736 11.6742 15.8648C11.4708 16.2934 11.0329 16.5704 10.5588 16.5704C10.0846 16.5704 9.64673 16.2934 9.44337 15.8648C9.30509 15.5736 8.95689 15.4494 8.66564 15.5877C8.37439 15.7259 8.25033 16.0742 8.38853 16.3655C8.78423 17.1992 9.63603 17.738 10.5588 17.738C11.4815 17.738 12.3334 17.1992 12.729 16.3655C12.8672 16.0742 12.7431 15.726 12.4519 15.5877Z" fill="#313942"/>
<path d="M36.1907 4.4826H33.3648C33.1095 4.4826 32.8838 4.64846 32.8077 4.89206L31.5406 8.9419L31.184 7.61729C31.1153 7.36237 30.8842 7.18526 30.6202 7.18526H29.1931C28.8707 7.18526 28.6094 7.44667 28.6094 7.76901C28.6094 8.09136 28.8708 8.35276 29.1931 8.35276H30.1729L30.9348 11.1832C31.0023 11.4339 31.2273 11.6099 31.4868 11.615C31.4908 11.6151 31.4947 11.6151 31.4987 11.6151C31.7534 11.6151 31.9794 11.4496 32.0557 11.2057L33.7939 5.6501H36.1908C36.5132 5.6501 36.7745 5.3887 36.7745 5.06635C36.7745 4.74401 36.5131 4.4826 36.1907 4.4826Z" fill="#313942"/>
<path d="M37.0435 8.75325C37.048 8.73419 37.0514 8.71482 37.0539 8.69536L37.076 8.52318C37.0791 8.49865 37.0806 8.47396 37.0806 8.44919C37.0806 7.49919 36.3078 6.72638 35.3578 6.72638C34.5364 6.72638 33.8254 7.31075 33.6673 8.11591C33.6052 8.43232 33.8113 8.73911 34.1276 8.8013C34.4435 8.86349 34.7507 8.65732 34.8129 8.34099C34.8638 8.082 35.0929 7.89396 35.3578 7.89396C35.6536 7.89396 35.8962 8.12661 35.9121 8.41857L35.8998 8.51489C35.8463 8.72232 35.7165 8.97677 35.5232 9.25302C34.8189 10.2592 34.3989 10.8092 34.1732 11.1047C33.8953 11.4685 33.7423 11.6689 33.8403 11.9876C33.8985 12.1767 34.0414 12.3216 34.2323 12.3853C34.3109 12.4115 34.3775 12.4337 35.2439 12.4337C35.5857 12.4337 36.0521 12.4303 36.6927 12.4222C37.015 12.4182 37.2731 12.1536 37.2691 11.8311C37.265 11.5087 37.0008 11.2529 36.678 11.2547C36.2876 11.2597 35.8756 11.2631 35.5152 11.2644C35.7539 10.9429 36.0697 10.5083 36.4797 9.92255C36.7701 9.50779 36.9598 9.11435 37.0435 8.75325Z" fill="#313942"/>
<path d="M37.1916 2.20242H21.3234C21.2797 2.00367 21.1991 1.8261 21.0809 1.67102C20.7984 1.30094 20.413 1.10414 19.9659 1.10188C19.4562 1.09977 18.9151 1.37156 18.4337 1.72664C18.4311 1.38352 18.3641 1.05196 18.1907 0.776174C18.0052 0.481174 17.6273 0.129534 16.8803 0.129534C15.963 0.129534 15.2331 0.61344 14.6873 1.19422C14.6301 0.99219 14.5448 0.804065 14.4227 0.64344C14.167 0.30719 13.7941 0.129456 13.3442 0.129456C12.5073 0.129456 11.8557 0.795081 11.2131 1.61172C10.9473 1.46414 10.5924 1.28407 10.1764 1.11391C9.97038 1.02961 9.76077 0.952893 9.55265 0.885784C8.80109 0.644065 8.09366 0.539065 7.44991 0.573127C7.44788 0.573206 7.44484 0.57344 7.44179 0.573674C7.4364 0.573831 7.43101 0.574143 7.42562 0.574456C7.33273 0.580159 7.23843 0.588831 7.14343 0.600627C6.06374 0.738049 5.17734 1.29969 4.55398 2.23469C3.81202 1.99047 2.40608 1.71328 1.3153 2.59828C-0.223134 3.84641 -0.410087 6.73875 0.744366 11.4328C0.37046 11.8477 0.142335 12.3967 0.142335 12.998C0.142335 14.0959 0.902725 15.0191 1.92444 15.2699C1.93515 15.5851 1.94765 15.8999 1.96382 16.2136C2.05812 18.0554 3.11343 19.6238 4.64226 20.4372C4.14788 20.9692 3.51413 21.8281 2.9739 23.1258C2.84999 23.4234 2.99077 23.7652 3.28851 23.8891C3.36179 23.9196 3.4378 23.9341 3.51265 23.9341C3.74132 23.9341 3.95843 23.7988 4.05179 23.5745C4.69335 22.0334 5.4621 21.2263 5.84515 20.8931C6.15312 20.9666 6.47226 21.0124 6.79991 21.0278C7.07546 21.0408 7.35163 21.0518 7.62788 21.062L6.90702 22.842C6.82437 23.0462 6.86359 23.2795 7.00859 23.4453C7.15343 23.6112 7.37952 23.6812 7.5928 23.6267L9.97718 23.0166V28.0231H5.69171C5.85507 27.2726 6.0514 26.7411 6.05468 26.7323C6.16757 26.4305 6.01468 26.0943 5.71288 25.9812C5.41093 25.868 5.07444 26.0209 4.96132 26.3228C4.94648 26.3624 4.59562 27.3064 4.41327 28.5205C4.37335 28.7868 4.34554 29.046 4.32773 29.2977H2.98335C3.01483 27.9923 3.15273 26.7813 3.3946 25.6902C3.46437 25.3754 3.26577 25.0637 2.95101 24.9939C2.63608 24.9241 2.32444 25.1227 2.25476 25.4375C1.96562 26.7422 1.81679 28.2008 1.81015 29.773C1.63499 30.2605 1.1921 31.7497 1.97976 32.5374C2.34343 32.901 2.9003 33.0114 3.44265 33.0114C3.73929 33.0114 4.03116 32.9782 4.28499 32.9356C4.36108 34.282 4.56734 35.8714 5.05593 37.2933C4.41648 37.726 3.9953 38.458 3.9953 39.2866C3.9953 39.6091 4.25671 39.8704 4.57905 39.8704H9.60827C9.9307 39.8704 10.192 39.609 10.192 39.2866V37.4652C10.192 37.423 10.1873 37.3819 10.1788 37.3422C9.95648 36.3112 9.65929 33.5848 10.5606 32.0069C11.4587 33.5821 11.1642 36.308 10.9432 37.3407C10.9344 37.3809 10.9296 37.4224 10.9296 37.4652V39.2866C10.9296 39.6091 11.191 39.8704 11.5134 39.8704H16.5426C16.865 39.8704 17.1263 39.609 17.1263 39.2866C17.1263 38.4583 16.7054 37.7264 16.0662 37.2936C17.1703 34.0807 16.83 30.0091 16.8148 29.835L16.7128 28.5608C16.7125 28.5568 16.7121 28.5528 16.7117 28.5488C16.6763 28.1973 16.6233 27.859 16.5587 27.5355H31.5241C31.8465 27.5355 32.1078 27.2741 32.1078 26.9518C32.1078 26.6295 31.8464 26.368 31.5241 26.368H16.2609C16.0909 25.821 15.9009 25.3471 15.7303 24.9706C16.23 25 16.8683 25.0244 17.5604 25.0238C19.3533 25.0192 20.7387 24.8348 21.6945 24.4759C21.8519 24.6501 22.0502 24.7857 22.2747 24.8681L22.0955 25.4955C22.007 25.8055 22.1866 26.1286 22.4966 26.2171C22.5501 26.2324 22.6041 26.2397 22.6572 26.2397C22.9112 26.2397 23.145 26.0725 23.2183 25.816L23.4631 24.9585H23.9209C24.7255 24.9585 25.38 24.304 25.38 23.4995V22.8742C25.38 22.2549 24.9916 21.7259 24.446 21.5145L27.7305 10.0054C27.8191 9.69539 27.6394 9.37227 27.3294 9.28383C27.0194 9.19539 26.6963 9.37492 26.6078 9.685L23.2602 21.4152H21.9599C21.5872 21.3384 19.3619 20.8696 16.9659 20.1402C18.2262 19.2733 19.0693 17.851 19.1535 16.2135C19.1696 15.8994 19.1822 15.5847 19.1928 15.2698C20.2144 15.0191 20.9748 14.0959 20.9748 12.998C20.9748 11.8871 20.1967 10.9552 19.1573 10.7173C19.0964 9.47844 18.9936 8.24125 18.8494 7.01086C20.0053 5.77156 20.9162 4.3993 21.2292 3.36992H37.1917C38.0965 3.36992 38.8325 4.10602 38.8325 5.01071V24.727C38.8325 25.6318 38.0965 26.3679 37.1917 26.3679H33.8594C33.5369 26.3679 33.2756 26.6293 33.2756 26.9516C33.2756 27.274 33.537 27.5354 33.8594 27.5354H37.1916C38.7402 27.5354 40 26.2755 40 24.727V5.01078C40 3.46227 38.7402 2.20242 37.1916 2.20242ZM17.7883 8.04602C17.8848 9.01016 17.9554 9.97781 17.9999 10.9463L16.0937 12.1141C15.728 11.2331 14.859 10.6119 13.8473 10.6119C12.7078 10.6119 11.7494 11.3999 11.4872 12.4595H9.62999C9.3678 11.3999 8.40937 10.6119 7.26991 10.6119C6.25819 10.6119 5.38913 11.2332 5.02343 12.1142L3.97515 11.4719C5.00616 10.9243 5.62765 9.83539 5.94702 8.88078C6.97687 9.62055 8.31429 10.1345 9.81077 10.3547C11.6253 10.6216 13.4761 10.4396 15.0226 9.84211C15.9316 9.49086 16.8948 8.83602 17.7883 8.04602ZM15.1111 13.0432C15.1111 13.7401 14.5441 14.307 13.8473 14.307C13.1504 14.307 12.5834 13.7401 12.5834 13.0432C12.5834 12.3463 13.1504 11.7794 13.8473 11.7794C14.5441 11.7795 15.1111 12.3463 15.1111 13.0432ZM8.53374 13.0432C8.53374 13.7401 7.96679 14.307 7.26991 14.307C6.57304 14.307 6.00609 13.7401 6.00609 13.0432C6.00609 12.3463 6.57304 11.7794 7.26991 11.7794C7.96679 11.7794 8.53374 12.3463 8.53374 13.0432ZM1.30991 12.998C1.30991 12.5586 1.55304 12.1754 1.91148 11.9746C1.89374 12.6523 1.88882 13.3323 1.89632 14.0117C1.54632 13.8087 1.30991 13.4309 1.30991 12.998ZM8.42296 22.2092L8.87312 21.0976C9.24085 21.1053 9.6089 21.1101 9.97718 21.1127V21.8115L8.42296 22.2092ZM12.2483 21.0975L12.6985 22.2092L11.1448 21.8116V21.1127C11.5128 21.11 11.8807 21.1052 12.2483 21.0975ZM2.8053 31.7118C2.64171 31.5482 2.67741 30.9883 2.81687 30.4653H4.26866C4.25421 30.7955 4.24241 31.2387 4.24694 31.7559C3.55632 31.8927 2.95374 31.8602 2.8053 31.7118ZM5.30944 38.7029C5.51788 38.3149 5.92734 38.0503 6.39741 38.0491H9.02452V38.7029H5.30944ZM12.0973 38.7029V38.0491H14.7244C15.1946 38.0503 15.604 38.3149 15.8124 38.7029H12.0973ZM12.2043 36.8813C12.271 36.4045 12.3409 35.7272 12.3421 34.9771C12.3451 33.0052 11.8848 31.5434 10.9738 30.6324C10.8644 30.5229 10.7159 30.4614 10.561 30.4614C10.4062 30.4614 10.2576 30.5229 10.1482 30.6324C9.2371 31.5435 8.77679 33.0052 8.77984 34.9771C8.78101 35.7272 8.85093 36.4045 8.91765 36.8813L6.14827 36.8814C5.16132 33.9723 5.48554 29.4305 5.50819 29.1907H15.5921L15.6515 29.9323C15.6551 29.9734 15.9823 33.9084 14.9737 36.8814L12.2043 36.8813ZM24.2124 23.4995C24.2124 23.6602 24.0816 23.7909 23.9209 23.7909H23.0161C23.0128 23.7909 23.0095 23.7909 23.0062 23.7909H22.7755C22.6148 23.7909 22.4841 23.6602 22.4841 23.4995V22.5828H23.9209C24.0816 22.5828 24.2124 22.7135 24.2124 22.8743V23.4995ZM21.3166 22.4721V23.3722C20.5129 23.6845 19.2308 23.8512 17.5685 23.8561C16.0713 23.8603 14.804 23.7284 14.7913 23.727C14.5694 23.7035 14.3537 23.8091 14.2353 23.9984C14.1169 24.1876 14.1169 24.428 14.2351 24.6173C14.2449 24.633 15.1232 26.0591 15.4621 28.0232H11.1448V23.0168L13.5287 23.6268C13.5766 23.6391 13.6251 23.6451 13.6734 23.645C13.8394 23.645 14.0005 23.574 14.1129 23.4454C14.2578 23.2795 14.2971 23.0463 14.2144 22.8421L13.4935 21.0619C13.7683 21.0518 14.0429 21.0409 14.3169 21.028C14.6873 21.0105 15.0462 20.953 15.391 20.8619C17.7931 21.6727 20.3001 22.2509 21.3166 22.4721ZM17.9875 16.1538C17.8837 18.1726 16.2821 19.7666 14.2619 19.8616C11.8044 19.9777 9.31234 19.9776 6.85484 19.8616C4.8346 19.7665 3.23319 18.1726 3.12983 16.1538C3.0639 14.8729 3.04515 13.5768 3.0721 12.2879L4.86304 13.3852C5.02984 14.5645 6.0453 15.4747 7.26991 15.4747C8.40937 15.4747 9.3678 14.6866 9.62999 13.627H11.4872C11.7494 14.6866 12.7078 15.4747 13.8473 15.4747C15.0719 15.4747 16.0873 14.5645 16.2541 13.3852L18.0444 12.2884C18.0716 13.5797 18.0532 14.8702 17.9875 16.1538ZM19.8072 12.998C19.8072 13.4309 19.5708 13.8088 19.2209 14.0117C19.2281 13.3332 19.223 12.6538 19.205 11.9742C19.5638 12.1749 19.8072 12.5584 19.8072 12.998ZM20.1271 2.98375C19.6348 4.72727 16.813 7.89867 14.6017 8.75305C11.719 9.86688 7.86812 9.2675 6.01765 7.41696C5.86155 7.26086 5.63077 7.20617 5.42116 7.27563C5.21163 7.34508 5.05913 7.5268 5.02726 7.74532C5.02304 7.77446 4.57741 10.6586 2.51983 10.6586C2.51913 10.6586 2.51851 10.6587 2.5178 10.6587C2.50585 10.6584 2.4939 10.6579 2.48194 10.6579C2.23929 10.6579 2.00515 10.6951 1.78483 10.764C1.20687 8.27703 0.66085 4.63985 2.04749 3.50774C2.98648 2.74125 4.53312 3.4761 4.54702 3.48289C4.83249 3.62328 5.17757 3.50938 5.32343 3.22672C5.77585 2.34992 6.41944 1.86985 7.28882 1.7593C7.35484 1.75117 7.42171 1.74485 7.4878 1.74063C7.4978 1.74024 7.50788 1.73969 7.51788 1.73899C8.01757 1.71321 8.58202 1.80024 9.19484 1.99727C9.37421 2.05516 9.55569 2.12156 9.73452 2.19477C10.0273 2.31453 10.2866 2.44063 10.4965 2.55172C9.98983 3.20992 9.4696 3.81696 8.93882 4.01289C8.6364 4.12461 8.48171 4.46031 8.59343 4.76274C8.70515 5.06516 9.04093 5.21985 9.34327 5.10813C10.2994 4.755 11.0241 3.79406 11.7249 2.86469C12.2516 2.16633 12.9069 1.29711 13.3444 1.29711C13.453 1.29711 13.4754 1.32649 13.4934 1.35C13.7165 1.64274 13.6109 2.61485 13.449 3.20344C13.3655 3.50414 13.5334 3.81735 13.8301 3.9143C14.1268 4.01141 14.4472 3.85781 14.5576 3.56594C14.5662 3.54328 15.4555 1.29703 16.8805 1.29703C17.052 1.29703 17.1603 1.33078 17.2023 1.39735C17.3913 1.69735 17.1531 2.67977 16.8214 3.37321C16.692 3.64211 16.7863 3.96524 17.0398 4.12242C17.2935 4.27969 17.6248 4.22031 17.808 3.98492C18.3474 3.29235 19.4027 2.2693 19.958 2.2693H19.9602C20.0177 2.26961 20.0756 2.27821 20.1526 2.37907C20.2015 2.44328 20.2241 2.64008 20.1271 2.98375Z" fill="#313942"/>
</svg>
