<svg width="9" height="9" viewBox="0 0 9 9" fill="none" xmlns="http://www.w3.org/2000/svg">
<path fill-rule="evenodd" clip-rule="evenodd" d="M8.69194 0.308058C8.93602 0.552136 8.93602 0.947864 8.69194 1.19194L1.19194 8.69194C0.947864 8.93602 0.552136 8.93602 0.308058 8.69194C0.0639806 8.44786 0.0639806 8.05214 0.308058 7.80806L7.80806 0.308058C8.05214 0.0639806 8.44786 0.0639806 8.69194 0.308058Z" fill="black"/>
<path fill-rule="evenodd" clip-rule="evenodd" d="M0.308058 0.308058C0.552136 0.0639806 0.947864 0.0639806 1.19194 0.308058L8.69194 7.80806C8.93602 8.05214 8.93602 8.44786 8.69194 8.69194C8.44786 8.93602 8.05214 8.93602 7.80806 8.69194L0.308058 1.19194C0.0639806 0.947864 0.0639806 0.552136 0.308058 0.308058Z" fill="#313942"/>
</svg>
