<svg width="14" height="16" viewBox="0 0 14 16" fill="none" xmlns="http://www.w3.org/2000/svg">
<g clip-path="url(#clip0)">
<path d="M9.38939 11.009V1.68421C9.38939 1.23753 9.20778 0.809145 8.88452 0.493294C8.56126 0.177443 8.12283 0 7.66567 0L1.90591 0L0 2.57424V11.009C0 11.4557 0.181606 11.8841 0.504867 12.1999C0.828128 12.5158 1.26656 12.6932 1.72372 12.6932H7.66567C8.12283 12.6932 8.56126 12.5158 8.88452 12.1999C9.20778 11.8841 9.38939 11.4557 9.38939 11.009ZM0.700701 11.009V3.12195C0.740335 3.12525 0.780185 3.12525 0.81982 3.12195H2.46647C2.52779 3.12196 2.58851 3.11005 2.64508 3.08691C2.70165 3.06378 2.75294 3.02988 2.79598 2.98719C2.83902 2.94451 2.87293 2.89388 2.89576 2.83827C2.91858 2.78265 2.92986 2.72316 2.92893 2.66324V0.801027C2.93559 0.762504 2.93559 0.723161 2.92893 0.684638H7.68669C7.95435 0.690013 8.20919 0.797693 8.39652 0.98457C8.58385 1.17145 8.68875 1.42263 8.68869 1.68421V11.009C8.68869 11.1403 8.66223 11.2702 8.61082 11.3915C8.5594 11.5128 8.48405 11.623 8.38905 11.7158C8.29406 11.8086 8.18128 11.8822 8.05716 11.9325C7.93304 11.9827 7.80001 12.0086 7.66567 12.0086H1.72372C1.58938 12.0086 1.45635 11.9827 1.33223 11.9325C1.20811 11.8822 1.09533 11.8086 1.00034 11.7158C0.905341 11.623 0.829985 11.5128 0.778574 11.3915C0.727162 11.2702 0.700701 11.1403 0.700701 11.009Z" fill="#313942"/>
<path d="M12.2763 3.21777H11.5756V3.90241H12.2763C12.4118 3.90059 12.5463 3.92511 12.6721 3.97453C12.7978 4.02395 12.9123 4.09729 13.0087 4.19029C13.1052 4.28329 13.1818 4.39409 13.2341 4.51627C13.2864 4.63844 13.3133 4.76955 13.3133 4.90198V14.3158C13.3115 14.5803 13.2031 14.8335 13.0117 15.0206C12.8202 15.2076 12.5611 15.3135 12.2903 15.3153H5.56357C5.29225 15.3153 5.03204 15.21 4.84018 15.0226C4.64833 14.8351 4.54054 14.5809 4.54054 14.3158H3.83984C3.83984 14.7624 4.02145 15.1908 4.34471 15.5067C4.66797 15.8225 5.10641 16 5.56357 16H12.2763C12.5038 16.0018 12.7295 15.9595 12.9402 15.8757C13.151 15.7919 13.3427 15.6681 13.5042 15.5115C13.6658 15.355 13.794 15.1687 13.8815 14.9635C13.969 14.7582 14.014 14.5381 14.014 14.3158V4.90198C14.014 4.67965 13.969 4.45952 13.8815 4.25428C13.794 4.04905 13.6658 3.86277 13.5042 3.70619C13.3427 3.54962 13.151 3.42585 12.9402 3.34202C12.7295 3.25819 12.5038 3.21596 12.2763 3.21777Z" fill="#313942"/>
</g>
<defs>
<clipPath id="clip0">
<path d="M0 0H14V16H0V0Z" fill="white"/>
</clipPath>
</defs>
</svg>
