<svg width="25" height="25" viewBox="0 0 25 25" fill="none" xmlns="http://www.w3.org/2000/svg">
<g clip-path="url(#clip0)">
<path d="M22.9543 9.20812C22.9297 9.14401 22.8906 9.08626 22.84 9.03928V9.00551L13.8889 0.169398C13.8442 0.0981596 13.7811 0.039892 13.706 0.000555122C13.6161 -0.0223205 13.5217 -0.0223205 13.4317 0.000555122H5.90964C4.87366 0.00352477 3.88098 0.410062 3.14844 1.13136C2.41589 1.85266 2.00302 2.8301 2 3.85017L2 21.1509C2 22.1719 2.41191 23.1511 3.14511 23.873C3.8783 24.595 4.87274 25.0006 5.90964 25.0006H19.1475C19.6609 25.0006 20.1693 24.901 20.6437 24.7075C21.118 24.5141 21.549 24.2305 21.9121 23.873C22.2751 23.5156 22.5631 23.0912 22.7596 22.6241C22.956 22.1571 23.0572 21.6565 23.0572 21.1509V9.42199C23.0364 9.34512 23.0015 9.27264 22.9543 9.20812ZM14.049 1.92536L21.0452 8.85918H14.049V1.92536ZM19.1475 23.8749H5.90964C5.54634 23.8749 5.1866 23.8045 4.85095 23.6676C4.51531 23.5307 4.21034 23.33 3.95345 23.0771C3.69656 22.8242 3.49278 22.5239 3.35375 22.1934C3.21472 21.8629 3.14317 21.5087 3.14317 21.1509V3.85017C3.14618 3.12864 3.43861 2.4375 3.95677 1.92729C4.47493 1.41708 5.17685 1.12914 5.90964 1.12617H12.9058V9.42199C12.9088 9.57035 12.9699 9.71184 13.0765 9.81676C13.183 9.92169 13.3267 9.98191 13.4774 9.9848H21.8568V21.1509C21.857 21.8637 21.5734 22.5482 21.0669 23.0575C20.5603 23.5667 19.8713 23.8602 19.1475 23.8749Z" fill="#313942"/>
<rect x="6.66675" y="13.9531" width="11.0833" height="1.16279" rx="0.581396" fill="#313942"/>
<rect x="6.66675" y="16.8604" width="11.0833" height="1.16279" rx="0.581396" fill="#313942"/>
<rect x="6.66675" y="19.7676" width="11.0833" height="1.16279" rx="0.581396" fill="#313942"/>
</g>
<defs>
<clipPath id="clip0">
<rect x="2" width="21" height="25" fill="white"/>
</clipPath>
</defs>
</svg>
