<svg width="24" height="20" viewBox="0 0 24 20" fill="none" xmlns="http://www.w3.org/2000/svg">
<path d="M8.69995 9C7.80994 9 6.93991 8.73608 6.19989 8.24162C5.45987 7.74715 4.88309 7.04434 4.5425 6.22208C4.2019 5.39981 4.11279 4.49501 4.28642 3.6221C4.46005 2.74918 4.88864 1.94736 5.51797 1.31802C6.14731 0.688685 6.94913 0.260102 7.82205 0.0864683C8.69496 -0.0871652 9.59976 0.00194979 10.422 0.342544C11.2443 0.683138 11.9471 1.25991 12.4416 1.99994C12.936 2.73996 13.2 3.60999 13.2 4.5C13.1973 5.69266 12.7224 6.83572 11.879 7.67906C11.0357 8.52241 9.89262 8.99736 8.69995 9ZM8.69995 1C8.00772 1 7.33103 1.20527 6.75546 1.58986C6.17989 1.97444 5.73128 2.52107 5.46637 3.16061C5.20147 3.80015 5.13216 4.50388 5.2672 5.18282C5.40225 5.86175 5.7356 6.48539 6.22508 6.97488C6.71456 7.46436 7.3382 7.7977 8.01714 7.93275C8.69607 8.0678 9.3998 7.99849 10.0393 7.73358C10.6789 7.46867 11.2255 7.02007 11.6101 6.4445C11.9947 5.86893 12.2 5.19224 12.2 4.5C12.2 3.57174 11.8312 2.68151 11.1748 2.02513C10.5184 1.36875 9.62821 1 8.69995 1Z" fill="#313942"/>
<path d="M0.5 19.87C0.367392 19.87 0.240215 19.8173 0.146447 19.7235C0.0526784 19.6298 0 19.5026 0 19.37V16.82C0.00264345 15.3674 0.580848 13.9751 1.60797 12.9479C2.6351 11.9208 4.02743 11.3426 5.48 11.34H11.92C13.3726 11.3426 14.7649 11.9208 15.792 12.9479C16.8192 13.9751 17.3974 15.3674 17.4 16.82V19.29C17.4 19.4226 17.3473 19.5498 17.2536 19.6435C17.1598 19.7373 17.0326 19.79 16.9 19.79C16.7674 19.79 16.6402 19.7373 16.5464 19.6435C16.4527 19.5498 16.4 19.4226 16.4 19.29V16.82C16.3974 15.6326 15.9245 14.4946 15.0849 13.655C14.2453 12.8155 13.1074 12.3426 11.92 12.34H5.48C4.29264 12.3426 3.15467 12.8155 2.31508 13.655C1.47549 14.4946 1.00264 15.6326 1 16.82V19.37C1 19.5026 0.947322 19.6298 0.853553 19.7235C0.759785 19.8173 0.632608 19.87 0.5 19.87Z" fill="#313942"/>
<path d="M23.2 8.00002H20.63V5.45002C20.63 5.33598 20.5847 5.2266 20.5041 5.14596C20.4234 5.06532 20.3141 5.02002 20.2 5.02002C20.086 5.02002 19.9766 5.06532 19.896 5.14596C19.8153 5.2266 19.77 5.33598 19.77 5.45002V8.00002H17.21C17.096 8.00002 16.9866 8.04532 16.906 8.12596C16.8253 8.2066 16.78 8.31598 16.78 8.43002C16.78 8.54406 16.8253 8.65343 16.906 8.73408C16.9866 8.81472 17.096 8.86002 17.21 8.86002H19.77V11.43C19.77 11.5441 19.8153 11.6534 19.896 11.7341C19.9766 11.8147 20.086 11.86 20.2 11.86C20.3141 11.86 20.4234 11.8147 20.5041 11.7341C20.5847 11.6534 20.63 11.5441 20.63 11.43V8.87002H23.2C23.256 8.87004 23.3115 8.85885 23.3631 8.83712C23.4147 8.81539 23.4615 8.78356 23.5006 8.74349C23.5397 8.70342 23.5705 8.65594 23.591 8.60382C23.6115 8.5517 23.6214 8.49601 23.62 8.44002C23.6214 8.38355 23.6115 8.32737 23.5912 8.27469C23.5708 8.22201 23.5402 8.17386 23.5012 8.133C23.4622 8.09214 23.4155 8.05936 23.3638 8.03655C23.3122 8.01373 23.2565 8.00132 23.2 8.00002Z" fill="#313942"/>
</svg>
