<svg width="16" height="13" viewBox="0 0 16 13" fill="none" xmlns="http://www.w3.org/2000/svg">
<g clip-path="url(#clip0)">
<path d="M5.89336 5.88827C5.29047 5.88827 4.70112 5.7156 4.19983 5.3921C3.69855 5.06859 3.30785 4.60878 3.07713 4.07081C2.84641 3.53284 2.78605 2.94087 2.90367 2.36977C3.02128 1.79866 3.3116 1.27406 3.73791 0.862319C4.16422 0.450574 4.70737 0.170172 5.29867 0.0565721C5.88998 -0.0570281 6.50288 0.00127565 7.05988 0.22411C7.61688 0.446945 8.09295 0.824303 8.4279 1.30846C8.76284 1.79262 8.94162 2.36184 8.94162 2.94414C8.93983 3.72444 8.6181 4.47229 8.04683 5.02405C7.47556 5.57581 6.70126 5.88655 5.89336 5.88827ZM5.89336 0.654254C5.42444 0.654254 4.96606 0.788553 4.57617 1.04017C4.18628 1.29178 3.8824 1.64942 3.70296 2.06784C3.52351 2.48626 3.47656 2.94668 3.56804 3.39087C3.65952 3.83507 3.88533 4.24308 4.2169 4.56333C4.54847 4.88358 4.97092 5.10167 5.43082 5.19002C5.89073 5.27838 6.36743 5.23303 6.80065 5.05971C7.23387 4.8864 7.60415 4.5929 7.86467 4.21633C8.12518 3.83976 8.26423 3.39703 8.26423 2.94414C8.26423 2.33682 8.01444 1.75438 7.56982 1.32495C7.12519 0.895509 6.52215 0.654254 5.89336 0.654254Z" fill="#313942"/>
<path d="M0.338696 13C0.248868 13 0.16272 12.9655 0.0992018 12.9042C0.0356839 12.8428 0 12.7596 0 12.6728V11.0045C0.00179065 10.0541 0.393462 9.14321 1.08923 8.47121C1.785 7.79921 2.72815 7.42092 3.71211 7.41919H8.07451C9.05848 7.42092 10.0016 7.79921 10.6974 8.47121C11.3932 9.14321 11.7848 10.0541 11.7866 11.0045V12.6205C11.7866 12.7073 11.7509 12.7905 11.6874 12.8518C11.6239 12.9132 11.5378 12.9476 11.4479 12.9476C11.3581 12.9476 11.2719 12.9132 11.2084 12.8518C11.1449 12.7905 11.1092 12.7073 11.1092 12.6205V11.0045C11.1074 10.2277 10.7871 9.48314 10.2184 8.93384C9.64967 8.38453 8.87882 8.07517 8.07451 8.07344H3.71211C2.9078 8.07517 2.13695 8.38453 1.56822 8.93384C0.999484 9.48314 0.679181 10.2277 0.677392 11.0045V12.6728C0.677392 12.7596 0.641708 12.8428 0.57819 12.9042C0.514672 12.9655 0.428524 13 0.338696 13Z" fill="#313942"/>
<path d="M15.7154 5.23397H13.9745V3.56563C13.9745 3.49102 13.9438 3.41946 13.8892 3.3667C13.8346 3.31394 13.7605 3.2843 13.6833 3.2843C13.606 3.2843 13.5319 3.31394 13.4773 3.3667C13.4227 3.41946 13.392 3.49102 13.392 3.56563V5.23397H11.6579C11.5806 5.23397 11.5065 5.26361 11.4519 5.31637C11.3973 5.36913 11.3666 5.44069 11.3666 5.5153C11.3666 5.58992 11.3973 5.66147 11.4519 5.71423C11.5065 5.76699 11.5806 5.79663 11.6579 5.79663H13.392V7.47806C13.392 7.55267 13.4227 7.62423 13.4773 7.67699C13.5319 7.72975 13.606 7.75939 13.6833 7.75939C13.7605 7.75939 13.8346 7.72975 13.8892 7.67699C13.9438 7.62423 13.9745 7.55267 13.9745 7.47806V5.80317H15.7154C15.7534 5.80318 15.7909 5.79587 15.8259 5.78165C15.8609 5.76743 15.8925 5.7466 15.919 5.72039C15.9456 5.69418 15.9664 5.66311 15.9803 5.62901C15.9942 5.59491 16.0008 5.55848 15.9999 5.52185C16.0008 5.4849 15.9942 5.44814 15.9804 5.41368C15.9666 5.37921 15.9459 5.34771 15.9194 5.32098C15.893 5.29425 15.8614 5.2728 15.8264 5.25787C15.7914 5.24294 15.7537 5.23482 15.7154 5.23397Z" fill="#313942"/>
</g>
<defs>
<clipPath id="clip0">
<path d="M0 0H16V13H0V0Z" fill="white"/>
</clipPath>
</defs>
</svg>
