<svg width="21" height="8" viewBox="0 0 21 8" fill="none" xmlns="http://www.w3.org/2000/svg">
<path d="M0 0H21V7.26929H0V0Z" fill="#FB4A59"/>
<path d="M9.42827 4.97551V5.64167H6.64111V1.62756H7.3657V4.97551H9.42827Z" fill="#F2F2F2"/>
<path d="M10.0303 1.62756H10.7556V5.64167H10.0303V1.62756Z" fill="#F2F2F2"/>
<path d="M15.4641 1.62756L13.7866 5.64167H12.9749L11.2979 1.62756H12.1043L13.3781 4.67183L14.652 1.62756H15.4641Z" fill="#F2F2F2"/>
<path d="M16.7265 2.29372V3.26374H18.8008V3.92971H16.7265V4.97569H19.017V5.64185H15.9961V1.62756H19.017V2.29372H16.7265Z" fill="#F2F2F2"/>
<path d="M3.23042 4.73012C3.83553 4.73012 4.32607 4.23958 4.32607 3.63447C4.32607 3.02936 3.83553 2.53882 3.23042 2.53882C2.62531 2.53882 2.13477 3.02936 2.13477 3.63447C2.13477 4.23958 2.62531 4.73012 3.23042 4.73012Z" fill="#F2F2F2"/>
</svg>
