<svg width="16" height="24" viewBox="0 0 16 24" fill="none" xmlns="http://www.w3.org/2000/svg">
<path d="M8.1586 17.1285C9.21904 17.1285 10.2362 16.7287 10.987 16.0169C11.7379 15.305 12.1611 14.3392 12.1639 13.3311V3.80745C12.1639 2.79765 11.7419 1.82921 10.9908 1.11518C10.2396 0.401141 9.22087 0 8.1586 0C7.09634 0 6.07758 0.401141 5.32644 1.11518C4.5753 1.82921 4.15332 2.79765 4.15332 3.80745V13.3311C4.15612 14.3392 4.57934 15.305 5.33017 16.0169C6.081 16.7287 7.09817 17.1285 8.1586 17.1285ZM5.21012 3.80745C5.21012 3.06409 5.52077 2.35117 6.07371 1.82554C6.62666 1.2999 7.37662 1.0046 8.1586 1.0046C8.94059 1.0046 9.69055 1.2999 10.2435 1.82554C10.7964 2.35117 11.1071 3.06409 11.1071 3.80745V13.3311C11.1071 14.0745 10.7964 14.7874 10.2435 15.313C9.69055 15.8386 8.94059 16.1339 8.1586 16.1339C7.37662 16.1339 6.62666 15.8386 6.07371 15.313C5.52077 14.7874 5.21012 14.0745 5.21012 13.3311V3.80745Z" fill="#F4F6F3"/>
<path d="M15.4716 7.79575C15.3315 7.79575 15.1971 7.84867 15.098 7.94287C14.9989 8.03707 14.9432 8.16483 14.9432 8.29805V12.1859C14.9432 13.9364 14.2117 15.6152 12.9096 16.853C11.6075 18.0907 9.84145 18.7861 8 18.7861C6.15855 18.7861 4.39252 18.0907 3.09042 16.853C1.78832 15.6152 1.0568 13.9364 1.0568 12.1859V8.31814C1.0568 8.18492 1.00113 8.05716 0.902038 7.96296C0.802943 7.86876 0.668542 7.81584 0.528402 7.81584C0.388261 7.81584 0.25386 7.86876 0.154765 7.96296C0.0556707 8.05716 0 8.18492 0 8.31814L0 12.1859C0.000540207 14.0894 0.752025 15.9235 2.10601 17.326C3.46 18.7284 5.31803 19.5971 7.31308 19.7606V22.7041H3.67767C3.51151 22.7238 3.35863 22.8005 3.2478 22.9198C3.13696 23.0392 3.07579 23.1929 3.07579 23.352C3.07579 23.5112 3.13696 23.6649 3.2478 23.7843C3.35863 23.9036 3.51151 23.9803 3.67767 24H12.3118C12.4084 24.0115 12.5065 24.0033 12.5995 23.9759C12.6926 23.9486 12.7785 23.9028 12.8515 23.8415C12.9245 23.7803 12.9829 23.7049 13.023 23.6205C13.063 23.5361 13.0837 23.4446 13.0837 23.352C13.0837 23.2595 13.063 23.1679 13.023 23.0836C12.9829 22.9992 12.9245 22.9238 12.8515 22.8626C12.7785 22.8013 12.6926 22.7555 12.5995 22.7281C12.5065 22.7008 12.4084 22.6926 12.3118 22.7041H8.67635V19.7606C10.6724 19.5973 12.5316 18.7289 13.8873 17.3267C15.243 15.9245 15.9968 14.0903 16 12.1859V8.29805C15.9973 8.16563 15.9408 8.03936 15.8422 7.94571C15.7437 7.85206 15.6109 7.79832 15.4716 7.79575Z" fill="#F4F6F3"/>
</svg>
