<svg width="40" height="40" viewBox="0 0 40 40" fill="none" xmlns="http://www.w3.org/2000/svg">
<path d="M32.344 8.22559C32.1801 8.22302 32.0236 8.29184 31.9119 8.41145L9.24612 32.6708C9.13432 32.7904 9.07776 32.9513 9.09003 33.1146C9.10229 33.2779 9.18221 33.4285 9.31057 33.5301C12.4372 36.0057 16.2187 37.2475 20.0044 37.2475C23.6335 37.2475 27.2665 36.1052 30.325 33.8138C30.584 33.6197 30.6366 33.2525 30.4426 32.9935C30.2485 32.7346 29.8813 32.6819 29.6223 32.8759C23.9692 37.1112 16.2147 37.1326 10.5451 32.9969L17.1177 25.9622L24.2098 30.0685C24.2262 30.0779 24.2429 30.0866 24.2602 30.0945C24.4303 30.1721 24.6081 30.2105 24.7849 30.2105C25.0216 30.2105 25.2566 30.1416 25.4685 30.0053C25.8852 29.7374 26.1339 29.2613 26.1339 28.7316V25.1717C26.9862 24.9464 27.7709 24.513 28.42 23.9053C30.5732 21.8892 30.6848 18.4972 28.6688 16.3439C28.2341 15.8796 27.7213 15.4983 27.158 15.216L32.3253 9.68534C34.7624 12.5901 36.0879 16.2555 36.0707 20.0776C36.0524 24.1357 34.5156 28.0047 31.7432 30.972C31.5866 31.1397 31.4241 31.3063 31.2605 31.4671C31.0298 31.6941 31.0268 32.065 31.2537 32.2957C31.4806 32.5264 31.8516 32.5295 32.0822 32.3026C32.2576 32.1301 32.4315 31.9516 32.5994 31.7719C35.5739 28.5882 37.2229 24.437 37.2425 20.0828C37.262 15.7531 35.6749 11.6102 32.7735 8.41731C32.6635 8.2963 32.5077 8.22669 32.344 8.22559ZM24.8349 29.0195C24.8035 29.0397 24.7821 29.0403 24.7634 29.0347L17.9389 25.0834L24.9621 17.5663V28.7315C24.9621 28.8837 24.8935 28.9818 24.8349 29.0195ZM27.8134 17.1448C29.3878 18.8264 29.3007 21.4754 27.6191 23.0498C27.1892 23.4523 26.6833 23.7572 26.134 23.9478V16.4015C26.134 16.3734 26.1313 16.346 26.1275 16.319L26.3124 16.1211C26.8786 16.3473 27.3929 16.6957 27.8134 17.1448Z" fill="#313942"/>
<path d="M39.9886 19.3215C39.8072 13.9825 37.5577 9.03363 33.6542 5.38658C29.7507 1.73953 24.6615 -0.169269 19.3216 0.0122126C13.9826 0.193538 9.03374 2.44311 5.38668 6.34657C1.73963 10.25 -0.169009 15.3401 0.012316 20.6792C0.193641 26.0182 2.44322 30.967 6.34667 34.6141C10.0803 38.1025 14.8991 40.0004 19.9833 40.0003C20.2147 40.0003 20.4469 39.9964 20.6792 39.9885C26.0182 39.8071 30.9671 37.5576 34.6142 33.6541C38.2612 29.7506 40.1699 24.6605 39.9886 19.3215ZM33.7579 32.854C30.3245 36.5288 25.6657 38.6465 20.6395 38.8173C20.4204 38.8247 20.2025 38.8285 19.9844 38.8285C15.1984 38.8283 10.6614 37.0416 7.14674 33.7579C3.47195 30.3246 1.35425 25.6656 1.18355 20.6395C1.01285 15.6133 2.80969 10.8214 6.24308 7.14671C9.67638 3.47192 14.3353 1.35414 19.3615 1.18344C19.5805 1.17602 19.7985 1.17227 20.0165 1.17227C24.8026 1.17227 29.3396 2.95912 32.8542 6.2429C36.529 9.67628 38.6468 14.3351 38.8175 19.3614C38.9881 24.3875 37.1913 29.1793 33.7579 32.854Z" fill="#313942"/>
<path d="M30.91 6.88574C30.8978 6.72246 30.8178 6.57176 30.6895 6.4702C27.7227 4.12118 24.1496 2.83854 20.3564 2.76112C16.643 2.68518 12.9505 3.82946 9.95294 5.98271C9.69013 6.17146 9.63013 6.53762 9.81888 6.80043C10.0077 7.06324 10.3738 7.12324 10.6366 6.93449C13.4298 4.92819 16.8733 3.86212 20.3325 3.93274C23.6543 4.00055 26.7945 5.05968 29.4551 7.00332L26.0225 10.6772C25.9113 10.3965 25.7211 10.1575 25.4686 9.99522C25.0982 9.7571 24.6579 9.72468 24.2603 9.90601C24.2431 9.91382 24.2263 9.92257 24.2099 9.93202L14.3779 15.6245H11.7153C11.0128 15.6245 10.4414 16.196 10.4414 16.8984V23.1018C10.4414 23.8042 11.0128 24.3757 11.7153 24.3757H13.2238L7.67477 30.3149C5.2377 27.4102 3.91209 23.7448 3.92936 19.9226C3.94764 15.8646 5.48449 11.9955 8.25687 9.02829C8.45812 8.81282 8.6678 8.60032 8.87998 8.39658C9.11342 8.17244 9.12092 7.80159 8.89686 7.56815C8.67264 7.3348 8.30187 7.32722 8.06836 7.55136C7.84094 7.76971 7.61625 7.99752 7.40063 8.22838C4.42607 11.412 2.77719 15.5633 2.7575 19.9175C2.73805 24.2472 4.32513 28.3901 7.22649 31.5829C7.33665 31.7041 7.49235 31.7736 7.6561 31.7748H7.66016C7.82242 31.7748 7.9775 31.7075 8.08828 31.5889L30.7539 7.32956C30.8657 7.20996 30.9223 7.04902 30.91 6.88574ZM11.6132 23.1018V16.8984C11.6132 16.8421 11.659 16.7964 11.7153 16.7964H13.9696V23.2038H11.7153C11.659 23.2038 11.6132 23.1581 11.6132 23.1018ZM15.1414 16.5366L24.7458 10.9753C24.771 10.9647 24.8202 10.9631 24.8418 11.0172C24.8922 11.1229 24.966 11.7658 24.9725 11.8008L15.1414 22.3232V16.5366Z" fill="#313942"/>
</svg>
