<svg width="24" height="20" viewBox="0 0 24 20" fill="none" xmlns="http://www.w3.org/2000/svg">
<path d="M8.80985 9.494C7.87932 9.494 6.96968 9.2156 6.19597 8.69399C5.42225 8.17238 4.81922 7.431 4.46312 6.5636C4.10702 5.6962 4.01385 4.74174 4.19539 3.82091C4.37692 2.90008 4.82502 2.05425 5.48301 1.39037C6.14099 0.726486 6.97932 0.274378 7.89198 0.0912144C8.80463 -0.0919496 9.75062 0.00205681 10.6103 0.361346C11.47 0.720635 12.2048 1.32907 12.7218 2.10971C13.2388 2.89035 13.5147 3.80813 13.5147 4.747C13.5147 5.37039 13.393 5.98767 13.1566 6.5636C12.9201 7.13953 12.5736 7.66284 12.1367 8.10364C11.6998 8.54444 11.1811 8.8941 10.6103 9.13266C10.0395 9.37122 9.4277 9.494 8.80985 9.494ZM8.80985 1.0433C8.08383 1.0433 7.37411 1.26052 6.77045 1.66749C6.16678 2.07445 5.69628 2.65289 5.41845 3.32966C5.14061 4.00642 5.06791 4.75111 5.20955 5.46956C5.35119 6.18801 5.70081 6.84794 6.21418 7.36592C6.72756 7.88389 7.38164 8.23663 8.09371 8.37954C8.80578 8.52245 9.54386 8.4491 10.2146 8.16878C10.8854 7.88845 11.4587 7.41374 11.862 6.80467C12.2654 6.1956 12.4807 5.47953 12.4807 4.747C12.478 3.76557 12.0903 2.82511 11.4025 2.13113C10.7147 1.43715 9.78258 1.04605 8.80985 1.0433Z" fill="#F4F6F3"/>
<path d="M15.5108 9.4627C15.3737 9.46962 15.2394 9.42129 15.1376 9.32836C15.0358 9.23542 14.9748 9.10549 14.9679 8.96714C14.9611 8.82879 15.009 8.69335 15.1011 8.59064C15.1932 8.48792 15.322 8.42632 15.4591 8.4194C16.314 8.27308 17.09 7.82614 17.6495 7.15777C18.209 6.4894 18.516 5.64275 18.516 4.76787C18.516 3.89298 18.209 3.04634 17.6495 2.37796C17.09 1.70959 16.314 1.26265 15.4591 1.11633C15.3236 1.10059 15.1997 1.03145 15.1145 0.92397C15.0293 0.816487 14.9896 0.679376 15.0041 0.542514C15.0014 0.473145 15.0123 0.403916 15.0364 0.338886C15.0605 0.273856 15.0973 0.214333 15.1444 0.163805C15.1916 0.113278 15.2483 0.072763 15.3113 0.0446352C15.3742 0.0165073 15.442 0.00133244 15.5108 0C16.6257 0.168152 17.6437 0.734597 18.3795 1.59624C19.1153 2.45789 19.5201 3.55746 19.5201 4.69484C19.5201 5.83221 19.1153 6.93178 18.3795 7.79343C17.6437 8.65508 16.6257 9.22152 15.5108 9.38967V9.4627Z" fill="#F4F6F3"/>
<path d="M17.103 20C16.9659 20 16.8343 19.945 16.7374 19.8472C16.6404 19.7494 16.586 19.6167 16.586 19.4783V16.4737C16.586 15.7404 16.2973 15.0372 15.7834 14.5187C15.2695 14.0002 14.5725 13.7089 13.8458 13.7089H3.77424C3.04749 13.7089 2.35051 14.0002 1.83662 14.5187C1.32274 15.0372 1.03404 15.7404 1.03404 16.4737V19.4783C1.03404 19.6167 0.979566 19.7494 0.882606 19.8472C0.785646 19.945 0.65414 20 0.517019 20C0.379897 20 0.248391 19.945 0.151431 19.8472C0.0544715 19.7494 0 19.6167 0 19.4783V16.4737C0.00272894 15.4645 0.401247 14.4976 1.10846 13.784C1.81568 13.0705 2.77409 12.6684 3.77424 12.6656H13.8458C14.8396 12.6766 15.789 13.0827 16.4878 13.7956C17.1867 14.5086 17.5787 15.4709 17.5786 16.4737V19.4783C17.579 19.6098 17.5303 19.7365 17.4421 19.8332C17.3539 19.9299 17.2328 19.9895 17.103 20Z" fill="#F4F6F3"/>
<path d="M23.4832 20C23.346 20 23.2145 19.945 23.1176 19.8472C23.0206 19.7494 22.9661 19.6167 22.9661 19.4783V16.4737C22.9661 15.7404 22.6774 15.0372 22.1635 14.5187C21.6497 14.0002 20.9527 13.7089 20.2259 13.7089H19.5331C19.396 13.7089 19.2645 13.654 19.1675 13.5561C19.0706 13.4583 19.0161 13.3256 19.0161 13.1873C19.0161 13.0489 19.0706 12.9162 19.1675 12.8184C19.2645 12.7206 19.396 12.6656 19.5331 12.6656H20.2259C21.2261 12.6684 22.1845 13.0705 22.8917 13.784C23.5989 14.4976 23.9974 15.4645 24.0002 16.4737V19.4783C24.0002 19.5469 23.9868 19.6147 23.9608 19.678C23.9348 19.7413 23.8968 19.7988 23.8487 19.8472C23.8007 19.8956 23.7437 19.9341 23.681 19.9603C23.6183 19.9865 23.551 20 23.4832 20Z" fill="#F4F6F3"/>
</svg>
