<svg xmlns="http://www.w3.org/2000/svg" viewBox="0 0 48.26 45.71"><defs><style>.cls-1{fill:#313942;}</style></defs><title>Asset 80</title><g id="Layer_2" data-name="Layer 2"><g id="Layer_2-2" data-name="Layer 2"><path class="cls-1" d="M36.61,6.83a4.82,4.82,0,1,0,4.82,4.82A4.82,4.82,0,0,0,36.61,6.83Zm0,8.64a3.82,3.82,0,1,1,3.82-3.82A3.82,3.82,0,0,1,36.61,15.47Z"/><path class="cls-1" d="M45.8,9.08h-.32a1.12,1.12,0,0,1-.69-.5,1.48,1.48,0,0,1-.08-1.34l.14-.16a3.19,3.19,0,0,0,.33-.4s0-.09.07-.14a1.82,1.82,0,0,0,.16-.31.64.64,0,0,0,.05-.17,1.71,1.71,0,0,0,.09-.3.68.68,0,0,0,0-.2,1.55,1.55,0,0,0,0-.31c0-.06,0-.13,0-.19a2.85,2.85,0,0,0,0-.29,1.52,1.52,0,0,0-.06-.2,1.38,1.38,0,0,0-.08-.27l-.1-.2a2,2,0,0,0-.13-.25c0-.07-.1-.12-.15-.19s-.09-.13-.15-.2l0,0a2.49,2.49,0,0,0-1.19-.65,2.72,2.72,0,0,0-1.36,0,2.5,2.5,0,0,0-.63.27c-.3.18-.53.45-.84.62a1.55,1.55,0,0,1-1.06.06.48.48,0,0,1-.38-.26,1.87,1.87,0,0,1-.19-.87A2.59,2.59,0,0,0,36.61,0,2.5,2.5,0,0,0,34,2.46a1.18,1.18,0,0,1-.51,1,1.32,1.32,0,0,1-1.22.12c-.4-.16-.66-.53-1.05-.7a2.73,2.73,0,0,0-2.58.26,3.88,3.88,0,0,0-.31.26,2.58,2.58,0,0,0,0,3.66,1.48,1.48,0,0,1,.36,1.07,1,1,0,0,1-1,.92,4.42,4.42,0,0,0-1.08.17,2.54,2.54,0,0,0-.87.54A2.58,2.58,0,0,0,25,11.65a2.61,2.61,0,0,0,1,2.11,2.31,2.31,0,0,0,1.1.44,2.28,2.28,0,0,1,1.06.26,1.18,1.18,0,0,1,.44,1.19A3.21,3.21,0,0,1,28,16.74a2.3,2.3,0,0,0-.4,1.32v.1l0,.24,0,.2a2.46,2.46,0,0,0,.09.29,1.27,1.27,0,0,0,.06.18,2.64,2.64,0,0,0,.15.29l.08.15a3.79,3.79,0,0,0,.32.38,2.57,2.57,0,0,0,1.83.76A3,3,0,0,0,31.85,20a3.66,3.66,0,0,1,.72-.46,1.41,1.41,0,0,1,.93,0c.34.11.44.4.49.74a5.52,5.52,0,0,0,.22,1.34,2.6,2.6,0,0,0,1.91,1.58,2.7,2.7,0,0,0,.49,0,2.58,2.58,0,0,0,.68-.08A2.28,2.28,0,0,0,37.9,23a2.38,2.38,0,0,0,.51-.37,2.32,2.32,0,0,0,.4-.49,2.18,2.18,0,0,0,.27-.58,2.84,2.84,0,0,0,.1-.64c0-.08,0-.17,0-.25s0-.12,0-.18a.85.85,0,0,1,.06-.17,1.07,1.07,0,0,1,.19-.28,2.11,2.11,0,0,1,.23-.19,1.22,1.22,0,0,1,.74-.2,1.5,1.5,0,0,1,.37.05,1,1,0,0,1,.24.09,2.61,2.61,0,0,1,.31.27l.32.23a2.29,2.29,0,0,0,.72.3,2.65,2.65,0,0,0,.63.08h.11a2.6,2.6,0,0,0,1.72-4.42l-.26-.38a1,1,0,0,1-.07-.8l0-.28c.05-.26.1-.29.52-.44l.23-.08h.37a2.59,2.59,0,0,0,2.59-2.59A2.5,2.5,0,0,0,45.8,9.08Zm-.13,4.16-.52,0-.14,0-.26.1a1.94,1.94,0,0,0-1.25,2.34c.13.74.77,1.14,1,1.8a1.57,1.57,0,0,1-.37,1.65,1.7,1.7,0,0,1-1.25.47,1.74,1.74,0,0,1-1.24-.59,1.65,1.65,0,0,0-1.33-.42,2.21,2.21,0,0,0-1.18.36,2.16,2.16,0,0,0-.53.47,2.56,2.56,0,0,0-.34.63,1.51,1.51,0,0,0-.06.36,1,1,0,0,0,0,.17,1.23,1.23,0,0,0,0,.19,1.5,1.5,0,0,1-1.57,1.48,1.61,1.61,0,0,1-1.23-.57c-.44-.54-.29-1.28-.5-1.91-.5-1.51-2.44-1.59-3.54-.66a1.64,1.64,0,0,1-2.26,0,1.57,1.57,0,0,1-.47-1.12s0-.06,0-.09a1.76,1.76,0,0,1,.41-.91,2.49,2.49,0,0,0,.53-1,2.39,2.39,0,0,0,.06-.65,2.24,2.24,0,0,0-.36-1.18,2.21,2.21,0,0,0-1.82-1A1.49,1.49,0,0,1,26,11.65a1.6,1.6,0,0,1,1.09-1.51c.79-.25,1.73,0,2.32-.77a2.5,2.5,0,0,0-.29-3,1.57,1.57,0,0,1-.47-1.12v0a1.6,1.6,0,0,1,.47-1.07,1.62,1.62,0,0,1,2.24,0l.29.25.12.07a2.49,2.49,0,0,0,2.35-.13,2.17,2.17,0,0,0,1-1.82A1.49,1.49,0,0,1,36.61,1,1.59,1.59,0,0,1,38.2,2.59a2.26,2.26,0,0,0,.5,1.58,2.19,2.19,0,0,0,2,.6c.77-.16,1.18-.9,1.92-1.06a1.61,1.61,0,0,1,1.48.41,1.59,1.59,0,0,1,.2,2,3.64,3.64,0,0,0-.71,1.26,2.31,2.31,0,0,0,.21,1.55A2.41,2.41,0,0,0,45.9,10.1a1.5,1.5,0,0,1,1.36,1.55A1.59,1.59,0,0,1,45.67,13.24Z"/><path class="cls-1" d="M42.6,44.7H5.94a5.85,5.85,0,0,1-3.81-1.06A3.34,3.34,0,0,1,1,41.24a3.12,3.12,0,0,1,1.16-2.17A6,6,0,0,1,6,38.24l.56.07V11.37H20.42v-1H6.58V3.28l-.46,0C6,3.23,2.93,3,1.18,4.63A3.74,3.74,0,0,0,0,7.49V41.18H0v0A4.37,4.37,0,0,0,1.48,44.4a6.44,6.44,0,0,0,4.08,1.31h38V22.49h-1ZM1,7.49a2.73,2.73,0,0,1,.85-2.12A5.88,5.88,0,0,1,5.58,4.23v33a6.52,6.52,0,0,0-4,1.08A4.51,4.51,0,0,0,1,38.8Z"/><path class="cls-1" d="M20.35,15.05H9v7.63H20.42l-.06-3.5h3.56v-1H20.35ZM10,21.68V16.05h9.37l.06,5.63Z"/><path class="cls-1" d="M33.17,25.05v5.51l-4.82.06v3.62H20.48V30.55H9v8.19H20.44l0-3.5h7.88v3.19H39.17V30.55h-5v-5.5ZM19.45,37.74H10V31.55h9.5Zm18.72-6.19v5.88H29.35V31.61l4.32-.06Z"/></g></g></svg>