<svg width="12" height="12" viewBox="0 0 12 12" fill="none" xmlns="http://www.w3.org/2000/svg">
<path fill-rule="evenodd" clip-rule="evenodd" d="M11.8437 3.45277L8.54723 0.156352C8.33876 -0.0521173 8.01304 -0.0521173 7.80457 0.156352C7.76548 0.19544 6.81433 1.17263 7.17915 2.44951L5.69381 3.93485C4.87296 3.6873 2.77525 3.25734 1.22477 4.80783C1.0163 5.01629 1.0163 5.34202 1.22477 5.55049L3.4658 7.79153L0.156352 11.101C-0.0521173 11.3095 -0.0521173 11.6352 0.156352 11.8437C0.260586 11.9479 0.390886 12 0.521179 12C0.651472 12 0.781756 11.9479 0.88599 11.8437L4.19544 8.53419L6.43649 10.7753C6.54072 10.8795 6.67101 10.9316 6.8013 10.9316C6.93159 10.9316 7.06189 10.8795 7.16613 10.7753C8.71662 9.22477 8.28664 7.11401 8.03909 6.3062L9.52443 4.82085C10.7202 5.1625 11.6417 4.35007 11.7968 4.21336C11.8073 4.20409 11.8143 4.19792 11.8176 4.19544C12.0521 3.98697 12.0521 3.66124 11.8437 3.45277ZM9.65472 3.73941C9.45928 3.64821 9.22476 3.6873 9.06841 3.84365L7.11401 5.79805C6.97069 5.94137 6.91856 6.17589 6.99674 6.3583C6.99674 6.3583 7.23127 6.94463 7.27035 7.70033C7.30944 8.45603 7.15309 9.09447 6.8013 9.62867L4.58632 7.41369L2.37134 5.19871C3.76547 4.26059 5.56351 4.96418 5.64169 5.00327C5.83713 5.08144 6.05863 5.04235 6.21498 4.886L8.16938 2.9316C8.32573 2.77525 8.36483 2.54072 8.27362 2.34528C8.09121 1.9544 8.15636 1.60261 8.27362 1.32899L10.671 3.72639C10.3974 3.85668 10.0326 3.92182 9.65472 3.73941ZM6.65472 7.60003V7.61152C6.65702 7.60773 6.65928 7.6039 6.66147 7.60003H6.65472Z" fill="white"/>
</svg>
