<svg width="11" height="18" viewBox="0 0 11 18" fill="none" xmlns="http://www.w3.org/2000/svg">
<path d="M4.14014 17.54L4.14014 0.5C4.14014 0.367392 4.08746 0.240215 3.99369 0.146447C3.89992 0.0526784 3.77274 -1.60592e-08 3.64014 -2.18557e-08C3.50753 -2.76522e-08 3.38035 0.0526784 3.28658 0.146447C3.19282 0.240215 3.14014 0.367392 3.14014 0.5L3.14014 17.5C3.1427 17.6318 3.1962 17.7575 3.28942 17.8507C3.38263 17.9439 3.50833 17.9974 3.64014 18C3.7661 18.0004 3.88757 17.9533 3.98027 17.868C4.07297 17.7827 4.13006 17.6656 4.14014 17.54Z" fill="#313942"/>
<rect x="7" y="5" width="1" height="13" rx="0.5" fill="#313942"/>
<rect x="10" y="9" width="1" height="9" rx="0.5" fill="#313942"/>
<rect y="11" width="1" height="7" rx="0.5" fill="#313942"/>
</svg>
