<svg width="40" height="40" viewBox="0 0 40 40" fill="none" xmlns="http://www.w3.org/2000/svg">
<path d="M19.9999 38.7255C30.3417 38.7255 38.7254 30.3418 38.7254 20C38.7254 9.65821 30.3417 1.27454 19.9999 1.27454C9.65809 1.27454 1.27441 9.65821 1.27441 20C1.27441 30.3418 9.65809 38.7255 19.9999 38.7255Z" fill="none"/>
<path d="M19.9999 35.6005C28.6158 35.6005 35.6004 28.6159 35.6004 20C35.6004 11.3841 28.6158 4.39954 19.9999 4.39954C11.384 4.39954 4.39941 11.3841 4.39941 20C4.39941 28.6159 11.384 35.6005 19.9999 35.6005Z" fill="none"/>
<path d="M16.4451 24.8749V35.1906C13.3811 34.4749 10.6623 32.8531 8.58887 30.6235C8.92168 30.2798 9.3873 30.0673 9.90137 30.0673H12.5248C13.3139 30.0673 13.9529 29.4266 13.9529 28.6376V24.8749C13.9529 24.1859 14.5107 23.6281 15.1998 23.6281C15.5436 23.6281 15.8545 23.7671 16.0811 23.9937C16.3061 24.2187 16.4451 24.5312 16.4451 24.8749Z" fill="none"/>
<path d="M35.5999 20C35.5999 26.7547 31.2828 32.5219 25.2624 34.6844V33.6157C25.2624 32.0516 25.2624 30.9203 25.2624 30.9203C25.2624 30.5672 24.9781 30.2828 24.6249 30.2828H22.4359C20.3468 30.2828 18.5015 25.2203 18.4015 21.9719H16.9093C16.2499 21.9719 15.8671 21.2266 16.2499 20.6907L18.2812 17.8516C18.3593 17.7438 18.4015 17.6141 18.4015 17.4813C18.4015 16.9969 18.3999 15.8235 18.3999 15.8235C18.3999 10.9811 21.6726 6.84002 26.0796 5.6344C31.6703 8.0094 35.5999 13.5547 35.5999 20Z" fill="none"/>
<path d="M19.9999 0.649536C9.33004 0.649536 0.649414 9.33016 0.649414 20C0.649414 30.6698 9.33004 39.3505 19.9999 39.3505C30.6697 39.3505 39.3504 30.6698 39.3504 20C39.3504 9.33016 30.6697 0.649536 19.9999 0.649536ZM19.9999 38.1005C10.0193 38.1005 1.89941 29.9806 1.89941 20C1.89941 10.0194 10.0193 1.89954 19.9999 1.89954C29.9805 1.89954 38.1004 10.0194 38.1004 20C38.1004 29.9806 29.9805 38.1005 19.9999 38.1005Z" fill="#313942"/>
<path d="M19.9999 3.77454C11.0532 3.77454 3.77441 11.0533 3.77441 20C3.77441 24.4572 5.58488 28.7348 8.99754 31.9138C19.3124 41.447 35.7094 34.22 36.2129 20.603C36.5519 11.385 29.1538 3.77454 19.9999 3.77454ZM15.8202 34.3811C13.6202 33.7547 11.3933 32.51 9.57348 30.7372C9.78582 30.6772 9.64301 30.6922 12.525 30.6922C13.6571 30.6922 14.5782 29.7705 14.5782 28.6375V24.875C14.5782 24.532 14.8571 24.2531 15.2 24.2531C15.5357 24.2531 15.8204 24.5236 15.8204 24.875V34.3811H15.8202ZM24.6374 34.2395C22.1907 35.0383 19.5777 35.1863 17.0702 34.6869V24.875C17.0702 23.8308 16.2247 23.0031 15.1999 23.0031C14.1677 23.0031 13.328 23.8428 13.328 24.875V28.6374C13.328 29.0811 12.9677 29.442 12.5249 29.442H9.90145C9.45879 29.442 9.03676 29.56 8.66598 29.7773C6.39801 27.152 5.02441 23.7336 5.02441 20C5.02441 11.7425 11.7424 5.02454 19.9999 5.02454C21.4772 5.02454 22.9049 5.24063 24.254 5.64094C20.3669 7.4336 17.7749 11.3997 17.7749 15.8241C17.7749 15.8242 17.7764 16.997 17.7729 17.4878L15.7413 20.3272C15.0635 21.2761 15.7427 22.5967 16.9093 22.5967H17.8139C18.1027 25.8206 19.8827 30.9077 22.4358 30.9077H24.6249C24.633 30.9077 24.6374 30.912 24.6374 30.9202V34.2395ZM25.8874 33.7672V30.9203C25.8874 30.2242 25.321 29.6578 24.6249 29.6578H22.4358C21.0129 29.6578 19.1325 25.4092 19.0261 21.9527C19.0158 21.6152 18.7391 21.3469 18.4014 21.3469H16.9093C16.7579 21.3469 16.6702 21.1775 16.7582 21.0542L18.7871 18.2186C18.9436 18.0027 19.0263 17.7477 19.0263 17.4813C19.0263 16.9966 19.0247 15.8233 19.0247 15.8234C19.0247 11.43 21.8972 7.54438 26.0371 6.29735C38.1727 11.6623 37.7585 28.6783 25.8874 33.7672Z" fill="#313942"/>
<path d="M31.3829 25.9083C32.4604 23.9475 32.8643 22.1908 32.8811 22.1169C32.957 21.7805 32.7461 21.4463 32.4095 21.37C32.0729 21.2939 31.7384 21.505 31.6618 21.8411C31.6582 21.8575 31.2757 23.5077 30.2873 25.3063C29.8857 26.0374 30.9887 26.6247 31.3829 25.9083Z" fill="#313942"/>
<path d="M29.0475 27.1542C28.7538 27.5111 28.4424 27.8398 28.1214 28.1309C27.8658 28.3628 27.8467 28.7583 28.0788 29.0137C28.3107 29.2692 28.7058 29.2886 28.9616 29.0564C29.3271 28.7247 29.6808 28.3519 30.0128 27.9484C30.2321 27.6819 30.1938 27.2879 29.9274 27.0686C29.6608 26.8497 29.2671 26.8876 29.0475 27.1542Z" fill="#313942"/>
</svg>
