<svg width="22" height="22" viewBox="0 0 22 22" fill="none" xmlns="http://www.w3.org/2000/svg">
<path d="M11.0104 15.1731C13.3094 15.1731 15.1731 13.3094 15.1731 11.0104C15.1731 8.71139 13.3094 6.84768 11.0104 6.84768C8.71137 6.84768 6.84766 8.71139 6.84766 11.0104C6.84766 13.3094 8.71137 15.1731 11.0104 15.1731Z" fill="#F4F6F3"/>
<path d="M11.0104 22C8.83393 22.0021 6.70575 21.3584 4.89522 20.1505C3.08469 18.9426 1.67317 17.2247 0.839321 15.2143C0.00546796 13.2039 -0.213246 10.9913 0.21086 8.85656C0.634965 6.7218 1.68283 4.76083 3.22183 3.22183C4.76083 1.68283 6.7218 0.634965 8.85656 0.21086C10.9913 -0.213246 13.2039 0.00546796 15.2143 0.839321C17.2247 1.67317 18.9426 3.08469 20.1505 4.89522C21.3584 6.70575 22.0021 8.83393 22 11.0104C21.9945 13.9233 20.8349 16.7154 18.7751 18.7751C16.7154 20.8349 13.9233 21.9945 11.0104 22ZM11.0104 1.05109C9.0402 1.04903 7.11364 1.63138 5.47447 2.72447C3.8353 3.81757 2.55717 5.37228 1.80178 7.19192C1.04639 9.01157 0.847673 11.0144 1.23078 12.947C1.61389 14.8796 2.5616 16.6551 3.95402 18.049C5.34644 19.4429 7.121 20.3925 9.0532 20.7776C10.9854 21.1627 12.9884 20.9661 14.8089 20.2126C16.6293 19.4591 18.1853 18.1826 19.2801 16.5446C20.3749 14.9066 20.9593 12.9806 20.9593 11.0104C20.9566 8.37168 19.9078 5.84166 18.0429 3.97482C16.1781 2.10798 13.6491 1.0566 11.0104 1.05109Z" fill="#F4F6F3"/>
</svg>
