<svg width="16" height="25" viewBox="0 0 16 25" fill="none" xmlns="http://www.w3.org/2000/svg">
<g clip-path="url(#clip0)">
<path d="M12.56 18.18V20.4C12.5574 21.2496 12.218 22.0635 11.6163 22.6634C11.0146 23.2632 10.1996 23.6 9.35003 23.6H6.61003C5.76134 23.6 4.94741 23.2629 4.34729 22.6627C3.74718 22.0626 3.41003 21.2487 3.41003 20.4V18" stroke="#5D9C5A" stroke-linecap="round" stroke-linejoin="round"/>
<path d="M3.41003 6.13V3.7C3.41003 2.85131 3.74718 2.03737 4.34729 1.43726C4.94741 0.837142 5.76134 0.5 6.61003 0.5H9.35003C10.1996 0.499996 11.0146 0.836818 11.6163 1.43665C12.218 2.03648 12.5574 2.85039 12.56 3.7V6" stroke="#5D9C5A" stroke-linecap="round" stroke-linejoin="round"/>
<path d="M12.5101 18C11.1614 19.0087 9.51176 19.5327 7.82821 19.4873C6.14467 19.4418 4.52572 18.8295 3.23343 17.7496C1.94113 16.6696 1.05112 15.1851 0.70745 13.5364C0.363779 11.8876 0.586564 10.1712 1.33974 8.66482C2.09292 7.15846 3.33241 5.95036 4.85759 5.23606C6.38277 4.52177 8.10438 4.34308 9.74374 4.72892C11.3831 5.11477 12.8443 6.04256 13.8908 7.36213C14.9373 8.6817 15.5078 10.3158 15.5101 12C15.5148 13.1651 15.2457 14.3151 14.7247 15.3573C14.2036 16.3994 13.445 17.3046 12.5101 18" stroke="#5D9C5A" stroke-linecap="round" stroke-linejoin="round"/>
<path d="M10.8001 14.53L8.27007 13.41V8.10003C8.25571 8.01359 8.21115 7.93505 8.14431 7.8784C8.07746 7.82174 7.99269 7.79065 7.90507 7.79065C7.81745 7.79065 7.73267 7.82174 7.66583 7.8784C7.59899 7.93505 7.55442 8.01359 7.54007 8.10003V13.63C7.53619 13.7014 7.55423 13.7722 7.59177 13.8329C7.62931 13.8937 7.68455 13.9416 7.75007 13.97L10.5101 15.19C10.5552 15.2191 10.6061 15.238 10.6593 15.2455C10.7125 15.2529 10.7667 15.2487 10.818 15.2331C10.8694 15.2174 10.9168 15.1908 10.9569 15.1551C10.9969 15.1193 11.0287 15.0753 11.0501 15.026C11.0714 14.9767 11.0817 14.9234 11.0804 14.8697C11.079 14.816 11.066 14.7633 11.0422 14.7151C11.0184 14.667 10.9845 14.6246 10.9426 14.5909C10.9008 14.5572 10.8522 14.533 10.8001 14.52V14.53Z" fill="#5D9C5A"/>
</g>
<defs>
<clipPath id="clip0">
<path d="M0 0H15.97V24.1H0V0Z" fill="white"/>
</clipPath>
</defs>
</svg>
