<svg width="25" height="19" viewBox="0 0 25 19" fill="none" xmlns="http://www.w3.org/2000/svg">
<path d="M23.8665 0H1.10202C0.503778 0 0 0.520076 0 1.13767V15.8623C0 16.4799 0.503778 17 1.10202 17H23.898C24.4962 17 25 16.4799 25 15.8623V1.13767C24.9685 0.520076 24.4962 0 23.8665 0ZM24.0239 15.8623C24.0239 15.9598 23.961 16.0249 23.8665 16.0249H1.10202C1.00756 16.0249 0.944584 15.9598 0.944584 15.8623V1.13767C0.944584 1.04015 1.00756 0.975143 1.10202 0.975143H23.898C23.9924 0.975143 24.0554 1.04015 24.0554 1.13767V15.8623H24.0239Z" fill="#313942"/>
<path d="M4.09317 2.17204C4.28209 1.98312 4.28209 1.69975 4.09317 1.51083C3.90426 1.32191 3.62088 1.32191 3.43196 1.51083L1.47982 3.46297C1.29091 3.65189 1.29091 3.93526 1.47982 4.12418C1.57428 4.21864 1.70023 4.25012 1.82617 4.25012C1.95211 4.25012 2.07806 4.21864 2.17252 4.12418L4.09317 2.17204Z" fill="#313942"/>
<path d="M5.47847 1.73153L2.07797 5.13204C1.88905 5.32095 1.88905 5.60433 2.07797 5.79324C2.17243 5.8877 2.29837 5.91919 2.42431 5.91919C2.55026 5.91919 2.6762 5.8877 2.77066 5.79324L6.17117 2.39274C6.36008 2.20382 6.36008 1.92045 6.17117 1.73153C5.98225 1.54261 5.66739 1.54261 5.47847 1.73153Z" fill="#313942"/>
<path d="M24.4962 18H0.472292C0.220403 18 0 18.2333 0 18.5C0 18.7667 0.220403 19 0.472292 19H24.5277C24.7796 19 25 18.7667 25 18.5C25 18.2333 24.7481 18 24.4962 18Z" fill="#313942"/>
</svg>
