<svg width="20" height="20" viewBox="0 0 20 20" fill="none" xmlns="http://www.w3.org/2000/svg">
<g clip-path="url(#clip0)">
<path d="M10 14.1372C9.18172 14.1372 8.38181 13.8946 7.70143 13.44C7.02105 12.9853 6.49075 12.3392 6.17761 11.5832C5.86446 10.8272 5.78253 9.9953 5.94217 9.19273C6.10181 8.39017 6.49585 7.65297 7.07447 7.07435C7.65309 6.49573 8.39029 6.10169 9.19286 5.94205C9.99542 5.78241 10.8273 5.86434 11.5833 6.17749C12.3393 6.49063 12.9855 7.02093 13.4401 7.70131C13.8947 8.38169 14.1374 9.1816 14.1374 9.99989C14.1374 11.0972 13.7015 12.1495 12.9256 12.9254C12.1497 13.7013 11.0973 14.1372 10 14.1372ZM10 6.72092C9.35149 6.72092 8.71754 6.91323 8.17831 7.27353C7.63909 7.63382 7.21882 8.14593 6.97064 8.74508C6.72246 9.34424 6.65753 10.0035 6.78405 10.6396C6.91057 11.2756 7.22286 11.8599 7.68143 12.3185C8.14 12.777 8.72426 13.0893 9.36032 13.2159C9.99637 13.3424 10.6557 13.2774 11.2548 13.0293C11.854 12.7811 12.3661 12.3608 12.7264 11.8216C13.0867 11.2824 13.279 10.6484 13.279 9.99989C13.2767 9.13095 12.9305 8.29825 12.3161 7.68381C11.7017 7.06937 10.869 6.72319 10 6.72092Z" fill="#313942"/>
<path d="M17.8884 7.79399H17.6137C17.3675 7.73455 17.1546 7.58031 17.0215 7.3648C16.9202 7.19206 16.8611 6.99782 16.8492 6.79793C16.8373 6.59804 16.8728 6.39815 16.9528 6.21459L17.073 6.07725C17.1815 5.97519 17.2766 5.85982 17.3562 5.7339C17.3797 5.69564 17.3998 5.65544 17.4163 5.61373C17.47 5.52791 17.5187 5.43906 17.5622 5.34763C17.5622 5.29613 17.5622 5.24463 17.6051 5.20171C17.6481 5.15879 17.6652 5.03004 17.6824 4.9442C17.6996 4.85836 17.6824 4.83261 17.6824 4.77253C17.6824 4.71244 17.6824 4.60085 17.6824 4.51502C17.6824 4.46351 17.6824 4.40343 17.6824 4.35193C17.6866 4.269 17.6866 4.18592 17.6824 4.103C17.6692 4.04466 17.652 3.9873 17.6309 3.93132C17.616 3.85193 17.593 3.77427 17.5622 3.69957C17.5424 3.63837 17.5134 3.58051 17.4764 3.52789C17.4443 3.45383 17.407 3.38212 17.3648 3.3133C17.3275 3.25692 17.2874 3.20249 17.2446 3.15021L17.1073 2.97853C16.6822 2.57837 16.1203 2.35555 15.5365 2.35555C14.9526 2.35555 14.3908 2.57837 13.9657 2.97853L13.6395 3.21029C13.4247 3.32102 13.1748 3.34261 12.9442 3.27038H12.7124C12.4893 3.21888 12.4635 3.17596 12.3348 2.81544C12.3348 2.75536 12.2918 2.68669 12.2661 2.61802V2.22317C12.2661 1.92757 12.2072 1.63493 12.0928 1.36237C11.9785 1.0898 11.8108 0.842789 11.5998 0.635777C11.3888 0.428765 11.1387 0.265912 10.864 0.156744C10.5893 0.0475769 10.2955 -0.00571228 9.99999 -5.73933e-06C9.71604 -0.00799422 9.43332 0.0404745 9.16824 0.142589C8.90317 0.244704 8.661 0.398432 8.45579 0.594859C8.25058 0.791285 8.08641 1.0265 7.97281 1.28686C7.8592 1.54722 7.79842 1.82755 7.79399 2.11158V2.38626C7.73455 2.63252 7.58031 2.84537 7.3648 2.97853C7.19206 3.07982 6.99782 3.13884 6.79793 3.15078C6.59804 3.16271 6.39815 3.12722 6.21459 3.0472L6.07725 2.92703C5.65211 2.52687 5.09028 2.30405 4.50643 2.30405C3.92259 2.30405 3.36076 2.52687 2.93562 2.92703C2.52358 3.34605 2.29267 3.91018 2.29267 4.49785C2.29267 5.08551 2.52358 5.64965 2.93562 6.06866L3.01287 6.14592L3.15879 6.40343C3.21713 6.50691 3.25336 6.62137 3.26518 6.73957C3.277 6.85777 3.26416 6.97714 3.22746 7.09012V7.32188C3.22746 7.55364 3.14163 7.57081 2.78111 7.69957L2.5751 7.76824H2.22317C1.63276 7.77051 1.06731 8.00664 0.650624 8.42493C0.233942 8.84322 -1.01063e-05 9.40958 -5.73933e-06 9.99999C-0.00799422 10.2839 0.0404745 10.5667 0.142589 10.8317C0.244704 11.0968 0.398432 11.339 0.594859 11.5442C0.791285 11.7494 1.0265 11.9136 1.28686 12.0272C1.54722 12.1408 1.82755 12.2016 2.11158 12.206H2.36051C2.60523 12.2687 2.81696 12.4222 2.95278 12.6352C3.05342 12.8082 3.11206 13.0024 3.12399 13.2021C3.13591 13.4019 3.1008 13.6017 3.02145 13.7854L2.90128 13.9227C2.69517 14.1288 2.5321 14.3738 2.42158 14.6435C2.31105 14.9131 2.25528 15.2021 2.2575 15.4936V15.5794C2.25338 15.648 2.25338 15.7168 2.2575 15.7854C2.25273 15.8425 2.25273 15.9 2.2575 15.9571C2.27527 16.0414 2.29821 16.1245 2.32617 16.206L2.37768 16.3605C2.41494 16.4479 2.46095 16.5313 2.51502 16.6094C2.53109 16.6557 2.55426 16.6991 2.58369 16.7382C2.66238 16.8547 2.75144 16.9639 2.84978 17.0644C3.0556 17.2715 3.30034 17.4358 3.56993 17.548C3.83951 17.6601 4.12861 17.7179 4.4206 17.7179C4.71258 17.7179 5.00168 17.6601 5.27126 17.548C5.54085 17.4358 5.78559 17.2715 5.99141 17.0644L6.32617 16.8412C6.43027 16.7843 6.54503 16.7495 6.66323 16.7392C6.78142 16.7289 6.90047 16.7431 7.01287 16.7811H7.24463C7.47639 16.824 7.49356 16.8669 7.62231 17.236C7.62231 17.2961 7.62231 17.3648 7.69098 17.4249V17.7511C7.69324 18.3377 7.92729 18.8997 8.34212 19.3145C8.75695 19.7294 9.31892 19.9634 9.90557 19.9657C10.1895 19.9736 10.4722 19.9252 10.7373 19.8231C11.0024 19.721 11.2446 19.5672 11.4498 19.3708C11.655 19.1744 11.8192 18.9392 11.9328 18.6788C12.0464 18.4184 12.1071 18.1381 12.1116 17.8541V17.5451C12.1776 17.3133 12.3275 17.1144 12.5322 16.9871C12.7052 16.8865 12.8993 16.8278 13.0991 16.8159C13.2989 16.804 13.4987 16.8391 13.6824 16.9184L13.8197 17.0386C14.0254 17.2459 14.2701 17.4103 14.5397 17.5223C14.8094 17.6343 15.0986 17.6916 15.3906 17.691H15.485C16.0413 17.6653 16.5679 17.4327 16.9614 17.0386C17.1685 16.8328 17.3328 16.5881 17.445 16.3185C17.5571 16.0489 17.6149 15.7598 17.6149 15.4678C17.6149 15.1758 17.5571 14.8867 17.445 14.6171C17.3328 14.3476 17.1685 14.1028 16.9614 13.897L16.7382 13.5708C16.6813 13.4667 16.6465 13.352 16.6362 13.2338C16.6258 13.1156 16.6401 12.9965 16.6781 12.8841V12.6438C16.721 12.4206 16.7639 12.3948 17.133 12.2661L17.3305 12.1974H17.6481C18.2362 12.1951 18.7995 11.9599 19.2145 11.5432C19.6296 11.1266 19.8627 10.5624 19.8627 9.97424C19.8731 9.42775 19.6747 8.89785 19.3078 8.49268C18.9409 8.08751 18.4333 7.83761 17.8884 7.79399ZM17.7854 11.3648H17.3391H17.2103L16.9871 11.4506C16.7302 11.4998 16.4945 11.6265 16.3119 11.8138C16.1292 12.001 16.0084 12.2398 15.9657 12.4978V12.7382C15.8567 13.1519 15.9121 13.5918 16.1202 13.9657L16.2918 14.2747L16.3348 14.3176L16.4978 14.4893C16.6398 14.6325 16.7483 14.8055 16.8154 14.9957C16.9032 15.2375 16.9199 15.4993 16.8636 15.7503C16.8073 16.0012 16.6804 16.2309 16.4978 16.412C16.239 16.6597 15.8947 16.7979 15.5365 16.7979C15.1783 16.7979 14.8339 16.6597 14.5751 16.412L14.2318 16.0687L14.1717 16.1287C13.8582 15.9888 13.5154 15.9274 13.1729 15.9499C12.8304 15.9723 12.4985 16.0779 12.206 16.2575C11.8265 16.4976 11.5508 16.8713 11.4335 17.3047L11.382 17.8197C11.3811 17.9929 11.345 18.1641 11.2759 18.3229C11.2069 18.4817 11.1063 18.6249 10.9803 18.7436C10.8543 18.8624 10.7055 18.9544 10.5429 19.014C10.3803 19.0735 10.2073 19.0994 10.0343 19.0901C9.67464 19.0901 9.32968 18.9472 9.07533 18.6929C8.82099 18.4386 8.67811 18.0936 8.67811 17.7339V17.2875V17.1588C8.64603 17.0867 8.62019 17.0121 8.60085 16.9356C8.53553 16.6751 8.39034 16.4414 8.18562 16.2675C7.98091 16.0936 7.72691 15.988 7.45922 15.9657H7.22746C6.81917 15.8571 6.38519 15.903 6.00858 16.0944L5.69957 16.2661V16.309L5.52789 16.4721C5.26909 16.7197 4.92471 16.858 4.56652 16.858C4.20832 16.858 3.86394 16.7197 3.60514 16.4721C3.47858 16.3463 3.37845 16.1964 3.31065 16.0313C3.24284 15.8662 3.20872 15.6892 3.21029 15.5107V15.4506C3.21702 15.294 3.25192 15.1399 3.3133 14.9957C3.38051 14.8462 3.47349 14.7096 3.58798 14.5923L3.93132 14.2489L3.87982 14.1888C4.01759 13.8749 4.07781 13.5324 4.0554 13.1903C4.03299 12.8482 3.92861 12.5165 3.75107 12.2232C3.62028 12.0123 3.44903 11.8294 3.24719 11.685C3.04536 11.5406 2.81694 11.4376 2.5751 11.382H2.14592C1.96821 11.3837 1.79208 11.3485 1.62877 11.2784C1.46546 11.2083 1.31855 11.1049 1.1974 10.9749C1.07626 10.8449 0.983543 10.691 0.925169 10.5232C0.866794 10.3553 0.844042 10.1771 0.858363 9.99999C0.858363 9.63803 1.00216 9.29088 1.25811 9.03493C1.51406 8.77898 1.8612 8.63519 2.22317 8.63519H2.66952H2.78969L3.01287 8.54935C3.27702 8.50008 3.51854 8.36777 3.70227 8.1717C3.88599 7.97562 4.00233 7.72601 4.03433 7.45922V7.22746C4.15061 6.8198 4.10446 6.38295 3.90557 6.00858L3.69957 5.65665L3.52789 5.48497C3.40133 5.35913 3.3012 5.20925 3.23339 5.04416C3.16558 4.87906 3.13147 4.70207 3.13304 4.5236C3.13935 4.17756 3.28112 3.8478 3.52789 3.60514C3.78669 3.3575 4.13107 3.21928 4.48926 3.21928C4.84746 3.21928 5.19184 3.3575 5.45064 3.60514L5.69957 3.81974L5.80257 3.87982C6.12343 4.029 6.47609 4.09686 6.8294 4.0774C7.18271 4.05793 7.52579 3.95175 7.82832 3.76823C8.23656 3.48661 8.52205 3.05991 8.6266 2.5751V2.14592C8.62621 1.96936 8.66213 1.79461 8.73214 1.63253C8.80215 1.47044 8.90474 1.32449 9.03354 1.20373C9.16235 1.08298 9.31461 0.990007 9.48087 0.930593C9.64713 0.871178 9.82383 0.846593 9.99999 0.858363C10.362 0.858363 10.7091 1.00216 10.9651 1.25811C11.221 1.51406 11.3648 1.8612 11.3648 2.22317V2.66952V2.78969C11.3648 2.86695 11.4249 2.9442 11.4506 3.01287C11.5016 3.27771 11.6356 3.51945 11.8331 3.7031C12.0306 3.88674 12.2815 4.00275 12.5494 4.03433H12.7811C13.1946 4.14698 13.6359 4.09144 14.0086 3.87982L14.3176 3.70815H14.3605L14.5322 3.53647C14.791 3.28883 15.1354 3.15061 15.4936 3.15061C15.8517 3.15061 16.1961 3.28883 16.4549 3.53647C16.6782 3.75803 16.8181 4.04991 16.8509 4.36273C16.8838 4.67555 16.8076 4.99011 16.6352 5.25321C16.5822 5.32782 16.5219 5.39685 16.4549 5.45922L16.1116 5.81115L16.1717 5.86266C16.0308 6.17624 15.9696 6.51979 15.9936 6.86273C16.0176 7.20567 16.1259 7.53737 16.309 7.82832C16.5706 8.22964 16.9761 8.51535 17.4421 8.6266H17.8712C18.0441 8.62872 18.2147 8.6656 18.3729 8.73506C18.5312 8.80451 18.6738 8.90512 18.7924 9.03087C18.9109 9.15663 19.0029 9.30497 19.0629 9.46704C19.1229 9.62911 19.1497 9.80161 19.1416 9.97424C19.145 10.1549 19.1125 10.3345 19.046 10.5025C18.9795 10.6705 18.8803 10.8236 18.7541 10.9529C18.6279 11.0823 18.4774 11.1853 18.3111 11.256C18.1448 11.3267 17.9661 11.3637 17.7854 11.3648Z" fill="#313942"/>
</g>
<defs>
<clipPath id="clip0">
<path d="M0 0H20V20H0V0Z" fill="white"/>
</clipPath>
</defs>
</svg>
