<svg width="19" height="22" viewBox="0 0 19 22" fill="none" xmlns="http://www.w3.org/2000/svg">
<path d="M18 9.67875C17.8674 9.67875 17.7402 9.73142 17.6464 9.82519C17.5527 9.91896 17.5 10.0461 17.5 10.1787V18.3987C17.4793 19.0487 17.2071 19.6653 16.7407 20.1186C16.2744 20.5719 15.6503 20.8265 15 20.8287H3.58C2.91592 20.8476 2.27144 20.6024 1.78783 20.1469C1.30421 19.6914 1.02091 19.0628 1 18.3987V9.94875C1 9.81614 0.947322 9.68896 0.853553 9.59519C0.759785 9.50142 0.632608 9.44875 0.5 9.44875C0.367392 9.44875 0.240215 9.50142 0.146447 9.59519C0.0526784 9.68896 0 9.81614 0 9.94875L0 18.3987C0.0209946 19.328 0.40969 20.2109 1.08082 20.8539C1.75196 21.4969 2.65073 21.8475 3.58 21.8287H15C15.9293 21.8475 16.828 21.4969 17.4992 20.8539C18.1703 20.2109 18.559 19.328 18.58 18.3987V10.1787C18.5809 10.1058 18.5659 10.0335 18.5359 9.96695C18.506 9.90041 18.4618 9.84124 18.4065 9.79359C18.3512 9.74594 18.2862 9.71097 18.216 9.69113C18.1458 9.67129 18.072 9.66706 18 9.67875Z" fill="#F4F6F3"/>
<path d="M4.99995 5.65875L8.80995 1.73875V14.3988C8.80995 14.5314 8.86263 14.6585 8.9564 14.7523C9.05016 14.8461 9.17734 14.8988 9.30995 14.8988C9.44256 14.8988 9.56974 14.8461 9.6635 14.7523C9.75727 14.6585 9.80995 14.5314 9.80995 14.3988V1.73875L13.66 5.65875C13.7553 5.75447 13.8848 5.80842 14.02 5.80875C14.0848 5.81084 14.1494 5.79947 14.2096 5.77538C14.2698 5.75128 14.3244 5.71498 14.3699 5.66875C14.4168 5.62227 14.454 5.56697 14.4794 5.50604C14.5048 5.44511 14.5178 5.37976 14.5178 5.31375C14.5178 5.24775 14.5048 5.18239 14.4794 5.12146C14.454 5.06053 14.4168 5.00523 14.3699 4.95875L9.66995 0.158752C9.62209 0.102314 9.56452 0.0548997 9.49995 0.0187518C9.41509 -0.00625059 9.32481 -0.00625059 9.23995 0.0187518H9.18995C9.11574 0.0484988 9.05034 0.0966846 8.99995 0.158752L4.24995 4.95875C4.20309 5.00523 4.16589 5.06053 4.1405 5.12146C4.11512 5.18239 4.10205 5.24775 4.10205 5.31375C4.10205 5.37976 4.11512 5.44511 4.1405 5.50604C4.16589 5.56697 4.20309 5.62227 4.24995 5.66875C4.29667 5.72283 4.35465 5.76604 4.41983 5.79534C4.48502 5.82464 4.55582 5.83933 4.62728 5.83838C4.69874 5.83743 4.76912 5.82085 4.8335 5.78982C4.89788 5.75879 4.95469 5.71406 4.99995 5.65875Z" fill="#F4F6F3"/>
</svg>
