<svg width="22" height="22" viewBox="0 0 22 22" fill="none" xmlns="http://www.w3.org/2000/svg">
<path d="M19.7938 10.8492H4.2277V10.1715C4.2277 10.1019 4.19999 10.0352 4.15068 9.98602C4.10137 9.93682 4.03449 9.90918 3.96475 9.90918C3.89501 9.90918 3.82813 9.93682 3.77882 9.98602C3.7295 10.0352 3.7018 10.1019 3.7018 10.1715V10.8492H2.20606C2.13633 10.8492 2.06944 10.8769 2.02013 10.9261C1.97082 10.9753 1.94312 11.042 1.94312 11.1116C1.94312 11.1812 1.97082 11.2479 2.02013 11.2971C2.06944 11.3463 2.13633 11.3739 2.20606 11.3739H3.7018V12.0516C3.7018 12.1212 3.7295 12.1879 3.77882 12.2371C3.82813 12.2863 3.89501 12.314 3.96475 12.314C4.03449 12.314 4.10137 12.2863 4.15068 12.2371C4.19999 12.1879 4.2277 12.1212 4.2277 12.0516V11.3739H19.7938C19.8635 11.3739 19.9304 11.3463 19.9797 11.2971C20.029 11.2479 20.0567 11.1812 20.0567 11.1116C20.0567 11.042 20.029 10.9753 19.9797 10.9261C19.9304 10.8769 19.8635 10.8492 19.7938 10.8492Z" fill="white"/>
<path d="M20.669 0H1.33096C0.978147 0.00034706 0.639882 0.140301 0.390367 0.389158C0.140852 0.638016 0.000464051 0.975455 0 1.32745L0 13.6016C0.000347008 13.9533 0.140443 14.2906 0.389592 14.5395C0.63874 14.7884 0.976622 14.9286 1.3292 14.9294H1.41335V16.2311C1.4211 16.7528 1.63426 17.2504 2.00675 17.6166C2.37924 17.9827 2.88117 18.188 3.40408 18.188C3.927 18.188 4.42893 17.9827 4.80142 17.6166C5.17391 17.2504 5.38706 16.7528 5.39482 16.2311V14.9294H8.87363V16.2311C8.88138 16.7528 9.09453 17.2504 9.46703 17.6166C9.83952 17.9827 10.3414 18.188 10.8644 18.188C11.3873 18.188 11.8892 17.9827 12.2617 17.6166C12.6342 17.2504 12.8473 16.7528 12.8551 16.2311V14.9294H16.0622V16.0155C16.0653 16.5377 16.2745 17.0377 16.6444 17.4071C17.0144 17.7766 17.5152 17.9858 18.0386 17.9895C18.5621 17.9932 19.0658 17.791 19.4409 17.4268C19.816 17.0626 20.0323 16.5656 20.0428 16.0435C20.3606 16.0222 20.659 15.8832 20.8794 15.6537C21.0998 15.4242 21.2262 15.1208 21.2339 14.8031C21.4628 14.696 21.6563 14.5262 21.792 14.3134C21.9276 14.1006 21.9998 13.8537 22 13.6016V1.32745C21.9995 0.975455 21.8591 0.638016 21.6096 0.389158C21.3601 0.140301 21.0219 0.00034706 20.669 0V0ZM4.86892 16.2311C4.86228 16.6143 4.70503 16.9796 4.43104 17.2483C4.15705 17.517 3.78825 17.6675 3.40408 17.6675C3.01991 17.6675 2.65112 17.517 2.37713 17.2483C2.10314 16.9796 1.94589 16.6143 1.93924 16.2311V15.5035H2.20219C2.48309 15.5032 2.75238 15.3917 2.95096 15.1935C3.14954 14.9953 3.2612 14.7266 3.26143 14.4463C3.26143 14.4194 3.27215 14.3936 3.29121 14.3746C3.31028 14.3555 3.33614 14.3449 3.36311 14.3449H4.1594C4.19401 14.5263 4.2788 14.6945 4.40418 14.8304C4.52956 14.9663 4.69054 15.0645 4.86892 15.114V16.2311ZM4.86892 14.5429C4.79702 14.4935 4.74052 14.4248 4.7059 14.3449H4.86892V14.5429ZM3.36311 13.8202C3.19674 13.8204 3.03725 13.8864 2.9196 14.0038C2.80196 14.1212 2.73577 14.2803 2.73554 14.4463C2.73531 14.5875 2.67899 14.7228 2.57894 14.8226C2.47889 14.9224 2.34325 14.9786 2.20175 14.9789H1.9388V14.5932C1.93927 14.2058 2.09373 13.8344 2.36829 13.5605C2.64286 13.2865 3.01513 13.1324 3.40343 13.132C3.50247 13.132 3.67952 13.1687 3.89076 13.2325C4.05723 13.2832 4.23032 13.309 4.40438 13.309C4.56383 13.3092 4.71934 13.3584 4.84981 13.4499C4.98028 13.5413 5.07937 13.6706 5.13363 13.8202H3.36311ZM10.8641 17.6923C10.4757 17.6923 10.1032 17.5384 9.8285 17.2644C9.55383 16.9903 9.39952 16.6186 9.39952 16.2311V14.56L10.2988 14.4332C10.5206 14.4022 10.7461 14.4519 10.9343 14.5731C11.125 14.6957 11.3416 14.7724 11.5671 14.7972C11.7926 14.8219 12.0208 14.794 12.2337 14.7156L12.3283 14.6807V16.2311C12.3282 16.6185 12.1739 16.9901 11.8994 17.2641C11.6248 17.5381 11.2525 17.6921 10.8641 17.6923ZM9.39952 14.0292V13.132H10.8641C11.1743 13.1323 11.4763 13.2307 11.7268 13.4131C11.9774 13.5954 12.1636 13.8523 12.2586 14.1468L12.0518 14.2237C11.9155 14.2741 11.7692 14.2922 11.6247 14.2764C11.4802 14.2606 11.3413 14.2114 11.2191 14.1328C10.9246 13.9434 10.5718 13.8658 10.2247 13.9142L9.39952 14.0292ZM19.5178 16.0155C19.5111 16.3988 19.3539 16.7641 19.0799 17.0327C18.8059 17.3014 18.4371 17.4519 18.0529 17.4519C17.6688 17.4519 17.3 17.3014 17.026 17.0327C16.752 16.7641 16.5947 16.3988 16.5881 16.0155V15.4589H16.7012C17.4265 15.457 18.13 15.2116 18.6987 14.7624C18.8779 15.0886 19.1575 15.4152 19.5178 15.4729V16.0155ZM19.5178 14.9225C19.2846 14.8022 19.0879 14.3772 19.0383 14.2399C19.015 14.1745 18.9666 14.1209 18.9038 14.091C18.8409 14.061 18.7687 14.0572 18.7031 14.0803C18.6658 14.0934 18.632 14.1146 18.604 14.1424C18.0997 14.6469 17.4153 14.9312 16.7012 14.9329H16.5881V14.8075C16.5947 14.4242 16.752 14.0589 17.026 13.7903C17.3 13.5216 17.6688 13.3711 18.0529 13.3711C18.4371 13.3711 18.8059 13.5216 19.0799 13.7903C19.3539 14.0589 19.5111 14.4242 19.5178 14.8075V14.9225ZM20.0437 15.5153V14.8088C20.0437 14.5398 19.9888 14.2737 19.8824 14.0266H19.9595C20.1514 14.0257 20.3364 14.0984 20.4761 14.2296C20.6159 14.3608 20.6998 14.5406 20.7106 14.7318C20.7214 14.9229 20.6582 15.1109 20.5341 15.257C20.41 15.403 20.2345 15.496 20.0437 15.5167V15.5153ZM21.4741 13.6016C21.4741 13.7315 21.4425 13.8594 21.3818 13.9744C21.3212 14.0893 21.2335 14.1878 21.1261 14.2613C21.0262 14.0357 20.8627 13.8439 20.6557 13.7091C20.4486 13.5743 20.2068 13.5023 19.9595 13.5019H19.5502C19.3066 13.2235 18.99 13.0186 18.636 12.91C18.282 12.8015 17.9047 12.7937 17.5465 12.8876C17.1883 12.9814 16.8635 13.1731 16.6086 13.4412C16.3537 13.7092 16.1789 14.043 16.1038 14.4048H12.8455C12.7979 13.9132 12.5687 13.4568 12.2024 13.1246C11.8362 12.7923 11.3592 12.6079 10.8641 12.6073H9.13657C9.06684 12.6073 8.99995 12.6349 8.95064 12.6841C8.90133 12.7333 8.87363 12.8 8.87363 12.8696V14.4048H5.39482V14.3449H5.44303C5.51277 14.3449 5.57965 14.3172 5.62896 14.268C5.67827 14.2188 5.70598 14.1521 5.70598 14.0825C5.70551 13.7384 5.56828 13.4084 5.32436 13.1651C5.08045 12.9217 4.74977 12.7848 4.40482 12.7844C4.28242 12.7843 4.1607 12.766 4.0437 12.7301C3.77418 12.6488 3.559 12.6073 3.40386 12.6073C2.90885 12.6079 2.4318 12.7923 2.06556 13.1246C1.69932 13.4568 1.47011 13.9132 1.42255 14.4048H1.33096C1.11751 14.4045 0.912877 14.3198 0.761949 14.1693C0.611022 14.0187 0.526128 13.8145 0.525896 13.6016V1.32745C0.526244 1.11457 0.611189 0.910523 0.762104 0.760038C0.913019 0.609553 1.11759 0.524915 1.33096 0.524684H20.669C20.8824 0.524915 21.087 0.609553 21.2379 0.760038C21.3888 0.910523 21.4738 1.11457 21.4741 1.32745V13.6016Z" fill="white"/>
<path d="M11.9253 18.468H9.80327C9.38485 18.468 8.98355 18.6338 8.68768 18.929C8.39181 19.2242 8.22559 19.6245 8.22559 20.042V21.7346C8.22559 21.8041 8.25329 21.8709 8.3026 21.9201C8.35191 21.9693 8.4188 21.9969 8.48853 21.9969H13.24C13.3097 21.9969 13.3766 21.9693 13.4259 21.9201C13.4753 21.8709 13.503 21.8041 13.503 21.7346V20.042C13.503 19.6245 13.3367 19.2242 13.0409 18.929C12.745 18.6338 12.3437 18.468 11.9253 18.468ZM12.9771 21.4722H8.75148V20.042C8.75148 19.7637 8.8623 19.4968 9.05955 19.3C9.25679 19.1032 9.52432 18.9926 9.80327 18.9926H11.9253C12.2042 18.9926 12.4717 19.1032 12.669 19.3C12.8662 19.4968 12.9771 19.7637 12.9771 20.042V21.4722Z" fill="white"/>
<path d="M12.2022 19.882H11.728C11.6583 19.882 11.5914 19.9097 11.5421 19.9589C11.4928 20.0081 11.4651 20.0748 11.4651 20.1444C11.4651 20.2139 11.4928 20.2807 11.5421 20.3299C11.5914 20.3791 11.6583 20.4067 11.728 20.4067H12.2022C12.272 20.4067 12.3388 20.3791 12.3881 20.3299C12.4375 20.2807 12.4652 20.2139 12.4652 20.1444C12.4652 20.0748 12.4375 20.0081 12.3881 19.9589C12.3388 19.9097 12.272 19.882 12.2022 19.882Z" fill="white"/>
<path d="M4.46482 18.468H2.34283C1.9244 18.468 1.5231 18.6338 1.22723 18.929C0.931357 19.2242 0.765137 19.6245 0.765137 20.042V21.7346C0.765137 21.8041 0.79284 21.8709 0.842152 21.9201C0.891465 21.9693 0.958347 21.9969 1.02808 21.9969H5.77956C5.84929 21.9969 5.91618 21.9693 5.96549 21.9201C6.0148 21.8709 6.0425 21.8041 6.0425 21.7346V20.042C6.0425 19.6245 5.87628 19.2242 5.58041 18.929C5.28454 18.6338 4.88324 18.468 4.46482 18.468ZM5.51661 21.4722H1.29103V20.042C1.29103 19.7637 1.40185 19.4968 1.5991 19.3C1.79634 19.1032 2.06387 18.9926 2.34283 18.9926H4.46482C4.74377 18.9926 5.0113 19.1032 5.20855 19.3C5.40579 19.4968 5.51661 19.7637 5.51661 20.042V21.4722Z" fill="white"/>
<path d="M4.74206 19.882H4.26832C4.19858 19.882 4.1317 19.9097 4.08239 19.9589C4.03307 20.0081 4.00537 20.0748 4.00537 20.1444C4.00537 20.2139 4.03307 20.2807 4.08239 20.3299C4.1317 20.3791 4.19858 20.4067 4.26832 20.4067H4.74206C4.8118 20.4067 4.87868 20.3791 4.928 20.3299C4.97731 20.2807 5.00501 20.2139 5.00501 20.1444C5.00501 20.0748 4.97731 20.0081 4.928 19.9589C4.87868 19.9097 4.8118 19.882 4.74206 19.882Z" fill="white"/>
<path d="M19.1137 18.2528H16.9918C16.5733 18.2528 16.172 18.4186 15.8762 18.7138C15.5803 19.009 15.4141 19.4094 15.4141 19.8269V21.7376C15.4141 21.8072 15.4418 21.8739 15.4911 21.9231C15.5404 21.9723 15.6073 21.9999 15.677 21.9999H20.4285C20.4982 21.9999 20.5651 21.9723 20.6144 21.9231C20.6637 21.8739 20.6914 21.8072 20.6914 21.7376V19.8269C20.6914 19.4094 20.5252 19.009 20.2293 18.7138C19.9335 18.4186 19.5322 18.2528 19.1137 18.2528ZM20.1655 21.4752H15.94V19.8269C15.94 19.5485 16.0508 19.2816 16.248 19.0848C16.4453 18.888 16.7128 18.7775 16.9918 18.7775H19.1137C19.3927 18.7775 19.6602 18.888 19.8575 19.0848C20.0547 19.2816 20.1655 19.5485 20.1655 19.8269V21.4752Z" fill="white"/>
<path d="M19.3907 19.6664H18.9165C18.8468 19.6664 18.7799 19.6941 18.7306 19.7433C18.6813 19.7925 18.6536 19.8592 18.6536 19.9288C18.6536 19.9984 18.6813 20.0651 18.7306 20.1143C18.7799 20.1635 18.8468 20.1911 18.9165 20.1911H19.3907C19.4604 20.1911 19.5273 20.1635 19.5766 20.1143C19.6259 20.0651 19.6536 19.9984 19.6536 19.9288C19.6536 19.8592 19.6259 19.7925 19.5766 19.7433C19.5273 19.6941 19.4604 19.6664 19.3907 19.6664Z" fill="white"/>
<path d="M9.58728 8.6516C9.64357 8.68382 9.70733 8.70077 9.77222 8.70077C9.83712 8.70077 9.90088 8.68382 9.95716 8.6516L11.0352 8.03072L11.0418 8.02635L11.9039 7.53009C11.9053 7.52896 11.9069 7.52807 11.9087 7.52746L12.275 7.31628L12.279 7.31366L13.0415 6.87423H13.0455H13.0486L13.6411 6.53275C13.6973 6.50043 13.744 6.45389 13.7765 6.39781C13.809 6.34174 13.8261 6.27812 13.8261 6.21335C13.8261 6.14858 13.809 6.08496 13.7765 6.02889C13.744 5.97282 13.6973 5.92627 13.6411 5.89395L9.95716 3.76854C9.90094 3.73631 9.83723 3.71937 9.77238 3.71942C9.70754 3.71947 9.64385 3.7365 9.58768 3.76882C9.5315 3.80113 9.48482 3.8476 9.4523 3.90356C9.41977 3.95953 9.40255 4.02303 9.40234 4.08773V8.33198C9.4026 8.39671 9.4198 8.46025 9.45224 8.51631C9.48468 8.57237 9.53123 8.619 9.58728 8.6516ZM9.92824 4.35794L13.1437 6.20876L12.7856 6.41513L12.7795 6.41907L12.0169 6.85631L12.0121 6.85893L11.6457 7.06968L11.6405 7.07318L10.7754 7.57162H10.7723L9.92824 8.05783V4.35794Z" fill="white"/>
</svg>
