<svg width="24" height="25" viewBox="0 0 24 25" fill="none" xmlns="http://www.w3.org/2000/svg">
<g clip-path="url(#clip0)">
<path d="M21.5932 12.6129H4.61199V11.8736C4.61199 11.7977 4.58177 11.7249 4.52797 11.6712C4.47418 11.6176 4.40122 11.5874 4.32514 11.5874C4.24906 11.5874 4.1761 11.6176 4.1223 11.6712C4.06851 11.7249 4.03829 11.7977 4.03829 11.8736V12.6129H2.40657C2.3305 12.6129 2.25753 12.6431 2.20374 12.6967C2.14994 12.7504 2.11972 12.8232 2.11972 12.8991C2.11972 12.975 2.14994 13.0478 2.20374 13.1015C2.25753 13.1551 2.3305 13.1853 2.40657 13.1853H4.03829V13.9246C4.03829 14.0005 4.06851 14.0733 4.1223 14.127C4.1761 14.1807 4.24906 14.2108 4.32514 14.2108C4.40122 14.2108 4.47418 14.1807 4.52797 14.127C4.58177 14.0733 4.61199 14.0005 4.61199 13.9246V13.1853H21.5932C21.6693 13.1853 21.7422 13.1551 21.796 13.1015C21.8498 13.0478 21.88 12.975 21.88 12.8991C21.88 12.8232 21.8498 12.7504 21.796 12.6967C21.7422 12.6431 21.6693 12.6129 21.5932 12.6129Z" fill="#313942"/>
<path d="M22.548 0.777405H1.45195C1.06707 0.777783 0.698053 0.93046 0.425855 1.20194C0.153657 1.47342 0.000506237 1.84154 0 2.22553L0 15.6155C0.000378554 15.9992 0.153211 16.3672 0.425009 16.6387C0.696808 16.9102 1.06541 17.0632 1.45004 17.0641H1.54183V18.4841C1.5503 19.0531 1.78282 19.5961 2.18918 19.9955C2.59553 20.3949 3.14309 20.6189 3.71355 20.6189C4.284 20.6189 4.83156 20.3949 5.23791 19.9955C5.64427 19.5961 5.8768 19.0531 5.88526 18.4841V17.0641H9.68032V18.4841C9.68878 19.0531 9.92131 19.5961 10.3277 19.9955C10.734 20.3949 11.2816 20.6189 11.852 20.6189C12.4225 20.6189 12.97 20.3949 13.3764 19.9955C13.7828 19.5961 14.0153 19.0531 14.0237 18.4841V17.0641H17.5224V18.2489C17.5258 18.8186 17.754 19.364 18.1576 19.767C18.5611 20.17 19.1075 20.3983 19.6785 20.4023C20.2495 20.4063 20.7991 20.1858 21.2083 19.7885C21.6175 19.3911 21.8534 18.849 21.8649 18.2794C22.2116 18.2562 22.5371 18.1045 22.7775 17.8542C23.018 17.6038 23.1559 17.2728 23.1643 16.9262C23.4139 16.8094 23.6251 16.6241 23.7731 16.392C23.9211 16.1599 23.9998 15.8906 24 15.6155V2.22553C23.9995 1.84154 23.8463 1.47342 23.5741 1.20194C23.3019 0.93046 22.9329 0.777783 22.548 0.777405V0.777405ZM5.31155 18.4841C5.30431 18.9021 5.13276 19.3006 4.83386 19.5937C4.53497 19.8868 4.13264 20.051 3.71355 20.051C3.29445 20.051 2.89213 19.8868 2.59323 19.5937C2.29433 19.3006 2.12279 18.9021 2.11554 18.4841V17.6904H2.40239C2.70882 17.69 3.00259 17.5683 3.21923 17.3521C3.43587 17.1359 3.55768 16.8427 3.55793 16.537C3.55793 16.5077 3.56961 16.4795 3.59042 16.4588C3.61122 16.438 3.63943 16.4263 3.66884 16.4263H4.53753C4.57529 16.6243 4.66778 16.8078 4.80456 16.956C4.94133 17.1043 5.11695 17.2114 5.31155 17.2654V18.4841ZM5.31155 16.6424C5.23311 16.5885 5.17147 16.5136 5.13371 16.4263H5.31155V16.6424ZM3.66884 15.854C3.48735 15.8542 3.31336 15.9263 3.18502 16.0543C3.05669 16.1823 2.98448 16.3559 2.98422 16.537C2.98397 16.691 2.92254 16.8386 2.81339 16.9475C2.70424 17.0564 2.55627 17.1177 2.40191 17.118H2.11506V16.6973C2.11557 16.2746 2.28406 15.8695 2.58359 15.5706C2.88312 15.2718 3.28923 15.1037 3.71283 15.1032C3.82088 15.1032 4.01402 15.1433 4.24446 15.2129C4.42607 15.2682 4.6149 15.2964 4.80478 15.2964C4.97872 15.2966 5.14837 15.3502 5.2907 15.45C5.43303 15.5497 5.54113 15.6908 5.60032 15.854H3.66884ZM11.8518 20.0781C11.428 20.0781 11.0216 19.9102 10.722 19.6112C10.4224 19.3123 10.254 18.9068 10.254 18.4841V16.661L11.2351 16.5227C11.477 16.4889 11.7231 16.5431 11.9283 16.6753C12.1363 16.8091 12.3727 16.8928 12.6187 16.9198C12.8647 16.9468 13.1136 16.9163 13.3458 16.8308L13.4491 16.7927V18.4841C13.449 18.9067 13.2806 19.312 12.9811 19.6109C12.6816 19.9098 12.2754 20.0779 11.8518 20.0781ZM10.254 16.082V15.1032H11.8518C12.1901 15.1036 12.5196 15.2109 12.7929 15.4098C13.0663 15.6088 13.2694 15.889 13.3731 16.2103L13.1474 16.2942C12.9987 16.3492 12.8392 16.3689 12.6815 16.3516C12.5238 16.3344 12.3723 16.2808 12.239 16.195C11.9178 15.9884 11.5328 15.9038 11.1543 15.9565L10.254 16.082ZM21.2921 18.2489C21.2849 18.667 21.1133 19.0655 20.8144 19.3586C20.5155 19.6517 20.1132 19.8159 19.6941 19.8159C19.275 19.8159 18.8727 19.6517 18.5738 19.3586C18.2749 19.0655 18.1033 18.667 18.0961 18.2489V17.6417H18.2194C19.0107 17.6395 19.7782 17.3719 20.3986 16.8819C20.5941 17.2377 20.8991 17.594 21.2921 17.657V18.2489ZM21.2921 17.0564C21.0378 16.9253 20.8231 16.4616 20.7691 16.3119C20.7437 16.2404 20.6909 16.182 20.6223 16.1494C20.5537 16.1167 20.475 16.1126 20.4033 16.1378C20.3627 16.1521 20.3258 16.1752 20.2953 16.2055C19.7451 16.7559 18.9986 17.066 18.2194 17.0679H18.0961V16.931C18.1033 16.5129 18.2749 16.1144 18.5738 15.8213C18.8727 15.5282 19.275 15.364 19.6941 15.364C20.1132 15.364 20.5155 15.5282 20.8144 15.8213C21.1133 16.1144 21.2849 16.5129 21.2921 16.931V17.0564ZM21.8658 17.7032V16.9324C21.8659 16.639 21.806 16.3487 21.6899 16.0791H21.774C21.9834 16.0782 22.1851 16.1575 22.3376 16.3006C22.49 16.4438 22.5816 16.6399 22.5934 16.8484C22.6052 17.057 22.5363 17.2621 22.4009 17.4214C22.2655 17.5807 22.074 17.6821 21.8658 17.7047V17.7032ZM23.4263 15.6155C23.4263 15.7572 23.3918 15.8968 23.3257 16.0222C23.2595 16.1476 23.1638 16.255 23.0467 16.3352C22.9376 16.0891 22.7594 15.8798 22.5335 15.7328C22.3076 15.5857 22.0438 15.5072 21.774 15.5067H21.3275C21.0618 15.2031 20.7164 14.9795 20.3302 14.8611C19.944 14.7427 19.5324 14.7342 19.1416 14.8366C18.7509 14.9389 18.3965 15.1481 18.1185 15.4405C17.8404 15.7329 17.6497 16.097 17.5678 16.4917H14.0132C13.9613 15.9554 13.7113 15.4576 13.3118 15.0951C12.9122 14.7327 12.3918 14.5315 11.8518 14.5308H9.96717C9.89109 14.5308 9.81813 14.561 9.76434 14.6146C9.71054 14.6683 9.68032 14.7411 9.68032 14.817V16.4917H5.88526V16.4263H5.93785C6.01393 16.4263 6.08689 16.3962 6.14068 16.3425C6.19448 16.2888 6.2247 16.2161 6.2247 16.1402C6.2242 15.7647 6.07448 15.4048 5.8084 15.1393C5.54231 14.8739 5.18156 14.7245 4.80526 14.724C4.67173 14.7239 4.53895 14.704 4.41131 14.6648C4.11729 14.5761 3.88255 14.5308 3.71331 14.5308C3.1733 14.5315 2.65287 14.7327 2.25334 15.0951C1.85381 15.4576 1.60376 15.9554 1.55187 16.4917H1.45195C1.2191 16.4914 0.995866 16.399 0.831217 16.2348C0.666569 16.0705 0.573958 15.8478 0.573705 15.6155V2.22553C0.574085 1.9933 0.666751 1.7707 0.831386 1.60654C0.996021 1.44237 1.21919 1.35004 1.45195 1.34979H22.548C22.7808 1.35004 23.004 1.44237 23.1686 1.60654C23.3332 1.7707 23.4259 1.9933 23.4263 2.22553V15.6155Z" fill="#313942"/>
<path d="M13.0094 20.9243H10.6945C10.2381 20.9243 9.80029 21.1052 9.47752 21.4273C9.15475 21.7493 8.97342 22.186 8.97342 22.6415V24.4879C8.97342 24.5638 9.00364 24.6366 9.05744 24.6902C9.11123 24.7439 9.18419 24.7741 9.26027 24.7741H14.4437C14.5198 24.7741 14.5927 24.7439 14.6465 24.6902C14.7003 24.6366 14.7305 24.5638 14.7305 24.4879V22.6415C14.7305 22.186 14.5492 21.7493 14.2264 21.4273C13.9037 21.1052 13.4659 20.9243 13.0094 20.9243ZM14.1568 24.2017H9.54712V22.6415C9.54712 22.3379 9.66801 22.0467 9.88319 21.832C10.0984 21.6173 10.3902 21.4967 10.6945 21.4967H13.0094C13.3137 21.4967 13.6056 21.6173 13.8208 21.832C14.036 22.0467 14.1568 22.3379 14.1568 22.6415V24.2017Z" fill="#313942"/>
<path d="M13.3114 22.4669H12.7941C12.718 22.4669 12.6451 22.497 12.5913 22.5507C12.5375 22.6044 12.5073 22.6771 12.5073 22.753C12.5073 22.829 12.5375 22.9017 12.5913 22.9554C12.6451 23.0091 12.718 23.0392 12.7941 23.0392H13.3114C13.3875 23.0392 13.4604 23.0091 13.5142 22.9554C13.568 22.9017 13.5983 22.829 13.5983 22.753C13.5983 22.6771 13.568 22.6044 13.5142 22.5507C13.4604 22.497 13.3875 22.4669 13.3114 22.4669Z" fill="#313942"/>
<path d="M4.87094 20.9243H2.55605C2.09958 20.9243 1.6618 21.1052 1.33903 21.4273C1.01626 21.7493 0.83493 22.186 0.83493 22.6415V24.4879C0.83493 24.5638 0.865152 24.6366 0.918948 24.6902C0.972743 24.7439 1.0457 24.7741 1.12178 24.7741H6.30521C6.38128 24.7741 6.45425 24.7439 6.50804 24.6902C6.56184 24.6366 6.59206 24.5638 6.59206 24.4879V22.6415C6.59206 22.186 6.41073 21.7493 6.08796 21.4273C5.76518 21.1052 5.32741 20.9243 4.87094 20.9243ZM6.01835 24.2017H1.40864V22.6415C1.40864 22.3379 1.52952 22.0467 1.7447 21.832C1.95989 21.6173 2.25173 21.4967 2.55605 21.4967H4.87094C5.17526 21.4967 5.4671 21.6173 5.68229 21.832C5.89747 22.0467 6.01835 22.3379 6.01835 22.6415V24.2017Z" fill="#313942"/>
<path d="M5.17311 22.4669H4.6563C4.58022 22.4669 4.50726 22.497 4.45346 22.5507C4.39967 22.6044 4.36945 22.6771 4.36945 22.753C4.36945 22.829 4.39967 22.9017 4.45346 22.9554C4.50726 23.0091 4.58022 23.0392 4.6563 23.0392H5.17311C5.24919 23.0392 5.32215 23.0091 5.37595 22.9554C5.42974 22.9017 5.45996 22.829 5.45996 22.753C5.45996 22.6771 5.42974 22.6044 5.37595 22.5507C5.32215 22.497 5.24919 22.4669 5.17311 22.4669Z" fill="#313942"/>
<path d="M20.8514 20.6896H18.5365C18.08 20.6896 17.6423 20.8705 17.3195 21.1925C16.9967 21.5145 16.8154 21.9513 16.8154 22.4067V24.4911C16.8154 24.567 16.8456 24.6398 16.8994 24.6935C16.9532 24.7472 17.0262 24.7773 17.1023 24.7773H22.2857C22.3618 24.7773 22.4347 24.7472 22.4885 24.6935C22.5423 24.6398 22.5725 24.567 22.5725 24.4911V22.4067C22.5725 21.9513 22.3912 21.5145 22.0684 21.1925C21.7457 20.8705 21.3079 20.6896 20.8514 20.6896ZM21.9988 24.205H17.3891V22.4067C17.3891 22.1031 17.51 21.8119 17.7252 21.5973C17.9404 21.3826 18.2322 21.262 18.5365 21.262H20.8514C21.1557 21.262 21.4476 21.3826 21.6628 21.5973C21.8779 21.8119 21.9988 22.1031 21.9988 22.4067V24.205Z" fill="#313942"/>
<path d="M21.1534 22.2317H20.6361C20.56 22.2317 20.4871 22.2618 20.4333 22.3155C20.3795 22.3692 20.3492 22.442 20.3492 22.5179C20.3492 22.5938 20.3795 22.6666 20.4333 22.7202C20.4871 22.7739 20.56 22.8041 20.6361 22.8041H21.1534C21.2295 22.8041 21.3024 22.7739 21.3562 22.7202C21.41 22.6666 21.4402 22.5938 21.4402 22.5179C21.4402 22.442 21.41 22.3692 21.3562 22.3155C21.3024 22.2618 21.2295 22.2317 21.1534 22.2317Z" fill="#313942"/>
<path d="M10.4587 10.2155C10.5201 10.2506 10.5897 10.2691 10.6605 10.2691C10.7313 10.2691 10.8008 10.2506 10.8622 10.2155L12.0383 9.53814L12.0455 9.53337L12.9859 8.99199C12.9875 8.99076 12.9893 8.98979 12.9912 8.98913L13.3908 8.75874L13.3952 8.75588L14.227 8.27651H14.2313H14.2347L14.881 7.90399C14.9424 7.86872 14.9934 7.81795 15.0288 7.75678C15.0643 7.69561 15.0829 7.6262 15.0829 7.55555C15.0829 7.48489 15.0643 7.41549 15.0288 7.35432C14.9934 7.29315 14.9424 7.24237 14.881 7.20711L10.8622 4.88849C10.8009 4.85333 10.7314 4.83485 10.6607 4.8349C10.5899 4.83495 10.5204 4.85353 10.4592 4.88879C10.3979 4.92404 10.347 4.97473 10.3115 5.03578C10.276 5.09684 10.2572 5.16611 10.257 5.23669V9.86678C10.2573 9.93739 10.276 10.0067 10.3114 10.0679C10.3468 10.129 10.3976 10.1799 10.4587 10.2155ZM10.8307 5.53146L14.3384 7.55054L13.9478 7.77568L13.9411 7.77997L13.1093 8.25696L13.104 8.25982L12.7043 8.48972L12.6986 8.49354L11.7548 9.0373H11.7515L10.8307 9.56771V5.53146Z" fill="#313942"/>
</g>
<defs>
<clipPath id="clip0">
<rect width="24" height="24" fill="white" transform="translate(0 0.777405)"/>
</clipPath>
</defs>
</svg>
