<svg width="26" height="26" viewBox="0 0 26 26" fill="none" xmlns="http://www.w3.org/2000/svg">
<path d="M24.2667 5.19999C23.3107 5.19999 22.5334 5.9774 22.5334 6.93331C22.5334 7.88922 23.3108 8.66663 24.2667 8.66663C25.2226 8.66663 26 7.88927 26 6.93331C26 5.9774 25.2226 5.19999 24.2667 5.19999ZM24.2667 7.79999C23.7887 7.79999 23.4 7.41131 23.4 6.93331C23.4 6.45536 23.7887 6.06663 24.2667 6.06663C24.7447 6.06663 25.1334 6.45531 25.1334 6.93331C25.1333 7.41131 24.7446 7.79999 24.2667 7.79999Z" fill="#313942"/>
<path d="M1.73332 19.5C0.77741 19.5 0 20.2774 0 21.2333C0 22.1892 0.77741 22.9666 1.73332 22.9666C2.68927 22.9666 3.46663 22.1892 3.46663 21.2333C3.46663 20.2774 2.68927 19.5 1.73332 19.5ZM1.73332 22.1C1.25536 22.1 0.866633 21.7113 0.866633 21.2333C0.866633 20.7553 1.25531 20.3666 1.73332 20.3666C2.21127 20.3666 2.6 20.7553 2.6 21.2333C2.6 21.7113 2.21132 22.1 1.73332 22.1Z" fill="#313942"/>
<path d="M23.4265 5.74773L19.6881 3.94291C19.4723 3.83846 19.2136 3.92946 19.1096 4.14487C19.0056 4.36024 19.0961 4.61937 19.3116 4.72337L23.0499 6.52819C23.1106 6.55764 23.1747 6.57151 23.238 6.57151C23.3991 6.57151 23.5539 6.48137 23.6284 6.32623C23.7324 6.11087 23.6418 5.85173 23.4265 5.74773Z" fill="#313942"/>
<path d="M19.5 22.5333C18.544 22.5333 17.7667 23.3107 17.7667 24.2666C17.7667 25.2225 18.544 26 19.5 26C20.456 26 21.2333 25.2226 21.2333 24.2667C21.2333 23.3108 20.456 22.5333 19.5 22.5333ZM19.5 25.1333C19.0221 25.1333 18.6333 24.7446 18.6333 24.2666C18.6333 23.7886 19.0221 23.4 19.5 23.4C19.978 23.4 20.3667 23.7887 20.3667 24.2667C20.3667 24.7447 19.978 25.1333 19.5 25.1333Z" fill="#313942"/>
<path d="M18.6598 23.0811L14.9214 21.2763C14.7056 21.1718 14.4469 21.2624 14.3429 21.4782C14.2389 21.6936 14.3295 21.9527 14.5449 22.0567L18.2832 23.8616C18.3439 23.891 18.4081 23.9049 18.4713 23.9049C18.6325 23.9049 18.7872 23.8147 18.8617 23.6596C18.9657 23.4442 18.8751 23.1851 18.6598 23.0811Z" fill="#313942"/>
<path d="M13 11.7C12.044 11.7 11.2667 12.4774 11.2667 13.4333C11.2667 14.3893 12.0441 15.1666 13 15.1666C13.956 15.1666 14.7333 14.3892 14.7333 13.4333C14.7333 12.4774 13.956 11.7 13 11.7ZM13 14.3C12.5221 14.3 12.1333 13.9113 12.1333 13.4333C12.1333 12.9554 12.522 12.5666 13 12.5666C13.478 12.5666 13.8667 12.9553 13.8667 13.4333C13.8667 13.9113 13.478 14.3 13 14.3Z" fill="#313942"/>
<path d="M12.2382 12.2963L9.3665 10.0581C9.17754 9.91206 8.90545 9.94456 8.75809 10.1335C8.61118 10.3225 8.64454 10.5946 8.8335 10.7419L11.7052 12.9801C11.7845 13.0417 11.8781 13.0716 11.9713 13.0716C12.1004 13.0716 12.2278 13.0144 12.3136 12.9047C12.4605 12.7157 12.4271 12.4436 12.2382 12.2963Z" fill="#313942"/>
<path d="M20.8 11.2667C18.1718 11.2667 16.0333 13.4052 16.0333 16.0334C16.0333 18.6615 18.1718 20.8 20.8 20.8C23.4282 20.8 25.5667 18.6615 25.5667 16.0334C25.5667 13.4052 23.4282 11.2667 20.8 11.2667ZM20.8 19.9333C18.6494 19.9333 16.9 18.1839 16.9 16.0333C16.9 13.8827 18.6494 12.1333 20.8 12.1333C22.9506 12.1333 24.7 13.8827 24.7 16.0333C24.7 18.1839 22.9506 19.9333 20.8 19.9333Z" fill="#313942"/>
<path d="M20.8 13C19.844 13 19.0667 13.7774 19.0667 14.7333C19.0667 15.6893 19.8441 16.4666 20.8 16.4666C21.756 16.4666 22.5333 15.6892 22.5333 14.7333C22.5333 13.7774 21.756 13 20.8 13ZM20.8 15.6C20.322 15.6 19.9333 15.2113 19.9333 14.7333C19.9333 14.2554 20.322 13.8666 20.8 13.8666C21.278 13.8666 21.6667 14.2553 21.6667 14.7333C21.6667 15.2113 21.278 15.6 20.8 15.6Z" fill="#313942"/>
<path d="M22.0571 17.3333H19.5429C18.8024 17.3333 18.2 17.9196 18.2 18.6398V19.7821C18.2 19.9368 18.2823 20.0798 18.4162 20.1574C19.1425 20.5777 19.9667 20.8 20.8 20.8C21.6333 20.8 22.4575 20.5777 23.1838 20.1574C23.3177 20.0802 23.4 19.9368 23.4 19.7825V18.6403C23.4 17.9196 22.7977 17.3333 22.0571 17.3333ZM22.5333 19.5238C21.4548 20.0611 20.1452 20.0611 19.0666 19.5238V18.6403C19.0666 18.3976 19.2803 18.2 19.5429 18.2H22.057C22.3196 18.2 22.5333 18.3976 22.5333 18.6403L22.5333 19.5238Z" fill="#313942"/>
<path d="M10.4 16.4667C7.77182 16.4667 5.63332 18.6052 5.63332 21.2334C5.63332 23.8615 7.77182 26 10.4 26C13.0282 26 15.1667 23.8615 15.1667 21.2333C15.1667 18.6051 13.0282 16.4667 10.4 16.4667ZM10.4 25.1333C8.24936 25.1333 6.5 23.3839 6.5 21.2333C6.5 19.0827 8.24936 17.3333 10.4 17.3333C12.5506 17.3333 14.3 19.0827 14.3 21.2333C14.3 23.3839 12.5506 25.1333 10.4 25.1333Z" fill="#313942"/>
<path d="M10.4 18.2C9.44404 18.2 8.66668 18.9774 8.66668 19.9333C8.66668 20.8893 9.44409 21.6666 10.4 21.6666C11.3559 21.6666 12.1333 20.8892 12.1333 19.9333C12.1333 18.9774 11.356 18.2 10.4 18.2ZM10.4 20.8C9.92205 20.8 9.53332 20.4113 9.53332 19.9333C9.53332 19.4554 9.922 19.0666 10.4 19.0666C10.878 19.0666 11.2667 19.4553 11.2667 19.9333C11.2667 20.4113 10.878 20.8 10.4 20.8Z" fill="#313942"/>
<path d="M11.6571 22.5333H9.14291C8.40237 22.5333 7.8 23.1196 7.8 23.8398V24.9821C7.8 25.1368 7.88232 25.2798 8.01623 25.3574C8.7425 25.7777 9.56668 26 10.4 26C11.2333 26 12.0575 25.7777 12.7838 25.3574C12.9177 25.2802 13 25.1368 13 24.9825V23.8403C13 23.1196 12.3977 22.5333 11.6571 22.5333ZM12.1333 24.7238C11.0547 25.2611 9.74523 25.2611 8.66664 24.7238V23.8403C8.66664 23.5976 8.88027 23.4 9.14286 23.4H11.657C11.9196 23.4 12.1333 23.5976 12.1333 23.8403L12.1333 24.7238Z" fill="#313942"/>
<path d="M4.76668 5.63333C2.1385 5.63333 0 7.77183 0 10.4C0 13.0282 2.1385 15.1667 4.76668 15.1667C7.39487 15.1667 9.53337 13.0282 9.53337 10.4C9.53332 7.77183 7.39482 5.63333 4.76668 5.63333ZM4.76668 14.3C2.61605 14.3 0.866684 12.5506 0.866684 10.4C0.866684 8.24938 2.61605 6.50001 4.76668 6.50001C6.91732 6.50001 8.66668 8.24938 8.66668 10.4C8.66668 12.5506 6.91732 14.3 4.76668 14.3Z" fill="#313942"/>
<path d="M4.76668 7.36667C3.81073 7.36667 3.03337 8.14408 3.03337 9.09998C3.03337 10.0559 3.81078 10.8333 4.76668 10.8333C5.72264 10.8333 6.5 10.0559 6.5 9.09998C6.5 8.14408 5.72259 7.36667 4.76668 7.36667ZM4.76668 9.96667C4.28873 9.96667 3.9 9.57799 3.9 9.09998C3.9 8.62198 4.28868 8.2333 4.76668 8.2333C5.24464 8.2333 5.63337 8.62198 5.63337 9.09998C5.63337 9.57799 5.24464 9.96667 4.76668 9.96667Z" fill="#313942"/>
<path d="M6.02377 11.7H3.50959C2.76905 11.7 2.16668 12.2863 2.16668 13.0065V14.1488C2.16668 14.3035 2.249 14.4465 2.38291 14.5241C3.10918 14.9444 3.93336 15.1667 4.76668 15.1667C5.6 15.1667 6.42418 14.9444 7.15045 14.5241C7.28437 14.4469 7.36668 14.3035 7.36668 14.1492V13.007C7.36668 12.2863 6.76431 11.7 6.02377 11.7ZM6.5 13.8905C5.42145 14.4278 4.11191 14.4278 3.03331 13.8905V13.007C3.03331 12.7643 3.24695 12.5667 3.50954 12.5667H6.02372C6.28631 12.5667 6.49995 12.7643 6.49995 13.007L6.5 13.8905Z" fill="#313942"/>
<path d="M15.1667 0C12.5385 0 10.4 2.1385 10.4 4.76668C10.4 7.39487 12.5385 9.53337 15.1667 9.53337C17.7949 9.53337 19.9334 7.39487 19.9334 4.76668C19.9333 2.1385 17.7948 0 15.1667 0ZM15.1667 8.66668C13.016 8.66668 11.2667 6.91732 11.2667 4.76668C11.2667 2.61605 13.016 0.866683 15.1667 0.866683C17.3173 0.866683 19.0667 2.61605 19.0667 4.76668C19.0667 6.91732 17.3173 8.66668 15.1667 8.66668Z" fill="#313942"/>
<path d="M15.1667 1.73333C14.2107 1.73333 13.4334 2.51074 13.4334 3.46665C13.4334 4.42255 14.2108 5.19997 15.1667 5.19997C16.1226 5.19997 16.9 4.42261 16.9 3.4667C16.9 2.51079 16.1226 1.73333 15.1667 1.73333ZM15.1667 4.33333C14.6887 4.33333 14.3 3.94465 14.3 3.46665C14.3 2.9887 14.6887 2.59996 15.1667 2.59996C15.6447 2.59996 16.0334 2.98864 16.0334 3.46665C16.0333 3.94465 15.6446 4.33333 15.1667 4.33333Z" fill="#313942"/>
<path d="M16.4238 6.06668H13.9096C13.1691 6.06668 12.5667 6.653 12.5667 7.37318V8.51545C12.5667 8.67013 12.649 8.81313 12.7829 8.89072C13.5092 9.31104 14.3334 9.53337 15.1667 9.53337C16 9.53337 16.8242 9.31104 17.5505 8.89072C17.6844 8.81359 17.7667 8.67013 17.7667 8.51591V7.37363C17.7667 6.65295 17.1643 6.06668 16.4238 6.06668ZM16.9 8.25718C15.8215 8.79449 14.5119 8.79449 13.4333 8.25718V7.37363C13.4333 7.13095 13.647 6.93336 13.9095 6.93336H16.4237C16.6863 6.93336 16.8999 7.13095 16.8999 7.37363L16.9 8.25718Z" fill="#313942"/>
<path d="M11.1631 4.48453C11.0075 4.30339 10.7341 4.28171 10.5521 4.4373L7.54909 7.00699C7.36709 7.16253 7.34586 7.43599 7.50141 7.61799C7.58723 7.71808 7.70854 7.76967 7.83072 7.76967C7.93041 7.76967 8.0305 7.73544 8.11241 7.66521L11.1154 5.09553C11.2975 4.93999 11.3187 4.66653 11.1631 4.48453Z" fill="#313942"/>
<path d="M20.7133 11.4404L18.1133 7.97376C17.9699 7.78181 17.6982 7.74408 17.5066 7.88708C17.3151 8.03053 17.2765 8.30221 17.4199 8.4933L20.0199 11.96C20.1053 12.0735 20.2353 12.1333 20.367 12.1333C20.4572 12.1333 20.5486 12.1051 20.6266 12.0466C20.8182 11.9032 20.8568 11.6315 20.7133 11.4404Z" fill="#313942"/>
<path d="M17.157 17.4664C17.0135 17.2748 16.7418 17.2363 16.5503 17.3797L14.1297 19.1949C13.9381 19.3384 13.8996 19.61 14.043 19.8011C14.1284 19.9147 14.2584 19.9745 14.3901 19.9745C14.4806 19.9745 14.5716 19.9459 14.6497 19.8878L17.0703 18.0725C17.2618 17.9292 17.3004 17.6575 17.157 17.4664Z" fill="#313942"/>
<path d="M6.06668 20.8H3.03332C2.79414 20.8 2.6 20.9937 2.6 21.2333C2.6 21.473 2.79414 21.6666 3.03332 21.6666H6.06663C6.30581 21.6666 6.5 21.473 6.5 21.2333C6.5 20.9937 6.30586 20.8 6.06668 20.8Z" fill="#313942"/>
<path d="M4.76668 0C3.81073 0 3.03332 0.77741 3.03332 1.73332C3.03332 2.68927 3.81073 3.46663 4.76663 3.46663C5.72259 3.46663 6.49995 2.68922 6.49995 1.73332C6.5 0.77741 5.72259 0 4.76668 0ZM4.76668 2.6C4.28873 2.6 3.9 2.21132 3.9 1.73332C3.9 1.25536 4.28868 0.866633 4.76668 0.866633C5.24464 0.866633 5.63337 1.25531 5.63337 1.73332C5.63332 2.21132 5.24464 2.6 4.76668 2.6Z" fill="#313942"/>
<path d="M4.76668 2.6C4.5275 2.6 4.33337 2.79368 4.33337 3.03332V6.06663C4.33337 6.30627 4.5275 6.50001 4.76668 6.50001C5.00586 6.50001 5.2 6.30627 5.2 6.06663V3.03332C5.2 2.79368 5.00586 2.6 4.76668 2.6Z" fill="#313942"/>
</svg>
