<svg width="14" height="14" viewBox="0 0 14 14" fill="none" xmlns="http://www.w3.org/2000/svg">
<g clip-path="url(#clip0)">
<path d="M13.959 10.6022C13.9156 10.5381 13.8432 10.4998 13.7658 10.4998H8.39954C8.2707 10.4998 8.16623 10.6042 8.16623 10.7331V11.1997H5.59975V10.7331C5.59975 10.6042 5.49529 10.4998 5.36644 10.4998H0.233491C0.104642 10.4997 8.7605e-05 10.604 1.11604e-07 10.7329C-2.90529e-05 10.7627 0.00565802 10.7922 0.0167405 10.8199L0.0965345 11.0191C0.371614 11.706 0.933438 12.133 1.56526 12.133H12.434C13.064 12.133 13.6277 11.706 13.9039 11.0191L13.9837 10.8199C14.0122 10.7477 14.0029 10.6661 13.959 10.6022ZM1.56526 11.6663C1.13053 11.6415 0.748681 11.3693 0.583465 10.9664H5.13312V11.433C5.13312 11.5619 5.23759 11.6663 5.36644 11.6663H1.56526ZM12.434 11.6663H8.39954C8.52839 11.6663 8.63286 11.5619 8.63286 11.433V10.9664H13.4158C13.2505 11.3692 12.8687 11.6414 12.434 11.6663Z" fill="white"/>
<path d="M13.0659 1.86707H0.933511C0.804662 1.86707 0.700195 1.97153 0.700195 2.10038V10.0331C0.700195 10.162 0.804662 10.2664 0.933511 10.2664H13.0659C13.1948 10.2664 13.2992 10.162 13.2992 10.0331V2.10038C13.2992 1.97153 13.1948 1.86707 13.0659 1.86707ZM12.8326 9.7998H1.16683V2.3337H12.8326V9.7998Z" fill="white"/>
</g>
<defs>
<clipPath id="clip0">
<rect width="14" height="14" fill="white"/>
</clipPath>
</defs>
</svg>
