<svg width="22" height="17" viewBox="0 0 22 17" fill="none" xmlns="http://www.w3.org/2000/svg">
<path fill-rule="evenodd" clip-rule="evenodd" d="M10.4332 0.168652C10.7797 0.335172 11 0.685551 11 1.06996V15.07C11 15.4544 10.7797 15.8047 10.4332 15.9713C10.0867 16.1378 9.67548 16.091 9.37531 15.8508L4.64922 12.07H1C0.447715 12.07 0 11.6222 0 11.07V5.06996C0 4.51767 0.447715 4.06996 1 4.06996H4.64922L9.37531 0.289087C9.67548 0.0489509 10.0867 0.00213249 10.4332 0.168652ZM9 3.15058L5.62469 5.85082C5.44738 5.99268 5.22707 6.06996 5 6.06996H2V10.07H5C5.22707 10.07 5.44738 10.1472 5.62469 10.2891L9 12.9893V3.15058Z" fill="#313942"/>
<path fill-rule="evenodd" clip-rule="evenodd" d="M17.363 0.292787C17.7536 -0.0976789 18.3868 -0.0975833 18.7773 0.293C20.8394 2.3558 21.9979 5.15319 21.9979 8.07C21.9979 10.9868 20.8394 13.7842 18.7773 15.847C18.3868 16.2376 17.7536 16.2377 17.363 15.8472C16.9725 15.4567 16.9724 14.8236 17.3628 14.433C19.0501 12.7452 19.9979 10.4565 19.9979 8.07C19.9979 5.68352 19.0501 3.39475 17.3628 1.707C16.9724 1.31642 16.9725 0.683252 17.363 0.292787ZM13.833 3.82279C14.2236 3.43232 14.8568 3.43242 15.2473 3.823C16.3721 4.94817 17.004 6.47402 17.004 8.065C17.004 9.65598 16.3721 11.1818 15.2473 12.307C14.8568 12.6976 14.2236 12.6977 13.833 12.3072C13.4425 11.9167 13.4424 11.2836 13.8328 10.893C14.5827 10.1429 15.004 9.12566 15.004 8.065C15.004 7.00434 14.5827 5.98711 13.8328 5.237C13.4424 4.84642 13.4425 4.21325 13.833 3.82279Z" fill="#313942"/>
</svg>
