<svg width="59" height="21" viewBox="0 0 59 21" fill="none" xmlns="http://www.w3.org/2000/svg">
<path d="M0 0H58.8877V20.3843H0V0Z" fill="#FB4A59"/>
<path d="M26.4383 13.9521V15.8202H18.6226V4.5639H20.6545V13.9521H26.4383Z" fill="#F2F2F2"/>
<path d="M28.1266 4.5639H30.1605V15.8202H28.1266V4.5639Z" fill="#F2F2F2"/>
<path d="M43.3639 4.5639L38.6601 15.8202H36.384L31.6812 4.5639H33.9424L37.5146 13.1006L41.0868 4.5639H43.3639Z" fill="#F2F2F2"/>
<path d="M46.9044 6.43192V9.15202H52.721V11.0195H46.9044V13.9526H53.3273V15.8207H44.8561V4.5639H53.3273V6.43192H46.9044Z" fill="#F2F2F2"/>
<path d="M9.05897 13.2641C10.7558 13.2641 12.1314 11.8885 12.1314 10.1917C12.1314 8.49482 10.7558 7.11926 9.05897 7.11926C7.36213 7.11926 5.98657 8.49482 5.98657 10.1917C5.98657 11.8885 7.36213 13.2641 9.05897 13.2641Z" fill="#F2F2F2"/>
</svg>
