<?xml version="1.0"?>
<svg xmlns="http://www.w3.org/2000/svg" xmlns:xlink="http://www.w3.org/1999/xlink" version="1.1" id="Capa_1" x="0px" y="0px" viewBox="0 0 512 512" style="enable-background:new 0 0 512 512;" xml:space="preserve" width="512px" height="512px" class=""><g><g>
	<g>
		<g>
			<path d="M378.389,171.925c-3.477-1.856-7.68-1.664-10.965,0.533L320,204.075v-22.741c0-5.888-4.779-10.667-10.667-10.667H160     c-31.104,0-32,76.608-32,85.333s0.896,85.333,32,85.333h149.333c5.888,0,10.667-4.779,10.667-10.667v-22.741l47.424,31.616     c1.792,1.195,3.84,1.792,5.909,1.792c1.728,0,3.456-0.427,5.035-1.259c3.456-1.856,5.632-5.461,5.632-9.408V181.333     C384,177.387,381.824,173.781,378.389,171.925z M362.667,310.741l-47.403-31.616c-3.307-2.197-7.488-2.389-10.965-0.533     c-3.456,1.856-5.632,5.461-5.632,9.408v32.021l-136.747,0.448c-4.245-3.051-12.587-25.792-12.587-64.469s8.341-61.419,10.667-64     h138.667v32c0,3.947,2.176,7.552,5.611,9.408c3.477,1.856,7.68,1.664,10.965-0.533l47.424-31.616V310.741z" data-original="#000000" class="active-path" data-old_color="#000000" fill="#4D86C9"/>
			<path d="M256,0C114.837,0,0,114.837,0,256s114.837,256,256,256s256-114.837,256-256S397.163,0,256,0z M256,490.667     c-129.387,0-234.667-105.28-234.667-234.667S126.613,21.333,256,21.333S490.667,126.613,490.667,256S385.387,490.667,256,490.667     z" data-original="#000000" class="active-path" data-old_color="#000000" fill="#4D86C9"/>
		</g>
	</g>
</g></g> </svg>
