<svg width="23" height="16" viewBox="0 0 23 16" fill="none" xmlns="http://www.w3.org/2000/svg">
<path fill-rule="evenodd" clip-rule="evenodd" d="M10.4332 0.0987061C10.7797 0.265226 11 0.615604 11 1.00001V15C11 15.3844 10.7797 15.7348 10.4332 15.9013C10.0867 16.0678 9.67548 16.021 9.37531 15.7809L4.64922 12H1C0.447715 12 0 11.5523 0 11V5.00001C0 4.44772 0.447715 4.00001 1 4.00001H4.64922L9.37531 0.219141C9.67548 -0.0209954 10.0867 -0.0678138 10.4332 0.0987061ZM9 3.08063L5.62469 5.78088C5.44738 5.92273 5.22707 6.00001 5 6.00001H2V10H5C5.22707 10 5.44738 10.0773 5.62469 10.2191L9 12.9194V3.08063Z" fill="#313942"/>
<path fill-rule="evenodd" clip-rule="evenodd" d="M22.7071 4.2929C23.0976 4.68343 23.0976 5.31659 22.7071 5.70712L16.7071 11.7071C16.3166 12.0976 15.6834 12.0976 15.2929 11.7071C14.9024 11.3166 14.9024 10.6834 15.2929 10.2929L21.2929 4.2929C21.6834 3.90238 22.3166 3.90238 22.7071 4.2929Z" fill="#313942"/>
<path fill-rule="evenodd" clip-rule="evenodd" d="M15.2929 4.2929C15.6834 3.90238 16.3166 3.90238 16.7071 4.2929L22.7071 10.2929C23.0976 10.6834 23.0976 11.3166 22.7071 11.7071C22.3166 12.0976 21.6834 12.0976 21.2929 11.7071L15.2929 5.70712C14.9024 5.31659 14.9024 4.68343 15.2929 4.2929Z" fill="#313942"/>
</svg>
