<svg xmlns="http://www.w3.org/2000/svg" xmlns:xlink="http://www.w3.org/1999/xlink" viewBox="0 0 104.74 88.26"><defs><style>.cls-1{fill:#53914e;}.cls-2{fill:#91bc8e;}.cls-3{fill:#5da458;}.cls-4{fill:url(#radial-gradient);}.cls-5{fill:#fff;}</style><radialGradient id="radial-gradient" cx="67.65" cy="11.09" r="83.87" gradientTransform="matrix(-0.43, 0.9, -0.77, -0.37, 105.59, -45.72)" gradientUnits="userSpaceOnUse"><stop offset="0.42" stop-color="#5da458"/><stop offset="1" stop-color="#355a2e"/></radialGradient></defs><title>Asset 9</title><g id="Layer_2" data-name="Layer 2"><g id="Layer_1-2" data-name="Layer 1"><path class="cls-1" d="M5.63,77.13A5.47,5.47,0,0,1,10.3,79.5a.55.55,0,0,1-.2.79l-.9.46a.48.48,0,0,1-.62-.16,3.37,3.37,0,0,0-2.95-1.54,3.65,3.65,0,0,0,0,7.29,3.37,3.37,0,0,0,3-1.54.48.48,0,0,1,.62-.16l.9.46a.55.55,0,0,1,.2.79,5.47,5.47,0,0,1-4.67,2.37,5.57,5.57,0,1,1,0-11.13Z"/><path class="cls-1" d="M17.21,77.13a5.57,5.57,0,1,1,0,11.13,5.57,5.57,0,1,1,0-11.13Zm0,1.92a3.65,3.65,0,1,0,3.57,3.65A3.49,3.49,0,0,0,17.21,79.05Z"/><path class="cls-1" d="M26.35,88.26h-1.2a.41.41,0,0,1-.41-.41V77.41h.9a.6.6,0,0,1,.44.19L32,84.34V77.81a.4.4,0,0,1,.41-.4h1.21a.41.41,0,0,1,.41.41V88.26h-.9a.57.57,0,0,1-.43-.2l-6-6.74v6.53A.41.41,0,0,1,26.35,88.26Z"/><path class="cls-1" d="M43.25,79.46H38.59v2.61H42.9a.4.4,0,0,1,.4.4v1a.4.4,0,0,1-.4.4H38.59v4a.4.4,0,0,1-.4.39H37a.4.4,0,0,1-.4-.39V78a.4.4,0,0,1,.4-.39h6.28a.4.4,0,0,1,.4.39v1.09A.39.39,0,0,1,43.25,79.46Z"/><path class="cls-1" d="M52.14,79.46H47.46V82H51.7a.43.43,0,0,1,.43.43v1a.43.43,0,0,1-.43.42H47.46v2.6h4.68a.42.42,0,0,1,.43.42v1a.43.43,0,0,1-.43.43H45.88a.43.43,0,0,1-.43-.43V78a.43.43,0,0,1,.43-.43h6.26a.43.43,0,0,1,.43.43v1A.42.42,0,0,1,52.14,79.46Z"/><path class="cls-1" d="M58.13,83.84l-1.52,0v4.05a.4.4,0,0,1-.4.39H55a.39.39,0,0,1-.39-.39V78a.39.39,0,0,1,.39-.39h4c2.07,0,3.65,1.11,3.65,3.11a3,3,0,0,1-2.37,3l2.51,4a.4.4,0,0,1-.33.61H61.07a.39.39,0,0,1-.34-.19ZM59.05,82c1,0,1.54-.49,1.54-1.3s-.57-1.28-1.54-1.28H56.61V82Z"/><path class="cls-1" d="M71.62,79.46H67V82h4.18a.49.49,0,0,1,.49.49v.87a.48.48,0,0,1-.49.48H67v2.6h4.62a.48.48,0,0,1,.49.48v.9a.49.49,0,0,1-.49.49H65.48a.49.49,0,0,1-.49-.49V78.08a.49.49,0,0,1,.49-.49h6.14a.49.49,0,0,1,.49.49V79A.48.48,0,0,1,71.62,79.46Z"/><path class="cls-1" d="M75.74,88.26H74.58a.42.42,0,0,1-.42-.42V77.41h.94a.42.42,0,0,1,.35.16l6,6.77V77.92a.42.42,0,0,1,.43-.42H83a.42.42,0,0,1,.43.42V88.26h-1a.48.48,0,0,1-.35-.16l-6-6.78v6.52A.42.42,0,0,1,75.74,88.26Z"/><path class="cls-1" d="M91,77.13a5.45,5.45,0,0,1,4.78,2.54.38.38,0,0,1-.16.54l-1.12.58a.42.42,0,0,1-.53-.17,3.37,3.37,0,0,0-3-1.57,3.65,3.65,0,0,0,0,7.29,3.37,3.37,0,0,0,3-1.57.41.41,0,0,1,.53-.16l1.12.57a.38.38,0,0,1,.16.54A5.62,5.62,0,1,1,91,77.13Z"/><path class="cls-1" d="M104.32,79.46H99.63V82h4.25a.42.42,0,0,1,.42.41v1a.41.41,0,0,1-.42.41H99.63v2.6h4.69a.41.41,0,0,1,.42.41v1a.42.42,0,0,1-.42.41H98a.41.41,0,0,1-.41-.41V78a.41.41,0,0,1,.41-.41h6.29a.42.42,0,0,1,.42.41v1A.41.41,0,0,1,104.32,79.46Z"/><path class="cls-2" d="M11.93,37.75V53.4a1.17,1.17,0,0,1-.72,1.09l-9,3.75a1.52,1.52,0,0,1-1.44-.13A1.53,1.53,0,0,1,0,56.79v-24a1.57,1.57,0,0,1,2.28-1.41l9,5.29a1.19,1.19,0,0,1,.62.75A1.53,1.53,0,0,1,11.93,37.75Z"/><path class="cls-2" d="M55.79,38.56V53.94a9.66,9.66,0,0,1-7.19,9.34L49.55,71a.79.79,0,0,1-1.28.62l-11.09-8-13.56.71a9.67,9.67,0,0,1-9.68-9.67V37.5a9.67,9.67,0,0,1,9.68-9.67l2.24.1,3.79.18,1.53.07,8.15.38,6.79.32a9.69,9.69,0,0,1,9.67,9.68Z"/><path class="cls-3" d="M104.47,5.68h0a2.1,2.1,0,0,0-2.79-.86l-12.09,7.1a1.59,1.59,0,0,0-.88,1.42v21a1.57,1.57,0,0,0,.4,1,1.41,1.41,0,0,0,.18.17,1.8,1.8,0,0,0,.4.25l12.13,5a2.11,2.11,0,0,0,2.92-1.94V6.7A2,2,0,0,0,104.47,5.68Z"/><path class="cls-4" d="M73,0,42.81,1.42a13,13,0,0,0-13,13V35.07a12.9,12.9,0,0,0,1.79,6.58,13,13,0,0,0,7.86,6L38.21,58a1.06,1.06,0,0,0,1.71.83l14.89-10.8L73,49A13,13,0,0,0,86,36V13A13,13,0,0,0,73,0Z"/><path class="cls-5" d="M44.2,17.18l6.2,6.93,6.22-7.71a1.28,1.28,0,0,1,.94-.41H58.9a1.2,1.2,0,0,1,1.31,1.17V34.94c0,.86-.71,1.11-1.58,1.11H57.27c-.87,0-1.57-.25-1.57-1.11V24.36l-5.3,5.13-5.31-4.56v8.91a1.58,1.58,0,0,1-1.63,1.51H42.09a1.46,1.46,0,0,1-1.5-1.51V18.07a1.31,1.31,0,0,1,1.31-1.31h1.36A1.25,1.25,0,0,1,44.2,17.18Z"/><path class="cls-5" d="M69.45,15.86c5.7,0,9.62,4.21,9.62,10.32s-3.93,10.17-9.63,10.17H64.05A2.24,2.24,0,0,1,61.81,34V18.31A2.45,2.45,0,0,1,64,15.74Zm5,10.35c0-3.57-1.91-5.72-5.54-5.72H66.35V31.88h2.57C72.55,31.88,74.46,29.78,74.46,26.21Z"/></g></g></svg>