<svg width="200" height="169" viewBox="0 0 200 169" fill="none" xmlns="http://www.w3.org/2000/svg">
<g clip-path="url(#clip0)">
<path d="M133.52 67.0235C132.4 76.6736 126.424 85.1657 117.46 89.0258C112.605 91.3418 107.75 92.1138 102.521 91.7278V83.2357C102.521 83.2357 87.5817 82.0777 81.2325 81.6917C74.1363 80.5337 68.5341 74.3576 67.7871 66.6375H80.4855V51.5833L98.4127 50.0393V67.0235L114.472 67.4095V17.2289C119.328 16.8429 124.556 18.3869 128.291 21.861C131.279 24.177 133.147 28.037 133.147 31.8971V34.2131C133.52 33.8271 133.894 63.9355 133.52 67.0235Z" fill="#355A2F"/>
<path d="M114.472 17.6163L98.7862 19.5463V35.7585L80.4855 37.3025V22.2483L67.7871 23.7923V67.0248C64.4258 66.6388 61.0644 65.0948 58.8235 62.3928C55.8357 58.9187 54.7152 54.2867 55.4622 49.6546V24.5643C55.4622 17.6163 57.7031 11.0542 62.1849 5.65011C66.2932 1.01806 71.1485 -2.45598 77.1242 -4V7.58014C77.1242 7.58014 85.7143 6.03612 93.5574 4.4921C101.401 2.94808 105.135 3.72009 109.617 7.19413C112.232 10.2822 114.099 13.7562 114.472 17.6163Z" fill="#95B195"/>
<path d="M114.846 67.7977L98.7862 67.4117V50.4275L80.4855 51.9715V67.0257H67.7871V23.7932L80.4855 21.8631V36.9173L98.7862 35.7593V19.5471L114.472 17.2311V45.4094L114.846 67.7977Z" fill="#FAFCFE"/>
<path d="M28.1979 116.82C28.1979 116.048 28.5714 115.661 29.3184 115.661H36.788C37.535 115.661 37.9085 116.048 37.9085 116.82V165.842C37.9085 166.614 37.535 167 36.788 167H29.3184C28.5714 167 28.1979 166.614 28.1979 165.842V146.156H19.2344V165.842C19.2344 166.614 18.8609 167 18.1139 167H10.6443C9.89729 167 9.5238 166.614 9.5238 165.842V116.82C9.5238 116.048 9.89729 115.661 10.6443 115.661H18.1139C18.8609 115.661 19.2344 116.048 19.2344 116.82V136.506H28.1979V116.82Z" fill="#355A2F"/>
<path d="M43.8842 123.768C43.8842 118.364 47.2456 115.661 53.9683 115.661H61.8114C68.5341 115.661 71.8954 118.364 71.8954 123.768V146.542C71.8954 151.946 68.5341 154.648 61.8114 154.648H53.9683C47.2456 154.648 43.8842 151.946 43.8842 146.542V123.768ZM60.3175 145.384C62.1849 145.384 63.3053 144.612 63.3053 143.068V126.856C63.3053 125.312 62.1849 124.54 60.3175 124.54H55.8357C53.9683 124.54 52.8478 125.312 52.8478 126.856V143.068C52.8478 144.612 53.9683 145.384 55.8357 145.384H60.3175Z" fill="#355A2F"/>
<path d="M79.3651 117.205C79.3651 116.433 79.7386 116.047 80.4856 116.047H97.6658C104.388 116.047 107.75 119.521 107.75 126.469V140.751C107.75 147.699 104.388 151.173 97.6658 151.173H88.7022V165.841C88.7022 166.613 88.3287 166.999 87.5817 166.999H80.4856C79.7386 166.999 79.3651 166.613 79.3651 165.841V117.205ZM95.7984 141.909C97.6658 141.909 98.7862 140.751 98.7862 138.821V128.013C98.7862 126.083 98.0392 124.925 95.7984 124.925H88.7022V141.523L95.7984 141.909Z" fill="#355A2F"/>
<path d="M142.484 124.539C142.484 125.311 142.11 125.697 141.363 125.697H123.81V136.891H137.255C138.002 136.891 138.375 137.277 138.375 138.049V145.383C138.375 146.155 138.002 146.541 137.255 146.541H123.81V157.349H141.363C142.11 157.349 142.484 157.735 142.484 158.507V165.841C142.484 166.613 142.11 166.999 141.363 166.999H115.219C114.472 166.999 114.099 166.613 114.099 165.841V117.205C114.099 116.433 114.472 116.047 115.219 116.047H141.363C142.11 116.047 142.484 116.433 142.484 117.205V124.539Z" fill="#3A3A3A"/>
<path d="M178.712 115.661C179.832 115.661 180.205 116.434 179.832 117.592L161.905 158.122H177.591C178.338 158.122 178.712 158.508 178.712 159.28V165.842C178.712 166.614 178.338 167 177.591 167H149.953C148.833 167 148.459 166.228 148.833 165.07L166.387 125.312H151.821C151.074 125.312 150.7 124.926 150.7 124.154V116.82C150.7 116.048 151.074 115.661 151.821 115.661C151.821 115.661 178.712 115.661 178.712 115.661Z" fill="#3A3A3A"/>
<path d="M49.4864 159.279H67.4136C68.5341 159.279 69.6545 160.437 69.6545 161.595V164.683C69.6545 165.841 68.5341 166.999 67.4136 166.999H49.4864C48.366 166.999 47.2455 165.841 47.2455 164.683V161.595C47.2455 160.051 48.366 159.279 49.4864 159.279Z" fill="#355A2F"/>
</g>
<defs>
<clipPath id="clip0">
<rect width="200" height="169" fill="white"/>
</clipPath>
</defs>
</svg>
