<svg width="402" height="405" viewBox="0 0 402 405" fill="none" xmlns="http://www.w3.org/2000/svg">
<rect x="80.0143" width="173.525" height="125.324" rx="4" fill="#A6C8A6"/>
<rect x="150.388" y="19.2805" width="85.7986" height="85.7986" fill="#5D9C5A"/>
<rect x="89.6545" y="19.2805" width="49.1655" height="1.92806" rx="0.964029" fill="#5D9C5A"/>
<rect x="89.6545" y="26.0288" width="28.9209" height="1.92806" rx="0.964029" fill="#5D9C5A"/>
<rect x="89.6545" y="96.4029" width="49.1655" height="1.92806" rx="0.964029" fill="#5D9C5A"/>
<rect x="89.6545" y="103.151" width="28.9209" height="1.92806" rx="0.964029" fill="#5D9C5A"/>
<rect x="89.6545" y="32.777" width="28.9209" height="1.92806" rx="0.964029" fill="#5D9C5A"/>
<rect x="89.6545" y="44.3454" width="28.9209" height="1.92806" rx="0.964029" fill="#5D9C5A"/>
<rect x="89.6545" y="51.0935" width="28.9209" height="1.92806" rx="0.964029" fill="#5D9C5A"/>
<ellipse cx="201" cy="391.396" rx="201" ry="13.4964" fill="#355A2F"/>
<path d="M141.712 335.964L170.633 256.914L252.576 276.194L297.403 343.676L224.137 374.043L141.712 335.964Z" fill="#5E5E5E"/>
<path d="M86.0997 294.313C118.877 266.356 90.4378 258.644 82.7256 256.234C75.0134 253.505 63.927 244.666 67.7831 213.335C75.9774 167.543 50.9126 155.493 10.9055 208.033C-29.5837 288.529 53.3227 322.27 86.0997 294.313Z" fill="#355A2F"/>
<path d="M46.5745 234.061C46.5745 233.529 47.0061 233.097 47.5385 233.097H49.4666C49.999 233.097 50.4306 233.529 50.4306 234.061V317.932C50.4306 318.464 49.999 318.896 49.4666 318.896H47.5385C47.0061 318.896 46.5745 318.464 46.5745 317.932V234.061Z" fill="#A6C8A6"/>
<path d="M64.4596 257.727C64.9046 257.435 65.5023 257.559 65.7946 258.004L66.8531 259.615C67.1454 260.06 67.0216 260.658 66.5765 260.95L50.4612 271.535C50.0162 271.828 49.4185 271.704 49.1262 271.259L48.0677 269.647C47.7755 269.202 47.8993 268.604 48.3443 268.312L64.4596 257.727Z" fill="#A6C8A6"/>
<path d="M27.0344 260.674C26.6453 260.311 26.6245 259.701 26.9879 259.312L28.3039 257.903C28.6673 257.514 29.2773 257.493 29.6664 257.856L49.892 276.745C50.2811 277.109 50.3019 277.719 49.9385 278.108L48.6225 279.517C48.2591 279.906 47.6491 279.927 47.26 279.564L27.0344 260.674Z" fill="#A6C8A6"/>
<path d="M22.9558 389.27L13.3156 316.486H85.1357L73.0853 389.27H22.9558Z" fill="#355A2F"/>
<rect x="166.777" y="62.662" width="173.525" height="125.324" rx="5" fill="#A6C8A6"/>
<rect x="184.129" y="79.0504" width="30.8489" height="19.2806" fill="#5D9C5A"/>
<rect x="221.726" y="79.0503" width="101.223" height="1.92806" rx="0.964029" fill="#5D9C5A"/>
<rect x="221.726" y="85.7986" width="48.2014" height="1.92806" rx="0.964029" fill="#5D9C5A"/>
<rect x="221.726" y="92.5468" width="28.9209" height="1.92806" rx="0.964029" fill="#5D9C5A"/>
<rect x="184.129" y="103.151" width="30.8489" height="19.2806" fill="#5D9C5A"/>
<rect x="221.726" y="103.151" width="101.223" height="1.92806" rx="0.964029" fill="#5D9C5A"/>
<rect x="221.726" y="109.899" width="48.2014" height="1.92806" rx="0.964029" fill="#5D9C5A"/>
<rect x="221.726" y="116.647" width="28.9209" height="1.92806" rx="0.964029" fill="#5D9C5A"/>
<rect x="184.129" y="127.252" width="30.8489" height="19.2806" fill="#5D9C5A"/>
<rect x="221.726" y="127.252" width="101.223" height="1.92806" rx="0.964029" fill="#5D9C5A"/>
<rect x="221.726" y="134" width="48.2014" height="1.92806" rx="0.964029" fill="#5D9C5A"/>
<rect x="221.726" y="140.748" width="28.9209" height="1.92806" rx="0.964029" fill="#5D9C5A"/>
<rect x="184.129" y="151.353" width="30.8489" height="19.2806" fill="#5D9C5A"/>
<rect x="221.726" y="151.353" width="101.223" height="1.92806" rx="0.964029" fill="#5D9C5A"/>
<rect x="221.726" y="158.101" width="48.2014" height="1.92806" rx="0.964029" fill="#5D9C5A"/>
<rect x="221.726" y="164.849" width="28.9209" height="1.92806" rx="0.964029" fill="#5D9C5A"/>
<rect x="204.374" y="148.46" width="37.5971" height="54.9496" fill="#F3AD9F"/>
<g filter="url(#filter0_d)">
<path d="M226.373 179.791C209.984 187.022 199.38 157.137 192.15 135.928C189.45 131.301 191.668 116.005 193.114 108.935L200.826 106.043C207.253 107.489 222.035 109.899 229.747 107.971C239.387 105.561 241.797 140.266 241.797 135.928C241.797 132.458 242.761 130.626 243.243 130.144C251.919 127.252 243.725 143.64 241.797 145.568C239.869 147.496 242.761 172.561 226.373 179.791Z" fill="#F6B1A2"/>
<path d="M197.144 148.461C192.324 145.086 185.094 129.662 192.806 133.518C198.976 136.603 198.269 144.765 197.144 148.461Z" fill="#F6B1A2"/>
</g>
<path d="M205.82 90.6187C179.31 99.2949 188.468 128.698 194.734 144.122C196.662 146.05 196.18 131.59 193.77 121.468C191.36 111.345 197.144 115.201 204.856 120.022C212.569 124.842 212.569 111.345 224.619 115.201C236.669 119.058 241.007 134.482 241.489 136.41C241.971 138.338 246.31 137.856 242.453 113.273C238.597 88.6906 223.173 86.2806 218.835 90.6187C214.497 94.9568 211.123 89.1726 205.82 90.6187Z" fill="#355A2F"/>
<path d="M288.727 361.54C293.065 365.878 286.799 385.641 284.389 390.943H319.094C338.856 386.605 375.971 406.368 380.309 386.605C386.576 351.9 357.173 349.008 341.748 355.756C329.409 361.155 315.398 356.399 309.935 353.346C298.849 362.986 284.389 357.202 288.727 361.54Z" fill="#5D9C5A"/>
<path d="M221.727 192.324C213.533 192.324 206.784 181.719 203.892 174.489C190.557 177.542 161.571 189.817 152.317 214.496C133.518 258.36 148.943 294.029 152.317 300.777C155.691 307.525 268.482 301.259 277.158 295.475C285.835 289.691 289.691 285.835 303.669 296.439C317.648 307.043 311.382 254.504 301.741 216.424C292.101 178.345 243.417 166.777 241.971 174.489C240.525 182.201 229.921 192.324 221.727 192.324Z" fill="#5D9C5A"/>
<path d="M244.864 313.985C249.041 311.415 262.987 303.092 285.353 290.367C296.127 284.197 301.732 292.938 303.187 298.079L260.288 324.59L244.864 313.985Z" fill="#F6B4A4"/>
<rect x="141.712" y="237.151" width="137.856" height="86.7626" rx="3" fill="#355A2F"/>
<path d="M203.892 272.338C204.856 268.964 207.748 268.482 215.461 272.338C216.746 276.034 218.16 283.81 213.533 285.352C207.748 287.281 202.928 275.712 203.892 272.338Z" fill="#A6C8A6"/>
<path d="M286.317 308.971C250.648 322.95 222.691 342.23 201.482 356.209C216.103 363.6 254.793 375.2 292.583 362.475C339.82 346.568 338.856 326.324 333.554 316.684C328.252 307.043 321.986 294.993 286.317 308.971Z" fill="#BBBBBB"/>
<path d="M114.719 349.942C130.144 350.907 169.669 373.079 166.295 382.719C164.688 384.969 159.45 389.178 151.353 388.022C141.23 386.576 141.23 387.058 115.683 389.468C90.1367 391.878 91.1008 384.166 91.1008 369.705C91.1008 355.245 99.295 348.978 114.719 349.942Z" fill="#5D9C5A"/>
<g filter="url(#filter1_d)">
<path d="M107.972 340.302C104.597 304.633 140.749 315.237 149.907 320.54C207.749 353.799 251.13 359.101 268.482 358.619C285.835 358.137 286.317 359.101 294.511 361.029C302.705 362.957 297.885 388.504 291.137 391.396C214.497 388.986 182.202 392.36 160.993 380.309C134 363.439 109.9 357.173 107.972 340.302Z" fill="#BBBBBB"/>
</g>
<defs>
<filter id="filter0_d" x="185.423" y="106.043" width="65.7294" height="82.8511" filterUnits="userSpaceOnUse" color-interpolation-filters="sRGB">
<feFlood flood-opacity="0" result="BackgroundImageFix"/>
<feColorMatrix in="SourceAlpha" type="matrix" values="0 0 0 0 0 0 0 0 0 0 0 0 0 0 0 0 0 0 127 0"/>
<feOffset dy="4"/>
<feGaussianBlur stdDeviation="2"/>
<feColorMatrix type="matrix" values="0 0 0 0 0 0 0 0 0 0 0 0 0 0 0 0 0 0 0.25 0"/>
<feBlend mode="normal" in2="BackgroundImageFix" result="effect1_dropShadow"/>
<feBlend mode="normal" in="SourceGraphic" in2="effect1_dropShadow" result="shape"/>
</filter>
<filter id="filter1_d" x="104.75" y="310.855" width="199.074" height="84.5411" filterUnits="userSpaceOnUse" color-interpolation-filters="sRGB">
<feFlood flood-opacity="0" result="BackgroundImageFix"/>
<feColorMatrix in="SourceAlpha" type="matrix" values="0 0 0 0 0 0 0 0 0 0 0 0 0 0 0 0 0 0 127 0"/>
<feOffset dx="1"/>
<feGaussianBlur stdDeviation="2"/>
<feColorMatrix type="matrix" values="0 0 0 0 0 0 0 0 0 0 0 0 0 0 0 0 0 0 0.14 0"/>
<feBlend mode="normal" in2="BackgroundImageFix" result="effect1_dropShadow"/>
<feBlend mode="normal" in="SourceGraphic" in2="effect1_dropShadow" result="shape"/>
</filter>
</defs>
</svg>
