<svg xmlns="http://www.w3.org/2000/svg" xmlns:xlink="http://www.w3.org/1999/xlink" viewBox="0 0 91.2 86.86"><defs><style>.cls-1{isolation:isolate;}.cls-2{fill:url(#radial-gradient);}.cls-3,.cls-4{opacity:0.3;mix-blend-mode:multiply;}.cls-3{fill:url(#linear-gradient);}.cls-4{fill:url(#linear-gradient-2);}.cls-5{fill:#91bc8e;}.cls-6{fill:#fff;}.cls-7{opacity:0.61;}.cls-8{opacity:0.4;fill:url(#linear-gradient-3);}.cls-9{opacity:0.5;fill:url(#linear-gradient-4);}.cls-10{fill:#5da458;}</style><radialGradient id="radial-gradient" cx="92.04" cy="0.11" r="155.23" gradientTransform="matrix(-0.71, 0.71, -0.6, -0.6, 157.2, -64.91)" gradientUnits="userSpaceOnUse"><stop offset="0.58" stop-color="#5da458"/><stop offset="0.66" stop-color="#599d54"/><stop offset="0.79" stop-color="#4f8a49"/><stop offset="0.94" stop-color="#3e6a37"/><stop offset="1" stop-color="#355a2e"/></radialGradient><linearGradient id="linear-gradient" x1="69.34" y1="29.57" x2="81.39" y2="45.31" gradientUnits="userSpaceOnUse"><stop offset="0" stop-opacity="0.7"/><stop offset="1" stop-color="#fff" stop-opacity="0"/></linearGradient><linearGradient id="linear-gradient-2" x1="18.71" y1="41.1" x2="49.94" y2="74.65" xlink:href="#linear-gradient"/><linearGradient id="linear-gradient-3" x1="70.69" y1="9.65" x2="73.32" y2="44.78" gradientUnits="userSpaceOnUse"><stop offset="0" stop-color="#5da458"/><stop offset="1" stop-color="#355a2e" stop-opacity="0"/></linearGradient><linearGradient id="linear-gradient-4" x1="45.83" y1="11.51" x2="48.46" y2="46.64" xlink:href="#linear-gradient-3"/></defs><title>Asset 10</title><g class="cls-1"><g id="Layer_2" data-name="Layer 2"><g id="Layer_1-2" data-name="Layer 1"><rect class="cls-2" width="91.2" height="86.86" rx="13.47" ry="13.47"/><path class="cls-3" d="M91.2,40.5V68.08L67.87,45.26a1.1,1.1,0,0,0,.26.15l7.76,3.22a1.35,1.35,0,0,0,1.87-1.24V26.79a1.29,1.29,0,0,0-.17-.65Z"/><path class="cls-4" d="M76,86.86H25.71l-.28-.55-.33-.62L11.21,60.3a1,1,0,0,0,.93.08L17.92,58a.74.74,0,0,0,.46-.69v-10a1.23,1.23,0,0,0,0-.19l1.31.49V58.08a6.19,6.19,0,0,0,6.19,6.19l8.68-.45L41.63,69a.51.51,0,0,0,.82-.4l-.6-5a6.19,6.19,0,0,0,4.59-6V53.28l11,.58a8.3,8.3,0,0,0,6.17-2.74L68.9,66.33l.3.86,4.32,12.47,1.57,4.54Z"/><path class="cls-5" d="M18.38,47.27v10a.74.74,0,0,1-.46.69l-5.78,2.4a1,1,0,0,1-.93-.08,1,1,0,0,1-.46-.85V44.12a1,1,0,0,1,1.45-.91L18,46.6a.74.74,0,0,1,.39.48A1.23,1.23,0,0,1,18.38,47.27Z"/><path class="cls-5" d="M46.44,47.79v9.84a6.19,6.19,0,0,1-4.59,6l.6,5a.51.51,0,0,1-.82.4l-7.09-5.14-8.68.45a6.19,6.19,0,0,1-6.19-6.19v-11a6.19,6.19,0,0,1,6.19-6.19l1.43.07,2.43.12,1,0,5.21.24,4.34.21a6.19,6.19,0,0,1,6.19,6.19Z"/><path class="cls-6" d="M77.59,26.14h0a1.35,1.35,0,0,0-1.79-.55l-7.73,4.54a1,1,0,0,0-.56.91V44.48a1,1,0,0,0,.25.67l.11.11a1.1,1.1,0,0,0,.26.15l7.76,3.22a1.35,1.35,0,0,0,1.87-1.24V26.79A1.29,1.29,0,0,0,77.59,26.14Z"/><path class="cls-6" d="M57.47,22.5l-19.33.91a8.31,8.31,0,0,0-8.31,8.31V44.94A8.27,8.27,0,0,0,31,49.15,8.37,8.37,0,0,0,36,53l-.81,6.65a.68.68,0,0,0,1.1.53l9.53-6.9,11.65.61a8.3,8.3,0,0,0,8.31-8.31V30.82A8.31,8.31,0,0,0,57.47,22.5Z"/><g class="cls-7"><path class="cls-8" d="M77.59,26.14h0a1.35,1.35,0,0,0-1.79-.55l-7.73,4.54a1,1,0,0,0-.56.91V44.48a1,1,0,0,0,.25.67l.11.11a1.1,1.1,0,0,0,.26.15l7.76,3.22a1.35,1.35,0,0,0,1.87-1.24V26.79A1.29,1.29,0,0,0,77.59,26.14Z"/><path class="cls-9" d="M57.47,22.5l-19.33.91a8.31,8.31,0,0,0-8.31,8.31V44.94A8.27,8.27,0,0,0,31,49.15,8.37,8.37,0,0,0,36,53l-.81,6.65a.68.68,0,0,0,1.1.53l9.53-6.9,11.65.61a8.3,8.3,0,0,0,8.31-8.31V30.82A8.31,8.31,0,0,0,57.47,22.5Z"/></g><path class="cls-6" d="M65.78,30.81v11.7a28,28,0,0,1-11.9,2.64h-5.8A27.93,27.93,0,0,1,29.83,38.4V31.72a8.31,8.31,0,0,1,8.31-8.31l19.33-.91A8.31,8.31,0,0,1,65.78,30.81Z"/><path class="cls-6" d="M77.76,26.79v5.07a28,28,0,0,1-4,5.06,28.45,28.45,0,0,1-6.23,4.71V31a1,1,0,0,1,.56-.91l7.73-4.54A1.35,1.35,0,0,1,77.76,26.79Z"/><path class="cls-10" d="M39,33.49l4,4.44L47,33a.82.82,0,0,1,.6-.27h.86a.77.77,0,0,1,.84.75V44.85c0,.56-.45.71-1,.71h-.87c-.56,0-1-.15-1-.71V38.09L43,41.37,39.6,38.45v5.71a1,1,0,0,1-1.05,1h-.87a.93.93,0,0,1-1-1V34.06a.83.83,0,0,1,.83-.83h.88A.81.81,0,0,1,39,33.49Z"/><path class="cls-10" d="M55.18,32.65c3.65,0,6.16,2.7,6.16,6.6s-2.52,6.51-6.16,6.51H51.72a1.42,1.42,0,0,1-1.42-1.5v-10a1.56,1.56,0,0,1,1.4-1.65Zm3.21,6.62c0-2.28-1.22-3.66-3.55-3.66H53.2V42.9h1.64C57.17,42.9,58.39,41.56,58.39,39.27Z"/></g></g></g></svg>