<svg width="20" height="20" viewBox="0 0 20 20" fill="none" xmlns="http://www.w3.org/2000/svg">
<g opacity="0.7">
<circle opacity="0.7" cx="10" cy="10" r="10" fill="#373737" fill-opacity="0.9"/>
<path d="M9.99998 6C7.75594 6 5.64393 6.82149 4.05294 8.31312C3.98235 8.37933 3.98235 8.48666 4.05297 8.55284L5.24666 9.67192C5.28058 9.70372 5.32654 9.72159 5.37449 9.72159C5.42244 9.72159 5.46844 9.70372 5.50232 9.67192C6.70567 8.54376 8.30296 7.9224 9.99998 7.9224C11.6971 7.9224 13.2944 8.54376 14.4976 9.67192C14.5315 9.70372 14.5775 9.72159 14.6255 9.72159C14.6734 9.72159 14.7194 9.70372 14.7533 9.67192L15.947 8.55284C15.9809 8.52104 16 8.47795 16 8.43296C16 8.38798 15.981 8.34489 15.947 8.31309C14.356 6.82152 12.244 6 9.99998 6Z" fill="#E1E5DB"/>
<path d="M9.99964 8.96899C8.60015 8.96899 7.28297 9.48126 6.29077 10.4115C6.25681 10.4433 6.23779 10.4864 6.23779 10.5314C6.23779 10.5764 6.25678 10.6195 6.29077 10.6513L7.48446 11.7704C7.51838 11.8022 7.56434 11.82 7.61229 11.82C7.66024 11.82 7.70624 11.8022 7.74012 11.7704C8.34471 11.2036 9.14713 10.8914 9.99964 10.8914C10.8521 10.8914 11.6546 11.2036 12.2592 11.7704C12.2931 11.8022 12.3391 11.82 12.387 11.82C12.4349 11.82 12.4809 11.8022 12.5148 11.7704L13.7085 10.6513C13.7791 10.585 13.7791 10.4777 13.7085 10.4116C12.7163 9.48126 11.3992 8.96899 9.99964 8.96899Z" fill="#EAC02C"/>
<path d="M9.99977 12.1147C9.51083 12.1147 9.05129 12.2932 8.70577 12.6172C8.63518 12.6835 8.63518 12.7908 8.7058 12.8569L9.87194 13.9503C9.90586 13.9821 9.95182 13.9999 9.99977 13.9999C10.0477 13.9999 10.0938 13.9821 10.1276 13.9503L11.2937 12.8569C11.3643 12.7907 11.3643 12.6834 11.2937 12.6172C10.9482 12.2932 10.4886 12.1147 9.99977 12.1147Z" fill="#EAC02C"/>
</g>
</svg>
