<?xml version="1.0"?>
<svg xmlns="http://www.w3.org/2000/svg" xmlns:xlink="http://www.w3.org/1999/xlink" version="1.1" id="Capa_1" x="0px" y="0px" viewBox="0 0 60 60" style="enable-background:new 0 0 60 60;" xml:space="preserve" width="512px" height="512px" class=""><g><circle style="fill:#FDE000" cx="30" cy="29" r="29" data-original="#3083C9" class="" data-old_color="#3083C9"/><path style="fill:#016DD0" d="M30,60C13.458,60,0,46.542,0,30c0-7.993,3.107-15.514,8.749-21.176  c0.779-0.785,2.047-0.785,2.828-0.006c0.783,0.78,0.785,2.046,0.006,2.828C6.693,16.555,4,23.072,4,30c0,14.337,11.663,26,26,26  s26-11.663,26-26C56,16.337,45.405,5.101,32,4.076v10.757c0,1.104-0.896,2-2,2s-2-0.896-2-2V2c0-1.104,0.896-2,2-2  c16.542,0,30,13.458,30,30S46.542,60,30,60z" data-original="#A1C8EC" class="active-path" data-old_color="#A1C8EC"/><path style="fill:#016DD0" d="M20,20.121L20,20.121l12.944,9.363c1.274,0.926,1.419,2.772,0.305,3.886l0,0  c-1.114,1.114-2.959,0.969-3.886-0.305L20,20.121z" data-original="#A1C8EC" class="active-path" data-old_color="#A1C8EC"/></g> </svg>
