<svg width="512" height="512" viewBox="0 0 512 512" fill="none" xmlns="http://www.w3.org/2000/svg">
<path d="M512 256C512 397.387 397.387 512 256 512C114.613 512 0 397.387 0 256C0 114.613 114.613 0 256 0C397.387 0 512 114.613 512 256Z" fill="#5A54E0"/>
<path d="M512 256C512 252.621 511.914 249.262 511.785 245.914L403 137.129L126.051 393.309L244.473 511.73C248.297 511.898 252.137 512 256 512C397.387 512 512 397.387 512 256Z" fill="#3A41CC"/>
<path d="M445.055 256C445.055 360.414 360.414 445.055 256 445.055C151.586 445.055 66.9453 360.414 66.9453 256C66.9453 151.586 151.586 66.9453 256 66.9453C360.414 66.9453 445.055 151.586 445.055 256Z" fill="white"/>
<path d="M256 66.9453C255.922 66.9453 255.844 66.9492 256 66.9492V445.051C255.844 445.051 255.922 445.055 256 445.055C360.41 445.055 445.055 360.41 445.055 256C445.055 151.59 360.41 66.9453 256 66.9453Z" fill="#E9EDF5"/>
<path d="M256 141.246V93.5156C213.195 93.5156 174.266 110.078 145.242 137.129L177.688 172.129C198.195 152.973 225.727 141.246 256 141.246Z" fill="#FFDA00"/>
<path d="M256 93.5156C234.906 93.5156 214.754 97.5469 196.262 104.863L209.621 151.016C223.805 144.738 239.492 141.246 256 141.246V93.5156Z" fill="#FFC200"/>
<path d="M177.688 172.129L145.242 137.129C113.422 166.789 93.5156 209.066 93.5156 256H141.246C141.246 222.898 155.266 193.074 177.688 172.129Z" fill="#95E8C8"/>
<path d="M177.688 172.129L145.242 137.129C130.312 151.047 118.004 167.742 109.145 186.395L149.316 213.676C155.633 197.773 165.395 183.613 177.688 172.129Z" fill="#82D9B6"/>
<path d="M141.246 256H93.5156C93.5156 302.113 112.73 343.738 143.586 373.312L176.801 339.043C154.895 318.145 141.246 288.668 141.246 256Z" fill="#06CCAB"/>
<path d="M141.246 256H93.5156C93.5156 280.418 98.9062 303.578 108.555 324.355L147.434 293.254C143.426 281.57 141.246 269.039 141.246 256Z" fill="#00BD9D"/>
<path d="M370.754 256C370.754 289.398 356.48 319.461 333.707 340.434L366.152 375.434C398.324 345.746 418.484 303.23 418.484 256H370.754Z" fill="#F24500"/>
<path d="M363.336 296.652C356.949 313.496 346.719 328.449 333.707 340.434L366.152 375.434C381.066 361.672 393.391 345.152 402.328 326.688L363.336 296.652Z" fill="#D13400"/>
<path d="M256 93.5156V141.246C287.375 141.246 315.805 153.84 336.52 174.246L369.734 139.977C340.426 111.242 300.285 93.5156 256 93.5156Z" fill="#FFA426"/>
<path d="M369.734 139.973C353.562 124.121 334.09 111.629 312.449 103.605L301 150.414C314.32 156.102 326.352 164.23 336.52 174.246L369.734 139.973Z" fill="#FF9500"/>
<path d="M369.734 139.973L336.52 174.246C357.648 195.059 370.754 223.996 370.754 256H418.484C418.484 210.547 399.812 169.465 369.734 139.973Z" fill="#FE6A16"/>
<path d="M418.484 256C418.484 230.934 412.797 207.199 402.656 186L361.922 211.801C367.609 225.402 370.754 240.332 370.754 256H418.484Z" fill="#FA5D0F"/>
<path d="M241.34 242.556C258.418 234.156 278.958 243.117 284.41 261.352C289.865 279.591 277.623 298.357 258.733 300.713L108.992 313.833L241.34 242.556Z" fill="#333940"/>
<path d="M260.112 299.385C278.873 297.048 291.067 278.523 285.891 260.403L110.371 312.505L260.112 299.385Z" fill="#333940"/>
<path d="M286.021 260.326C285.985 260.202 285.957 260.075 285.919 259.948C280.466 241.712 259.927 232.752 242.849 241.151L110.504 312.431L286.021 260.326Z" fill="#23272B"/>
<path d="M185.344 357.43H326.656V413H185.344V357.43Z" fill="#555A66"/>
<path d="M256 357.43H326.656V413H256V357.43Z" fill="#414952"/>
</svg>
