<svg width="20" height="20" viewBox="0 0 20 20" fill="none" xmlns="http://www.w3.org/2000/svg">
<path fill-rule="evenodd" clip-rule="evenodd" d="M9.16671 4.16667C6.86552 4.16667 5.00004 6.03215 5.00004 8.33333V9.16667V15H2.50004C1.57957 15 0.833374 14.2538 0.833374 13.3333V10C0.833374 9.07952 1.57957 8.33333 2.50004 8.33333H3.33337C3.33337 5.11167 5.94505 2.5 9.16671 2.5H10.8334C14.055 2.5 16.6667 5.11167 16.6667 8.33333L17.5 8.33333C18.4205 8.33333 19.1667 9.07952 19.1667 10V13.3333C19.1667 14.2538 18.4205 15 17.5 15H16.5617C16.1917 16.4377 14.8866 17.5 13.3334 17.5H12.2771C11.9889 17.9982 11.4503 18.3333 10.8334 18.3333C9.9129 18.3333 9.16671 17.5871 9.16671 16.6667C9.16671 15.7462 9.9129 15 10.8334 15C11.4503 15 11.9889 15.3352 12.2771 15.8333H13.3334C14.2536 15.8333 14.9997 15.0875 15 14.1673C15 14.1671 15 14.1669 15 14.1667L15 9.16667V8.33333C15 6.03215 13.1346 4.16667 10.8334 4.16667H9.16671ZM3.33337 10H2.50004L2.50004 13.3333H3.33337V10ZM16.6667 10H17.5V13.3333H16.6667V10Z" fill="#313942"/>
</svg>
