<svg width="12" height="12" viewBox="0 0 12 12" fill="none" xmlns="http://www.w3.org/2000/svg">
<path fill-rule="evenodd" clip-rule="evenodd" d="M1.5 3C1.36739 3 1.24021 3.05268 1.14645 3.14645C1.05268 3.24021 1 3.36739 1 3.5V8.5C1 8.63261 1.05268 8.75978 1.14645 8.85355C1.24022 8.94732 1.36739 9 1.5 9H7C7.13261 9 7.25978 8.94732 7.35355 8.85355C7.44732 8.75978 7.5 8.63261 7.5 8.5V8.20711L2.29289 3H1.5ZM0.43934 2.43934C0.720644 2.15804 1.10218 2 1.5 2H2.5C2.63261 2 2.75979 2.05268 2.85355 2.14645L8.35355 7.64645C8.44732 7.74021 8.5 7.86739 8.5 8V8.5C8.5 8.89783 8.34196 9.27936 8.06066 9.56066C7.77936 9.84196 7.39783 10 7 10H1.5C1.10217 10 0.720644 9.84196 0.43934 9.56066C0.158035 9.27936 1.49012e-08 8.89783 1.49012e-08 8.5V3.5C1.49012e-08 3.10218 0.158035 2.72064 0.43934 2.43934ZM7 3H5.33C5.05386 3 4.83 2.77614 4.83 2.5C4.83 2.22386 5.05386 2 5.33 2H7C7.39782 2 7.77936 2.15804 8.06066 2.43934C8.34196 2.72064 8.5 3.10217 8.5 3.5V4.96289L8.55223 5.01513L11.207 3.09487C11.3591 2.98479 11.5602 2.96929 11.7275 3.05474C11.8947 3.14018 12 3.31217 12 3.5V8.5C12 8.77614 11.7761 9 11.5 9C11.2239 9 11 8.77614 11 8.5V4.47876L8.79304 6.07513C8.59409 6.21904 8.32008 6.19718 8.14645 6.02355L7.64645 5.52355C7.55268 5.42979 7.5 5.30261 7.5 5.17V3.5C7.5 3.36739 7.44732 3.24022 7.35355 3.14645C7.25979 3.05268 7.13261 3 7 3Z" fill="#F5483F"/>
<path fill-rule="evenodd" clip-rule="evenodd" d="M0.146447 0.146447C0.341709 -0.0488155 0.658291 -0.0488155 0.853553 0.146447L11.8536 11.1464C12.0488 11.3417 12.0488 11.6583 11.8536 11.8536C11.6583 12.0488 11.3417 12.0488 11.1464 11.8536L0.146447 0.853553C-0.0488155 0.658291 -0.0488155 0.341709 0.146447 0.146447Z" fill="#F5483F"/>
</svg>
