<svg width="12" height="8" viewBox="0 0 12 8" fill="none" xmlns="http://www.w3.org/2000/svg">
<path fill-rule="evenodd" clip-rule="evenodd" d="M11.7288 1.05542C11.8953 1.14112 12 1.31271 12 1.5V6.5C12 6.68729 11.8953 6.85888 11.7288 6.94458C11.5623 7.03029 11.3618 7.01573 11.2094 6.90687L7.70938 4.40687C7.57798 4.31301 7.5 4.16148 7.5 4C7.5 3.83852 7.57798 3.68699 7.70938 3.59313L11.2094 1.09313C11.3618 0.984271 11.5623 0.969714 11.7288 1.05542ZM8.86023 4L11 5.52841V2.47159L8.86023 4Z" fill="#5D9C5A"/>
<path fill-rule="evenodd" clip-rule="evenodd" d="M1.5 1C1.22386 1 1 1.22386 1 1.5V6.5C1 6.77614 1.22386 7 1.5 7H7C7.27614 7 7.5 6.77614 7.5 6.5V1.5C7.5 1.22386 7.27614 1 7 1H1.5ZM0 1.5C0 0.671573 0.671573 0 1.5 0H7C7.82843 0 8.5 0.671573 8.5 1.5V6.5C8.5 7.32843 7.82843 8 7 8H1.5C0.671573 8 0 7.32843 0 6.5V1.5Z" fill="#5D9C5A"/>
</svg>
