<svg width="10" height="10" viewBox="0 0 10 10" fill="none" xmlns="http://www.w3.org/2000/svg">
<path fill-rule="evenodd" clip-rule="evenodd" d="M1.5 1C1.36739 1 1.24021 1.05268 1.14645 1.14645C1.05268 1.24021 1 1.36739 1 1.5V8.29289L2.14645 7.14645C2.24021 7.05268 2.36739 7 2.5 7H8.5C8.63261 7 8.75978 6.94732 8.85355 6.85355C8.94732 6.75978 9 6.63261 9 6.5V1.5C9 1.36739 8.94732 1.24021 8.85355 1.14645C8.75978 1.05268 8.63261 1 8.5 1H1.5ZM0.43934 0.43934C0.720644 0.158035 1.10218 0 1.5 0H8.5C8.89783 0 9.27936 0.158035 9.56066 0.43934C9.84196 0.720644 10 1.10217 10 1.5V6.5C10 6.89783 9.84196 7.27936 9.56066 7.56066C9.27936 7.84196 8.89783 8 8.5 8H2.70711L0.853553 9.85355C0.710554 9.99655 0.495495 10.0393 0.308658 9.96194C0.121821 9.88455 0 9.70223 0 9.5V1.5C0 1.10218 0.158035 0.720644 0.43934 0.43934Z" fill="#313942"/>
</svg>
