<svg width="20" height="20" viewBox="0 0 20 20" fill="none" xmlns="http://www.w3.org/2000/svg">
<path fill-rule="evenodd" clip-rule="evenodd" d="M3.33329 4.16667C3.11228 4.16667 2.90032 4.25446 2.74404 4.41074C2.58776 4.56702 2.49996 4.77899 2.49996 5V6.66667C2.49996 7.1269 2.12686 7.5 1.66663 7.5C1.20639 7.5 0.833294 7.1269 0.833294 6.66667V5C0.833294 4.33696 1.09669 3.70107 1.56553 3.23223C2.03437 2.76339 2.67025 2.5 3.33329 2.5H16.6666C17.3297 2.5 17.9656 2.76339 18.4344 3.23223C18.9032 3.70107 19.1666 4.33696 19.1666 5V15C19.1666 15.663 18.9032 16.2989 18.4344 16.7678C17.9656 17.2366 17.3297 17.5 16.6666 17.5H11.6666C11.2064 17.5 10.8333 17.1269 10.8333 16.6667C10.8333 16.2064 11.2064 15.8333 11.6666 15.8333H16.6666C16.8876 15.8333 17.0996 15.7455 17.2559 15.5893C17.4122 15.433 17.5 15.221 17.5 15V5C17.5 4.77899 17.4122 4.56702 17.2559 4.41074C17.0996 4.25446 16.8876 4.16667 16.6666 4.16667H3.33329ZM0.838401 9.94955C0.889275 9.49214 1.30133 9.16257 1.75874 9.21344C3.6391 9.42257 5.39233 10.2653 6.73014 11.6031C8.06796 12.941 8.91072 14.6942 9.11985 16.5746C9.17073 17.032 8.84116 17.444 8.38374 17.4949C7.92633 17.5458 7.51428 17.2162 7.4634 16.7588C7.29609 15.2545 6.62189 13.8519 5.55163 12.7817C4.48138 11.7114 3.0788 11.0372 1.57451 10.8699C1.11709 10.819 0.787527 10.407 0.838401 9.94955ZM0.850102 13.2501C0.942071 12.7992 1.3822 12.5082 1.83315 12.6001C2.79404 12.7961 3.67609 13.2703 4.36953 13.9638C5.06297 14.6572 5.53718 15.5393 5.73315 16.5001C5.82512 16.9511 5.53411 17.3912 5.08315 17.4832C4.6322 17.5752 4.19207 17.2841 4.1001 16.8332C3.96946 16.1926 3.65332 15.6046 3.19102 15.1423C2.72873 14.68 2.1407 14.3638 1.5001 14.2332C1.04915 14.1412 0.758132 13.7011 0.850102 13.2501Z" fill="#313942"/>
</svg>
