<svg width="20" height="20" viewBox="0 0 20 20" fill="none" xmlns="http://www.w3.org/2000/svg">
<path d="M8.3756 18.162C13.7911 18.162 11.513 18.162 17.0877 18.162V5.69382H15.7532V3.85614H17.4264C18.2346 3.85614 18.8918 4.51326 18.8918 5.32111V18.5347C18.8918 19.3438 18.236 20 17.4268 20C15.4251 20 11.6683 20 8.03646 20C7.22729 20 6.57149 19.3441 6.57149 18.5347C6.57149 18.3973 6.57149 18.2736 6.57149 18.1438H8.37564V18.162H8.3756Z" fill="#313942"/>
<path d="M1.68514 2.74456L4.17766 0.251597C4.34046 0.0888723 4.55692 0 4.78603 0H12.2879C13.0961 0 13.7533 0.657165 13.7533 1.46533V14.6786C13.7533 15.4878 13.0974 16.144 12.2879 16.144C10.2865 16.144 6.5297 16.144 2.8979 16.144C2.08878 16.144 1.4329 15.4881 1.4329 14.6786C1.4329 6.17909 1.4329 12.0711 1.4329 3.35289C1.4329 3.1231 1.52233 2.90692 1.68514 2.74456ZM3.23705 14.3062C8.65288 14.3062 6.37444 14.3062 11.9494 14.3062V1.83805H5.89113V3.44988C5.89113 4.02435 5.42404 4.49177 4.84956 4.49177H3.23705V14.3062Z" fill="#313942"/>
</svg>
