<svg width="38" height="38" viewBox="0 0 38 38" fill="none" xmlns="http://www.w3.org/2000/svg">
<g clip-path="url(#clip0)">
<path d="M30.8242 18.4285L31.0868 18L30.8242 17.5713C30.7802 17.4997 29.7241 15.795 27.6722 14.0866C24.9432 11.8148 21.7281 10.6138 18.3745 10.6138C15.0217 10.6138 11.7987 11.8141 9.05411 14.0849C6.99051 15.7924 5.92239 17.4958 5.87796 17.5676L5.60986 18L5.87796 18.4324C5.92239 18.5042 6.99051 20.2076 9.05411 21.9151C11.7987 24.1859 15.0217 25.3862 18.3745 25.3862C21.7281 25.3862 24.9432 24.1852 27.6722 21.9134C29.7241 20.205 30.7802 18.5003 30.8242 18.4285ZM26.5789 20.6884C24.1239 22.717 21.3635 23.7454 18.3745 23.7454C15.3844 23.7454 12.615 22.7164 10.1434 20.6865C8.86505 19.6368 7.99838 18.5738 7.57391 18C7.9986 17.4258 8.86526 16.363 10.1434 15.3133C12.615 13.2836 15.3842 12.2544 18.3745 12.2544C21.3635 12.2544 24.1237 13.283 26.5789 15.3113C27.8514 16.3628 28.7106 17.4273 29.1293 18C28.7102 18.5729 27.8512 19.6374 26.5789 20.6884Z" fill="#f5483f"/>
<path d="M18.35 13.0709C15.6321 13.0709 13.4209 15.2821 13.4209 18C13.4209 20.7179 15.6321 22.9291 18.35 22.9291C21.068 22.9291 23.2792 20.7179 23.2792 18C23.2792 15.2821 21.068 13.0709 18.35 13.0709ZM18.35 21.2885C16.5368 21.2885 15.0615 19.8132 15.0615 18C15.0615 16.1868 16.5368 14.7115 18.35 14.7115C20.1633 14.7115 21.6385 16.1868 21.6385 18C21.6385 19.8132 20.1633 21.2885 18.35 21.2885Z" fill="#f5483f"/>
<path d="M5.99072 5.64062H9.41553V4H4.3501V9.00391H5.99072V5.64062Z" fill="#f5483f"/>
<path d="M27.2847 4V5.64062H30.7095V9.00391H32.3501V4H27.2847Z" fill="#f5483f"/>
<path d="M5.99072 26.9961H4.3501V32H9.41553V30.3594H5.99072V26.9961Z" fill="#f5483f"/>
<path d="M30.7095 30.3594H27.2847V32H32.3501V26.9961H30.7095V30.3594Z" fill="#f5483f"/>
</g>
<line x1="36.8804" y1="0.53033" x2="0.530146" y2="36.8806" stroke="#f5483f" stroke-width="1.5"/>
<defs>
<clipPath id="clip0">
<rect width="28" height="28" fill="white" transform="translate(4.3501 4)"/>
</clipPath>
</defs>
</svg>
