<svg width="20" height="18" viewBox="0 0 20 18" fill="none" xmlns="http://www.w3.org/2000/svg">
<path fill-rule="evenodd" clip-rule="evenodd" d="M1.22039 11.8871C2.00179 11.1057 3.0616 10.6667 4.16667 10.6667H10C11.1051 10.6667 12.1649 11.1057 12.9463 11.8871C13.7277 12.6685 14.1667 13.7283 14.1667 14.8334V16.5C14.1667 16.9603 13.7936 17.3334 13.3333 17.3334C12.8731 17.3334 12.5 16.9603 12.5 16.5V14.8334C12.5 14.1703 12.2366 13.5344 11.7678 13.0656C11.2989 12.5967 10.663 12.3334 10 12.3334H4.16667C3.50363 12.3334 2.86774 12.5967 2.3989 13.0656C1.93006 13.5344 1.66667 14.1703 1.66667 14.8334V16.5C1.66667 16.9603 1.29357 17.3334 0.833333 17.3334C0.373096 17.3334 0 16.9603 0 16.5V14.8334C0 13.7283 0.438987 12.6685 1.22039 11.8871Z" fill="#313942"/>
<path fill-rule="evenodd" clip-rule="evenodd" d="M7.08333 2.33335C5.70262 2.33335 4.58333 3.45264 4.58333 4.83335C4.58333 6.21407 5.70262 7.33335 7.08333 7.33335C8.46404 7.33335 9.58333 6.21407 9.58333 4.83335C9.58333 3.45264 8.46404 2.33335 7.08333 2.33335ZM2.91667 4.83335C2.91667 2.53217 4.78215 0.666687 7.08333 0.666687C9.38452 0.666687 11.25 2.53217 11.25 4.83335C11.25 7.13454 9.38452 9.00002 7.08333 9.00002C4.78215 9.00002 2.91667 7.13454 2.91667 4.83335Z" fill="#313942"/>
<path fill-rule="evenodd" clip-rule="evenodd" d="M16.6667 4.83335C17.1269 4.83335 17.5 5.20645 17.5 5.66669V10.6667C17.5 11.1269 17.1269 11.5 16.6667 11.5C16.2064 11.5 15.8333 11.1269 15.8333 10.6667V5.66669C15.8333 5.20645 16.2064 4.83335 16.6667 4.83335Z" fill="#313942"/>
<path fill-rule="evenodd" clip-rule="evenodd" d="M13.3333 8.16669C13.3333 7.70645 13.7064 7.33335 14.1667 7.33335H19.1667C19.6269 7.33335 20 7.70645 20 8.16669C20 8.62692 19.6269 9.00002 19.1667 9.00002H14.1667C13.7064 9.00002 13.3333 8.62692 13.3333 8.16669Z" fill="#313942"/>
</svg>
