<svg width="14" height="14" viewBox="0 0 14 14" fill="none" xmlns="http://www.w3.org/2000/svg">
<path d="M11.4859 5.73116V4.04253C11.52 3.52245 11.4285 3.00196 11.2171 2.51286C11.0056 2.02377 10.6786 1.57635 10.2561 1.19797C9.83365 0.819592 9.32451 0.518198 8.75986 0.312218C8.1952 0.106238 7.58689 0 6.97212 0C6.35735 0 5.74904 0.106238 5.18438 0.312218C4.61972 0.518198 4.11058 0.819592 3.68809 1.19797C3.2656 1.57635 2.93863 2.02377 2.72718 2.51286C2.51573 3.00196 2.42423 3.52245 2.4583 4.04253V5.73116C1.78891 5.79674 1.17048 6.06626 0.718219 6.4895C0.265957 6.91273 0.0107008 7.46083 0 8.0317L0 11.2442C0.00913406 11.8633 0.305815 12.4544 0.825755 12.8894C1.34569 13.3244 2.04701 13.5683 2.77774 13.5683H11.1804C11.9111 13.5683 12.6124 13.3244 13.1324 12.8894C13.6523 12.4544 13.949 11.8633 13.9581 11.2442V8.0317C13.947 7.45903 13.6898 6.90945 13.2347 6.48594C12.7796 6.06244 12.1578 5.79408 11.4859 5.73116ZM6.94434 0.800595C7.95794 0.802154 8.9294 1.1444 9.64548 1.75221C10.3616 2.36002 10.7637 3.18373 10.7637 4.04253V5.70762H3.12495V4.04253C3.12495 3.18373 3.52713 2.36002 4.2432 1.75221C4.95928 1.1444 5.93074 0.802154 6.94434 0.800595ZM13.1942 11.2442C13.1851 11.7072 12.9616 12.1487 12.5719 12.4734C12.1822 12.798 11.6575 12.98 11.1109 12.9799H2.77774C2.23117 12.98 1.70647 12.798 1.31676 12.4734C0.927049 12.1487 0.703543 11.7072 0.694434 11.2442V8.0317C0.703543 7.56867 0.927049 7.12723 1.31676 6.80254C1.70647 6.47785 2.23117 6.29593 2.77774 6.296H11.1804C11.727 6.29593 12.2517 6.47785 12.6414 6.80254C13.0311 7.12723 13.2546 7.56867 13.2637 8.0317L13.1942 11.2442Z" fill="#313942"/>
</svg>
