<svg width="8" height="12" viewBox="0 0 8 12" fill="none" xmlns="http://www.w3.org/2000/svg">
<path fill-rule="evenodd" clip-rule="evenodd" d="M2.58579 0.585786C2.96086 0.210714 3.46957 0 4 0C4.53043 0 5.03914 0.210714 5.41421 0.585786C5.78929 0.960859 6 1.46957 6 2V6C6 6.53043 5.78929 7.03914 5.41421 7.41421C5.03914 7.78929 4.53043 8 4 8C3.46957 8 2.96086 7.78929 2.58579 7.41421C2.21071 7.03914 2 6.53043 2 6V2C2 1.46957 2.21071 0.960859 2.58579 0.585786ZM4 1C3.73478 1 3.48043 1.10536 3.29289 1.29289C3.10536 1.48043 3 1.73478 3 2V6C3 6.26522 3.10536 6.51957 3.29289 6.70711C3.48043 6.89464 3.73478 7 4 7C4.26522 7 4.51957 6.89464 4.70711 6.70711C4.89464 6.51957 5 6.26522 5 6V2C5 1.73478 4.89464 1.48043 4.70711 1.29289C4.51957 1.10536 4.26522 1 4 1Z" fill="#fff"/>
<path fill-rule="evenodd" clip-rule="evenodd" d="M0.5 4.5C0.776142 4.5 1 4.72386 1 5V6C1 6.79565 1.31607 7.55871 1.87868 8.12132C2.44129 8.68393 3.20435 9 4 9C4.79565 9 5.55871 8.68393 6.12132 8.12132C6.68393 7.55871 7 6.79565 7 6V5C7 4.72386 7.22386 4.5 7.5 4.5C7.77614 4.5 8 4.72386 8 5V6C8 7.06087 7.57857 8.07828 6.82843 8.82843C6.07828 9.57857 5.06087 10 4 10C2.93913 10 1.92172 9.57857 1.17157 8.82843C0.421427 8.07828 2.98023e-08 7.06087 0 6V5C0 4.72386 0.223858 4.5 0.5 4.5Z" fill="#fff"/>
<path fill-rule="evenodd" clip-rule="evenodd" d="M4 9C4.27614 9 4.5 9.22386 4.5 9.5V11.5C4.5 11.7761 4.27614 12 4 12C3.72386 12 3.5 11.7761 3.5 11.5V9.5C3.5 9.22386 3.72386 9 4 9Z" fill="#fff"/>
<path fill-rule="evenodd" clip-rule="evenodd" d="M1.5 11.5C1.5 11.2239 1.72386 11 2 11H6C6.27614 11 6.5 11.2239 6.5 11.5C6.5 11.7761 6.27614 12 6 12H2C1.72386 12 1.5 11.7761 1.5 11.5Z" fill="#fff"/>
</svg>
