<svg width="14" height="14" viewBox="0 0 14 14" fill="none" xmlns="http://www.w3.org/2000/svg">
<path fill-rule="evenodd" clip-rule="evenodd" d="M5.61611 0.454639C6.082 0.111491 6.65878 -0.0463287 7.2345 0.011817C7.81021 0.0699627 8.34378 0.339926 8.73162 0.769298C9.11934 1.19852 9.33377 1.75644 9.33333 2.3348M9.33333 2.33539L9.33333 5.44941C9.33333 5.77154 9.07217 6.03267 8.75 6.03267C8.42783 6.03267 8.16667 5.77154 8.16667 5.44941L8.16667 2.33422C8.16696 2.04493 8.05973 1.76586 7.86581 1.55117C7.67189 1.33649 7.40511 1.2015 7.11725 1.17243C6.82939 1.14336 6.541 1.22227 6.30806 1.39384C6.07511 1.56542 5.91424 1.81741 5.85667 2.10091C5.79256 2.4166 5.48464 2.62054 5.16892 2.55644C4.8532 2.49234 4.64922 2.18446 4.71333 1.86878C4.82848 1.30178 5.15023 0.797787 5.61611 0.454639M0.170854 0.172597C0.39866 -0.0551805 0.768006 -0.0551805 0.995812 0.172597L10.2055 9.3811C10.248 9.40539 10.2882 9.43548 10.3249 9.47139C10.3645 9.51023 10.3975 9.55334 10.4237 9.59927L13.8291 13.0043C14.057 13.2321 14.057 13.6014 13.8291 13.8292C13.6013 14.0569 13.232 14.0569 13.0042 13.8292L9.87753 10.7029C9.20869 11.2238 8.41097 11.5472 7.58333 11.653V12.8335H9.33333C9.6555 12.8335 9.91667 13.0946 9.91667 13.4167C9.91667 13.7389 9.6555 14 9.33333 14H4.66667C4.3445 14 4.08333 13.7389 4.08333 13.4167C4.08333 13.0946 4.3445 12.8335 4.66667 12.8335H6.41667V11.6569C6.01023 11.6074 5.60764 11.504 5.22035 11.3443C3.47879 10.626 2.32046 8.88232 2.33333 6.99882V5.83436C2.33333 5.51224 2.5945 5.2511 2.91667 5.2511C3.23883 5.2511 3.5 5.51224 3.5 5.83436V7.00515C3.48969 8.41397 4.36267 9.72864 5.66523 10.2659C6.04374 10.422 6.44281 10.506 6.84273 10.5219C6.89276 10.5079 6.94551 10.5004 7 10.5004C7.05285 10.5004 7.10406 10.5075 7.15275 10.5206C7.82701 10.4885 8.48913 10.2649 9.04399 9.86947L8.18408 9.00966C7.95946 9.14193 7.71305 9.23634 7.45465 9.28767C7.00229 9.37752 6.53346 9.33132 6.10735 9.15491C5.68124 8.97849 5.31698 8.67978 5.06056 8.29649C4.80414 7.9132 4.66707 7.46253 4.66667 7.0014L4.66667 5.4927L0.170854 0.997451C-0.0569515 0.769674 -0.0569515 0.400374 0.170854 0.172597ZM5.83333 6.65922V7.00037C5.83354 7.23094 5.90207 7.45627 6.03028 7.64792C6.15849 7.83956 6.34062 7.98892 6.55367 8.07712C6.76673 8.16533 7.00115 8.18843 7.22732 8.14351C7.25203 8.1386 7.27651 8.1329 7.30074 8.12644L5.83333 6.65922ZM11.0833 5.2511C11.4055 5.2511 11.6667 5.51224 11.6667 5.83436C11.6667 5.95519 11.6689 6.08379 11.6713 6.218C11.68 6.71204 11.6901 7.2822 11.5933 7.82129C11.5364 8.13835 11.2333 8.34927 10.9162 8.29239C10.5991 8.2355 10.3881 7.93236 10.445 7.6153C10.5196 7.19951 10.5128 6.7845 10.5051 6.31148C10.5026 6.15912 10.5 6.00073 10.5 5.83436C10.5 5.51224 10.7612 5.2511 11.0833 5.2511Z" fill="#F5483F"/>
</svg>
