<svg width="20" height="20" viewBox="0 0 20 20" fill="none" xmlns="http://www.w3.org/2000/svg">
<path fill-rule="evenodd" clip-rule="evenodd" d="M3.33337 4.16667C3.11236 4.16667 2.9004 4.25446 2.74412 4.41074C2.58784 4.56702 2.50004 4.77899 2.50004 5V16.6667C2.50004 16.8877 2.58784 17.0996 2.74412 17.2559C2.9004 17.4122 3.11236 17.5 3.33337 17.5H15C15.2211 17.5 15.433 17.4122 15.5893 17.2559C15.7456 17.0996 15.8334 16.8877 15.8334 16.6667V12.2167C15.8334 11.7564 16.2065 11.3833 16.6667 11.3833C17.1269 11.3833 17.5 11.7564 17.5 12.2167V16.6667C17.5 17.3297 17.2366 17.9656 16.7678 18.4344C16.299 18.9033 15.6631 19.1667 15 19.1667H3.33337C2.67033 19.1667 2.03445 18.9033 1.56561 18.4344C1.09677 17.9656 0.833374 17.3297 0.833374 16.6667V5C0.833374 4.33696 1.09677 3.70107 1.56561 3.23223C2.03445 2.76339 2.67033 2.5 3.33337 2.5H7.78337C8.24361 2.5 8.61671 2.8731 8.61671 3.33333C8.61671 3.79357 8.24361 4.16667 7.78337 4.16667H3.33337Z" fill="#313942"/>
<path fill-rule="evenodd" clip-rule="evenodd" d="M14.4108 1.07739C14.7362 0.751954 15.2639 0.751954 15.5893 1.07739L18.9226 4.41072C19.2481 4.73616 19.2481 5.2638 18.9226 5.58923L10.5893 13.9226C10.433 14.0788 10.2211 14.1666 10 14.1666H6.66671C6.20647 14.1666 5.83337 13.7936 5.83337 13.3333V9.99998C5.83337 9.77896 5.92117 9.567 6.07745 9.41072L14.4108 1.07739ZM7.50004 10.3452V12.5H9.65486L17.1549 4.99998L15 2.84516L7.50004 10.3452Z" fill="#313942"/>
</svg>
