<svg width="60" height="60" viewBox="0 0 60 60" fill="none" xmlns="http://www.w3.org/2000/svg">
<path d="M15 0C12.9375 0 11.25 1.6875 11.25 3.75V56.25C11.25 58.3125 12.9375 60 15 60H52.5C54.5625 60 56.25 58.3125 56.25 56.25V15L41.25 0H15Z" fill="#E2E5E7"/>
<path d="M45 15H56.25L41.25 0V11.25C41.25 13.3125 42.9375 15 45 15Z" fill="#B0B7BD"/>
<path d="M56.25 26.25L45 15H56.25V26.25Z" fill="#CAD1D8"/>
<path d="M48.75 48.75C48.75 49.7812 47.9062 50.625 46.875 50.625H5.625C4.59375 50.625 3.75 49.7812 3.75 48.75V30C3.75 28.9688 4.59375 28.125 5.625 28.125H46.875C47.9062 28.125 48.75 28.9688 48.75 30V48.75Z" fill="#F15642"/>
<path d="M11.9231 35.5252C11.9231 35.0302 12.3131 34.4902 12.9412 34.4902H16.4043C18.3543 34.4902 20.1093 35.7952 20.1093 38.2965C20.1093 40.6665 18.3543 41.9865 16.4043 41.9865H13.9012V43.9665C13.9012 44.6265 13.4812 44.9996 12.9412 44.9996C12.4462 44.9996 11.9231 44.6265 11.9231 43.9665V35.5252ZM13.9012 36.3784V40.1134H16.4043C17.4093 40.1134 18.2043 39.2265 18.2043 38.2965C18.2043 37.2484 17.4093 36.3784 16.4043 36.3784H13.9012Z" fill="white"/>
<path d="M23.0456 44.9994C22.5506 44.9994 22.0106 44.7294 22.0106 44.0712V35.555C22.0106 35.0169 22.5506 34.625 23.0456 34.625H26.4787C33.33 34.625 33.18 44.9994 26.6137 44.9994H23.0456ZM23.9906 36.455V43.1712H26.4787C30.5269 43.1712 30.7069 36.455 26.4787 36.455H23.9906Z" fill="white"/>
<path d="M35.6099 36.5749V38.958H39.4331C39.9731 38.958 40.5131 39.498 40.5131 40.0212C40.5131 40.5162 39.9731 40.9212 39.4331 40.9212H35.6099V44.0693C35.6099 44.5943 35.2368 44.9974 34.7118 44.9974C34.0518 44.9974 33.6487 44.5943 33.6487 44.0693V35.553C33.6487 35.0149 34.0537 34.623 34.7118 34.623H39.9749C40.6349 34.623 41.0249 35.0149 41.0249 35.553C41.0249 36.033 40.6349 36.573 39.9749 36.573H35.6099V36.5749Z" fill="white"/>
<path d="M46.875 50.625H11.25V52.5H46.875C47.9062 52.5 48.75 51.6562 48.75 50.625V48.75C48.75 49.7812 47.9062 50.625 46.875 50.625Z" fill="#CAD1D8"/>
</svg>
