<svg width="10" height="10" viewBox="0 0 10 10" fill="none" xmlns="http://www.w3.org/2000/svg">
<path fill-rule="evenodd" clip-rule="evenodd" d="M9.86971 2.87731L7.12269 0.130293C6.94897 -0.043431 6.67753 -0.043431 6.50381 0.130293C6.47123 0.162866 5.67861 0.977196 5.98263 2.04126L4.74484 3.27904C4.0608 3.07275 2.31271 2.71445 1.02064 4.00652C0.846914 4.18025 0.846914 4.45168 1.02064 4.62541L2.88817 6.49294L0.130293 9.25083C-0.0434311 9.42455 -0.0434311 9.69599 0.130293 9.86971C0.217155 9.95658 0.325738 10 0.434316 10C0.542893 10 0.651463 9.95658 0.738325 9.86971L3.4962 7.11183L5.36374 8.97938C5.4506 9.06625 5.55917 9.10967 5.66775 9.10967C5.77633 9.10967 5.88491 9.06625 5.97177 8.97938C7.26385 7.68731 6.90554 5.92835 6.69924 5.25516L7.93703 4.01738C8.93349 4.30208 9.70143 3.62505 9.83064 3.51113C9.83941 3.5034 9.84523 3.49827 9.84799 3.4962C10.0434 3.32247 10.0434 3.05104 9.86971 2.87731ZM8.04561 3.11618C7.88274 3.04017 7.6873 3.07275 7.55701 3.20305L5.92834 4.83171C5.80891 4.95114 5.76547 5.14658 5.83062 5.29858C5.83062 5.29858 6.02606 5.78719 6.05863 6.41694C6.0912 7.04669 5.96091 7.57873 5.66775 8.02389L3.82193 6.17807L1.97611 4.33225C3.13789 3.5505 4.63626 4.13682 4.70141 4.16939C4.86427 4.23454 5.04886 4.20196 5.17915 4.07167L6.80782 2.443C6.93811 2.31271 6.97069 2.11727 6.89468 1.9544C6.74268 1.62867 6.79696 1.3355 6.89468 1.10749L8.89252 3.10532C8.6645 3.2139 8.36048 3.26819 8.04561 3.11618ZM5.54564 6.33336V6.34288C5.54755 6.33973 5.54941 6.33656 5.55123 6.33336H5.54564Z" fill="#313942"/>
</svg>
