<svg width="24" height="24" viewBox="0 0 24 24" fill="none" xmlns="http://www.w3.org/2000/svg">
<circle cx="12" cy="12" r="11.85" fill="white" fill-opacity="0.8" stroke="#8D8D8D" stroke-width="0.3"/>
<path fill-rule="evenodd" clip-rule="evenodd" d="M17.8437 9.45277L14.5472 6.15635C14.3388 5.94788 14.013 5.94788 13.8046 6.15635C13.7655 6.19544 12.8143 7.17263 13.1792 8.44951L11.6938 9.93485C10.873 9.6873 8.77525 9.25734 7.22477 10.8078C7.0163 11.0163 7.0163 11.342 7.22477 11.5505L9.4658 13.7915L6.15635 17.101C5.94788 17.3095 5.94788 17.6352 6.15635 17.8437C6.26059 17.9479 6.39089 18 6.52118 18C6.65147 18 6.78176 17.9479 6.88599 17.8437L10.1954 14.5342L12.4365 16.7753C12.5407 16.8795 12.671 16.9316 12.8013 16.9316C12.9316 16.9316 13.0619 16.8795 13.1661 16.7753C14.7166 15.2248 14.2866 13.114 14.0391 12.3062L15.5244 10.8209C16.7202 11.1625 17.6417 10.3501 17.7968 10.2134C17.8073 10.2041 17.8143 10.1979 17.8176 10.1954C18.0521 9.98697 18.0521 9.66124 17.8437 9.45277ZM15.6547 9.73941C15.4593 9.64821 15.2248 9.6873 15.0684 9.84365L13.114 11.7981C12.9707 11.9414 12.9186 12.1759 12.9967 12.3583C12.9967 12.3583 13.2313 12.9446 13.2704 13.7003C13.3094 14.456 13.1531 15.0945 12.8013 15.6287L10.5863 13.4137L8.37134 11.1987C9.76547 10.2606 11.5635 10.9642 11.6417 11.0033C11.8371 11.0814 12.0586 11.0424 12.215 10.886L14.1694 8.9316C14.3257 8.77525 14.3648 8.54072 14.2736 8.34528C14.0912 7.9544 14.1564 7.60261 14.2736 7.32899L16.671 9.72639C16.3974 9.85668 16.0326 9.92182 15.6547 9.73941ZM12.6547 13.6V13.6115C12.657 13.6077 12.6593 13.6039 12.6615 13.6H12.6547Z" fill="#313942"/>
</svg>
