<svg width="17" height="17" viewBox="0 0 17 17" fill="none" xmlns="http://www.w3.org/2000/svg">
<path fill-rule="evenodd" clip-rule="evenodd" d="M15.3333 8.33333C15.3333 12.1993 12.1993 15.3333 8.33333 15.3333C4.46734 15.3333 1.33333 12.1993 1.33333 8.33333C1.33333 4.46734 4.46734 1.33333 8.33333 1.33333C12.1993 1.33333 15.3333 4.46734 15.3333 8.33333ZM16.6667 8.33333C16.6667 12.9357 12.9357 16.6667 8.33333 16.6667C3.73096 16.6667 0 12.9357 0 8.33333C0 3.73096 3.73096 0 8.33333 0C12.9357 0 16.6667 3.73096 16.6667 8.33333ZM11.6667 7.54717H9.12826V5H7.55177V7.54717H5V8.9434H7.55177V11.6667H9.12826V8.9434H11.6667V7.54717Z" fill="#5D9C5A"/>
</svg>
