<svg width="19" height="20" viewBox="0 0 19 20" fill="none" xmlns="http://www.w3.org/2000/svg">
<path d="M18.4068 8.86697C18.2712 8.86697 18.1412 8.91524 18.0453 9.00115C17.9494 9.08706 17.8955 9.20358 17.8955 9.32507V16.8562C17.8744 17.4517 17.596 18.0166 17.1191 18.4319C16.6422 18.8472 16.0041 19.0805 15.339 19.0825H3.66092C2.98182 19.0998 2.32278 18.8752 1.82824 18.4578C1.33369 18.0405 1.04398 17.4645 1.0226 16.8562V9.11435C1.0226 8.99285 0.968734 8.87633 0.872846 8.79042C0.776958 8.70451 0.646907 8.65625 0.511301 8.65625C0.375696 8.65625 0.245644 8.70451 0.149757 8.79042C0.0538691 8.87633 0 8.99285 0 9.11435L0 16.8562C0.0214691 17.7075 0.41895 18.5165 1.10525 19.1056C1.79156 19.6947 2.71065 20.0159 3.66092 19.9987H15.339C16.2893 20.0159 17.2084 19.6947 17.8947 19.1056C18.581 18.5165 18.9785 17.7075 19 16.8562V9.32507C19.0009 9.25822 18.9855 9.19198 18.9549 9.13102C18.9242 9.07006 18.8791 9.01585 18.8225 8.9722C18.766 8.92854 18.6995 8.8965 18.6277 8.87832C18.5559 8.86014 18.4805 8.85627 18.4068 8.86697Z" fill="#5D9C5A"/>
<path d="M5.11302 5.18451L9.00914 1.59303V13.192C9.00914 13.3135 9.063 13.43 9.15889 13.516C9.25478 13.6019 9.38483 13.6501 9.52044 13.6501C9.65604 13.6501 9.78609 13.6019 9.88198 13.516C9.97787 13.43 10.0317 13.3135 10.0317 13.192V1.59303L13.9688 5.18451C14.0663 5.2722 14.1987 5.32163 14.3369 5.32194C14.4032 5.32385 14.4692 5.31344 14.5308 5.29136C14.5924 5.26928 14.6483 5.23602 14.6948 5.19367C14.7427 5.15108 14.7808 5.10042 14.8067 5.04459C14.8327 4.98877 14.846 4.92889 14.846 4.86842C14.846 4.80795 14.8327 4.74807 14.8067 4.69225C14.7808 4.63642 14.7427 4.58576 14.6948 4.54317L9.88857 0.145447C9.83963 0.0937396 9.78076 0.0502987 9.71473 0.0171802C9.62795 -0.00572675 9.53564 -0.00572675 9.44885 0.0171802H9.39772C9.32184 0.0444342 9.25496 0.0885817 9.20343 0.145447L4.34607 4.54317C4.29814 4.58576 4.26011 4.63642 4.23415 4.69225C4.20819 4.74807 4.19482 4.80795 4.19482 4.86842C4.19482 4.92889 4.20819 4.98877 4.23415 5.04459C4.26011 5.10042 4.29814 5.15108 4.34607 5.19367C4.39384 5.24322 4.45314 5.2828 4.51979 5.30965C4.58645 5.33649 4.65885 5.34995 4.73192 5.34908C4.805 5.34821 4.87697 5.33302 4.94281 5.30459C5.00864 5.27617 5.06673 5.23518 5.11302 5.18451Z" fill="#5D9C5A"/>
</svg>
