<svg width="19" height="20" viewBox="0 0 19 20" fill="none" xmlns="http://www.w3.org/2000/svg">
<path d="M18.4068 8.86761C18.2712 8.86761 18.1412 8.91588 18.0453 9.00179C17.9494 9.0877 17.8955 9.20422 17.8955 9.32571V16.8568C17.8744 17.4523 17.596 18.0173 17.1191 18.4326C16.6422 18.8478 16.0041 19.0811 15.339 19.0832H3.66092C2.98182 19.1004 2.32278 18.8758 1.82824 18.4585C1.33369 18.0412 1.04398 17.4652 1.0226 16.8568V9.11499C1.0226 8.99349 0.968734 8.87697 0.872846 8.79106C0.776958 8.70515 0.646907 8.65689 0.511301 8.65689C0.375696 8.65689 0.245644 8.70515 0.149757 8.79106C0.0538691 8.87697 0 8.99349 0 9.11499L0 16.8568C0.0214691 17.7082 0.41895 18.5171 1.10525 19.1062C1.79156 19.6954 2.71065 20.0166 3.66092 19.9994H15.339C16.2893 20.0166 17.2084 19.6954 17.8947 19.1062C18.581 18.5171 18.9785 17.7082 19 16.8568V9.32571C19.0009 9.25886 18.9855 9.19262 18.9549 9.13166C18.9242 9.0707 18.8791 9.01649 18.8225 8.97284C18.766 8.92918 18.6995 8.89714 18.6277 8.87896C18.5559 8.86078 18.4805 8.85691 18.4068 8.86761Z" fill="#FFFFFF"/>
<path d="M5.11302 5.18451L9.00914 1.59303V13.192C9.00914 13.3135 9.063 13.43 9.15889 13.516C9.25478 13.6019 9.38483 13.6501 9.52044 13.6501C9.65604 13.6501 9.78609 13.6019 9.88198 13.516C9.97787 13.43 10.0317 13.3135 10.0317 13.192V1.59303L13.9688 5.18451C14.0663 5.2722 14.1987 5.32163 14.3369 5.32194C14.4032 5.32385 14.4692 5.31344 14.5308 5.29136C14.5924 5.26928 14.6483 5.23602 14.6948 5.19367C14.7427 5.15108 14.7808 5.10042 14.8067 5.04459C14.8327 4.98877 14.846 4.92889 14.846 4.86842C14.846 4.80795 14.8327 4.74807 14.8067 4.69225C14.7808 4.63642 14.7427 4.58576 14.6948 4.54317L9.88857 0.145447C9.83963 0.0937396 9.78076 0.0502987 9.71473 0.0171802C9.62795 -0.00572675 9.53564 -0.00572675 9.44885 0.0171802H9.39772C9.32184 0.0444342 9.25496 0.0885817 9.20343 0.145447L4.34607 4.54317C4.29814 4.58576 4.26011 4.63642 4.23415 4.69225C4.20819 4.74807 4.19482 4.80795 4.19482 4.86842C4.19482 4.92889 4.20819 4.98877 4.23415 5.04459C4.26011 5.10042 4.29814 5.15108 4.34607 5.19367C4.39384 5.24322 4.45314 5.2828 4.51979 5.30965C4.58645 5.33649 4.65885 5.34995 4.73192 5.34908C4.805 5.34821 4.87697 5.33302 4.94281 5.30459C5.00864 5.27617 5.06673 5.23518 5.11302 5.18451Z" fill="#FFFFFF"/>
</svg>
