<svg width="11" height="20" viewBox="0 0 11 20" fill="none" xmlns="http://www.w3.org/2000/svg">
<path d="M5.17239 19.2503C4.54271 19.2503 4.04796 18.7555 4.04796 18.1258V4.40777C4.04796 4.31782 4.00298 4.22787 3.91302 4.18289C3.86805 4.18289 3.86805 4.18289 3.82307 4.18289C3.77809 4.18289 3.68814 4.22786 3.64316 4.22786L1.93402 5.937C1.70914 6.16189 1.43927 6.25184 1.12443 6.25184C0.809591 6.25184 0.539728 6.11691 0.314841 5.937C0.0899549 5.71212 0 5.44225 0 5.12741C0 4.81257 0.134932 4.54271 0.314841 4.31782L4.3628 0.269864C4.58768 0.134932 4.90252 0 5.17239 0C5.48723 0 5.75709 0.134932 5.98198 0.314841L10.0299 4.3628C10.2548 4.58768 10.3448 4.85755 10.3448 5.17239C10.3448 5.48723 10.2098 5.75709 10.0299 5.98198C9.85003 6.20687 9.53518 6.29682 9.22034 6.29682C8.9055 6.29682 8.63564 6.16189 8.41075 5.98198L6.61166 4.18289C6.56668 4.13791 6.52171 4.13791 6.43175 4.13791C6.38677 4.13791 6.38677 4.13791 6.3418 4.13791C6.25184 4.18289 6.20687 4.27284 6.20687 4.3628V18.1708C6.29682 18.7555 5.75709 19.2503 5.17239 19.2503Z" fill="#107F3E"/>
</svg>
