<svg width="11" height="20" viewBox="0 0 11 20" fill="none" xmlns="http://www.w3.org/2000/svg">
<path d="M5.17234 -0.000278925C5.80202 -0.00027887 6.29677 0.494472 6.29677 1.12415L6.29677 14.8422C6.29677 14.9322 6.34175 15.0221 6.4317 15.0671C6.47668 15.0671 6.47668 15.0671 6.52166 15.0671C6.56663 15.0671 6.65659 15.0221 6.70157 15.0221L8.4107 13.313C8.63559 13.0881 8.90545 12.9982 9.22029 12.9982C9.53514 12.9982 9.805 13.1331 10.0299 13.313C10.2548 13.5379 10.3447 13.8077 10.3447 14.1226C10.3447 14.4374 10.2098 14.7073 10.0299 14.9322L5.98193 18.9801C5.75704 19.1151 5.4422 19.25 5.17234 19.25C4.8575 19.25 4.58763 19.1151 4.36275 18.9352L0.314792 14.8872C0.0899061 14.6623 -4.91664e-05 14.3925 -4.91389e-05 14.0776C-4.91114e-05 13.7628 0.134883 13.4929 0.314792 13.268C0.494702 13.0431 0.809542 12.9532 1.12438 12.9532C1.43922 12.9532 1.70909 13.0881 1.93397 13.268L3.73307 15.0671C3.77804 15.1121 3.82302 15.1121 3.91298 15.1121C3.95795 15.1121 3.95795 15.1121 4.00293 15.1121C4.09288 15.0671 4.13786 14.9772 4.13786 14.8872L4.13786 1.07918C4.04791 0.49447 4.58764 -0.000278976 5.17234 -0.000278925Z" fill="#BB0000"/>
</svg>
