<svg width="22" height="22" viewBox="0 0 22 22" fill="none" xmlns="http://www.w3.org/2000/svg">
<path d="M11.9147 8.92068C11.0231 8.92688 10.1498 8.67163 9.40582 8.18737C8.66186 7.70312 8.08088 7.01175 7.73677 6.2012C7.39266 5.39066 7.30097 4.49757 7.47337 3.63553C7.64577 2.77349 8.07446 1.98146 8.70492 1.36018C9.33538 0.738907 10.1391 0.316458 11.0139 0.146571C11.8887 -0.0233167 12.795 0.0670355 13.6175 0.406135C14.44 0.745234 15.1416 1.31776 15.633 2.05088C16.1244 2.784 16.3834 3.64459 16.3771 4.52319C16.3688 5.68693 15.896 6.80068 15.0609 7.62359C14.2258 8.4465 13.0956 8.91245 11.9147 8.92068ZM11.9147 0.691092C11.1505 0.684869 10.4017 0.902474 9.7633 1.3163C9.12486 1.73012 8.62556 2.32151 8.32875 3.01542C8.03194 3.70934 7.951 4.47449 8.0962 5.21381C8.2414 5.95313 8.60619 6.63328 9.14429 7.16796C9.68239 7.70265 10.3695 8.06776 11.1186 8.21697C11.8676 8.36619 12.6447 8.29278 13.3513 8.00606C14.0579 7.71934 14.6621 7.23223 15.0874 6.60655C15.5126 5.98087 15.7396 5.24481 15.7396 4.49178C15.7397 3.48919 15.3377 2.5272 14.6213 1.81533C13.9049 1.10346 12.932 0.699378 11.9147 0.691092Z" fill="white"/>
<path d="M15.6825 21.9884C15.4278 21.9899 15.1753 21.9411 14.9399 21.8451C14.7046 21.7491 14.491 21.6077 14.3119 21.4293C13.9654 21.071 13.7759 20.5927 13.7842 20.0979C13.7926 19.603 13.9981 19.1313 14.3565 18.7845L15.198 17.9741L16.0969 17.1072C16.5495 16.6674 16.9957 16.2214 17.4611 15.7942L17.3145 15.656C17.1168 15.4738 16.9256 15.2917 16.7407 15.1032C16.6515 15.009 16.5559 14.9147 16.4666 14.8142L16.3774 14.72C16.3742 14.766 16.3742 14.8122 16.3774 14.8582C16.3774 14.9713 16.3774 15.0843 16.3774 15.1911C16.3774 15.5681 16.3774 15.945 16.3774 16.3219V16.4601L14.2609 18.4076C12.9859 19.507 12.699 20.3927 13.413 21.3036L13.8146 21.8125H7.43965V13.3128C7.35584 13.2794 7.27484 13.2394 7.19741 13.1934L2.42256 10.3351C2.27723 10.2481 2.14431 10.1425 2.02731 10.0209C1.82835 9.81026 1.67826 9.55947 1.58744 9.28594C1.55059 9.17994 1.52495 9.07047 1.51094 8.95927L1.27506 7.86618C1.2506 7.80506 1.2314 7.74202 1.21769 7.67772L0.0446949 2.31278C-0.0626675 1.81878 0.0335105 1.30298 0.312071 0.87885C0.590631 0.454725 1.02876 0.157016 1.53006 0.0512174C2.03137 -0.0545814 2.55479 0.0401959 2.98518 0.314699C3.41558 0.589203 3.71769 1.02095 3.82505 1.51495L4.33505 3.85818L5.39329 7.62746L8.1154 9.24197H12.3038H13.0369C14.4457 9.21056 16.0395 9.17914 17.2571 10.2094C18.2106 11.0618 19.1131 11.968 19.9601 12.9233L20.6613 13.6834C21.3881 14.4624 22.5738 15.7565 21.6176 17.013C21.0897 17.6514 20.5051 18.2421 19.8708 18.7782L19.3162 19.2871L18.819 19.7457C18.4556 20.0786 18.0986 20.4116 17.748 20.7571L17.4738 21.0209C17.2423 21.2762 16.9813 21.5039 16.6961 21.6994C16.3934 21.8897 16.0415 21.9901 15.6825 21.9884ZM16.1096 13.7462C16.32 13.7462 16.5112 13.9347 16.7471 14.1734L16.9511 14.387L17.2188 14.6697C17.3973 14.8498 17.5822 15.0257 17.7735 15.1974L17.9902 15.411C18.0547 15.4549 18.1073 15.5136 18.1437 15.582C18.1801 15.6504 18.1991 15.7264 18.1991 15.8036C18.1991 15.8809 18.1801 15.9569 18.1437 16.0253C18.1073 16.0937 18.0547 16.1523 17.9902 16.1963C17.4993 16.6486 17.0403 17.1009 16.575 17.5532L15.6761 18.4264L14.8282 19.2368C14.5965 19.4714 14.4669 19.7858 14.4669 20.1132C14.4669 20.4405 14.5965 20.755 14.8282 20.9895C15.0333 21.1942 15.3035 21.3233 15.5935 21.3553C15.8836 21.3873 16.176 21.3203 16.422 21.1654C16.6551 20.9937 16.8688 20.7979 17.0595 20.5812C17.153 20.4807 17.2486 20.3865 17.3463 20.2985C17.697 19.953 18.0603 19.62 18.4301 19.2808L18.921 18.8222L19.4883 18.3071C20.0925 17.7935 20.6513 17.2303 21.1586 16.6235C21.7961 15.8508 21.0693 14.9901 20.2406 14.1106L19.533 13.3442C18.6927 12.4047 17.7965 11.5152 16.8491 10.6806C15.8227 9.80736 14.4202 9.83249 13.0624 9.8639H12.3165H7.99428L7.87315 9.81992L4.86417 8.05464L3.72942 4.00896L3.18755 1.64688C3.14701 1.38976 3.02645 1.15138 2.84253 0.964678C2.65862 0.77797 2.42041 0.652139 2.16081 0.604561C1.90121 0.556983 1.63302 0.590005 1.39329 0.699066C1.15355 0.808128 0.954084 0.987848 0.822441 1.21341C0.728208 1.35456 0.663831 1.51298 0.633161 1.67921C0.602491 1.84544 0.606157 2.01606 0.643942 2.18086L1.82968 7.53951C1.84161 7.58851 1.85651 7.63676 1.87431 7.684L2.13568 8.83363C2.14894 8.91652 2.16811 8.99839 2.19306 9.07863C2.25225 9.26344 2.35242 9.43297 2.48631 9.57492C2.5666 9.65458 2.65652 9.7242 2.75406 9.78223L7.50978 12.6406C7.6063 12.7018 7.7116 12.7484 7.82215 12.7788L8.05803 12.8416V21.1843H12.5906C11.832 19.6263 13.3174 18.3762 13.8337 17.9364L15.7462 16.1963C15.7462 15.8696 15.7462 15.5681 15.7462 15.2163C15.7462 15.1158 15.7462 15.009 15.7462 14.9022C15.7271 14.6345 15.7271 14.3658 15.7462 14.098V13.897L15.9757 13.7777C16.0188 13.7632 16.0642 13.7568 16.1096 13.7588V13.7462Z" fill="white"/>
</svg>
