<svg width="512" height="524" viewBox="0 0 512 524" fill="none" xmlns="http://www.w3.org/2000/svg">
<path d="M512 402.176V50.0001H6.10352e-05V402.176H248V507.728H158.08V523.728H353.92V507.728H264V402.176H512ZM16.0001 386.176V66.0001H496V386.176H16.0001Z" fill="white"/>
<rect x="430.036" y="0.104736" width="30" height="614.502" transform="rotate(40 430.036 0.104736)" fill="white"/>
<path d="M335.344 183.296C322.368 183.296 310.88 189.28 303.12 198.512L238.24 168.064C239.488 164.08 240.352 159.92 240.352 155.52C240.352 132.176 221.36 113.184 198.016 113.184C174.688 113.184 155.696 132.176 155.696 155.52C155.696 178.848 174.688 197.84 198.016 197.84C211.216 197.84 222.864 191.648 230.624 182.16L295.28 212.512C293.92 216.656 292.992 221.008 292.992 225.616C292.992 231.12 294.128 236.352 296.048 241.184L232.304 271.104C224.608 260.416 212.144 253.392 198.016 253.392C174.688 253.392 155.696 272.384 155.696 295.728C155.696 319.056 174.688 338.048 198.016 338.048C221.36 338.048 240.352 319.056 240.352 295.728C240.352 292.24 239.808 288.896 239.008 285.648L304.784 254.768C312.496 262.848 323.312 267.952 335.344 267.952C358.672 267.952 377.664 248.96 377.664 225.616C377.664 202.288 358.672 183.296 335.344 183.296ZM198.032 181.84C183.52 181.84 171.712 170.048 171.712 155.52C171.712 140.992 183.504 129.184 198.032 129.184C212.56 129.184 224.368 140.992 224.368 155.52C224.368 170.048 212.544 181.84 198.032 181.84ZM198.032 322.032C183.52 322.032 171.712 310.24 171.712 295.712C171.712 281.184 183.504 269.376 198.032 269.376C212.56 269.376 224.368 281.184 224.368 295.712C224.368 310.24 212.544 322.032 198.032 322.032ZM335.344 251.936C320.832 251.936 309.008 240.128 309.008 225.6C309.008 211.072 320.816 199.28 335.344 199.28C349.872 199.28 361.664 211.072 361.664 225.6C361.664 240.128 349.856 251.936 335.344 251.936Z" fill="white"/>
</svg>
