<?xml version="1.0"?>
<svg  xmlns="http://www.w3.org/2000/svg" viewBox="0 0 24 24" id="medium--raise-hand.c"><path fill="#C56FD5" stroke="#85488F" stroke-linecap="round" stroke-linejoin="round" stroke-miterlimit="10" d="M3.495 22.045C1.344 21.912.5 19.713.5 18.429c0-2.212 1.199-4.188 3.08-5.493l2.934-1.849"></path><path fill="#C56FD5" stroke="#85488F" stroke-linecap="round" stroke-linejoin="round" stroke-miterlimit="10" d="M16.434 14.38a9.68 9.68 0 0 1 1.04 4.391c0 1.73-.454 3.342-1.231 4.729H4.157a9.65 9.65 0 0 1-1.231-4.729c0-2.916 1.27-5.518 3.256-7.222l3.533-3.533"></path><path fill="#C56FD5" stroke="#85488F" stroke-miterlimit="10" d="M9.699.5C6.931.5 4.687 3.181 4.687 6.489s2.244 5.989 5.012 5.989 5.012-2.681 5.012-5.989S12.467.5 9.699.5z"></path><path fill="#C56FD5" stroke="#85488F" stroke-linecap="round" stroke-miterlimit="10" d="M11.135 12.227c1.096-.337 2.488-1.389 3.612-2.335 3.131-2.635 4.277-5.697 5.071-7.497.794-1.8 2.029-1.537 2.558-1.317s1.499 1.098.97 2.766c-.492 1.55-2.277 6.965-6.911 10.542"></path></svg>