<?xml version="1.0"?>
<svg xmlns="http://www.w3.org/2000/svg" xmlns:xlink="http://www.w3.org/1999/xlink" version="1.1" id="Layer_1" x="0px" y="0px" viewBox="0 0 512 512" style="enable-background:new 0 0 512 512;" xml:space="preserve" width="512px" height="512px"><g><g>
	<g>
		<path d="M512,371.312V19.136H0v352.176h248v105.552h-89.92v16h195.84v-16H264V371.312H512z M16,355.312V35.136h480v320.176H16z" data-original="#000000" class="active-path" data-old_color="#000000" fill="#39E379"/>
	</g>
</g><g>
	<g>
		<path d="M335.344,152.432c-12.976,0-24.464,5.984-32.224,15.216L238.24,137.2c1.248-3.984,2.112-8.144,2.112-12.544    c0-23.344-18.992-42.336-42.336-42.336c-23.328,0-42.32,18.992-42.32,42.336c0,23.328,18.992,42.32,42.32,42.32    c13.2,0,24.848-6.192,32.608-15.68l64.656,30.352c-1.36,4.144-2.288,8.496-2.288,13.104c0,5.504,1.136,10.736,3.056,15.568    l-63.744,29.92c-7.696-10.688-20.16-17.712-34.288-17.712c-23.328,0-42.32,18.992-42.32,42.336c0,23.328,18.992,42.32,42.32,42.32    c23.344,0,42.336-18.992,42.336-42.32c0-3.488-0.544-6.832-1.344-10.08l65.776-30.88c7.712,8.08,18.528,13.184,30.56,13.184    c23.328,0,42.32-18.992,42.32-42.336C377.664,171.424,358.672,152.432,335.344,152.432z M198.032,150.976    c-14.512,0-26.32-11.792-26.32-26.32c0-14.528,11.792-26.336,26.32-26.336s26.336,11.808,26.336,26.336    C224.368,139.184,212.544,150.976,198.032,150.976z M198.032,291.168c-14.512,0-26.32-11.792-26.32-26.32    c0-14.528,11.792-26.336,26.32-26.336s26.336,11.808,26.336,26.336C224.368,279.376,212.544,291.168,198.032,291.168z     M335.344,221.072c-14.512,0-26.336-11.808-26.336-26.336c0-14.528,11.808-26.32,26.336-26.32c14.528,0,26.32,11.792,26.32,26.32    S349.856,221.072,335.344,221.072z" data-original="#000000" class="active-path" data-old_color="#000000" fill="#39E379"/>
	</g>
</g></g> </svg>
