<svg width="30" height="30" viewBox="0 0 30 30" fill="none" xmlns="http://www.w3.org/2000/svg">
<path d="M28 5.99999C26.897 5.99999 26 6.897 26 7.99997C26 9.10294 26.8971 9.99996 28 9.99996C29.103 9.99996 30 9.103 30 7.99997C30 6.897 29.103 5.99999 28 5.99999ZM28 8.99999C27.4485 8.99999 27 8.55152 27 7.99997C27 7.44849 27.4485 6.99995 28 6.99995C28.5516 6.99995 29 7.44843 29 7.99997C29 8.55152 28.5515 8.99999 28 8.99999Z" fill="#5D9C5A"/>
<path d="M1.99998 22.5C0.897012 22.5 0 23.397 0 24.5C0 25.6029 0.897012 26.5 1.99998 26.5C3.10301 26.5 3.99996 25.6029 3.99996 24.5C3.99996 23.397 3.10301 22.5 1.99998 22.5ZM1.99998 25.5C1.4485 25.5 0.999961 25.0515 0.999961 24.5C0.999961 23.9484 1.44844 23.5 1.99998 23.5C2.55147 23.5 3 23.9484 3 24.5C3 25.0515 2.55152 25.5 1.99998 25.5Z" fill="#5D9C5A"/>
<path d="M27.0305 6.632L22.717 4.54952C22.468 4.42899 22.1695 4.53399 22.0495 4.78255C21.9295 5.03104 22.034 5.33005 22.2826 5.45005L26.5961 7.53253C26.6661 7.56651 26.7401 7.58251 26.813 7.58251C26.999 7.58251 27.1775 7.4785 27.2635 7.2995C27.3835 7.051 27.279 6.752 27.0305 6.632Z" fill="#5D9C5A"/>
<path d="M22.5 26C21.397 26 20.5 26.897 20.5 28C20.5 29.1029 21.397 30 22.5 30C23.603 30 24.5 29.103 24.5 28C24.5 26.897 23.603 26 22.5 26ZM22.5 29C21.9485 29 21.5 28.5515 21.5 28C21.5 27.4484 21.9485 27 22.5 27C23.0515 27 23.5 27.4485 23.5 28C23.5 28.5516 23.0515 29 22.5 29Z" fill="#5D9C5A"/>
<path d="M21.5305 26.632L17.217 24.5496C16.968 24.429 16.6695 24.5336 16.5495 24.7826C16.4295 25.0311 16.534 25.3301 16.7825 25.4501L21.096 27.5326C21.1661 27.5666 21.2401 27.5826 21.313 27.5826C21.499 27.5826 21.6775 27.4785 21.7635 27.2995C21.8835 27.051 21.779 26.752 21.5305 26.632Z" fill="#5D9C5A"/>
<path d="M15 13.5C13.897 13.5 13 14.397 13 15.5C13 16.603 13.897 17.5 15 17.5C16.103 17.5 17 16.603 17 15.5C17 14.397 16.103 13.5 15 13.5ZM15 16.5C14.4485 16.5 14 16.0515 14 15.5C14 14.9485 14.4485 14.5 15 14.5C15.5515 14.5 16 14.9484 16 15.5C16 16.0515 15.5515 16.5 15 16.5Z" fill="#5D9C5A"/>
<path d="M14.121 14.188L10.8075 11.6055C10.5895 11.437 10.2755 11.4745 10.1055 11.6925C9.93597 11.9105 9.97447 12.2245 10.1925 12.3945L13.506 14.977C13.5975 15.0481 13.7055 15.0826 13.813 15.0826C13.962 15.0826 14.109 15.0166 14.208 14.8901C14.3775 14.672 14.339 14.358 14.121 14.188Z" fill="#5D9C5A"/>
<path d="M24 13C20.9675 13 18.5 15.4675 18.5 18.5C18.5 21.5325 20.9675 24 24 24C27.0325 24 29.5 21.5325 29.5 18.5C29.5 15.4675 27.0325 13 24 13ZM24 23C21.5185 23 19.5 20.9815 19.5 18.5C19.5 16.0185 21.5185 14 24 14C26.4815 14 28.5 16.0185 28.5 18.5C28.5 20.9815 26.4815 23 24 23Z" fill="#5D9C5A"/>
<path d="M24 15C22.897 15 22 15.897 22 17C22 18.103 22.897 19 24 19C25.103 19 26 18.1029 26 17C26 15.897 25.103 15 24 15ZM24 18C23.4485 18 23 17.5515 23 17C23 16.4485 23.4485 16 24 16C24.5515 16 25 16.4484 25 17C25 17.5515 24.5515 18 24 18Z" fill="#5D9C5A"/>
<path d="M25.4505 20H22.5495C21.695 20 21 20.6765 21 21.5075V22.8255C21 23.004 21.095 23.169 21.2495 23.2585C22.0875 23.7435 23.0385 24 24 24C24.9615 24 25.9125 23.7435 26.7505 23.2585C26.905 23.1695 27 23.004 27 22.826V21.508C27 20.6765 26.305 20 25.4505 20ZM26 22.5275C24.7555 23.1474 23.2445 23.1474 22 22.5275V21.508C22 21.228 22.2465 21 22.5494 21H25.4504C25.7534 21 25.9999 21.228 25.9999 21.508L26 22.5275Z" fill="#5D9C5A"/>
<path d="M12 19C8.96748 19 6.49998 21.4675 6.49998 24.5C6.49998 27.5326 8.96748 30 12 30C15.0325 30 17.5 27.5325 17.5 24.5C17.5 21.4675 15.0325 19 12 19ZM12 29C9.51849 29 7.5 26.9815 7.5 24.5C7.5 22.0185 9.51849 20 12 20C14.4815 20 16.5 22.0185 16.5 24.5C16.5 26.9815 14.4815 29 12 29Z" fill="#5D9C5A"/>
<path d="M12 21C10.897 21 10 21.897 10 23C10 24.103 10.897 25 12 25C13.103 25 14 24.103 14 23C14 21.897 13.103 21 12 21ZM12 24C11.4485 24 11 23.5515 11 23C11 22.4485 11.4485 22 12 22C12.5515 22 13 22.4484 13 23C13 23.5515 12.5515 24 12 24Z" fill="#5D9C5A"/>
<path d="M13.4505 26H10.5495C9.69504 26 9 26.6765 9 27.5075V28.8255C9 29.004 9.09499 29.169 9.2495 29.2585C10.0875 29.7435 11.0385 30 12 30C12.9615 30 13.9125 29.7435 14.7505 29.2585C14.905 29.1695 15 29.004 15 28.826V27.508C15 26.6765 14.305 26 13.4505 26ZM14 28.5275C12.7555 29.1475 11.2445 29.1475 9.99997 28.5275V27.508C9.99997 27.228 10.2465 27 10.5495 27H13.4504C13.7534 27 13.9999 27.228 13.9999 27.508L14 28.5275Z" fill="#5D9C5A"/>
<path d="M5.50002 6.5C2.4675 6.5 0 8.9675 0 12C0 15.0325 2.4675 17.5 5.50002 17.5C8.53254 17.5 11 15.0325 11 12C11 8.9675 8.53248 6.5 5.50002 6.5ZM5.50002 16.5C3.01852 16.5 1.00002 14.4815 1.00002 12C1.00002 9.51851 3.01852 7.50002 5.50002 7.50002C7.98152 7.50002 10 9.51851 10 12C10 14.4815 7.98152 16.5 5.50002 16.5Z" fill="#5D9C5A"/>
<path d="M5.50002 8.5C4.39699 8.5 3.50004 9.39701 3.50004 10.5C3.50004 11.603 4.39705 12.5 5.50002 12.5C6.60305 12.5 7.5 11.603 7.5 10.5C7.5 9.39701 6.60299 8.5 5.50002 8.5ZM5.50002 11.5C4.94853 11.5 4.5 11.0515 4.5 10.5C4.5 9.94844 4.94848 9.49996 5.50002 9.49996C6.0515 9.49996 6.50004 9.94844 6.50004 10.5C6.50004 11.0515 6.0515 11.5 5.50002 11.5Z" fill="#5D9C5A"/>
<path d="M6.95051 13.5H4.04953C3.19506 13.5 2.50002 14.1765 2.50002 15.0075V16.3255C2.50002 16.504 2.595 16.669 2.74951 16.7585C3.58752 17.2435 4.5385 17.5 5.50002 17.5C6.46154 17.5 7.41252 17.2435 8.25053 16.7585C8.40504 16.6695 8.50002 16.504 8.50002 16.326V15.008C8.50002 14.1765 7.80498 13.5 6.95051 13.5ZM7.5 16.0275C6.25552 16.6475 4.74451 16.6475 3.49998 16.0275V15.008C3.49998 14.728 3.74648 14.5 4.04947 14.5H6.95045C7.25343 14.5 7.49994 14.728 7.49994 15.008L7.5 16.0275Z" fill="#5D9C5A"/>
<path d="M17.5 0C14.4675 0 12 2.4675 12 5.50002C12 8.53254 14.4675 11 17.5 11C20.5325 11 23 8.53254 23 5.50002C23 2.4675 20.5325 0 17.5 0ZM17.5 10C15.0185 10 13 7.98152 13 5.50002C13 3.01852 15.0185 1.00002 17.5 1.00002C19.9815 1.00002 22 3.01852 22 5.50002C22 7.98152 19.9815 10 17.5 10Z" fill="#5D9C5A"/>
<path d="M17.5 2C16.397 2 15.5 2.89701 15.5 3.99998C15.5 5.10295 16.3971 5.99996 17.5 5.99996C18.603 5.99996 19.5 5.10301 19.5 4.00004C19.5 2.89707 18.603 2 17.5 2ZM17.5 5C16.9485 5 16.5 4.55152 16.5 3.99998C16.5 3.44849 16.9485 2.99996 17.5 2.99996C18.0516 2.99996 18.5 3.44844 18.5 3.99998C18.5 4.55152 18.0515 5 17.5 5Z" fill="#5D9C5A"/>
<path d="M18.9505 7.00001H16.0495C15.1951 7.00001 14.5 7.67654 14.5 8.50751V9.82552C14.5 10.004 14.595 10.169 14.7495 10.2585C15.5875 10.7435 16.5385 11 17.5 11C18.4615 11 19.4125 10.7435 20.2505 10.2585C20.405 10.1695 20.5 10.004 20.5 9.82605V8.50804C20.5 7.67648 19.805 7.00001 18.9505 7.00001ZM19.5 9.52751C18.2555 10.1475 16.7445 10.1475 15.5 9.52751V8.50804C15.5 8.22802 15.7465 8.00003 16.0495 8.00003H18.9504C19.2534 8.00003 19.4999 8.22802 19.4999 8.50804L19.5 9.52751Z" fill="#5D9C5A"/>
<path d="M12.8805 5.17446C12.701 4.96545 12.3855 4.94043 12.1755 5.11996L8.71049 8.08498C8.50049 8.26446 8.476 8.57999 8.65547 8.78999C8.75449 8.90547 8.89447 8.965 9.03545 8.965C9.15047 8.965 9.26596 8.92551 9.36047 8.84448L12.8255 5.87946C13.0355 5.69998 13.06 5.38446 12.8805 5.17446Z" fill="#5D9C5A"/>
<path d="M23.9 13.2005L20.9 9.20049C20.7345 8.97901 20.421 8.93547 20.2 9.10047C19.9789 9.266 19.9345 9.57948 20.0999 9.79997L23.0999 13.8C23.1984 13.931 23.3484 14 23.5004 14C23.6044 14 23.71 13.9674 23.8 13.8999C24.021 13.7345 24.0655 13.421 23.9 13.2005Z" fill="#5D9C5A"/>
<path d="M19.7965 20.1535C19.631 19.9325 19.3175 19.888 19.0965 20.0535L16.3035 22.148C16.0825 22.3135 16.038 22.627 16.2035 22.8475C16.302 22.9785 16.452 23.0474 16.6039 23.0474C16.7084 23.0474 16.8134 23.0145 16.9035 22.9474L19.6965 20.8529C19.9175 20.6875 19.962 20.374 19.7965 20.1535Z" fill="#5D9C5A"/>
<path d="M7.00002 24H3.49998C3.22401 24 3 24.2235 3 24.5C3 24.7765 3.22401 24.9999 3.49998 24.9999H6.99996C7.27594 24.9999 7.5 24.7765 7.5 24.5C7.5 24.2235 7.276 24 7.00002 24Z" fill="#5D9C5A"/>
<path d="M5.50002 0C4.39699 0 3.49998 0.897012 3.49998 1.99998C3.49998 3.10301 4.39699 3.99996 5.49996 3.99996C6.60299 3.99996 7.49994 3.10295 7.49994 1.99998C7.5 0.897012 6.60299 0 5.50002 0ZM5.50002 3C4.94854 3 4.5 2.55152 4.5 1.99998C4.5 1.4485 4.94848 0.999961 5.50002 0.999961C6.0515 0.999961 6.50004 1.44844 6.50004 1.99998C6.49998 2.55152 6.0515 3 5.50002 3Z" fill="#5D9C5A"/>
<path d="M5.50002 3C5.22404 3 5.00004 3.22348 5.00004 3.49998V6.99996C5.00004 7.27647 5.22404 7.50002 5.50002 7.50002C5.776 7.50002 6 7.27647 6 6.99996V3.49998C6 3.22348 5.776 3 5.50002 3Z" fill="#5D9C5A"/>
</svg>
