<svg width="18" height="18" viewBox="0 0 18 18" fill="none" xmlns="http://www.w3.org/2000/svg">
<g clip-path="url(#clip0)">
<path d="M17.974 0.209887C17.9397 0.127019 17.8735 0.0607925 17.7902 0.0261509C17.7488 0.00916981 17.7047 0 17.6605 0H13.585C13.3976 0 13.2454 0.152151 13.2454 0.339623C13.2454 0.527094 13.3976 0.679245 13.585 0.679245H16.8407L11.3072 6.21272C11.1744 6.34551 11.1744 6.56015 11.3072 6.69294C11.3734 6.75917 11.4604 6.79245 11.5473 6.79245C11.6343 6.79245 11.7212 6.75917 11.7874 6.69294L17.3209 1.15947V4.41509C17.3209 4.60257 17.473 4.75472 17.6605 4.75472C17.848 4.75472 18.0001 4.60257 18.0001 4.41509V0.339623C18.0001 0.295472 17.991 0.251321 17.974 0.209887Z" fill="white"/>
<path d="M6.21272 11.3066L0.679245 16.8401V13.5845C0.679245 13.397 0.527094 13.2449 0.339623 13.2449C0.152151 13.2449 0 13.397 0 13.5845V17.6599C0 17.7041 0.00916981 17.7482 0.0261509 17.7897C0.0604528 17.8725 0.126679 17.9388 0.209887 17.9734C0.251321 17.9904 0.295472 17.9996 0.339623 17.9996H4.41509C4.60257 17.9996 4.75472 17.8474 4.75472 17.6599C4.75472 17.4725 4.60257 17.3203 4.41509 17.3203H1.15947L6.69294 11.7869C6.82574 11.6541 6.82574 11.4394 6.69294 11.3066C6.56015 11.1738 6.34551 11.1738 6.21272 11.3066Z" fill="white"/>
<path d="M0.339623 4.75472C0.527094 4.75472 0.679245 4.60257 0.679245 4.41509V1.15947L6.21238 6.6926C6.2786 6.75883 6.36555 6.79211 6.45249 6.79211C6.53943 6.79211 6.62638 6.75883 6.6926 6.6926C6.8254 6.55981 6.8254 6.34517 6.6926 6.21238L1.15947 0.679245H4.41509C4.60257 0.679245 4.75472 0.527094 4.75472 0.339623C4.75472 0.152151 4.60257 0 4.41509 0H0.339623C0.295472 0 0.251321 0.00916981 0.209887 0.0261509C0.126679 0.0607925 0.0607925 0.126679 0.0261509 0.209887C0.00916981 0.251321 0 0.295472 0 0.339623V4.41509C0 4.60257 0.152151 4.75472 0.339623 4.75472Z" fill="white"/>
<path d="M17.6605 13.2452C17.473 13.2452 17.3209 13.3973 17.3209 13.5848V16.8404L11.7874 11.3066C11.6546 11.1738 11.44 11.1738 11.3072 11.3066C11.1744 11.4394 11.1744 11.6541 11.3072 11.7869L16.8407 17.3207H13.585C13.3976 17.3207 13.2454 17.4728 13.2454 17.6603C13.2454 17.8478 13.3976 17.9999 13.585 17.9999H17.6605C17.7047 17.9999 17.7488 17.9907 17.7902 17.9738C17.8731 17.9395 17.9393 17.8732 17.974 17.79C17.991 17.7486 18.0001 17.7044 18.0001 17.6603V13.5848C18.0001 13.3973 17.848 13.2452 17.6605 13.2452Z" fill="white"/>
</g>
<defs>
<clipPath id="clip0">
<rect width="18" height="18" fill="white"/>
</clipPath>
</defs>
</svg>
