<svg width="8" height="10" viewBox="0 0 8 10" fill="none" xmlns="http://www.w3.org/2000/svg">
<path d="M-5.96599e-08 4.99702C0.00157112 5.09047 0.0363016 5.17977 0.0971307 5.24677L4.44861 9.89488C4.47767 9.92807 4.51278 9.95451 4.55176 9.97259C4.59074 9.99067 4.63277 10 4.67525 10C4.71772 10 4.75975 9.99067 4.79873 9.97259C4.83771 9.95451 4.87282 9.92807 4.90189 9.89488C4.93286 9.86374 4.95754 9.82613 4.97442 9.78437C4.99129 9.7426 5 9.69758 5 9.65207C5 9.60656 4.99129 9.56154 4.97442 9.51978C4.95754 9.47802 4.93286 9.4404 4.90189 9.40926L0.783524 4.99702L4.90189 0.591718C4.93223 0.559471 4.95632 0.521107 4.97276 0.478837C4.98919 0.436567 4.99766 0.391229 4.99766 0.345438C4.99766 0.299646 4.98919 0.254308 4.97276 0.212038C4.95632 0.169768 4.93223 0.131403 4.90189 0.0991564C4.84136 0.0355997 4.75999 2.86204e-09 4.67525 3.87265e-09C4.5905 4.88326e-09 4.50913 0.0355997 4.44861 0.0991564L0.0971307 4.75421C0.0367069 4.81868 0.00190157 4.90568 -5.96599e-08 4.99702Z" fill="#313942"/>
<path d="M3 4.99702C3.00157 5.09047 3.0363 5.17977 3.09713 5.24677L7.44861 9.89488C7.47767 9.92807 7.51278 9.95451 7.55176 9.97259C7.59074 9.99067 7.63277 10 7.67525 10C7.71772 10 7.75975 9.99067 7.79873 9.97259C7.83771 9.95451 7.87282 9.92807 7.90189 9.89488C7.93286 9.86374 7.95754 9.82613 7.97442 9.78437C7.99129 9.7426 8 9.69758 8 9.65207C8 9.60656 7.99129 9.56154 7.97442 9.51978C7.95754 9.47802 7.93286 9.4404 7.90189 9.40926L3.78352 4.99702L7.90189 0.591718C7.93223 0.559471 7.95632 0.521107 7.97276 0.478837C7.98919 0.436567 7.99766 0.391229 7.99766 0.345438C7.99766 0.299646 7.98919 0.254308 7.97276 0.212038C7.95632 0.169768 7.93223 0.131403 7.90189 0.0991564C7.84136 0.0355997 7.75999 2.86204e-09 7.67525 3.87265e-09C7.5905 4.88326e-09 7.50913 0.0355997 7.44861 0.0991564L3.09713 4.75421C3.03671 4.81868 3.0019 4.90568 3 4.99702Z" fill="#313942"/>
</svg>
