<svg width="8" height="11" viewBox="0 0 8 11" fill="none" xmlns="http://www.w3.org/2000/svg">
<path d="M7.95416 5.49709C7.9526 5.58821 7.91807 5.67528 7.85759 5.7406L3.53113 10.2725C3.50223 10.3049 3.46733 10.3307 3.42857 10.3483C3.38981 10.3659 3.34803 10.375 3.3058 10.375C3.26356 10.375 3.22178 10.3659 3.18302 10.3483C3.14427 10.3307 3.10936 10.3049 3.08046 10.2725C3.04967 10.2421 3.02512 10.2055 3.00834 10.1648C2.99157 10.124 2.98291 10.0801 2.98291 10.0358C2.98291 9.9914 2.99157 9.9475 3.00834 9.90678C3.02512 9.86607 3.04967 9.82939 3.08046 9.79903L7.17514 5.49709L3.08046 1.20193C3.05029 1.17048 3.02634 1.13308 3.01 1.09187C2.99365 1.05065 2.98524 1.00645 2.98524 0.961802C2.98524 0.917154 2.99365 0.87295 3.01 0.831737C3.02634 0.790524 3.05029 0.753118 3.08046 0.721678C3.14063 0.65971 3.22154 0.625 3.3058 0.625C3.39006 0.625 3.47096 0.65971 3.53113 0.721678L7.85759 5.26035C7.91767 5.32321 7.95227 5.40804 7.95416 5.49709Z" fill="#313942"/>
<path d="M4.97131 5.49709C4.96975 5.58821 4.93522 5.67528 4.87474 5.7406L0.54823 10.2725C0.519328 10.3049 0.484422 10.3307 0.445665 10.3483C0.406908 10.3659 0.365123 10.375 0.322891 10.375C0.280658 10.375 0.238873 10.3659 0.200116 10.3483C0.16136 10.3307 0.126453 10.3049 0.0975516 10.2725C0.0667569 10.2421 0.0422128 10.2055 0.0254346 10.1648C0.00865632 10.124 3.58564e-09 10.0801 4.12519e-09 10.0358C4.66475e-09 9.9914 0.00865633 9.9475 0.0254346 9.90678C0.0422128 9.86607 0.0667569 9.82939 0.0975516 9.79903L4.19228 5.49709L0.0975517 1.20193C0.0673793 1.17048 0.0434309 1.13308 0.0270878 1.09187C0.0107447 1.05065 0.00233043 1.00645 0.00233043 0.961802C0.00233043 0.917154 0.0107447 0.87295 0.0270878 0.831737C0.0434309 0.790524 0.0673794 0.753118 0.0975518 0.721678C0.157727 0.65971 0.238629 0.625 0.322891 0.625C0.407152 0.625 0.488055 0.65971 0.54823 0.721678L4.87474 5.26035C4.93482 5.32321 4.96942 5.40804 4.97131 5.49709Z" fill="#313942"/>
</svg>
