<svg width="24" height="20" viewBox="0 0 24 20" fill="none" xmlns="http://www.w3.org/2000/svg">
<path fill-rule="evenodd" clip-rule="evenodd" d="M15.1374 9.32836C15.2392 9.42129 15.3734 9.46962 15.5105 9.4627V9.38967C16.6254 9.22152 17.6434 8.65508 18.3793 7.79343C19.1151 6.93178 19.5198 5.83221 19.5198 4.69484C19.5198 3.55746 19.1151 2.45789 18.3793 1.59624C17.6434 0.734597 16.6254 0.168152 15.5105 0C15.4418 0.00133244 15.3739 0.0165073 15.311 0.0446352C15.2481 0.072763 15.1914 0.113278 15.1442 0.163805C15.097 0.214333 15.0603 0.273856 15.0362 0.338886C15.0121 0.403916 15.0011 0.473145 15.0039 0.542514C14.9893 0.679376 15.029 0.816487 15.1142 0.92397C15.1994 1.03145 15.3233 1.10059 15.4588 1.11633C16.3138 1.26265 17.0897 1.70959 17.6493 2.37796C18.2088 3.04634 18.5158 3.89298 18.5158 4.76787C18.5158 5.64275 18.2088 6.4894 17.6493 7.15777C17.0897 7.82614 16.3138 8.27308 15.4588 8.4194C15.3217 8.42632 15.1929 8.48792 15.1008 8.59064C15.0087 8.69335 14.9608 8.82879 14.9677 8.96714C14.9745 9.10549 15.0356 9.23542 15.1374 9.32836ZM6.19608 8.69399C6.96979 9.2156 7.87943 9.494 8.80997 9.494C9.42782 9.494 10.0396 9.37122 10.6104 9.13266C11.1813 8.8941 11.6999 8.54444 12.1368 8.10364C12.5737 7.66284 12.9203 7.13953 13.1567 6.5636C13.3931 5.98767 13.5148 5.37039 13.5148 4.747C13.5148 3.80813 13.2389 2.89035 12.7219 2.10971C12.2049 1.32907 11.4701 0.720635 10.6104 0.361346C9.75074 0.00205681 8.80475 -0.0919496 7.89209 0.0912144C6.97944 0.274378 6.14111 0.726486 5.48312 1.39037C4.82514 2.05425 4.37704 2.90008 4.1955 3.82091C4.01396 4.74174 4.10714 5.6962 4.46324 6.5636C4.81934 7.431 5.42237 8.17238 6.19608 8.69399ZM6.77056 1.66749C7.37423 1.26052 8.08395 1.0433 8.80997 1.0433C9.78269 1.04605 10.7148 1.43715 11.4026 2.13113C12.0904 2.82511 12.4781 3.76557 12.4808 4.747C12.4808 5.47953 12.2655 6.1956 11.8622 6.80467C11.4588 7.41374 10.8855 7.88845 10.2147 8.16878C9.54398 8.4491 8.80589 8.52245 8.09382 8.37954C7.38175 8.23663 6.72767 7.88389 6.2143 7.36592C5.70092 6.84794 5.35131 6.18801 5.20967 5.46956C5.06803 4.75111 5.14073 4.00642 5.41856 3.32966C5.6964 2.65289 6.1669 2.07445 6.77056 1.66749ZM17.103 20C16.9659 20 16.8343 19.9451 16.7374 19.8472C16.6404 19.7494 16.586 19.6167 16.586 19.4784V16.4737C16.586 15.7404 16.2973 15.0372 15.7834 14.5187C15.2695 14.0002 14.5725 13.7089 13.8458 13.7089H3.77424C3.04749 13.7089 2.35051 14.0002 1.83662 14.5187C1.32274 15.0372 1.03404 15.7404 1.03404 16.4737V19.4784C1.03404 19.6167 0.979566 19.7494 0.882606 19.8472C0.785646 19.9451 0.65414 20 0.517019 20C0.379897 20 0.248391 19.9451 0.151431 19.8472C0.0544715 19.7494 0 19.6167 0 19.4784V16.4737C0.00272894 15.4646 0.401247 14.4976 1.10846 13.784C1.81568 13.0705 2.77409 12.6684 3.77424 12.6656H13.8458C14.8396 12.6766 15.789 13.0827 16.4878 13.7956C17.1867 14.5086 17.5787 15.4709 17.5786 16.4737V19.4784C17.579 19.6098 17.5303 19.7365 17.4421 19.8332C17.3539 19.9299 17.2328 19.9895 17.103 20ZM23.1173 19.8472C23.2142 19.9451 23.3457 20 23.4829 20C23.5508 20 23.618 19.9865 23.6807 19.9603C23.7435 19.9341 23.8004 19.8957 23.8485 19.8472C23.8965 19.7988 23.9346 19.7413 23.9605 19.678C23.9865 19.6147 23.9999 19.5469 23.9999 19.4784V16.4737C23.9972 15.4646 23.5986 14.4976 22.8914 13.784C22.1842 13.0705 21.2258 12.6684 20.2257 12.6656H19.5329C19.3957 12.6656 19.2642 12.7206 19.1673 12.8184C19.0703 12.9163 19.0158 13.0489 19.0158 13.1873C19.0158 13.3256 19.0703 13.4583 19.1673 13.5561C19.2642 13.654 19.3957 13.7089 19.5329 13.7089H20.2257C20.9524 13.7089 21.6494 14.0002 22.1633 14.5187C22.6772 15.0372 22.9659 15.7404 22.9659 16.4737V19.4784C22.9659 19.6167 23.0203 19.7494 23.1173 19.8472Z" fill="#5D9C5A"/>
</svg>
