<svg width="32" height="32" viewBox="0 0 32 32" fill="none" xmlns="http://www.w3.org/2000/svg">
<path d="M22.9565 0H9.04348C4.05704 0 0 4.05704 0 9.04348V17.3913C0 22.3777 4.05704 26.4348 9.04348 26.4348H15.3043V31.3043C15.3043 31.5854 15.4734 31.8393 15.7336 31.9471C15.8198 31.9826 15.9103 32 16 32C16.1809 32 16.359 31.929 16.4918 31.7962L21.8532 26.4348H22.9565C27.943 26.4348 32 22.3777 32 17.3913V9.04348C32 4.05704 27.943 0 22.9565 0ZM30.6087 17.3913C30.6087 21.6104 27.1757 25.0435 22.9565 25.0435H21.5652C21.3802 25.0435 21.2035 25.1165 21.0734 25.2473L16.6957 29.625V25.7391C16.6957 25.3551 16.3847 25.0435 16 25.0435H9.04348C4.82435 25.0435 1.3913 21.6104 1.3913 17.3913V9.04348C1.3913 4.82435 4.82435 1.3913 9.04348 1.3913H22.9565C27.1757 1.3913 30.6087 4.82435 30.6087 9.04348V17.3913Z" fill="#5D9C5A"/>
<path d="M16 15.3055C16.3847 15.3055 16.6956 14.9939 16.6956 14.6099V6.26206C16.6956 5.87806 16.3847 5.56641 16 5.56641C15.6153 5.56641 15.3043 5.87806 15.3043 6.26206V14.6099C15.3043 14.9939 15.6153 15.3055 16 15.3055Z" fill="#5D9C5A"/>
<path d="M16.0001 20.8685C16.7685 20.8685 17.3914 20.2456 17.3914 19.4772C17.3914 18.7088 16.7685 18.0859 16.0001 18.0859C15.2317 18.0859 14.6088 18.7088 14.6088 19.4772C14.6088 20.2456 15.2317 20.8685 16.0001 20.8685Z" fill="#5D9C5A"/>
<path d="M27.1304 15.3047C26.7457 15.3047 26.4348 15.6163 26.4348 16.0003V17.3916C26.4348 19.3096 24.8744 20.8699 22.9565 20.8699H21.5652C21.1805 20.8699 20.8695 21.1816 20.8695 21.5656C20.8695 21.9496 21.1805 22.2612 21.5652 22.2612H22.9565C25.641 22.2612 27.8261 20.0769 27.8261 17.3916V16.0003C27.8261 15.6163 27.5151 15.3047 27.1304 15.3047Z" fill="#5D9C5A"/>
<path d="M10.4347 4.17578H9.04344C6.35892 4.17578 4.17387 6.36013 4.17387 9.04535V10.4367C4.17387 10.8207 4.48483 11.1323 4.86953 11.1323C5.25422 11.1323 5.56518 10.8207 5.56518 10.4367V9.04535C5.56518 7.12743 7.12553 5.56709 9.04344 5.56709H10.4347C10.8194 5.56709 11.1304 5.25543 11.1304 4.87143C11.1304 4.48743 10.8194 4.17578 10.4347 4.17578Z" fill="#5D9C5A"/>
</svg>
